<svg width="289" height="87" viewBox="0 0 289 87" fill="none" xmlns="http://www.w3.org/2000/svg">
<path fill-rule="evenodd" clip-rule="evenodd" d="M207.787 11.5192C221.665 11.195 232.776 12.9555 243.897 14.9858C280.372 21.6549 292.959 33.7368 268.67 47.0542C230.898 67.7104 141.655 83.7725 71.8422 80.7346C56.3815 80.068 35.4737 79.7675 19.9365 74.149C5.48343 68.9251 5.80511 62.0251 12.074 55.4016C18.4551 48.6125 31.0209 42.1002 41.0634 37.8366C84.9713 19.231 173.63 0.399532 254.676 5.29084C256.342 5.38097 257.991 5.04805 258.446 4.54387C258.901 4.03969 258.05 3.55183 256.503 3.45702C173.077 -1.57619 81.586 17.6962 36.3935 36.8443C23.8992 42.1596 7.62101 50.852 3.2071 59.3558C0.230495 65.1663 2.71136 70.8883 15.239 75.4572C31.7405 81.4441 53.9594 81.8683 70.3717 82.5803C142.444 85.7193 234.754 69.1696 273.687 47.8389C299.836 33.5235 286.501 20.5171 247.276 13.3495C235.317 11.1424 223.134 9.30792 208.069 9.66039C206.409 9.69957 205.002 10.1476 205.022 10.6568C204.924 11.1706 206.245 11.5537 207.787 11.5192Z" fill="#4894FF" fill-opacity="0.8"/>
</svg>
