<svg width="241" height="286" viewBox="0 0 241 286" fill="none" xmlns="http://www.w3.org/2000/svg">
<path d="M65.0628 179.464L67.3564 162.763C67.3564 162.763 73.7118 161.411 75.1649 156.179C75.6895 154.13 76.059 152.049 76.2708 149.951C76.5174 147.775 75.8799 145.592 74.4836 143.831C73.0874 142.07 71.0333 140.859 68.7255 140.435C59.2112 138.731 49.4945 138.221 39.8345 138.918C36.8103 139.141 33.9498 140.286 31.6975 142.177C29.4452 144.067 27.9271 146.597 27.3791 149.372C26.0123 156.244 24.2417 166.438 23.0231 178.204L54.6455 186.412L65.0628 179.464Z" fill="#FFCAC0"/>
<path d="M166.211 281.84H100.737C100.737 281.84 92.9788 182.77 148.51 145.026L192.575 148.177C192.575 148.177 195.666 223.484 166.211 281.84Z" fill="#A7B7EA"/>
<path d="M105.599 163.605C96.9093 168.708 88.9071 174.759 81.7634 181.631L63.2355 208.671L65.0636 179.457L23.0227 178.197C23.0227 178.197 17.9777 225.176 14.8525 264.091C14.6704 266.357 14.9931 268.633 15.8003 270.778C16.6075 272.922 17.8819 274.888 19.5436 276.553C21.2053 278.218 23.2187 279.546 25.4576 280.454C27.6965 281.362 30.1128 281.831 32.5553 281.83H48.2355C55.9556 280.557 62.791 280.228 67.8238 281.83H100.737C100.737 281.83 102.587 265.411 104.803 254.475L123.102 167.687L105.599 163.605Z" fill="#F7F7F7"/>
<path d="M218.946 187.247C225.139 200.26 238.164 233.69 236.529 281.84H166.211L173.908 256.35L197.629 186.767L218.946 187.247Z" fill="#F7F7F7"/>
<path d="M193.073 132.834C192.748 137.561 192.52 142.854 192.578 148.177C192.578 148.177 187.434 159.595 163.205 172.104C163.205 172.104 152.454 162.315 148.514 145.026L155.75 139.995C169.905 135.041 193.073 132.834 193.073 132.834Z" fill="#FFCAC0"/>
<path d="M158.426 183.882L157.32 183.779C156.336 183.692 155.346 183.891 154.489 184.349C153.631 184.807 152.948 185.502 152.534 186.338L123.701 244.451C122.926 246.004 122.716 247.749 123.104 249.423C124.657 256.016 127.163 262.383 130.556 268.35C130.954 269.031 131.62 269.543 132.414 269.778C133.208 270.014 134.069 269.955 134.818 269.615C139.591 267.464 149.445 262.163 156.032 252.732C156.743 251.72 157.2 250.572 157.369 249.373C158.332 242.394 161.917 215.015 162.742 188.45C162.781 187.321 162.357 186.22 161.555 185.372C160.753 184.524 159.635 183.991 158.426 183.882Z" fill="#3C3C4F"/>
<path d="M85.9402 66.9759L78.1427 81.4525C77.9383 81.8321 77.8685 82.2623 77.9435 82.6811C78.0184 83.0999 78.2341 83.4859 78.5596 83.7835L92.1308 96.1883C92.404 96.4378 92.6008 96.7503 92.7013 97.0939C92.8017 97.4374 92.8021 97.7996 92.7023 98.1434C92.6026 98.4871 92.4064 98.8 92.1338 99.0499C91.8612 99.2998 91.522 99.4778 91.151 99.5655L71.5063 104.225C71.0664 104.33 70.6731 104.56 70.3822 104.884C70.0913 105.208 69.9178 105.61 69.8862 106.031L68.7803 120.717C68.7535 121.074 68.6245 121.418 68.4066 121.714C68.1887 122.009 67.8899 122.244 67.5412 122.396C67.1925 122.547 66.8065 122.609 66.4233 122.575C66.0402 122.541 65.6738 122.413 65.3621 122.203L46.6109 109.581C46.3391 109.398 46.0251 109.276 45.6939 109.226C45.3628 109.176 45.0236 109.198 44.7032 109.291L18.5117 116.894C18.1251 117.006 17.7124 117.014 17.3207 116.919C16.9291 116.823 16.5743 116.626 16.2969 116.352C16.0195 116.078 15.8307 115.736 15.752 115.367C15.6734 114.997 15.7081 114.614 15.8521 114.262L23.0967 96.569C23.2452 96.2066 23.2776 95.8119 23.1901 95.4328C23.1026 95.0536 22.8988 94.7061 22.6035 94.4324L6.78948 79.7613C6.51063 79.5015 6.31375 79.1754 6.22029 78.8187C6.12684 78.462 6.14037 78.0882 6.25942 77.7382C6.37849 77.3881 6.59851 77.0751 6.89554 76.8333C7.19256 76.5915 7.55521 76.4301 7.944 76.3667L29.6645 72.8589C30.1482 72.7808 30.5889 72.5516 30.9138 72.2092C31.2387 71.8668 31.4284 71.4316 31.4516 70.9754L32.4922 50.4018C32.5115 50.0249 32.6445 49.6607 32.876 49.351C33.1076 49.0412 33.4282 48.7984 33.8013 48.6503C34.1743 48.5023 34.5847 48.455 34.9853 48.5139C35.3859 48.5727 35.7606 48.7354 36.0664 48.9832L57.7304 66.5469C57.9606 66.7336 58.2307 66.8727 58.523 66.955C58.8152 67.0372 59.1229 67.0608 59.4257 67.0242L83.7395 64.0904C84.1266 64.0455 84.5196 64.099 84.8767 64.2453C85.2337 64.3916 85.5415 64.6251 85.7673 64.9211C85.993 65.2171 86.1283 65.5645 86.1588 65.9263C86.1892 66.2881 86.1137 66.6508 85.9402 66.9759Z" fill="#FFBE71"/>
<path d="M194.903 115.45C194.903 115.45 193.76 122.896 193.075 132.835C175.119 141.805 155.75 139.996 155.75 139.996V125.794L194.903 115.45Z" fill="#E5837C"/>
<path d="M206.54 91.5686L201.087 114.064C201.087 114.064 194.587 121.746 176.884 127.704C156.329 115.03 140.501 99.938 140.483 81.325C142.403 74.5975 144.428 67.4276 146.29 60.6918L216.901 54.9312L206.54 91.5686Z" fill="#FFCAC0"/>
<path d="M164.922 130.988C164.922 130.988 147.477 134.312 137.828 122.95C135.641 120.306 134.149 117.223 133.47 113.947C132.792 110.672 132.945 107.294 133.919 104.084C135.461 98.7859 137.873 90.4639 140.481 81.3251C141.389 82.5129 142.393 83.6353 143.483 84.6827C144.507 85.649 145.797 86.3342 147.212 86.6628C148.627 86.9915 150.111 86.9509 151.503 86.5456C153.561 85.9081 155.769 85.8197 157.878 86.2905C160.251 87.1604 162.391 88.5018 164.149 90.2211C167.505 93.6412 171.982 95.9343 176.884 96.744C183.495 97.7459 188.642 98.0247 188.642 98.0247C177.447 109.225 176.883 127.699 176.883 127.699C172.968 129.01 168.974 130.108 164.922 130.988Z" fill="#BDF2DC"/>
<path d="M175.661 82.3784C176.509 82.3796 177.324 82.0762 177.937 81.5314C178.55 80.9866 178.912 80.2427 178.949 79.455C178.987 78.6673 178.695 77.8967 178.136 77.3042C177.577 76.7116 176.793 76.343 175.948 76.2752L171.627 75.9162C171.193 75.8746 170.755 75.9135 170.338 76.0306C169.921 76.1478 169.533 76.3409 169.197 76.5987C168.861 76.8566 168.583 77.174 168.38 77.5325C168.177 77.891 168.053 78.2835 168.014 78.6872C167.975 79.0909 168.023 79.4977 168.155 79.8839C168.287 80.2702 168.5 80.6282 168.782 80.9372C169.064 81.2462 169.409 81.5 169.797 81.6838C170.186 81.8677 170.609 81.9779 171.044 82.0081L175.366 82.3671C175.465 82.3743 175.567 82.3784 175.661 82.3784Z" fill="#E5837C"/>
<path d="M156.795 77.5178C157.478 77.5182 158.143 77.3211 158.7 76.9538C159.256 76.5866 159.676 76.0675 159.901 75.4684C160.126 74.8693 160.145 74.2199 159.956 73.6102C159.766 73.0005 159.377 72.4608 158.843 72.0658L156.004 69.9642C155.319 69.4842 154.46 69.2719 153.61 69.3725C152.76 69.473 151.985 69.8786 151.451 70.5026C150.918 71.1266 150.667 71.9199 150.753 72.7132C150.839 73.5065 151.255 74.2372 151.912 74.7496L154.753 76.8512C155.333 77.2827 156.053 77.5178 156.795 77.5178Z" fill="#E5837C"/>
<path d="M146.29 60.6916C147.598 55.9597 148.827 51.4417 149.882 47.4453L216.897 54.93L213.089 68.3944C210.413 69.7248 207.657 70.9117 204.836 71.9495C182.108 80.3579 181.591 65.4534 181.591 65.4534C166.839 71.8384 152.942 63.2716 146.29 60.6916Z" fill="#E5837C"/>
<path d="M204.235 64.6161C204.235 64.6161 194.464 87.0197 205.333 103.576C205.333 103.576 225.002 100.873 231.265 78.7234C237.529 56.5739 222.917 50.0232 222.917 50.0232C222.917 50.0232 226.059 31.364 200.161 23.7507C178.154 17.2824 153.418 7.25069 146.475 4.38067C146.221 4.27592 145.946 4.22188 145.667 4.22205C145.389 4.22221 145.114 4.27658 144.86 4.38164C144.606 4.48669 144.379 4.64011 144.192 4.83201C144.006 5.0239 143.864 5.25001 143.778 5.49576C142.305 9.59196 140.025 19.528 148.396 27.8181L138.996 24.3988C138.7 24.29 138.38 24.2489 138.063 24.2788C137.746 24.3088 137.442 24.409 137.175 24.5711C136.909 24.7331 136.688 24.9522 136.532 25.2101C136.375 25.4679 136.287 25.757 136.275 26.0529C135.958 34.8029 139.009 62.6009 191.86 55.6954C190.981 57.5724 190.359 59.5448 190.009 61.566C189.866 62.3754 189.92 63.2042 190.167 63.9914C190.414 64.7787 190.848 65.5043 191.437 66.1148C192.026 66.7253 192.754 67.2051 193.569 67.5188C194.384 67.8325 195.264 67.9721 196.144 67.9274C199.196 67.8223 202.089 66.6379 204.235 64.6161Z" fill="#5C5C6D"/>
<path d="M197.189 106.527C196.593 109.054 197.027 111.697 198.405 113.944C199.784 116.192 202.009 117.884 204.651 118.693C206.776 119.345 209.09 119.211 211.113 118.319C218.964 114.855 220.321 102.391 220.321 102.391C220.321 102.391 222.137 93.409 213.277 91.4658C209.479 90.6325 206.211 92.2383 203.716 94.3461C200.575 97.0605 198.441 100.632 197.621 104.546L197.189 106.527Z" fill="#FFCAC0"/>
<path d="M207.047 99.6704C208.349 98.4493 210.113 97.7519 211.962 97.7282C212.349 97.7443 212.715 97.9019 212.978 98.1669C213.242 98.4319 213.382 98.7829 213.369 99.1437C213.355 99.506 213.188 99.8486 212.906 100.098C212.623 100.348 212.247 100.486 211.858 100.481C210.763 100.601 209.74 101.048 208.942 101.755C208.144 102.463 207.615 103.392 207.434 104.403C207.434 104.403 209.453 104.152 209.425 106.894C209.396 109.635 208.188 111.325 204.867 111.139C204.512 111.094 204.187 110.931 203.951 110.68C203.715 110.429 203.584 110.107 203.583 109.774C203.568 105.138 204.735 101.736 207.047 99.6704Z" fill="#E5837C"/>
<path d="M173.908 256.35L197.629 186.767L215.801 181.199C215.801 181.199 217.057 183.287 218.943 187.248L208.651 196.056L221.755 222.69C221.755 222.69 203.829 244.638 173.908 256.35Z" fill="#A7BAD6"/>
<path d="M86.9565 188.381L107.825 175.177L105.602 163.607C110.467 160.737 113.693 159.249 113.693 159.249L123.102 167.697L104.803 254.486C84.4307 225.11 86.9565 188.381 86.9565 188.381Z" fill="#A7BAD6"/>
<path d="M192.579 148.177C192.579 148.177 189.934 200.882 173.908 256.35C173.908 256.35 197.658 235.075 212.567 218.972L201.052 194.52L215.801 181.2C215.801 181.2 201.633 157.499 192.579 148.177Z" fill="#F7F7F7"/>
<path d="M148.514 145.026C148.514 145.026 115.873 192.914 104.803 254.486C104.803 254.486 96.8965 229.479 94.8639 191.443L115.195 177.153L113.694 159.254C113.694 159.254 131.812 150.011 148.514 145.026Z" fill="#F7F7F7"/>
<path d="M196.414 146.821C205.626 156.883 218.59 178.504 219.157 179.454C220.204 181.186 242.506 218.942 240.364 281.94C240.333 282.866 239.916 283.744 239.201 284.389C238.486 285.034 237.529 285.394 236.534 285.395C236.493 285.395 236.452 285.395 236.41 285.395C235.907 285.38 235.411 285.273 234.952 285.08C234.493 284.887 234.08 284.612 233.735 284.271C233.391 283.929 233.122 283.528 232.944 283.09C232.766 282.652 232.683 282.185 232.698 281.717C234.374 232.436 220.286 198.566 214.689 187.167L205.633 195.345L216.081 217.533C216.371 218.149 216.467 218.828 216.36 219.493C216.253 220.159 215.945 220.782 215.473 221.291C202.101 235.735 181.479 254.48 177.321 258.233L169.911 282.797C169.775 283.248 169.545 283.67 169.234 284.038C168.922 284.406 168.536 284.714 168.097 284.943C167.21 285.407 166.162 285.523 165.182 285.268C164.697 285.141 164.244 284.927 163.848 284.637C163.452 284.347 163.121 283.988 162.875 283.58C162.628 283.171 162.471 282.721 162.411 282.256C162.351 281.791 162.39 281.319 162.526 280.868L170.211 255.388C181.491 216.343 186.116 178.315 187.838 159.75C181.066 165.872 173.401 171.076 165.069 175.209C164.346 175.581 163.514 175.726 162.696 175.623C161.878 175.52 161.117 175.174 160.527 174.637C160.132 174.278 152.282 167.007 147.299 154.047C138.051 169.51 116.957 208.525 108.593 255.063C108.593 255.076 108.584 255.088 108.582 255.101C108.58 255.114 108.582 255.124 108.582 255.136C106.421 265.799 104.58 282.039 104.561 282.202C104.509 282.668 104.358 283.12 104.118 283.531C103.877 283.943 103.552 284.307 103.161 284.602C102.769 284.897 102.319 285.118 101.836 285.251C101.353 285.384 100.847 285.428 100.346 285.379C99.845 285.33 99.3592 285.19 98.9164 284.966C98.4736 284.743 98.0824 284.44 97.7653 284.076C97.4481 283.712 97.2112 283.294 97.0679 282.844C96.9247 282.395 96.878 281.924 96.9305 281.458C97.0068 280.782 98.8204 264.786 101.039 253.833C109.388 207.451 130.091 168.369 139.929 151.716C130.401 155.271 121.647 159.382 117.72 161.29L119.026 176.865C119.075 177.462 118.961 178.06 118.696 178.606C118.431 179.151 118.023 179.626 117.509 179.986L98.8016 193.133C99.453 204.131 100.656 215.063 102.38 225.659C102.464 226.126 102.448 226.604 102.332 227.064C102.215 227.525 102.002 227.96 101.703 228.343C101.405 228.726 101.027 229.05 100.592 229.296C100.158 229.542 99.675 229.706 99.1719 229.776C98.6689 229.847 98.1557 229.824 97.6623 229.709C97.1689 229.593 96.7051 229.388 96.2979 229.104C95.8908 228.82 95.5484 228.464 95.2908 228.056C95.0332 227.648 94.8654 227.196 94.7973 226.727C92.9134 215.086 91.6584 203.364 91.0373 191.606C91.0063 191.025 91.1284 190.446 91.393 189.919C91.6577 189.392 92.0568 188.933 92.5556 188.582L111.213 175.47L110.341 165.08C99.8456 170.956 75.9377 186.415 67.0343 209.41L65.9141 227.309C65.8571 228.217 65.4294 229.071 64.7184 229.695C64.0074 230.32 63.0667 230.668 62.0889 230.669C62.0137 230.669 61.9385 230.669 61.8677 230.663C61.3649 230.635 60.8727 230.516 60.4194 230.312C59.9661 230.108 59.5604 229.823 59.2256 229.473C58.8908 229.123 58.6335 228.715 58.4682 228.272C58.3029 227.83 58.2331 227.361 58.2625 226.894L59.4171 208.449L61.0162 182.894L26.4975 181.859C25.2976 193.253 21.2999 231.838 18.6867 264.35C18.5439 266.126 18.7968 267.91 19.4297 269.591C20.0625 271.272 21.0616 272.814 22.3644 274.119C23.6672 275.424 25.2457 276.465 27.001 277.177C28.7563 277.889 30.6506 278.255 32.5654 278.255H48.24C50.7846 278.247 53.267 277.522 55.3596 276.175C57.4523 274.828 59.0571 272.923 59.9623 270.711L71.4512 242.342C71.6235 241.897 71.8892 241.489 72.2327 241.141C72.5763 240.792 72.9909 240.511 73.4524 240.313C73.9139 240.114 74.4132 240.004 74.9211 239.987C75.4291 239.97 75.9356 240.047 76.4113 240.213C76.8869 240.38 77.3222 240.633 77.6918 240.958C78.0614 241.282 78.358 241.672 78.5643 242.104C78.7706 242.536 78.8825 243.002 78.8935 243.475C78.9045 243.947 78.8143 244.417 78.6283 244.857L67.1394 273.226C65.6805 276.793 63.0935 279.865 59.7197 282.036C56.3459 284.208 52.3438 285.377 48.2411 285.389H32.561C29.5908 285.39 26.6523 284.821 23.9296 283.717C21.207 282.613 18.7586 280.998 16.7379 278.973C14.7172 276.948 13.1676 274.557 12.1861 271.949C11.2046 269.341 10.8124 266.573 11.034 263.818C14.1139 225.461 19.1191 178.697 19.2108 177.846C20.4605 165.766 22.2929 155.333 23.6122 148.714C24.3127 145.163 26.2544 141.927 29.1356 139.509C32.0167 137.091 35.6759 135.626 39.5445 135.341C49.5492 134.623 59.6122 135.152 69.4661 136.914C72.7215 137.496 75.6217 139.197 77.5892 141.679C79.5566 144.16 80.4468 147.24 80.0825 150.305C79.8536 152.577 79.4508 154.831 78.8771 157.05C78.2993 158.91 77.2785 160.625 75.8905 162.067C74.5025 163.51 72.7829 164.643 70.8595 165.383L68.8833 179.784L68.1369 191.697C84.0548 169.291 109.965 156.982 111.912 156.079C113.19 155.43 130.326 146.791 146.719 141.81L151.917 138.2V134.408C145.189 133.383 139.103 130.086 134.823 125.15C132.269 122.066 130.524 118.47 129.725 114.649C128.926 110.828 129.096 106.886 130.222 103.136C131.763 97.8425 134.174 89.5266 136.78 80.394C139.993 69.132 142.652 59.6147 144.709 52.0024C143.635 51.2202 142.615 50.3753 141.656 49.4729C130.12 38.4845 132.615 23.5234 132.726 22.8918C132.819 22.3673 133.037 21.8687 133.363 21.4325C133.69 20.9963 134.117 20.6335 134.614 20.3706C135.11 20.1077 135.664 19.9514 136.234 19.9131C136.803 19.8749 137.375 19.9555 137.907 20.1493L139.606 20.7665C136.468 11.2101 140.876 2.49613 141.126 2.01368C141.562 1.17543 142.333 0.529018 143.275 0.212467C144.216 -0.104084 145.253 -0.065693 146.165 0.319442C146.46 0.443912 175.947 12.8693 201.319 20.3283C224.25 27.0734 226.769 42.1888 226.84 48.1089C231.338 51.2093 240.474 60.1794 234.978 79.6143C233.173 86.4905 229.412 92.7879 224.088 97.8456C224.414 99.511 224.428 101.216 224.13 102.886C223.888 104.932 222.04 117.441 212.765 121.531C211.104 122.267 209.286 122.649 207.446 122.648C206.122 122.644 204.806 122.457 203.541 122.094C202.124 121.691 200.783 121.087 199.565 120.303C199.085 120.663 198.559 121.044 197.985 121.445C196.985 129.872 196.46 138.342 196.414 146.821ZM71.4567 155.272C71.9355 153.392 72.2711 151.484 72.4608 149.56C72.6147 148.269 72.2398 146.972 71.4109 145.926C70.5821 144.881 69.3602 144.164 67.9887 143.919C58.814 142.281 49.4451 141.79 40.1307 142.459C37.9492 142.622 35.8866 143.451 34.2634 144.816C32.6401 146.181 31.5471 148.007 31.1543 150.01C30.0042 155.79 28.4538 164.539 27.2627 174.75L61.7062 175.778L63.5574 162.294C63.6627 161.577 63.9972 160.906 64.5176 160.367C65.0379 159.829 65.7202 159.449 66.4759 159.275C66.5168 159.27 70.6196 158.294 71.4567 155.272ZM208.08 218.323L197.538 195.94C197.225 195.274 197.138 194.535 197.288 193.821C197.439 193.108 197.819 192.455 198.38 191.948L211.007 180.547C208.19 175.974 201.729 165.687 195.716 157.725C193.119 187.059 188.2 216.175 181.001 244.837C188.736 237.649 199.614 227.305 208.08 218.323ZM164.022 167.554C181.474 158.038 187.425 149.512 188.741 147.326C188.706 139.619 189.228 132.027 189.77 126.269C186.55 127.879 177.22 132.421 159.588 134.995V139.983C159.588 140.538 159.449 141.085 159.182 141.581C158.915 142.077 158.527 142.508 158.049 142.84L152.821 146.475C154.91 154.16 158.727 161.344 164.022 167.554ZM142.404 88.4815C141.387 92.0294 140.431 95.3397 139.578 98.2848C141.975 100.637 144.747 102.631 147.797 104.196C149.319 99.2262 151.28 94.3822 153.658 89.7128C153.277 89.7838 152.914 89.8651 152.597 89.9525C150.889 90.4389 149.084 90.5592 147.319 90.3045C145.554 90.0497 143.873 89.4265 142.404 88.4815ZM161.363 92.6507C161.208 92.4975 161.049 92.3617 160.891 92.2218C157.684 98.4381 150.587 114.193 153.358 127.359C156.914 127.963 160.554 128.005 164.124 127.482C167.267 126.792 170.323 125.988 173.238 125.085C173.519 122.415 173.976 119.763 174.605 117.145C170.046 117.134 165.499 116.737 161.018 115.958C160.523 115.87 160.052 115.693 159.63 115.437C159.209 115.18 158.846 114.849 158.562 114.462C158.279 114.075 158.08 113.639 157.977 113.181C157.874 112.722 157.869 112.249 157.963 111.789C158.057 111.329 158.247 110.89 158.523 110.498C158.799 110.106 159.155 109.768 159.571 109.505C159.987 109.241 160.455 109.056 160.948 108.96C161.441 108.864 161.95 108.86 162.445 108.947C167.183 109.768 172.003 110.113 176.821 109.976C178.011 106.818 179.563 103.788 181.451 100.94C179.893 100.759 178.142 100.528 176.276 100.25C170.537 99.3242 165.291 96.6512 161.363 92.6507ZM140.842 120.728C142.072 122.173 143.547 123.421 145.21 124.424C144.89 120.065 145.161 115.687 146.016 111.391C142.909 109.96 139.997 108.19 137.34 106.119C136.747 108.645 136.754 111.26 137.359 113.783C137.964 116.306 139.152 118.676 140.842 120.728ZM227.561 77.8038C232.875 59.0077 221.694 53.4302 221.257 53.2183C220.523 52.8836 219.922 52.3415 219.54 51.6696C219.158 50.9977 219.014 50.2306 219.129 49.478C219.227 48.8361 221.264 33.6754 199.01 27.133C178.656 21.1492 155.771 12.0526 146.843 8.41105C145.777 12.4352 145.199 19.4179 151.197 25.3606C151.79 25.9512 152.151 26.7119 152.219 27.518C152.287 28.3241 152.058 29.1278 151.571 29.7973C151.084 30.4668 150.366 30.9625 149.536 31.203C148.706 31.4436 147.813 31.4147 147.003 31.1212L140.158 28.6298C140.408 32.9224 141.787 39.4206 147.205 44.5445C155.444 52.3357 170.293 54.893 191.336 52.1444C192.02 52.057 192.716 52.1427 193.352 52.3926C193.988 52.6425 194.54 53.0473 194.95 53.5643C195.36 54.0814 195.612 54.6916 195.68 55.3308C195.748 55.9699 195.63 56.6143 195.338 57.1962C194.613 58.7805 194.096 60.4405 193.799 62.1401C193.748 62.4247 193.766 62.7164 193.852 62.9936C193.939 63.2707 194.092 63.5261 194.299 63.7407C194.493 63.9456 194.735 64.1069 195.005 64.2124C195.276 64.3179 195.569 64.3648 195.862 64.3497C197.98 64.319 200 63.5168 201.489 62.1154C202.109 61.5253 202.93 61.1536 203.812 61.0635C204.694 60.9734 205.583 61.1706 206.326 61.6213C207.069 62.0721 207.622 62.7487 207.889 63.5357C208.156 64.3228 208.122 65.1718 207.792 65.938C205.65 71.3613 204.4 77.0544 204.085 82.8248C204.029 83.762 203.579 84.641 202.831 85.2712C202.083 85.9014 201.098 86.232 200.09 86.1914C199.082 86.1508 198.131 85.7423 197.445 85.0543C196.758 84.3663 196.391 83.4544 196.423 82.5162C196.616 78.7396 197.174 74.9869 198.091 71.3036C197.501 71.39 196.901 71.4493 196.289 71.4815C194.846 71.5583 193.404 71.3308 192.069 70.816C190.735 70.3012 189.543 69.5124 188.582 68.5086C187.604 67.4981 186.884 66.2947 186.477 64.9887C186.07 63.6827 185.986 62.3079 186.231 60.9674C186.299 60.5902 186.372 60.225 186.452 59.8718C172.076 61.1453 160.412 59.8204 151.554 55.9361C149.689 62.7789 147.383 71.0289 144.674 80.538C145.158 81.0894 145.677 81.6449 146.255 82.2045C146.79 82.6979 147.462 83.0442 148.196 83.2054C148.93 83.3666 149.697 83.3363 150.414 83.118C153.166 82.2729 156.122 82.1801 158.929 82.8505C159.001 82.869 159.071 82.8896 159.14 82.9122C162.101 83.966 164.769 85.6254 166.947 87.7676C169.721 90.6222 173.436 92.5397 177.508 93.2196C183.823 94.1763 188.822 94.454 188.872 94.4602H188.894C192.697 94.6896 198.205 94.0878 201.203 91.6529C201.214 91.6447 201.226 91.6395 201.236 91.6313C205.252 88.2778 209.72 87.0177 214.167 87.9898C216.508 88.4623 218.661 89.5308 220.386 91.0758C223.818 87.2087 226.27 82.6726 227.561 77.8038ZM205.775 115.269C206.986 115.664 208.316 115.597 209.475 115.083C214.279 112.965 216.183 104.931 216.511 102.019C216.521 101.937 216.538 101.826 216.553 101.743C216.799 100.406 217.226 95.9826 212.404 94.9231C211.68 94.7657 209.485 94.2822 206.299 96.9712L206.269 96.9907C206.26 96.999 206.254 97.0082 206.244 97.0165C201.315 101.019 194.203 101.625 190.358 101.625H190.344C184.711 107.989 182.359 116.582 181.386 122.155C186.11 120.257 190.554 117.802 194.607 114.852C193.856 113.381 193.379 111.802 193.197 110.183C193.091 109.241 193.392 108.3 194.033 107.565C194.674 106.83 195.602 106.361 196.614 106.263C197.626 106.165 198.638 106.445 199.428 107.041C200.218 107.637 200.722 108.501 200.827 109.442C200.944 110.759 201.477 112.014 202.358 113.051C203.239 114.088 204.429 114.859 205.779 115.269H205.775Z" fill="#3C3C4F"/>
<path d="M98.5702 99.6025C98.3932 100.213 98.0447 100.769 97.5604 101.214C97.0761 101.658 96.4735 101.974 95.8144 102.13L73.6316 107.393L72.3333 124.559C72.2853 125.194 72.0557 125.805 71.6685 126.329C71.2813 126.853 70.7505 127.271 70.1311 127.54C69.5117 127.81 68.8261 127.92 68.1455 127.86C67.4649 127.8 66.8138 127.572 66.2599 127.199L45.0426 112.916L15.4129 121.518C14.7259 121.717 13.9924 121.733 13.2963 121.563C12.6002 121.392 11.9695 121.044 11.4765 120.556C10.9835 120.068 10.6479 119.461 10.5082 118.805C10.3685 118.148 10.4302 117.468 10.6864 116.842L19.1253 96.2315L1.12614 79.5381C0.628654 79.0762 0.277138 78.4961 0.10997 77.861C-0.0571976 77.226 -0.0336075 76.5604 0.178192 75.937C0.389992 75.3136 0.781853 74.7563 1.31098 74.3259C1.84011 73.8956 2.48618 73.6087 3.17864 73.4966L27.6793 69.5403L28.8681 46.072C28.9016 45.4021 29.1374 44.7546 29.5485 44.2038C29.9596 43.6529 30.5293 43.221 31.1923 42.9576C31.8553 42.6943 32.5847 42.6101 33.2967 42.7149C34.0088 42.8196 34.6747 43.1089 35.218 43.5497L59.6777 63.3796L87.2693 60.0507C87.9591 59.9679 88.6601 60.0611 89.2973 60.3205C89.9344 60.5798 90.4838 60.9955 90.8865 61.523C91.2891 62.0505 91.53 62.6699 91.5832 63.315C91.6364 63.96 91.4999 64.6064 91.1885 65.1849L82.1203 82.0223L97.5528 96.1276C98.0384 96.5709 98.3885 97.1263 98.5673 97.7369C98.7461 98.3475 98.7471 98.9914 98.5702 99.6025ZM74.7552 85.2915C74.1766 84.7626 73.7932 84.0767 73.6601 83.3324C73.5269 82.5881 73.6509 81.8236 74.0143 81.149L81.1029 67.9891L58.9523 70.6636C58.4141 70.7284 57.8673 70.6863 57.3479 70.5402C56.8284 70.3941 56.3482 70.1473 55.9388 69.816L36.1569 53.7768L35.197 72.7364C35.1564 73.5471 34.8196 74.3206 34.2423 74.929C33.665 75.5375 32.8817 75.9445 32.022 76.0827L11.7846 79.3519L26.3025 92.8153C26.827 93.3019 27.1888 93.9194 27.3442 94.5932C27.4996 95.2669 27.442 95.9681 27.1783 96.6121L20.6636 112.522L44.5914 105.576C45.1607 105.411 45.7635 105.371 46.352 105.461C46.9405 105.55 47.4986 105.766 47.982 106.09L65.1651 117.657L66.1736 104.323C66.2298 103.575 66.5378 102.863 67.054 102.287C67.5701 101.711 68.2681 101.301 69.0489 101.116L87.3212 96.7819L74.7552 85.2915Z" fill="#3C3C4F"/>
</svg>
