<svg width="104" height="38" viewBox="0 0 104 38" fill="none" xmlns="http://www.w3.org/2000/svg">
<circle cx="27" cy="12" r="7" fill="#4894FF"/>
<path d="M9.996 30H0.896V27.592L3.332 26.472V13.536L0.896 12.416V10.008H9.996V12.416L7.56 13.536V26.472L9.996 27.592V30ZM30.9868 19.976C30.9868 22.048 30.6415 23.8587 29.9508 25.408C29.2788 26.9387 28.2428 28.1333 26.8428 28.992C25.4428 29.8507 23.6508 30.28 21.4668 30.28C19.3015 30.28 17.5095 29.8507 16.0908 28.992C14.6908 28.1333 13.6455 26.9293 12.9548 25.38C12.2828 23.8307 11.9468 22.02 11.9468 19.948C11.9468 17.876 12.2828 16.0747 12.9548 14.544C13.6455 13.0133 14.6908 11.828 16.0908 10.988C17.5095 10.1293 19.3108 9.7 21.4948 9.7C23.6601 9.7 25.4428 10.1293 26.8428 10.988C28.2428 11.828 29.2788 13.0227 29.9508 14.572C30.6415 16.1027 30.9868 17.904 30.9868 19.976ZM16.3988 19.976C16.3988 22.0667 16.8001 23.7187 17.6028 24.932C18.4055 26.1267 19.6935 26.724 21.4668 26.724C23.2775 26.724 24.5748 26.1267 25.3588 24.932C26.1428 23.7187 26.5348 22.0667 26.5348 19.976C26.5348 17.8667 26.1428 16.2147 25.3588 15.02C24.5748 13.8253 23.2868 13.228 21.4948 13.228C19.7028 13.228 18.4055 13.8253 17.6028 15.02C16.8001 16.2147 16.3988 17.8667 16.3988 19.976ZM52.292 30H46.916L38.208 14.88H38.096C38.1333 15.832 38.1706 16.784 38.208 17.736C38.264 18.688 38.3106 19.64 38.348 20.592V30H34.568V10.008H39.916L48.596 24.988H48.68C48.6613 24.0547 48.6333 23.1307 48.596 22.216C48.5586 21.3013 48.5213 20.3867 48.484 19.472V10.008H52.292V30ZM72.8573 30H68.0413L62.8053 21.572L61.0133 22.86V30H56.7853V10.008H61.0133V19.164C61.2933 18.772 61.5733 18.38 61.8533 17.988C62.1333 17.596 62.4133 17.204 62.6933 16.812L68.0973 10.008H72.8013L65.8293 18.856L72.8573 30ZM82.2951 30H73.1951V27.592L75.6311 26.472V13.536L73.1951 12.416V10.008H82.2951V12.416L79.8591 13.536V26.472L82.2951 27.592V30ZM101.718 19.808C101.718 23.1867 100.757 25.7347 98.8339 27.452C96.9299 29.1507 94.2512 30 90.7979 30H85.1419V10.008H91.4139C93.5045 10.008 95.3152 10.3813 96.8459 11.128C98.3952 11.8747 99.5899 12.976 100.43 14.432C101.289 15.8693 101.718 17.6613 101.718 19.808ZM97.3219 19.92C97.3219 17.6987 96.8365 16.0747 95.8659 15.048C94.8952 14.0027 93.4859 13.48 91.6379 13.48H89.3699V26.5H91.1899C95.2779 26.5 97.3219 24.3067 97.3219 19.92Z" fill="#383838"/>
<circle cx="16.5" cy="28.5" r="4.5" fill="#4894FF"/>
</svg>
