<svg width="375" height="354" viewBox="0 0 375 354" fill="none" xmlns="http://www.w3.org/2000/svg">
<path opacity="0.5" fill-rule="evenodd" clip-rule="evenodd" d="M5.33315 261.935C14.7086 213.654 109.577 241.159 171.771 226.233C233.965 211.306 307.547 141.792 356.244 175.844C404.941 209.895 353.128 292.208 241.437 310.783C129.746 329.358 -4.04226 310.216 5.33315 261.935Z" fill="#F2F2F2"/>
<g opacity="0.5">
<path opacity="0.5" fill-rule="evenodd" clip-rule="evenodd" d="M30.1115 36.4354C29.2071 37.3383 29.5584 40.5475 29.5395 41.735C29.5104 43.5839 29.6254 45.4162 29.78 47.2583C29.8835 48.4918 30.4673 60.2625 32.092 59.3584C33.0079 58.8491 32.4337 55.4441 32.4321 54.3671C32.4283 51.9727 32.3288 49.5842 32.1691 47.1952C32.0207 44.9772 31.9275 42.7851 32.013 40.5629C32.0338 40.0205 32.5412 34.0013 30.1115 36.4354Z" fill="#89C5CC"/>
<path opacity="0.5" fill-rule="evenodd" clip-rule="evenodd" d="M69.4972 34.9844C61.7276 35.0462 53.9611 35.4295 46.1951 35.6643C42.4582 35.7773 38.7236 35.9209 34.9907 36.128C33.7187 36.1987 30.9905 35.7914 29.9308 36.4692C27.5782 37.9739 31.3723 38.3257 32.3837 38.2889C47.7525 37.7317 63.1266 36.9977 78.5085 36.963C86.0539 36.9462 93.5956 37.161 101.142 37.1128C104.026 37.0944 107.221 35.8516 107.949 39.2092C108.771 42.998 107.827 47.2164 107.57 51.0236C107.398 53.5651 107.459 56.0539 107.574 58.5932C107.647 60.22 107.456 62.0531 107.743 63.6496C108.02 65.1868 109.125 66.1087 110.138 64.3868C110.744 63.3577 110.442 60.817 110.483 59.6249C110.537 58.0194 110.486 56.4145 110.486 54.8087C110.485 50.8893 111.039 46.9854 110.966 43.0668C110.919 40.5399 110.784 35.9591 107.597 35.3519C104.088 34.6832 99.774 35.3557 96.1826 35.3146C87.2835 35.2131 78.3993 34.9148 69.4972 34.9844Z" fill="#89C5CC"/>
<path opacity="0.5" fill-rule="evenodd" clip-rule="evenodd" d="M48.0879 59.4991C45.1581 59.4991 42.2282 59.5167 39.2987 59.5652C36.7862 59.6068 32.836 59.0831 30.4976 59.9821C28.8967 60.5974 28.4715 62.3847 30.4976 62.8607C32.7073 63.3801 36.0377 62.531 38.3497 62.4902C49.9431 62.2856 61.6481 62.0188 73.2252 62.752C84.0733 63.4388 95.1304 64.1048 105.994 63.3799C106.908 63.3188 111.57 63.1333 109.443 61.3858C108.202 60.3658 103.172 61.0367 101.559 60.9879C95.8703 60.8163 90.1759 60.7781 84.4889 60.5625C78.8761 60.3496 73.2882 59.7185 67.6736 59.5623C61.1505 59.3808 54.613 59.4991 48.0879 59.4991Z" fill="#89C5CC"/>
<path opacity="0.5" fill-rule="evenodd" clip-rule="evenodd" d="M45.1563 42.8356C49.7227 43.035 54.2404 49.6574 49.6202 52.858C45.2858 55.8611 37.1624 52.5699 39.5727 46.7465C39.2262 47.5884 40.0107 45.8318 40.0206 45.8201C40.4789 45.2801 41.3019 44.6823 41.8668 44.2567C42.5133 43.7695 43.1865 43.2333 43.966 42.9892C44.4778 42.829 44.3974 43.4318 45.1563 42.8356ZM42.9324 40.4471C40.7953 41.2816 39.8198 42.2229 38.3511 43.9262C37.3349 45.105 36.0394 45.7252 36.0509 47.3182C36.0533 47.6708 36.5063 48.0583 36.5845 48.3978C36.6926 48.8672 36.5674 49.4684 36.6531 49.9671C37.5372 55.1125 43.6764 56.8472 48.1701 55.8758C52.0846 55.0296 55.0122 51.272 54.1054 47.186C53.1924 43.0728 47.093 38.8198 42.9324 40.4471Z" fill="#89C5CC"/>
<path opacity="0.5" fill-rule="evenodd" clip-rule="evenodd" d="M41.0288 47.63C41.0288 49.4809 43.9526 49.4809 43.9526 47.63C43.9526 45.8001 41.0288 45.7214 41.0288 47.63Z" fill="#89C5CC"/>
<path opacity="0.5" fill-rule="evenodd" clip-rule="evenodd" d="M44.6865 47.2554C44.6865 48.7263 47.0097 48.7263 47.0097 47.2554C47.0097 45.8012 44.6865 45.7391 44.6865 47.2554Z" fill="#89C5CC"/>
<path opacity="0.5" fill-rule="evenodd" clip-rule="evenodd" d="M45.4064 50.2887C44.6624 50.5747 43.7188 49.9817 43.108 50.3724C42.0264 51.0648 43.1107 51.6914 43.6905 51.9696C46.301 53.2223 46.7654 49.7682 45.4064 50.2887Z" fill="#89C5CC"/>
<path opacity="0.5" fill-rule="evenodd" clip-rule="evenodd" d="M85.2737 46.1864C85.196 46.2194 84.919 46.3367 85.2737 46.1864V46.1864ZM73.9056 44.5249C71.9519 44.966 70.3022 46.7906 68.1794 46.5464C66.5527 46.3593 65.4512 44.7896 63.8453 44.5614C61.7909 44.2693 56.1998 48.9557 59.1394 49.7598C60.8545 50.2292 61.8059 47.0949 63.321 46.9284C64.5196 46.7967 66.1496 48.2665 67.3917 48.4758C69.7087 48.8662 71.3 47.5899 73.3341 46.7668C75.5444 45.8724 76.802 46.6778 78.7243 47.6719C80.2416 48.4566 81.6705 48.9675 83.4067 48.6437C85.0361 48.3401 87.0831 46.6645 88.7232 46.8364C90.3297 47.0048 91.4762 48.6812 93.1286 48.8369C93.8098 48.9008 94.8239 49.133 94.7094 48.0818C94.6178 47.2402 93.6787 47.3828 93.0912 47.0768C91.5803 46.29 90.1671 44.8964 88.3436 45.0153C86.972 45.1049 85.7233 46.0686 84.4593 46.5296C80.3195 48.0395 77.9923 43.6084 73.9056 44.5249Z" fill="#89C5CC"/>
<path opacity="0.5" fill-rule="evenodd" clip-rule="evenodd" d="M77.3639 71.1851C69.3786 71.2584 61.3662 71.377 53.4033 72.0171C51.5154 72.1688 32.2389 73.9888 32.2754 74.12C32.343 74.3625 34.8224 74.7329 34.8069 74.7902C34.6398 74.3758 34.2578 74.2042 33.6611 74.2759C51.9434 74.2759 70.1676 72.6389 88.4739 72.9334C93.0736 73.0072 97.6907 72.9763 102.287 73.1213C103.435 73.1576 106.278 73.98 107.179 73.4619C109.544 72.1019 105.248 71.9449 104.536 71.8879C95.5271 71.1672 86.3981 71.095 77.3639 71.1851Z" fill="#69A1AC"/>
<path opacity="0.5" fill-rule="evenodd" clip-rule="evenodd" d="M29.9087 75.0649C28.7149 76.2619 29.8142 80.5677 29.8612 82.186C29.9292 84.5257 29.8732 86.882 30.0785 89.2156C30.3128 91.8813 30.6764 94.7213 31.3758 97.3076C31.761 98.7324 33.1131 100.997 33.6488 98.4078C34.0314 96.5587 33.4505 94.1057 33.2484 92.2219C32.978 89.702 32.9126 87.2152 32.9025 84.683C32.8934 82.4765 32.851 80.2609 32.67 78.0614C32.576 76.9194 32.0015 72.9832 29.9087 75.0649Z" fill="#69A1AC"/>
<path opacity="0.5" fill-rule="evenodd" clip-rule="evenodd" d="M59.9435 96.9932C54.2768 97.0905 48.5978 97.224 42.9407 97.578C40.622 97.7232 38.3052 97.9394 35.9951 98.1846C35.5237 98.2344 30.306 98.4463 32.6375 100.372C33.6898 101.241 38.0185 100.039 39.4483 99.914C41.8529 99.7032 44.257 99.5662 46.6686 99.4641C52.2563 99.2269 57.861 99.0174 63.4543 99.1144C73.6692 99.2917 83.8184 99.3708 94.0362 99.1429C95.4879 99.1107 106.861 99.4145 107.247 97.9042C107.559 96.687 103.491 97.2453 102.75 97.2675C100.029 97.3488 97.3087 97.3298 94.5872 97.316C83.0587 97.2568 71.4632 96.7984 59.9435 96.9932Z" fill="#69A1AC"/>
<path opacity="0.5" fill-rule="evenodd" clip-rule="evenodd" d="M105.322 73.0454C105.502 78.0909 106.361 83.1304 106.636 88.191C106.761 90.5044 106.909 92.8156 107.022 95.1298C107.059 95.8763 106.758 97.675 107.641 98.1044C108.851 98.6934 109.015 97.5066 109.241 96.7038C109.896 94.3852 109.453 91.3733 109.394 88.9917C109.336 86.6852 109.332 84.3748 109.162 82.0726C108.988 79.7206 108.514 77.4131 108.295 75.0694C108.202 74.0782 108.527 72.4287 107.474 71.8136C106.565 71.2819 105.282 71.9519 105.322 73.0454Z" fill="#69A1AC"/>
<path opacity="0.5" fill-rule="evenodd" clip-rule="evenodd" d="M49.6239 81.4383C49.6455 81.4549 49.6669 81.4716 49.6882 81.4884C49.6669 81.4716 49.6453 81.4551 49.6239 81.4383ZM44.8082 79.9434C46.604 80.4565 48.0788 80.2651 49.7942 81.5724C51.2162 82.6563 52.6748 84.2421 53.1465 85.9947C54.2362 90.0439 50.5419 92.2629 47.0786 92.3066C43.5312 92.3511 38.2804 91.5284 38.4622 86.9813C38.6015 83.4878 41.1524 80.0791 44.8082 79.9434ZM44.9348 77.6551C40.2782 77.887 36.522 83.1163 36.5623 87.5181C36.6109 92.853 42.6559 94.2274 46.9499 94.2644C51.7963 94.306 56.6291 90.9596 55.3304 85.5096C54.2898 81.143 49.4128 77.4225 44.9348 77.6551Z" fill="#69A1AC"/>
<path opacity="0.5" fill-rule="evenodd" clip-rule="evenodd" d="M40.2505 84.8181C40.2505 86.3058 42.6009 86.3058 42.6009 84.8181C42.6009 83.3474 40.2505 83.2843 40.2505 84.8181Z" fill="#69A1AC"/>
<path opacity="0.5" fill-rule="evenodd" clip-rule="evenodd" d="M45.1807 84.1653C45.1807 85.6647 47.5498 85.6647 47.5498 84.1653C47.5498 82.683 45.1807 82.6193 45.1807 84.1653Z" fill="#69A1AC"/>
<path opacity="0.5" fill-rule="evenodd" clip-rule="evenodd" d="M42.4626 87.5584C40.9327 89.0858 46.3071 91.7635 47.5745 89.6385C48.6156 87.8934 46.349 88.472 45.5455 88.3776C44.6723 88.2748 43.1753 86.8476 42.4626 87.5584Z" fill="#69A1AC"/>
<path opacity="0.5" fill-rule="evenodd" clip-rule="evenodd" d="M85.4314 84.1961C85.2841 84.2579 85.2841 84.2579 85.4314 84.1961V84.1961ZM65.2491 81.7095C63.7 82 58.6163 83.715 58.5477 85.5529C58.4223 88.8935 63.4011 85.4719 64.4822 85.0324C67.4191 83.839 68.9623 86.2736 71.9126 86.4021C74.475 86.5137 76.831 84.3208 79.2447 84.5802C81.7738 84.8517 82.9902 87.5422 85.9098 86.1137C87.4543 85.3581 87.4154 84.1932 85.6816 84.0834C84.6335 84.017 83.9136 84.4501 82.821 83.9992C81.1123 83.2945 80.4241 82.1469 78.3793 82.3292C76.8364 82.4667 75.4418 83.3363 73.9357 83.6729C70.4871 84.4434 68.5742 81.0867 65.2491 81.7095Z" fill="#69A1AC"/>
<path opacity="0.5" fill-rule="evenodd" clip-rule="evenodd" d="M97.3292 85.6464C97.2227 85.6912 97.2227 85.6912 97.3292 85.6464V85.6464ZM97.72 84.2554C97.7371 84.2629 97.854 84.4249 97.72 84.2554V84.2554ZM95.9443 83.1936C95.8776 83.2451 95.8776 83.2451 95.9443 83.1936V83.1936ZM95.983 83.1806C96.3274 83.3866 99.0959 85.2797 97.085 85.7256C96.0642 85.9518 95.2196 83.8978 95.983 83.1806ZM95.0663 81.0834C90.6316 83.1054 95.4038 90.3413 98.8842 87.4014C100.349 86.1642 100.541 83.6638 99.1167 82.3749C98.263 81.6025 96.2251 80.5541 95.0663 81.0834Z" fill="#69A1AC"/>
<path opacity="0.5" fill-rule="evenodd" clip-rule="evenodd" d="M53.4369 109.598C47.9032 109.6 42.3208 109.483 36.7946 109.811C35.8645 109.867 32.3216 109.69 31.8425 110.662C30.9658 112.44 34.6112 111.557 35.1408 111.504C46.1443 110.403 57.6384 111.036 68.6781 111.35C77.707 111.607 86.6875 111.766 95.7057 112.232C98.0761 112.354 100.444 112.489 102.813 112.632C103.585 112.679 105.528 113.19 105.691 111.957C105.842 110.816 103.418 111.074 102.813 111.042C97.9974 110.788 93.1855 110.523 88.3717 110.252C76.7849 109.598 65.0421 109.596 53.4369 109.598Z" fill="#89C5CC"/>
<path opacity="0.5" fill-rule="evenodd" clip-rule="evenodd" d="M31.6644 111.575C30.6308 112.603 31.1153 116.526 31.0864 117.823C31.036 120.091 30.9289 122.357 30.8809 124.625C30.831 126.994 30.9004 129.375 31.0405 131.742C31.0992 132.735 31.9148 137.537 33.1988 134.789C33.7724 133.561 33.1849 130.141 33.1937 128.749C33.2094 126.217 33.3458 123.695 33.4718 121.166C33.5802 118.992 33.5842 116.816 33.6793 114.641C33.7094 113.948 33.7914 109.442 31.6644 111.575Z" fill="#89C5CC"/>
<path opacity="0.5" fill-rule="evenodd" clip-rule="evenodd" d="M106.622 131.834C101.237 132.386 95.7649 132.125 90.359 132.533C85.7001 132.884 81.0453 133.028 76.3743 133.127C65.7972 133.35 55.2022 133.568 44.6558 134.449C42.2522 134.65 39.8516 134.863 37.4416 134.971C36.2364 135.024 31.1788 134.476 30.8022 135.746C30.1607 137.91 35.5693 137.054 36.7358 137.02C39.3011 136.946 41.8545 136.761 44.4126 136.566C55.1662 135.746 65.9609 135.502 76.7374 135.161C82.5984 134.976 88.4186 134.547 94.2666 134.157C97.1813 133.963 100.104 133.956 103.019 133.768C103.781 133.719 106.481 133.816 107.029 133.202C107.406 132.781 107.501 131.752 106.622 131.834Z" fill="#89C5CC"/>
<path opacity="0.5" fill-rule="evenodd" clip-rule="evenodd" d="M104.797 111.943C104.982 117.108 105.273 122.268 105.448 127.433C105.5 128.986 105.031 131.769 105.896 133.139C107.286 135.341 108.372 133.01 108.626 131.638C109.43 127.307 108.566 122.522 108.342 118.164C108.256 116.502 108.772 112.802 107.969 111.314C107.204 109.896 104.728 110.039 104.797 111.943Z" fill="#89C5CC"/>
<path opacity="0.5" fill-rule="evenodd" clip-rule="evenodd" d="M95.7553 119.299C97.8185 119.858 98.1199 124.343 95.7918 124.675C92.3266 125.169 93.8421 120.224 95.7553 119.299ZM95.1773 117.515C94.5479 117.495 93.0952 117.322 92.7073 117.834C92.3827 118.263 92.7108 119.167 92.6729 119.576C92.5365 121.035 91.3499 121.878 91.8803 123.601C92.2404 124.77 93.2046 125.869 94.3797 126.275C100.581 128.419 100.505 116.437 95.1773 117.515Z" fill="#89C5CC"/>
<path opacity="0.5" fill-rule="evenodd" clip-rule="evenodd" d="M39.1925 118.32C39.177 118.34 39.1615 118.359 39.1463 118.379C39.1615 118.359 39.177 118.34 39.1925 118.32ZM44.0629 115.729C44.0386 115.521 44.0143 115.314 43.99 115.106C47.3522 116.693 50.0275 119.645 48.9111 123.608C48.0593 126.631 44.9817 127.703 42.1144 126.957C38.9405 126.13 37.4237 123.514 38.2795 120.302C38.6743 118.82 39.8868 116.828 41.454 116.351C42.1836 116.13 43.797 116.695 44.0629 115.729ZM42.0968 114.474C41.2463 114.531 40.4186 114.885 39.7245 115.37C40.3742 114.82 41.2402 114.493 42.0968 114.474ZM42.1211 112.521C40.0203 112.585 38.6436 113.857 37.3975 115.384C37.0065 115.864 35.6843 117.135 35.8479 117.781C35.9774 118.292 36.3162 119.038 37.0294 118.469C33.2935 125.915 42.9446 132.265 48.8364 127.088C54.3349 122.256 48.8796 112.294 42.1211 112.521Z" fill="#89C5CC"/>
<path opacity="0.5" fill-rule="evenodd" clip-rule="evenodd" d="M40.2119 119.437C40.2119 120.429 41.7511 120.429 41.7511 119.437C41.7511 118.446 40.2119 118.446 40.2119 119.437Z" fill="#89C5CC"/>
<path opacity="0.5" fill-rule="evenodd" clip-rule="evenodd" d="M42.8389 119.607C42.8389 120.614 44.4029 120.614 44.4029 119.607C44.4029 118.599 42.8389 118.599 42.8389 119.607Z" fill="#89C5CC"/>
<path opacity="0.5" fill-rule="evenodd" clip-rule="evenodd" d="M44.031 123.145C43.2993 123.205 40.621 122.956 40.151 123.597C39.3653 124.668 40.6192 124.705 41.235 124.821C41.7897 124.925 44.201 124.866 44.5409 124.374C44.8412 123.939 44.771 123.082 44.031 123.145Z" fill="#89C5CC"/>
<path opacity="0.5" fill-rule="evenodd" clip-rule="evenodd" d="M76.2993 120.368C76.1736 120.42 76.1736 120.42 76.2993 120.368V120.368ZM66.1794 119.628C64.5308 119.749 63.1344 120.697 61.5581 121.076C59.8756 121.48 59.1473 120.737 57.6175 120.251C56.0259 119.745 54.8938 119.945 53.6146 121.031C52.8899 121.647 51.2997 123.065 51.7527 124.159C52.79 126.663 55.1381 122.589 56.2424 122.399C57.9653 122.104 59.4981 123.61 61.4847 123.179C63.285 122.789 64.8824 121.553 66.7627 121.54C68.335 121.528 69.8168 122.389 71.3691 122.597C73.7388 122.915 75.2948 122.074 77.4853 121.449C79.3849 120.907 80.717 121.622 82.5036 122.222C83.3202 122.497 86.0449 123.495 85.5433 121.685C85.4016 121.174 81.8109 120.26 81.2543 120.084C79.2912 119.464 78.048 119.705 76.1781 120.418C74.6186 121.013 73.3069 121.303 71.6347 120.975C69.7925 120.615 68.1172 119.481 66.1794 119.628Z" fill="#89C5CC"/>
</g>
<g opacity="0.5">
<path opacity="0.5" fill-rule="evenodd" clip-rule="evenodd" d="M142.036 36.6307C142.302 30.9061 142.668 25.1896 142.861 19.4616C142.957 16.6232 143.031 13.7845 143.104 10.9456C143.12 10.3134 143.136 9.68155 143.15 9.0494C143.197 6.9018 142.943 6.7261 145.104 6.53547C154.745 5.68443 164.425 5.40235 174.078 4.63236C185.72 3.70373 197.423 3.06252 209.098 2.7751C214.286 2.64713 219.496 2.38211 224.685 2.54341C225.835 2.57914 228.091 2.27999 228.544 3.17369C228.74 3.55976 228.329 4.88831 228.277 5.33383C228.115 6.72557 227.963 8.12211 227.869 9.52078C227.317 17.7699 227.646 26.227 229.244 34.3511C225.497 32.2382 220.762 30.4206 216.395 30.7814C211.942 31.149 208.612 33.7216 205.048 36.0894C203.032 37.4287 202.353 37.7809 200.341 36.4835C198.608 35.3653 196.968 34.0869 195.333 32.8322C192.81 30.8957 190.428 28.7961 187.981 26.7661C183.482 23.0335 177.283 17.7206 171.069 19.2848C166.629 20.4025 162.529 22.8426 158.676 25.2307C152.951 28.7785 147.768 33.1233 142.036 36.6307ZM219.198 0.00121708C197.077 0.00121708 175.122 2.14562 153.065 3.30567C150.761 3.42671 148.465 3.60508 146.169 3.82664C144.639 3.97435 140.898 3.35419 139.896 4.66142C139.227 5.53352 139.802 5.66443 139.896 6.49308C140.014 7.53742 139.944 8.77479 139.913 9.88018C139.84 12.5437 139.762 15.2069 139.702 17.8707C139.473 27.9382 139.331 38.0038 139.738 48.0686C139.827 50.2636 140.627 53.3028 140.189 55.4357C139.873 56.98 138.814 57.9198 141.256 58.2051C143.659 58.4861 146.598 57.7716 149.004 57.5428C151.423 57.3124 153.842 57.0626 156.264 56.8629C166.796 55.9951 177.43 56.1263 187.989 55.8378C198.643 55.5469 209.302 55.5282 219.96 55.5224C224.419 55.52 229.515 55.7706 233.866 54.5434C235.397 54.1114 235.644 53.8987 235.267 52.3798C235.195 52.0915 234.733 51.9852 234.597 51.4642C234.413 50.7553 234.508 49.8936 234.464 49.1556C234.324 46.7453 234.274 44.3308 234.161 41.919C233.971 37.8894 233.277 33.9786 232.763 29.9895C232.17 25.3826 232.201 20.7051 232.189 16.0681C232.182 13.496 232.248 10.9325 232.454 8.36766C232.587 6.72264 233.397 4.26656 232.986 2.73244C232.781 1.96859 232.446 1.36283 231.651 1.03409C231.148 0.825597 230.724 0.988767 230.226 0.935977C229.636 0.873322 229.267 0.790404 228.56 0.630167C225.528 -0.0569055 222.287 0.00121708 219.198 0.00121708Z" fill="#69A1AC"/>
<path opacity="0.5" fill-rule="evenodd" clip-rule="evenodd" d="M206.956 10.9534C206.954 12.5566 206.704 14.9223 207.443 16.4319C208.38 18.3467 209.553 17.7482 209.864 15.9488C210.042 14.9178 210.038 11.8666 209.706 10.9534C209.238 9.66088 206.956 8.78051 206.956 10.9534Z" fill="#89C5CC"/>
<path opacity="0.5" fill-rule="evenodd" clip-rule="evenodd" d="M209.646 11.5726C208.141 11.6256 203.757 11.2643 202.739 12.4745C200.992 14.5501 204.033 14.9178 205.339 14.8016C206.85 14.6672 211.518 14.9951 212.53 13.7836C214.223 11.7568 210.829 11.5294 209.646 11.5726Z" fill="#89C5CC"/>
<path opacity="0.5" fill-rule="evenodd" clip-rule="evenodd" d="M151.24 65.1299C157.857 66.2793 155.798 76.3675 149.537 74.0309C147.356 73.2166 144.141 70.864 145.347 68.092C146.248 66.0209 149.183 64.9326 151.24 65.1299ZM148.501 61.9931C144.197 62.7175 141.255 67.3743 142.731 71.4362C144.154 75.3549 149.553 78.2245 153.534 76.8162C157.335 75.4717 159.231 70.4148 157.95 66.7155C156.611 62.8503 152.249 61.362 148.501 61.9931Z" fill="#89C5CC"/>
<path opacity="0.5" fill-rule="evenodd" clip-rule="evenodd" d="M188.747 66.3099C187.099 66.4467 185.676 67.6001 184.018 67.8043C182.468 67.9952 181.184 67.4649 179.732 67.041C177.978 66.5288 176.369 66.3035 174.577 66.7586C173.207 67.1066 171.856 68.0387 170.433 68.1512C167.633 68.3722 164.379 65.1776 162.193 68.7908C161.145 70.523 162.666 71.6388 164.234 70.8309C165.868 69.989 165.066 69.6874 167.093 70.1849C168.784 70.5995 170.151 70.8248 171.845 70.2436C173.38 69.7173 174.727 68.754 176.395 68.6457C178.028 68.5399 179.449 69.2838 181.01 69.6048C182.93 69.9994 184.628 69.7007 186.447 69.099C188.177 68.5266 188.868 68.2135 190.614 68.7241C191.719 69.0475 194.134 70.0748 195.21 69.247C197.071 67.8158 194.58 67.6065 193.599 67.403C192.02 67.0759 190.386 66.1758 188.747 66.3099Z" fill="#89C5CC"/>
<path opacity="0.5" fill-rule="evenodd" clip-rule="evenodd" d="M226.445 65.3485C226.458 65.3586 226.471 65.3687 226.484 65.3789C226.471 65.3687 226.458 65.3586 226.445 65.3485ZM224.828 65.0101C227.233 65.165 229.833 69.5461 226.647 69.7015C224.404 69.8111 221.894 65.9748 224.828 65.0101ZM224.49 61.4252C216.885 63.5488 220.362 74.2703 227.697 73.0318C231.029 72.4693 232.158 68.6092 231.057 65.7519C230.584 64.5246 229.661 63.4899 228.559 62.7836C227.746 62.2626 225.42 61.1663 224.49 61.4252Z" fill="#89C5CC"/>
<path opacity="0.5" fill-rule="evenodd" clip-rule="evenodd" d="M142.715 129.949C142.49 128.951 142.612 127.426 142.599 127.074C142.541 125.421 142.52 123.767 142.456 122.115C142.305 118.178 142.204 114.218 141.901 110.289C141.611 106.534 140.878 102.892 140.857 99.1089C140.843 96.5502 140.132 90.0668 142.373 88.3287C146.224 86.0814 144.701 94.0104 144.638 95.3826C144.448 99.5141 144.706 103.464 145.122 107.569C145.502 111.332 145.065 115.077 144.918 118.84C144.841 120.838 144.798 122.833 144.648 124.827C144.601 125.449 144.673 128.252 144.347 129.744C145.187 129.708 145.985 129.746 146.431 129.732C149.551 129.638 152.671 129.555 155.79 129.438C167.79 128.987 179.796 129.191 191.793 128.621C203.14 128.082 214.529 127.967 225.885 127.828C226.879 127.915 227.323 128.957 226.686 129.759C226.062 130.543 223.169 130.371 222.268 130.444C219.07 130.701 215.877 130.816 212.669 130.847C205.913 130.911 199.183 131.201 192.438 131.586C180.454 132.269 168.453 132.212 156.463 132.7C153.552 132.818 150.642 132.907 147.73 132.983C146.194 133.023 142.173 133.948 141.413 132.114C140.875 130.817 141.622 130.221 142.715 129.949ZM209.094 83.2863C212.724 83.2527 216.335 83.3162 219.96 83.5241C221.568 83.6164 223.175 83.7054 224.784 83.7734C225.713 83.8129 227.836 83.5082 228.652 83.9393C231.852 85.6323 225.332 85.8179 224.539 85.8045C221.213 85.7485 217.894 85.4896 214.568 85.4081C202.336 85.1076 190.013 85.852 177.791 86.3532C171.913 86.5945 166.037 86.6289 160.16 86.959C156.948 87.1395 153.737 87.3458 150.525 87.5151C149.044 87.5933 147.562 87.669 146.079 87.7063C145.165 87.7295 143.305 88.1078 142.461 87.7626C141.742 87.4685 141.16 87.0574 141.555 86.186C141.981 85.2484 143.834 85.6475 144.618 85.6323C147.449 85.5774 150.274 85.4185 153.099 85.2454C159.516 84.8527 165.919 84.3933 172.348 84.2837C184.6 84.0747 196.836 83.3999 209.094 83.2863ZM225.947 87.4617C225.95 85.7818 227.964 85.444 228.858 86.5864C229.712 87.6793 229.162 90.988 229.183 92.2955C229.252 96.604 229.659 100.888 230.046 105.177C230.43 109.43 230.702 113.686 230.998 117.946C231.136 119.915 232.649 127.773 230.449 128.921C227.642 130.385 228.172 122.936 228.093 121.578C227.841 117.207 227.524 112.83 227.128 108.47C226.489 101.422 225.942 94.5388 225.947 87.4617Z" fill="#69A1AC"/>
<path opacity="0.5" fill-rule="evenodd" clip-rule="evenodd" d="M188.877 107.694C192.725 109.062 196.552 110.491 200.362 111.963C202.401 112.751 204.429 113.564 206.463 114.363C207.482 114.762 211.719 115.767 211.963 116.784C212.307 118.221 207.79 116.456 207.072 116.226C205.042 115.578 203.038 114.852 201.033 114.129C196.548 112.514 192.083 110.847 187.58 109.28C187.159 109.133 186.738 108.987 186.316 108.842C181.537 110.988 176.768 113.156 172.014 115.357C169.465 116.538 166.929 117.746 164.401 118.97C162.526 119.878 159.134 122.468 157.069 122.423C156.287 122.406 155.761 122.238 155.679 121.291C155.575 120.08 157.526 119.583 158.314 119.189C161.017 117.837 163.736 116.52 166.463 115.219C171.879 112.636 177.345 110.156 182.831 107.725C182.863 107.711 182.894 107.697 182.926 107.683C179.883 106.653 176.832 105.648 173.775 104.664C172.027 104.102 159.775 101.078 160.221 99.4549C160.723 97.6355 171.575 101.925 173.244 102.457C177.353 103.767 181.451 105.113 185.527 106.521C195.31 102.126 205.196 97.4436 215.4 94.2458C216.042 94.0448 216.448 94.7073 216.303 95.2632C216.107 96.0073 213.819 96.6096 213.184 96.8933C210.671 98.0155 208.145 99.1099 205.632 100.233C200.157 102.679 194.672 105.102 189.198 107.55C189.091 107.598 188.984 107.646 188.877 107.694Z" fill="#89C5CC"/>
<path opacity="0.5" fill-rule="evenodd" clip-rule="evenodd" d="M152.692 138.468C155.194 138.907 156.959 141.307 156.684 143.82C156.313 147.216 152.928 148.773 149.801 148.33C146.253 147.827 145.507 144.828 147.226 141.942C147.606 141.303 148.044 140.539 148.736 140.202C149.212 139.971 149.818 140.176 150.201 139.989C151.543 139.336 150.736 138.294 152.692 138.468ZM151.553 136.249C148.499 136.639 142.858 140.172 143.144 143.707C143.392 144.117 143.764 144.285 144.262 144.21C144.142 144.976 144.181 145.734 144.379 146.483C144.669 147.456 145.247 148.253 146.022 148.887C147.619 150.192 149.802 150.512 151.79 150.283C155.502 149.856 158.428 147.319 158.636 143.458C158.84 139.689 155.55 135.744 151.553 136.249Z" fill="#89C5CC"/>
<path opacity="0.5" fill-rule="evenodd" clip-rule="evenodd" d="M166.34 140.849C164.97 141.575 162.803 142.69 161.999 144.069C161.151 145.525 162.03 147.119 163.818 146.43C165.237 145.883 166.14 144.145 167.654 143.588C168.99 143.097 169.529 143.347 170.941 143.837C172.396 144.341 173.668 144.828 175.241 144.705C177.218 144.549 178.931 143.403 180.866 143.142C182.495 142.922 183.839 143.556 185.4 143.808C187.21 144.101 188.394 143.416 190.088 143.059C191.24 142.816 193.271 143.804 194.111 143.434C196.001 142.604 194.002 141.588 192.956 141.252C191.194 140.687 190.109 141.186 188.433 141.654C186.613 142.163 185.827 141.781 184.088 141.313C180.568 140.368 177.85 142.654 174.514 142.239C171.425 141.854 169.577 139.135 166.34 140.849Z" fill="#89C5CC"/>
<path opacity="0.5" fill-rule="evenodd" clip-rule="evenodd" d="M223.887 139.16C227.275 142.336 223.469 146.854 219.734 144.316C218.419 143.422 218.398 141.988 219.422 140.704C220.357 139.53 222.413 139.072 223.887 139.16ZM222.631 136.593C219.467 137.209 216.481 138.661 216.195 142.314C215.915 145.878 219.571 147.533 222.642 147.299C229.536 146.774 229.038 135.355 222.631 136.593Z" fill="#89C5CC"/>
</g>
<path opacity="0.5" fill-rule="evenodd" clip-rule="evenodd" d="M297.599 18.2285C295.068 18.2774 288.817 19.1982 287.887 22.1929C287.182 24.4661 289.277 23.967 290.4 23.1398C291.92 22.0213 293.252 21.3519 295.135 21.0115C302.307 19.7143 309.197 24.3661 316.3 24.9545C318.991 25.1773 322.238 25.3225 324.807 24.4512C326.636 23.8307 326.875 22.4777 324.787 22.2716C323.013 22.0966 321.051 22.6483 319.232 22.6326C311.706 22.5682 305.017 18.087 297.599 18.2285Z" fill="#C1DEE2"/>
<g opacity="0.5">
<path opacity="0.5" fill-rule="evenodd" clip-rule="evenodd" d="M31.6068 160.448C26.7632 160.502 21.922 160.681 17.0881 160.987C12.4911 161.278 7.50329 161.057 2.98121 161.948C1.69714 162.201 -0.0374296 163.371 1.66995 164.658C2.87005 165.563 7.26071 164.522 8.69379 164.434C13.9713 164.11 19.2516 163.721 24.5366 163.535C29.5398 163.358 34.5428 163.295 39.5484 163.245C40.3127 163.238 41.5813 162.993 42.3424 163.215C43.4358 163.534 43.1764 163.62 43.2583 165.009C43.4068 167.523 43.3657 170.047 43.3159 172.565C43.2676 175.001 43.1775 177.436 43.1863 179.873C43.1924 181.612 42.6366 185.067 43.5091 186.577C44.7649 188.75 46.0677 186.39 46.1615 184.945C46.3412 182.183 46.2607 179.387 46.2615 176.621C46.262 174.025 46.2806 171.428 46.1892 168.834C46.1228 166.959 46.3907 163.687 45.381 161.983C44.3526 160.247 41.8764 160.622 40.0696 160.539C37.2511 160.409 34.4276 160.418 31.6068 160.448Z" fill="#89C5CC"/>
<path opacity="0.5" fill-rule="evenodd" clip-rule="evenodd" d="M0.789556 163.58C0.794887 168.458 0.230559 173.304 0.0724832 178.176C-2.37406e-05 180.416 -0.14717 182.876 0.419557 185.075C0.991615 187.296 2.80855 187.777 3.01781 185.298C3.44166 180.278 3.3377 175.073 3.66771 170.014C3.7842 168.227 4.54232 164.953 3.83458 163.28C3.21134 161.807 0.78689 161.524 0.789556 163.58Z" fill="#89C5CC"/>
<path opacity="0.5" fill-rule="evenodd" clip-rule="evenodd" d="M46.2092 185.082C37.7975 186.196 29.0039 185.79 20.5324 185.965C16.468 186.049 12.4044 186.054 8.33946 186.096C6.92077 186.111 3.31809 185.571 2.0908 186.369C0.13711 187.639 2.25687 188.618 3.55027 188.646C11.5721 188.822 19.6833 188.453 27.7036 188.19C31.3071 188.072 34.9223 188.014 38.5162 187.708C40.7287 187.519 43.1465 187.336 45.2951 186.742C45.7528 186.615 46.7495 186.641 46.8521 186.017C46.9153 185.631 46.8007 185 46.2092 185.082Z" fill="#89C5CC"/>
<path opacity="0.5" fill-rule="evenodd" clip-rule="evenodd" d="M11.2315 192.173C8.89367 192.186 1.84877 191.101 0.880584 193.38C-0.410146 196.421 4.62509 195.711 5.97926 195.676C9.05494 195.597 12.1285 195.589 15.205 195.59C18.2236 195.591 21.242 195.572 24.2601 195.5C25.1344 195.479 27.1697 195.842 27.6727 194.789C28.055 193.989 27.7529 193.358 27.0479 192.934C25.3514 191.914 20.9442 192.506 18.958 192.414C16.3864 192.296 13.8063 192.173 11.2315 192.173Z" fill="#89C5CC"/>
<path opacity="0.5" fill-rule="evenodd" clip-rule="evenodd" d="M39.6727 192.736C38.3366 192.815 35.6341 192.264 34.4372 192.876C33.0769 193.571 33.5562 194.659 34.7307 195.137C35.544 195.468 38.8804 195.295 39.6727 194.911C40.4985 194.511 41.4323 192.627 39.6727 192.736Z" fill="#89C5CC"/>
<path opacity="0.5" fill-rule="evenodd" clip-rule="evenodd" d="M54.3197 164.059C52.8928 164.45 53.3257 172.552 53.2889 173.836C53.1881 177.354 52.7925 181.78 53.9617 185.168C54.7073 187.329 56.1393 187.036 55.8954 184.761C55.6811 182.765 55.3135 180.792 55.1544 178.783C54.7945 174.237 54.3048 169.387 54.6447 164.837C54.7894 165.102 56.1431 167.554 56.4616 167.371C56.3654 167.428 54.9003 163.906 54.3197 164.059Z" fill="#89C5CC"/>
<path opacity="0.5" fill-rule="evenodd" clip-rule="evenodd" d="M70.3711 161.075C67.4833 161.118 64.5956 161.169 61.7086 161.249C59.4132 161.313 55.8062 160.936 53.7011 161.902C51.1946 163.051 52.3837 165.613 54.7381 165.667C56.8208 165.715 59.0419 165.245 61.1435 165.173C66.8201 164.979 72.5068 164.937 78.1861 164.889C83.3224 164.845 88.6769 165.392 93.7681 164.621C94.5233 171.327 92.4809 178.061 93.1756 184.843C93.2833 185.896 93.235 187.383 94.5756 187.623C96.2675 187.926 96.3371 186.25 96.4013 185.05C96.5845 181.624 96.4853 178.195 96.7361 174.764C96.9686 171.585 97.4263 168.335 97.0395 165.151C96.5639 161.232 94.6862 161.547 91.3669 161.384C84.3564 161.04 77.3893 160.972 70.3711 161.075Z" fill="#89C5CC"/>
<path opacity="0.5" fill-rule="evenodd" clip-rule="evenodd" d="M60.6932 184.886C59.2217 184.923 56.7778 184.47 55.835 185.881C54.854 187.349 56.0178 188.629 57.4443 188.931C59.1327 189.287 61.3343 188.798 63.0867 188.793C64.9117 188.788 66.7371 188.808 68.5621 188.815C76.3862 188.846 84.2438 188.964 92.0623 188.641C93.1542 188.596 96.2531 188.962 97.0088 187.914C97.6795 186.985 97.2103 186.152 96.3272 185.679C94.8781 184.903 91.9019 185.198 90.2902 185.136C88.2997 185.061 86.3068 185.036 84.3153 185.005C76.4547 184.883 68.553 184.692 60.6932 184.886Z" fill="#89C5CC"/>
<path opacity="0.5" fill-rule="evenodd" clip-rule="evenodd" d="M67.3119 191.673C64.3839 191.722 61.26 191.594 58.361 192.038C55.8121 192.428 55.4983 194.892 58.2421 195.181C60.7636 195.446 63.8206 194.951 66.3544 194.788C67.2543 194.73 68.3009 194.812 68.7322 193.817C69.1824 192.778 68.3217 191.781 67.3119 191.673Z" fill="#89C5CC"/>
<path opacity="0.5" fill-rule="evenodd" clip-rule="evenodd" d="M89.4472 191.931C87.8843 191.97 83.3195 191.298 82.5454 193.083C81.2568 196.055 87.4364 194.926 88.6219 194.882C90.116 194.827 95.9392 195.7 95.9405 193.321C95.9419 190.989 90.8781 191.896 89.4472 191.931Z" fill="#89C5CC"/>
<path opacity="0.5" fill-rule="evenodd" clip-rule="evenodd" d="M0.536793 206.698C0.540525 212.105 0.204114 217.561 0.697268 222.954C0.901194 225.184 0.866273 229.456 2.15807 231.347C3.07507 232.689 4.34687 232.595 4.84776 230.983C5.18257 229.906 4.64703 227.752 4.58732 226.599C4.52974 225.493 4.46256 224.387 4.41138 223.281C4.27996 220.431 4.29036 217.585 4.32955 214.733C4.36313 212.287 4.95199 209.051 4.39672 206.698C3.87904 204.506 0.536793 203.993 0.536793 206.698Z" fill="#69A1AC"/>
<path opacity="0.5" fill-rule="evenodd" clip-rule="evenodd" d="M54.8683 201.942C45.489 202.178 36.0887 201.968 26.7177 202.432C22.0962 202.661 17.4928 203.163 12.8945 203.665C10.6353 203.911 8.37748 204.165 6.1223 204.443C5.44175 204.527 -0.21326 204.746 1.9137 206.896C2.84243 207.836 5.79789 206.855 6.96733 206.716C9.23157 206.449 11.5003 206.216 13.7678 205.976C18.0825 205.52 22.4025 205.087 26.7356 204.848C36.9407 204.282 47.1879 204.452 57.4031 204.075C60.1664 203.973 62.9214 203.9 65.6857 204.009C66.4116 204.037 71.7456 204.308 69.4297 202.338C68.3346 201.406 64.2057 201.887 62.8371 201.859C60.181 201.804 57.5233 201.876 54.8683 201.942Z" fill="#69A1AC"/>
<path opacity="0.5" fill-rule="evenodd" clip-rule="evenodd" d="M69.476 230.464C69.4745 230.466 69.4731 230.468 69.4716 230.47C68.9606 231.223 67.0722 231.014 66.2453 231.07C63.7286 231.241 61.2586 231.529 58.7643 231.903C53.7944 232.648 48.8676 233.106 43.8439 233.231C33.908 233.476 23.9311 233.247 14.0102 233.927C11.8128 234.078 9.64883 234.337 7.48748 234.751C5.94404 235.046 2.96966 236.058 2.78919 233.509C2.5714 230.436 10.2806 230.441 12.4849 230.236C21.9494 229.356 31.5697 229.541 41.0633 229.674C45.6541 229.737 50.2365 229.878 54.8236 229.597C59.4063 229.317 64.1443 229.39 68.6934 228.898C68.1075 226.626 68.1933 223.785 68.0289 221.464C67.6066 215.505 67.7197 209.525 67.4477 203.559C67.3281 200.931 70.9081 200.533 71.9698 202.66C73.0422 204.809 72.3454 209.073 72.4147 211.456C72.5752 216.972 73.598 223.147 72.5176 228.603C72.1418 230.5 70.5412 231.498 69.476 230.464Z" fill="#69A1AC"/>
<path opacity="0.5" fill-rule="evenodd" clip-rule="evenodd" d="M75.2457 205.485C73.9787 205.657 72.9218 206.741 73.4874 208.117C74.2 209.849 76.3221 209.172 77.724 209.062C82.18 208.713 86.8324 209.41 91.2346 208.884C92.4368 208.741 94.181 208.086 93.1016 206.47C92.2902 205.256 89.3339 205.469 88.0773 205.353C83.7794 204.955 79.538 205.062 75.2457 205.485Z" fill="#C1DEE2"/>
<path opacity="0.5" fill-rule="evenodd" clip-rule="evenodd" d="M82.7661 213.04C81.038 213.156 77.0152 213.065 76.2869 215.031C74.9807 218.559 80.0972 217.316 81.6551 217.115C83.4648 216.882 87.731 217.506 88.6946 215.751C90.4178 212.613 84.2816 212.936 82.7661 213.04Z" fill="#C1DEE2"/>
<path opacity="0.5" fill-rule="evenodd" clip-rule="evenodd" d="M78.3223 220.781C77.5026 221.601 77.5013 223.066 78.3223 223.886C79.3275 224.89 81.5177 224.682 82.8385 224.755C84.6808 224.858 89.9719 225.832 90.8868 223.663C92.121 220.736 87.3297 220.797 85.7537 220.631C83.9323 220.44 79.8319 219.271 78.3223 220.781Z" fill="#C1DEE2"/>
<path opacity="0.5" fill-rule="evenodd" clip-rule="evenodd" d="M13.7422 170.68C13.7422 173.827 18.6569 173.827 18.6569 170.68C18.6569 167.55 13.7422 167.503 13.7422 170.68Z" fill="#89C5CC"/>
<path opacity="0.5" fill-rule="evenodd" clip-rule="evenodd" d="M23.0645 170.716C23.0645 174.313 28.6624 174.306 28.6624 170.716C28.6624 167.131 23.0645 167.094 23.0645 170.716Z" fill="#89C5CC"/>
<path opacity="0.5" fill-rule="evenodd" clip-rule="evenodd" d="M17.4247 175.499C14.7036 176.25 17.2104 178.556 18.4739 179.083C20.482 179.921 23.2226 180.538 25.2312 179.282C26.0304 178.783 26.6792 178.119 26.0936 177.15C25.4695 176.117 24.6152 176.576 23.6651 176.672C22.4615 176.793 21.4888 176.774 20.3266 176.388C19.4592 176.1 18.3708 175.239 17.4247 175.499Z" fill="#89C5CC"/>
<path opacity="0.5" fill-rule="evenodd" clip-rule="evenodd" d="M66.7832 170.879C66.7832 173.008 70.0881 173.008 70.0881 170.879C70.0881 168.751 66.7832 168.751 66.7832 170.879Z" fill="#89C5CC"/>
<path opacity="0.5" fill-rule="evenodd" clip-rule="evenodd" d="M74.0923 171.2C74.0923 173.564 77.7637 173.565 77.7637 171.2C77.7637 168.835 74.0923 168.835 74.0923 171.2Z" fill="#89C5CC"/>
<path opacity="0.5" fill-rule="evenodd" clip-rule="evenodd" d="M73.8203 176.332C71.8917 176.58 66.3137 177.146 66.0016 179.523C65.5201 183.191 71.632 180.222 73.027 179.934C74.8037 179.567 76.3903 179.663 78.1641 179.734C79.1378 179.773 80.4331 179.931 80.331 178.448C80.1636 176.012 75.5061 176.116 73.8203 176.332Z" fill="#89C5CC"/>
<path opacity="0.5" fill-rule="evenodd" clip-rule="evenodd" d="M25.3299 210.154C23.932 210.527 22.1033 212.944 23.0651 214.423C24.6421 216.849 25.3376 213.124 25.9976 212.766C27.1985 212.113 28.1734 214.497 29.4284 213.247C31.4087 211.274 26.5766 209.82 25.3299 210.154Z" fill="#69A1AC"/>
<path opacity="0.5" fill-rule="evenodd" clip-rule="evenodd" d="M41.3477 208.361C39.6899 208.376 36.1901 210.723 35.9422 212.456C35.7951 213.486 36.4778 214.475 37.5878 214.489C39.0992 214.508 39.5796 212.542 40.8898 212.131C42.3031 211.688 42.0933 212.709 43.3139 213.238C44.2072 213.626 45.3244 213.463 45.6347 212.365C46.2201 210.293 43.0511 208.329 41.3477 208.361Z" fill="#69A1AC"/>
<path opacity="0.5" fill-rule="evenodd" clip-rule="evenodd" d="M28.6577 218.284C26.0061 219.837 30.369 223.168 31.8815 223.585C34.165 224.213 38.7606 223.04 39.3018 220.251C39.5172 219.141 38.8228 218.135 37.5976 218.334C36.5889 218.497 35.9419 219.763 35.0076 220.216C33.7465 220.828 32.6253 220.786 31.5537 219.865C30.6806 219.115 30.2131 217.376 28.6577 218.284Z" fill="#69A1AC"/>
<path opacity="0.5" fill-rule="evenodd" clip-rule="evenodd" d="M30.5798 241.243C28.2108 241.748 25.8026 241.409 23.4222 241.884C20.9948 242.368 19.5441 243.285 17.2889 242.361C17.1828 242.317 17.077 242.272 16.9712 242.227C15.2257 241.475 13.3962 241.253 11.5691 242.451C10.4879 243.16 7.20566 245.612 7.60125 247.109C8.45854 250.353 12.1519 245.266 13.0937 244.77C14.8895 243.825 16.1208 245.033 17.9697 245.374C20.1844 245.782 21.9664 244.611 24.0526 244.146C26.4925 243.6 29.2374 243.41 31.7197 243.119C32.7004 243.003 36.415 243.779 36.7504 242.559C37.3264 240.462 31.511 241.045 30.5798 241.243Z" fill="#C1DEE2"/>
<path opacity="0.5" fill-rule="evenodd" clip-rule="evenodd" d="M47.6712 247.777C47.8261 247.894 47.7019 247.8 47.6712 247.777V247.777ZM54.3062 241.116C56.3342 240.91 62.8231 239.461 64.1554 241.557C65.0231 242.922 63.646 247.96 62.3323 248.612C61.2823 249.132 58.8365 248.557 57.6844 248.516C55.5406 248.44 53.3924 248.407 51.251 248.273C50.5329 248.228 48.222 248.36 47.659 247.725C46.9941 246.974 47.0237 242.973 46.8673 241.981C48.7319 242.585 52.3565 241.314 54.3062 241.116ZM58.6368 239.061C56.0394 239.174 53.4425 239.369 50.8645 239.717C49.4274 239.912 47.9714 240.428 46.6441 240.672C46.2163 240.751 45.5219 240.533 44.9973 240.786C43.4642 241.526 44.8067 246.534 45.1764 247.872C45.7442 249.927 47.1733 250.26 49.1755 250.454C51.8129 250.709 54.5045 250.629 57.1502 250.596C59.7005 250.565 63.1392 251.13 64.5702 248.571C65.4951 246.917 66.4873 243.064 65.6967 241.22C64.6565 238.794 60.7729 238.972 58.6368 239.061Z" fill="#C1DEE2"/>
<path opacity="0.5" fill-rule="evenodd" clip-rule="evenodd" d="M87.7235 249.153C87.5846 249.331 87.5846 249.331 87.7235 249.153V249.153ZM88.2926 248.467C88.2497 248.532 88.0503 248.742 88.2926 248.467V248.467ZM82.0983 248.278C83.2432 248.063 84.3887 247.85 85.5349 247.641C84.4495 249.16 83.3064 248.532 81.4521 248.4C81.6675 248.359 81.8829 248.319 82.0983 248.278ZM76.6358 247.741C76.9261 247.644 77.2161 247.546 77.5064 247.449C77.4976 247.67 77.545 247.877 77.6487 248.07C77.1518 248.016 76.6555 247.959 76.1597 247.897C76.3183 247.845 76.4772 247.793 76.6358 247.741ZM74.1044 245.871C74.0882 245.473 74.6877 245.746 75.0313 245.72C74.3689 246.303 74.0599 246.353 74.1044 245.871ZM83.1574 241.35C83.2446 241.239 83.36 241.244 83.5037 241.367C83.3469 241.419 82.7431 241.675 83.1574 241.35ZM89.0283 240.659C89.0438 240.659 89.3695 241.099 89.0283 240.659V240.659ZM88.8636 240.515C88.9489 240.58 88.9489 240.58 88.8636 240.515V240.515ZM88.1308 240.43C89.3311 240.632 89.24 242.041 88.1308 240.43V240.43ZM74.0279 240.334C73.784 240.536 73.8674 240.34 74.0279 240.334V240.334ZM78.6185 237.334C76.5806 237.453 72.8398 237.334 71.1378 238.419C68.9167 239.837 70.0853 244.716 70.2842 246.854C70.578 250.016 72.0654 250.916 75.0427 251.248C78.5959 251.644 82.2465 251.718 85.818 251.624C89.0344 251.539 90.8663 250.433 91.4554 247.046C91.6359 246.01 92.0939 244.407 92.0795 243.415C92.0696 242.726 91.7265 242.412 91.5967 241.827C90.8581 238.494 89.6228 238.099 86.2067 237.953C83.6924 237.846 81.0856 237.205 78.6185 237.334Z" fill="#89C5CC"/>
</g>
<g opacity="0.5">
<path opacity="0.5" fill-rule="evenodd" clip-rule="evenodd" d="M186.571 160.764C191.752 160.875 197.631 163.743 196.811 169.818C196.211 174.268 192.358 177.881 187.895 178.192C183.099 178.527 178.028 174.846 177.377 169.962C176.644 164.469 181.504 160.655 186.571 160.764ZM184.03 158.292C181.929 158.605 179.922 159.708 178.072 160.696C177.367 161.074 173.787 163.374 176.594 163.945C169.83 174.855 185.749 184.987 194.7 177.897C198.719 174.714 200.835 168.677 198.237 163.952C195.55 159.065 189.178 157.518 184.03 158.292Z" fill="#89C5CC"/>
<path opacity="0.5" fill-rule="evenodd" clip-rule="evenodd" d="M182.792 167.577C182.792 169.615 185.954 169.615 185.954 167.577C185.954 165.54 182.792 165.54 182.792 167.577Z" fill="#89C5CC"/>
<path opacity="0.5" fill-rule="evenodd" clip-rule="evenodd" d="M188.655 167.903C188.655 170.112 192.084 170.112 192.084 167.903C192.084 165.694 188.655 165.694 188.655 167.903Z" fill="#89C5CC"/>
<path opacity="0.5" fill-rule="evenodd" clip-rule="evenodd" d="M184.699 172.272C184.237 173.948 189.498 174.807 189.673 172.868C189.757 171.941 185.019 171.103 184.699 172.272Z" fill="#89C5CC"/>
<path opacity="0.5" fill-rule="evenodd" clip-rule="evenodd" d="M200.121 171.236C206.175 170.51 212.417 170.845 218.5 171.02C220.023 171.064 221.545 171.106 223.068 171.132C224.036 171.148 226.126 171.612 226.971 171.159C230.43 169.304 223.644 168.407 222.683 168.322C216.632 167.824 207.294 167.646 201.226 167.881C199.431 167.951 199.043 171.365 200.121 171.236Z" fill="#89C5CC"/>
<path opacity="0.5" fill-rule="evenodd" clip-rule="evenodd" d="M227.363 201.331C227.415 194.988 227.642 188.602 228.13 182.278C228.329 179.7 228.567 177.126 228.764 174.548C228.857 173.334 229.289 171.633 228.575 170.568C227.84 169.47 226.226 169.242 225.254 170.215C224.09 171.721 224.429 174.25 224.284 176.072C224.061 178.874 223.792 181.674 223.659 184.482C223.401 189.917 223.34 195.446 223.777 200.873C223.983 203.434 224.43 205.933 225.025 208.431C225.296 209.568 227.451 214.632 226.998 215.331C226.296 216.414 221.107 216.004 219.981 216.035C217.093 216.112 214.203 216.163 211.314 216.218C208.841 216.265 206.367 216.299 203.894 216.321C202.911 216.33 197.14 216.155 198.42 217.611C184.104 218.609 169.515 216.943 155.286 216.372C154.567 216.343 153.391 216.139 152.306 216.08C152.175 215.556 152.069 215.087 152.042 214.762C151.855 212.475 151.806 210.18 151.604 207.894C151.233 203.711 150.513 199.57 150.085 195.395C149.658 191.223 149.701 187.039 149.453 182.858C149.41 182.141 149.309 176.272 147.828 174.846C148.53 175.112 149.663 175.147 150.315 175.094C155.593 174.668 160.833 173.751 166.066 172.964C167.563 172.739 170.96 172.899 172.202 172.15C173.277 171.502 173.702 169.231 171.833 169.415C166.615 169.974 161.425 170.841 156.248 171.695C154.863 171.924 153.482 172.168 152.101 172.417C151.179 172.584 148.744 172.571 148.029 173.127C147.16 173.802 147.068 174.262 147.362 174.567C146.953 174.454 146.463 174.631 145.873 175.221C144.759 176.671 145.807 180.242 145.939 181.942C146.099 183.981 146.177 186.024 146.27 188.067C146.45 192.02 146.864 195.919 147.5 199.825C148.213 204.201 148.819 208.594 149.534 212.969C149.72 214.108 149.962 215.219 150.272 216.319C148.346 217.304 149.655 218.87 151.182 219.148C151.193 219.149 151.205 219.151 151.216 219.153C151.692 220.314 152.357 221.389 152.877 219.834C152.917 219.715 152.935 219.568 152.94 219.403C156.884 219.849 161.219 219.572 165.102 219.73C173.512 220.074 181.974 220.59 190.393 220.328C193.726 220.225 197.069 219.929 200.374 219.484C202.311 219.224 204.254 218.913 206.16 218.481C206.296 218.45 206.504 218.418 206.743 218.378C206.783 218.377 206.822 218.376 206.859 218.376C209.777 218.332 212.692 218.253 215.607 218.132C218.054 218.03 220.512 217.978 222.951 217.748C224.466 217.604 227.668 217.631 228.598 216.107C229.444 214.722 228.03 211.153 227.829 209.597C227.476 206.857 227.341 204.092 227.363 201.331Z" fill="#C1DEE2"/>
<path opacity="0.5" fill-rule="evenodd" clip-rule="evenodd" d="M197.796 183.016C195.465 183.216 193.309 184.31 190.957 184.324C188.982 184.335 187.038 183.745 185.052 183.832C182.723 183.934 181.441 185.44 179.401 185.944C177.777 186.345 176.754 185.102 175.325 184.552C173.521 183.857 172.189 184.216 170.643 185.266C169.506 186.038 166.857 187.77 166.878 189.332C166.938 194.061 172.456 187.528 173.569 187.449C175.046 187.344 176.698 189.028 178.27 189.124C180.349 189.252 181.682 187.911 183.597 187.423C185.533 186.929 187.626 187.534 189.566 187.722C191.781 187.936 193.719 187.442 195.861 186.914C197.937 186.402 199.706 186.429 201.816 186.859C203.24 187.149 206.787 188.837 207.41 186.667C208.258 183.711 199.426 182.877 197.796 183.016Z" fill="#89C5CC"/>
<path opacity="0.5" fill-rule="evenodd" clip-rule="evenodd" d="M198.506 192.036C193.729 192.5 188.923 192.906 184.125 193.036C182.046 193.093 174.056 192.202 174.765 194.843C175.372 197.108 186.245 195.682 188.46 195.509C190.904 195.319 193.345 195.054 195.778 194.746C196.64 194.637 198.722 194.75 199.331 194.027C199.911 193.337 199.625 191.924 198.506 192.036Z" fill="#89C5CC"/>
<path opacity="0.5" fill-rule="evenodd" clip-rule="evenodd" d="M165.553 204.063C165.444 204.109 165.444 204.109 165.553 204.063V204.063ZM166.56 204.05C167.751 204.012 167.496 203.384 168.684 203.711C169.232 203.862 169.288 203.638 169.713 204.162C170.542 205.184 169.761 207.409 168.944 208.232C165.919 211.28 162.289 204.185 166.56 204.05ZM166.56 201.059C158.279 201.337 161.744 214.129 168.952 211.518C171.928 210.439 173.799 205.581 172.049 202.851C171.197 201.523 170.111 201.286 168.684 201.194C168.353 201.173 167.936 201.654 167.729 201.632C167.238 201.58 167.284 201.032 166.56 201.059Z" fill="#89C5CC"/>
<path opacity="0.5" fill-rule="evenodd" clip-rule="evenodd" d="M186.363 204.502C186.216 204.456 188.978 205.259 188.676 204.945C189.321 205.616 188.454 207.202 187.724 207.479C185.957 208.15 184.966 205.402 186.363 204.502ZM187.589 201.033C184.996 201.4 182.995 202.48 182.641 205.364C182.314 208.025 184.112 210.72 186.949 210.772C193.131 210.885 193.319 200.233 187.589 201.033Z" fill="#89C5CC"/>
<path opacity="0.5" fill-rule="evenodd" clip-rule="evenodd" d="M215.814 204.618C216.176 209.344 211.275 205.018 215.814 204.618V204.618ZM213.711 199.562C213.282 200.295 213.648 201.072 214.295 201.498C208.514 202.72 209.823 211.418 215.706 210.133C218.697 209.48 219.247 206.334 218.801 203.737C218.589 202.502 215.511 196.484 213.711 199.562Z" fill="#89C5CC"/>
</g>
<path opacity="0.5" fill-rule="evenodd" clip-rule="evenodd" d="M227.387 204.101C225.663 204.407 221.59 206.31 221.625 208.354C221.68 211.545 225.143 208.06 225.913 207.591C230.05 205.073 235.409 208.336 239.716 209.03C241.692 209.349 245.555 209.937 247.3 208.613C250.402 206.259 243.227 206.848 242.313 206.754C237.346 206.241 232.405 203.204 227.387 204.101Z" fill="#C1DEE2"/>
<g opacity="0.5">
<path opacity="0.5" fill-rule="evenodd" clip-rule="evenodd" d="M308.78 181.667C308.779 184.932 308.614 188.264 309.215 191.49C309.397 192.466 309.541 194.337 310.571 194.843C311.606 195.352 312.609 194.781 312.866 193.72C313.166 192.486 312.509 190.639 312.442 189.343C312.35 187.573 312.344 185.801 312.343 184.029C312.343 182.749 312.764 180.69 311.253 180.032C310.13 179.542 308.78 180.453 308.78 181.667Z" fill="#C1DEE2"/>
<path opacity="0.5" fill-rule="evenodd" clip-rule="evenodd" d="M360.393 176.503C349.576 177.589 338.604 177.815 327.749 178.381C322.731 178.643 316.666 178.309 311.939 180.251C311.061 180.612 307.917 182.62 310.469 183.437C311.265 183.692 312.073 182.835 312.726 182.548C313.815 182.07 315.074 181.922 316.234 181.735C326.098 180.151 336.416 180.427 346.382 179.687C348.935 179.497 351.49 179.302 354.038 179.051C355.859 178.872 359.685 177.56 361.365 178.231C364.236 179.378 364.169 186.829 364.226 189.392C364.255 190.717 362.969 195.475 365.526 194.992C367.572 194.606 366.831 189.664 366.672 188.312C366.254 184.768 365.539 175.982 360.393 176.503Z" fill="#C1DEE2"/>
<path opacity="0.5" fill-rule="evenodd" clip-rule="evenodd" d="M364.382 194.821C354.986 195.669 345.375 194.837 335.941 195.17C330.996 195.346 326.056 195.624 321.11 195.787C318.971 195.858 316.83 195.861 314.69 195.876C313.667 195.883 309.009 196.504 311.89 198.533C313.166 199.431 317.232 198.708 318.696 198.69C320.895 198.664 323.092 198.573 325.29 198.487C330.379 198.288 335.466 198.012 340.558 197.874C345.43 197.742 350.303 197.714 355.174 197.582C357.598 197.517 360.055 197.442 362.457 197.088C362.999 197.008 364.76 196.945 365.136 196.34C365.492 195.769 365.242 194.738 364.382 194.821Z" fill="#89C5CC"/>
<path opacity="0.5" fill-rule="evenodd" clip-rule="evenodd" d="M318.206 187.767C318.155 187.886 318.155 187.886 318.206 187.767V187.767ZM322.274 186.53C322.423 186.593 322.423 186.593 322.274 186.53V186.53ZM322.084 186.496C324.277 188.731 320.905 191.398 318.851 189.217C316.671 186.902 320.672 186.503 322.084 186.496ZM319.759 183.114C312.206 184.458 314.88 194.524 321.934 193.069C325.031 192.431 326.802 189.311 325.736 186.314C325.319 185.143 324.412 183.858 323.148 183.489C322.517 183.305 321.96 183.595 321.359 183.527C320.787 183.463 320.469 182.986 319.759 183.114Z" fill="#C1DEE2"/>
<path opacity="0.5" fill-rule="evenodd" clip-rule="evenodd" d="M348.662 185.948C344.108 185.962 339.552 186.155 334.999 186.242C333.602 186.268 330.012 185.643 330.007 187.845C330.001 190.198 333.999 189.329 335.33 189.297C339.847 189.189 344.375 188.991 348.874 188.561C350.01 188.452 353.944 188.64 353.94 187.095C353.936 185.457 349.579 185.948 348.662 185.948Z" fill="#C1DEE2"/>
<path opacity="0.5" fill-rule="evenodd" clip-rule="evenodd" d="M359.539 201.304C348.276 201.606 337.029 201.711 325.775 202.288C321.565 202.503 317.361 202.664 313.146 202.664C312.334 202.664 310.699 202.349 309.935 202.86C307.861 204.247 310.222 205.438 311.574 205.513C320.819 206.026 330.199 204.749 339.439 204.46C344.849 204.292 350.259 204.242 355.666 203.967C357.141 203.892 358.616 203.804 360.088 203.69C360.935 203.625 363.174 203.804 363.859 203.309C366.847 201.146 360.547 201.276 359.539 201.304Z" fill="#89C5CC"/>
<path opacity="0.5" fill-rule="evenodd" clip-rule="evenodd" d="M307.86 206.811C307.755 209.731 307.744 212.601 308.126 215.505C308.276 216.648 308.345 217.944 309.684 218.235C310.901 218.498 311.518 217.578 311.77 216.558C312.385 214.067 311.844 210.481 311.837 207.893C311.833 206.614 311.832 205.182 310.251 204.892C309.045 204.672 307.906 205.543 307.86 206.811Z" fill="#89C5CC"/>
<path opacity="0.5" fill-rule="evenodd" clip-rule="evenodd" d="M371.478 213.851C353.245 214.812 335.036 215.651 316.791 216.422C315.368 216.482 304.313 216.362 308.178 220.217C309.372 221.407 312.447 220.601 313.991 220.525C316.31 220.411 318.631 220.324 320.951 220.206C330.148 219.738 339.37 219.612 348.56 219.086C353.618 218.797 358.664 218.345 363.695 217.756C366.088 217.476 369.059 217.505 371.3 216.567C372.453 216.084 373.698 213.733 371.478 213.851Z" fill="#89C5CC"/>
<path opacity="0.5" fill-rule="evenodd" clip-rule="evenodd" d="M360.994 199.037C359.608 200.418 360.321 203.143 360.425 204.85C360.569 207.198 360.744 209.549 361.037 211.885C361.228 213.402 361.127 215.764 361.936 217.074C362.884 218.609 364.972 218.44 365.829 216.957C366.587 215.645 366.203 212.886 366.183 211.432C366.156 209.422 366.031 207.41 365.912 205.404C365.812 203.727 366.192 201.041 365.27 199.606C364.333 198.148 362.294 197.745 360.994 199.037Z" fill="#89C5CC"/>
<path opacity="0.5" fill-rule="evenodd" clip-rule="evenodd" d="M319.32 209.754C319.157 209.879 319.157 209.879 319.32 209.754V209.754ZM322.558 209.348C325.58 209.956 320.694 213.484 319.15 211.063C318.909 210.684 318.783 210.219 319.17 209.891C319.524 209.59 319.746 210.122 320.08 209.979C320.655 209.733 321.945 209.325 322.558 209.348ZM322.141 206.452C320.079 206.615 317.242 206.743 316.221 208.811C314.849 211.588 317.195 214.309 319.909 214.731C322.521 215.138 326.421 213.691 326.63 210.645C326.798 208.189 324.462 206.263 322.141 206.452Z" fill="#89C5CC"/>
<path opacity="0.5" fill-rule="evenodd" clip-rule="evenodd" d="M339.365 207.921C337.229 207.955 333.032 207.324 331.171 208.365C329.33 209.395 330.151 211.229 331.83 211.668C332.941 211.958 334.755 211.49 335.911 211.443C337.431 211.381 338.953 211.367 340.475 211.346C343.033 211.312 345.591 211.341 348.15 211.341C350.763 211.341 353.422 211.412 356.03 211.22C359.332 210.977 359.243 208.506 356.014 208.196C350.53 207.672 344.867 207.834 339.365 207.921Z" fill="#89C5CC"/>
<path opacity="0.5" fill-rule="evenodd" clip-rule="evenodd" d="M333.91 235.605C333.91 236.779 334.952 235.605 334.944 235.605C334.952 235.605 333.91 234.43 333.91 235.605Z" fill="#89C5CC"/>
<path opacity="0.5" fill-rule="evenodd" clip-rule="evenodd" d="M310.339 226.151C310.406 229.564 310.45 232.981 310.596 236.392C310.642 237.471 310.333 239.577 311.641 240.127C313.096 240.739 313.548 239.213 313.716 238.18C314.247 234.904 313.727 231.165 313.675 227.851C313.658 226.738 313.899 225.189 312.635 224.634C311.605 224.182 310.318 225.022 310.339 226.151Z" fill="#89C5CC"/>
<path opacity="0.5" fill-rule="evenodd" clip-rule="evenodd" d="M366.477 226.204C366.563 226.408 366.563 226.408 366.477 226.204V226.204ZM366.599 226.17C366.668 226.199 366.951 226.317 366.599 226.17V226.17ZM339.022 223.41C333.781 223.493 328.537 223.555 323.3 223.779C321.065 223.875 318.804 223.952 316.576 224.163C314.999 224.312 311.079 224.374 310.056 225.664C307.944 228.325 312.422 227.599 313.387 227.383C315.142 226.99 316.934 226.864 318.727 226.769C322.618 226.564 326.51 226.454 330.406 226.376C340.971 226.163 351.543 226.195 362.11 226.148C363.133 226.143 364.982 225.732 365.927 226.146C366.873 226.56 366.82 227.58 366.918 228.764C367.049 230.339 366.01 233.341 366.801 234.666C368.03 236.722 369.815 234.977 370.089 233.478C370.466 231.408 369.868 228.921 369.283 226.942C368.457 224.15 367.311 224.039 364.61 223.821C361.454 223.566 358.31 223.411 355.144 223.382C349.771 223.332 344.394 223.327 339.022 223.41Z" fill="#89C5CC"/>
<path opacity="0.5" fill-rule="evenodd" clip-rule="evenodd" d="M359.749 237.522C348.382 238.842 336.692 238.064 325.265 238.111C322.486 238.122 319.705 238.144 316.929 238.279C315.462 238.35 311.987 237.946 310.982 239.077C308.865 241.461 312.679 241.808 314.072 241.709C316.887 241.509 319.709 241.418 322.532 241.396C332.474 241.319 342.473 241.783 352.408 241.293C356.57 241.087 360.639 240.375 364.724 239.58C365.629 239.403 371.824 238.226 368.291 236.814C366.203 235.98 361.942 237.266 359.749 237.522Z" fill="#89C5CC"/>
<path opacity="0.5" fill-rule="evenodd" clip-rule="evenodd" d="M326.562 233.157C326.482 233.258 326.482 233.258 326.562 233.157V233.157ZM326.485 233.139C326.458 233.212 326.375 233.392 326.485 233.139V233.139ZM325.768 232.214C325.785 232.236 325.853 232.322 325.768 232.214V232.214ZM325.741 232.207C326.015 232.534 326.199 232.898 326.294 233.301C323.939 233.938 323.031 232.033 325.741 232.207ZM325.592 232.118C325.593 232.119 325.924 232.258 325.592 232.118V232.118ZM321.723 229.28C320.199 231.178 318.941 233.39 320.841 235.558C322.54 237.496 325.959 237.746 328.115 236.452C330.336 235.119 330.144 232.312 328.595 230.479C327.597 229.299 326.789 229.332 325.341 229.14C324.355 229.008 322.559 228.242 321.723 229.28Z" fill="#89C5CC"/>
<path opacity="0.5" fill-rule="evenodd" clip-rule="evenodd" d="M337.479 232.793C337.479 235.32 348.392 234.232 350.334 234.23C351.96 234.227 361.794 235.124 361.088 232.523C360.508 230.386 350.822 231.448 348.759 231.445C346.976 231.443 337.479 230.219 337.479 232.793Z" fill="#89C5CC"/>
</g>
<g opacity="0.5">
<path opacity="0.5" fill-rule="evenodd" clip-rule="evenodd" d="M195.004 256.473C200.47 257.267 206.155 259.837 206.107 266.199C206.067 271.548 201.581 277.241 195.82 276.921C190.636 276.634 185.754 270.965 185.105 266.107C184.769 263.589 185.398 260.879 186.879 258.809C188.819 256.096 191.897 256.1 195.004 256.473ZM192.422 253.016C188.469 253.037 185.577 254.467 183.131 257.485C182.253 258.568 181.233 259.733 180.565 260.959C179.941 262.104 180.05 265.016 182.191 263.651C181.664 269.289 184.959 274.761 189.696 277.65C194.844 280.79 200.664 280.178 204.949 275.776C208.872 271.747 210.252 264.941 207.383 259.958C204.514 254.977 197.869 252.962 192.422 253.016Z" fill="#89C5CC"/>
<path opacity="0.5" fill-rule="evenodd" clip-rule="evenodd" d="M204.276 251.505C201.745 253.359 199.434 255.802 197.515 258.279C195.639 260.701 194.398 263.724 192.145 265.836C191.007 264.596 189.673 261.248 187.403 262.577C185.519 263.679 186.732 265.574 187.65 266.819C190.019 270.032 192.65 271.326 195.689 268.151C198.449 265.267 200.016 261.421 202.596 258.371C203.728 257.033 205.477 255.705 206.378 254.228C207.195 252.889 206.185 250.102 204.276 251.505Z" fill="#89C5CC"/>
</g>
<g opacity="0.5">
<path opacity="0.5" fill-rule="evenodd" clip-rule="evenodd" d="M273.846 67.1095C273.931 67.0965 274.014 67.0873 274.094 67.0822C276.204 66.9484 278.342 67.0037 280.457 66.9548C284.786 66.8544 289.286 67.091 293.591 66.584C294.466 66.4707 294.772 67.5929 294.379 68.1747C293.939 68.8278 292.529 68.7945 291.876 68.8911C289.966 69.174 288.03 69.2728 286.102 69.3582C284.077 69.4479 282.051 69.5149 280.025 69.5714C278.27 69.6198 274.376 70.3538 272.753 69.6193C271.488 69.0469 271.517 68.4114 272.034 67.919C271.721 67.2309 271.772 66.1042 271.705 65.5634C271.424 63.2973 271.255 61.0602 271.251 58.7746C271.243 54.2978 271.252 49.6482 272.49 45.3148C271.994 45.0976 271.695 44.7775 271.697 44.316C271.703 41.5754 281.757 42.2298 283.796 42.1755C286.302 42.1101 288.808 42.1015 291.314 42.1151C292.97 42.1239 295.21 41.7665 296.859 42.1497C300.07 42.8951 299.867 48.4001 299.933 51.0619C300.051 55.8366 299.982 60.8561 299.594 65.6195C299.461 67.2642 298.264 69.3488 296.899 67.0817C296.138 65.8175 296.477 62.8645 296.476 61.4679C296.473 56.5027 297.251 51.3874 296.506 46.4477C296.262 44.8283 296.316 44.7189 294.669 44.753C293.362 44.7801 292.055 44.8235 290.748 44.8509C288.087 44.9068 285.425 44.9433 282.765 45.0407C281.754 45.0779 278.124 45.7121 275.293 45.7097C275.294 45.7324 275.296 45.755 275.297 45.7781C275.336 47.6924 274.397 50.0157 274.27 52.0298C273.963 56.8739 274.329 61.8314 273.876 66.6511C273.862 66.7972 273.854 66.9528 273.846 67.1095Z" fill="#89C5CC"/>
<path opacity="0.5" fill-rule="evenodd" clip-rule="evenodd" d="M311.962 68.51C311.633 68.174 311.336 67.6806 311.146 67.0651C310.463 64.8551 310.399 62.4703 310.348 60.1786C310.24 55.2808 310.294 50.3743 310.264 45.4746C309.82 44.8779 310.084 44.1955 310.638 43.7194C312.136 42.4337 316.452 42.7599 318.353 42.6594C321.089 42.5146 323.827 42.4813 326.566 42.4712C329.467 42.4566 332.372 42.5087 335.272 42.5979C336.347 42.6309 343.827 42.819 340.484 44.6324C340.292 44.7363 340.077 44.823 339.842 44.895C339.981 45.719 339.998 46.5697 339.975 46.9796C339.833 49.5871 339.772 52.1995 339.656 54.8083C339.527 57.7203 339.404 60.6321 339.304 63.5454C339.251 65.0855 339.778 68.6666 338.559 69.7785C337.738 70.528 337.176 70.3778 336.798 69.8687C333.881 70.7157 327.151 70.1699 325.925 70.1705C323.728 70.1713 311.799 71.5834 311.779 69.0421C311.778 68.845 311.842 68.6683 311.962 68.51ZM313.9 67.6112C317.228 66.9006 323.433 67.3754 324.739 67.3705C327.17 67.361 329.603 67.3948 332.032 67.4919C332.79 67.5222 334.642 67.3764 336.105 67.5385C336.092 67.4061 336.083 67.2851 336.078 67.1805C335.945 64.558 336.089 61.9082 336.174 59.2857C336.259 56.6425 336.39 54.0014 336.491 51.3587C336.544 49.9995 336.2 47.1621 336.572 45.2059C334.806 45.1723 332.954 44.9589 331.762 44.9587C328.966 44.9585 326.171 44.9268 323.375 44.9821C320.354 45.042 317.302 45.0774 314.303 45.4758C314.138 45.4977 313.941 45.5399 313.722 45.591C314.179 47.5007 313.625 50.5718 313.623 52.3411C313.617 57.2986 313.8 62.2292 313.911 67.1606C313.914 67.3222 313.911 67.4723 313.9 67.6112Z" fill="#89C5CC"/>
<path opacity="0.5" fill-rule="evenodd" clip-rule="evenodd" d="M283.884 69.4672C282.085 70.5176 283.055 74.7196 283.678 76.1729C284.702 78.5625 286.78 80.4323 289.022 81.6728C293.554 84.1797 300.087 83.5139 303.514 87.8603C303.55 87.9053 304.734 89.0781 305.004 87.5593C305.226 86.3128 303.014 84.4091 302.157 83.7843C299.72 82.0076 296.594 81.4346 293.775 80.547C290.768 79.6004 287.469 77.8554 286.209 74.756C285.762 73.6582 286.613 67.8648 283.884 69.4672Z" fill="#C1DEE2"/>
<path opacity="0.5" fill-rule="evenodd" clip-rule="evenodd" d="M324.991 71.4875C323.343 71.9418 324.433 74.2092 324.43 75.3445C324.427 76.7609 323.974 78.2432 323.101 79.3735C320.887 82.24 316.553 82.6695 313.303 83.4913C310.944 84.0885 305.298 85.3689 305.077 88.56C304.83 92.1238 309.815 87.7869 310.236 87.6092C314.894 85.9003 320.921 85.5703 324.517 81.8088C326.001 80.2562 326.878 78.1839 327.017 76.045C327.096 74.8407 327.109 70.9086 324.991 71.4875Z" fill="#C1DEE2"/>
<path opacity="0.5" fill-rule="evenodd" clip-rule="evenodd" d="M302.92 91.0152C309.778 89.2084 316.167 94.014 316.975 100.927C317.829 108.222 312.33 114.096 305.079 114.418C298.7 114.701 290.983 110.134 290.942 103.098C290.904 96.5042 297.214 92.5157 302.92 91.0152ZM306.221 95.933C305.048 96.6167 304.833 94.843 304.002 94.6088C303.168 94.374 301.829 95.2509 301.134 95.7622C299.955 96.6306 296.689 101.685 295.105 98.9401C290.301 107.236 302.279 113.445 309.09 110.305C316.57 106.857 315.114 94.2514 306.263 94.1856C306.633 94.6899 306.968 95.4947 306.221 95.933Z" fill="#89C5CC"/>
<path opacity="0.5" fill-rule="evenodd" clip-rule="evenodd" d="M299.985 100.891C299.985 102.404 302.375 102.404 302.375 100.891C302.375 99.3944 299.985 99.3303 299.985 100.891Z" fill="#89C5CC"/>
<path opacity="0.5" fill-rule="evenodd" clip-rule="evenodd" d="M304.19 100.607C304.19 102.46 307.12 102.46 307.12 100.607C307.12 98.7737 304.19 98.6954 304.19 100.607Z" fill="#89C5CC"/>
<path opacity="0.5" fill-rule="evenodd" clip-rule="evenodd" d="M301.181 104.926C298.785 106.335 305.635 109.135 305.906 106.274C306.023 105.04 304.827 105.373 304.03 105.282C303.268 105.195 301.904 104.505 301.181 104.926Z" fill="#89C5CC"/>
<path opacity="0.5" fill-rule="evenodd" clip-rule="evenodd" d="M300.142 114.922C300.246 118.521 300.196 122.117 300.879 125.666C301.008 126.34 301.098 128.784 301.631 129.285C302.941 130.517 302.963 128.156 303.014 127.251C303.196 124.011 302.856 120.67 302.78 117.423C302.764 116.725 302.949 115.277 302.619 114.601C302.096 113.527 300.091 113.208 300.142 114.922Z" fill="#C1DEE2"/>
<path opacity="0.5" fill-rule="evenodd" clip-rule="evenodd" d="M297.58 112.004C292.329 117.898 285.098 117.464 277.813 117.98C273.964 118.253 270.072 118.813 266.975 121.302C265.535 122.461 264.293 123.911 263.458 125.565C263.093 126.287 261.363 130.458 263.962 129.468C264.883 129.117 265.791 126.359 266.387 125.544C267.522 123.99 268.975 122.708 270.718 121.874C274.08 120.266 278.094 120.293 281.739 120.089C285.549 119.876 289.639 119.676 293.142 118.019C294.789 117.24 296.335 116.268 297.661 115.015C298.135 114.567 299.151 113.807 299.227 113.122C299.313 112.339 298.561 110.906 297.58 112.004Z" fill="#C1DEE2"/>
<path opacity="0.5" fill-rule="evenodd" clip-rule="evenodd" d="M271.071 130.094C266.138 130.259 261.212 130.459 256.286 130.77C255.277 130.834 251.911 130.63 252.768 132.699C253.455 134.357 257.56 133.26 258.917 133.18C264.05 132.875 269.204 132.769 274.326 132.307C275.477 132.204 280.678 132.245 278.53 130.206C277.508 129.235 272.482 130.046 271.071 130.094Z" fill="#89C5CC"/>
<path opacity="0.5" fill-rule="evenodd" clip-rule="evenodd" d="M249.637 132.473C248.082 134.515 248.796 139.478 248.914 141.933C249.027 144.312 248.565 148.662 251.671 149.031C250.685 148.901 252.419 149.091 252.701 149.106C253.332 149.14 253.965 149.15 254.596 149.157C256.055 149.173 257.514 149.154 258.972 149.125C262.276 149.059 265.587 148.963 268.886 148.78C270.273 148.703 277.796 148.767 278.094 147.327C278.474 145.486 271.261 146.527 269.97 146.586C266.826 146.73 263.676 146.761 260.529 146.802C258.969 146.822 257.407 146.838 255.847 146.807C255.203 146.795 252.652 147.059 252.261 146.629C251.927 146.263 252.188 142.9 252.18 142.386C252.157 140.709 252.159 139.027 252.219 137.351C252.259 136.222 252.869 134.075 252.372 133.015C251.889 131.984 250.479 131.632 249.637 132.473Z" fill="#89C5CC"/>
<path opacity="0.5" fill-rule="evenodd" clip-rule="evenodd" d="M275.035 132.569C275.125 136.304 275.153 140.116 276.036 143.769C276.329 144.985 276.741 147.492 277.962 148.122C279.244 148.783 280.351 147.839 280.435 146.569C280.54 144.972 279.685 142.875 279.51 141.237C279.305 139.325 279.186 137.411 279.116 135.49C279.063 134.045 279.502 131.879 278.125 130.947C276.887 130.11 274.995 130.953 275.035 132.569Z" fill="#89C5CC"/>
<path opacity="0.5" fill-rule="evenodd" clip-rule="evenodd" d="M284.852 131.657C283.318 133.185 284.004 138.023 284.195 139.986C284.336 141.425 285.91 148.499 288.269 144.81C289.312 143.178 287.986 138.863 287.996 136.96C288.002 135.748 288.431 134.216 288.224 133.052C287.95 131.513 286.244 130.267 284.852 131.657Z" fill="#89C5CC"/>
<path opacity="0.5" fill-rule="evenodd" clip-rule="evenodd" d="M320.938 144.284C321.276 144.65 321.426 145.171 321.207 145.681C320.679 146.905 318.739 146.641 317.684 146.728C314.166 147.022 310.632 147.217 307.102 147.248C303.69 147.278 300.278 147.191 296.867 147.224C294.026 147.252 291.066 147.828 288.25 147.713C287.075 147.664 285.82 147.279 286.118 145.76C286.382 144.413 287.738 144.402 288.843 144.289C292.174 143.95 295.506 143.83 298.854 143.842C305.886 143.867 312.913 143.83 319.945 143.794C320.234 143.817 320.506 143.928 320.73 144.096C320.362 143.65 320.539 142.989 320.47 142.343C320.286 140.604 320.166 138.894 319.837 137.154C319.573 135.763 319.374 133.4 318.085 132.524C316.677 131.569 313.553 131.885 311.873 131.841C307.353 131.725 302.807 132.046 298.308 132.455C296.256 132.641 294.179 132.784 292.15 133.152C291.02 133.357 287.706 135.016 286.804 133.995C284.631 131.538 294.178 130.529 295.474 130.395C300.082 129.92 304.696 129.563 309.329 129.519C312.458 129.495 317.812 129.228 320.113 131.795C321.495 133.337 321.979 135.876 322.518 137.799C322.932 139.277 324.056 141.94 323.258 143.466C322.896 144.156 322.315 144.745 321.433 144.5C321.227 144.443 321.065 144.37 320.938 144.284Z" fill="#89C5CC"/>
<path opacity="0.5" fill-rule="evenodd" clip-rule="evenodd" d="M344.497 124.801C344.698 125.059 344.698 125.059 344.497 124.801V124.801ZM313.315 109.578C310.516 111.223 315.696 116.05 317.015 116.797C319.985 118.476 324.065 118.73 327.38 119.202C331.576 119.8 336.143 120.02 340.175 121.396C341.894 121.982 342.985 122.896 344.11 124.301C344.68 125.013 346.053 128.082 347.303 127.355C349.82 125.892 343.038 119.753 341.544 119.093C338.147 117.592 334.131 117.172 330.499 116.589C327.122 116.047 323.672 115.644 320.378 114.689C318.567 114.163 317.279 113.316 316.235 111.694C315.584 110.684 315.051 108.563 313.315 109.578Z" fill="#C1DEE2"/>
<path opacity="0.5" fill-rule="evenodd" clip-rule="evenodd" d="M328.329 145.116C327.492 143.511 327.107 140.429 327.033 139.82C326.711 137.197 326.686 134.605 326.731 131.965C326.757 130.517 328.415 129.826 329.49 130.638C330.927 130.037 333.358 129.946 334.665 129.814C336.812 129.597 338.978 129.517 341.131 129.388C346.159 129.088 351.181 128.545 356.217 128.434C357.725 128.402 359.743 128.266 360.948 129.379C362.321 130.645 362.594 133.788 363.005 135.481C363.452 137.32 363.985 139.191 364.172 141.077C364.216 141.519 364.334 142.278 364.281 142.961C364.908 143.046 365.283 143.654 365.22 144.319C365.102 145.552 363.393 145.721 362.394 145.916C359.069 146.565 355.515 146.417 352.144 146.513C345.092 146.711 337.551 147.85 330.526 147.172C329.323 147.056 328.031 146.631 328.329 145.116ZM330.868 143.664C331.147 143.662 331.423 143.667 331.68 143.663C335.227 143.601 338.771 143.493 342.315 143.357C345.93 143.218 349.545 143.063 353.162 143.022C356.038 142.989 358.999 143.237 361.895 143.126C361.272 141.496 361.367 138.93 361.035 137.242C360.705 135.566 360.58 133.579 359.906 132.005C359.147 130.234 358.488 130.644 356.513 130.778C354.482 130.916 352.454 131.11 350.425 131.276C345.966 131.643 341.503 131.875 337.04 132.186C334.725 132.347 332.511 133.008 330.247 133.267C330.213 134.075 330.099 134.891 330.112 135.48C330.15 137.219 330.321 138.946 330.472 140.678C330.533 141.383 330.824 142.598 330.868 143.664Z" fill="#89C5CC"/>
</g>
<path fill-rule="evenodd" clip-rule="evenodd" d="M283.635 147.016C287.004 144.716 289.724 141.519 290.533 137.337C292.865 125.288 275.56 123.439 270.731 128.542C265.901 133.645 262.228 148.886 266.118 151.072C267.669 151.943 271.495 151.851 275.683 150.662L269.159 165.944L282.539 169.529L283.635 147.016Z" fill="#784931"/>
<path fill-rule="evenodd" clip-rule="evenodd" d="M277.757 123.458C279.734 123.395 282.438 123.919 283.52 124.345C283.289 122.667 283.487 120.919 284.131 119.338C284.757 117.802 285.836 116.64 286.879 115.399C287.36 114.827 287.88 114.27 288.531 113.908C289.193 113.54 289.949 113.382 290.69 113.408C291.448 113.435 292.191 113.649 292.867 113.99C293.166 114.141 293.411 114.36 293.7 114.523C293.996 114.69 294.203 114.534 294.487 114.398C295.171 114.069 296.049 114.052 296.775 114.156C297.59 114.273 298.377 114.61 299.061 115.069C299.726 115.516 300.321 116.111 300.692 116.845C300.858 117.172 300.991 117.529 301.042 117.898C301.062 118.049 301.05 118.132 301.174 118.218C301.288 118.298 301.435 118.339 301.554 118.418C302.704 119.181 303.525 120.438 303.78 121.837C303.929 122.654 303.75 123.973 303.322 125.391C302.894 126.809 300.592 130.191 299.009 131.226C297.596 132.149 295.782 132.522 294.146 132.46C294.859 133.894 295.152 135.527 295.261 137.136C295.379 138.884 295.272 140.639 294.943 142.368C294.63 144.011 294.185 145.717 293.381 147.192C292.63 148.57 291.544 149.576 290.066 150.002C289.388 150.197 288.691 150.293 287.995 150.366C287.31 150.437 286.624 150.501 285.937 150.46C284.637 150.382 283.229 149.958 282.54 148.732C282.292 148.29 282.034 147.748 281.899 147.253C281.85 147.075 281.823 146.96 281.972 146.839C282.151 146.693 282.4 146.612 282.605 146.516C283.778 145.968 284.658 145.054 285.149 143.818C285.647 142.564 285.744 140.8 284.626 139.895C283.245 138.778 281.305 139.116 279.712 139.488C279.675 137.259 278.959 135.069 277.308 133.608C275.481 131.992 273.095 131.221 271.17 129.739C270.668 129.353 270.165 128.932 269.878 128.342C269.757 128.095 269.623 127.781 269.625 127.498C269.627 127.126 269.931 126.895 270.178 126.671C271.49 125.482 275.781 123.521 277.757 123.458Z" fill="#191847"/>
<path fill-rule="evenodd" clip-rule="evenodd" d="M279.488 216.119L258.564 289.264L243.297 343.177H232.162L248.385 216.119H279.488Z" fill="#191847"/>
<path fill-rule="evenodd" clip-rule="evenodd" d="M285.084 216.119C285.568 253.819 287.218 274.381 287.726 277.807C288.234 281.232 295.918 303.022 310.777 343.177H299.242C280.325 304.655 269.765 282.865 267.563 277.807C265.36 272.748 258.561 252.186 248.322 216.119H285.084Z" fill="#2F3676"/>
<path fill-rule="evenodd" clip-rule="evenodd" d="M311.809 353.614L311.231 341.494H299.111C293.364 345.534 285.861 348.805 276.602 351.306V353.614H298.534L306.037 352.46V353.614H311.809Z" fill="#191847"/>
<path fill-rule="evenodd" clip-rule="evenodd" d="M244.859 353.614L244.282 341.494H232.162C226.415 345.534 218.912 348.805 209.653 351.306V353.614H231.585L239.088 352.46V353.614H244.859Z" fill="#191847"/>
<path fill-rule="evenodd" clip-rule="evenodd" d="M232.443 200.881L212.734 212.33C207.628 213.14 203.306 214.362 199.767 215.995C198.905 216.626 197.802 217.971 201.092 218.065C204.382 218.159 207.839 218.406 208.173 219.561C208.507 220.717 206.393 221.833 207.147 223.424C207.65 224.485 210.779 222.288 216.534 216.835L235.448 211.265L232.443 200.881ZM311.241 208.317L300.917 207.997C307.61 233.233 311.228 246.592 311.771 248.077C312.992 251.416 309.997 256.329 308.697 258.98C312.57 260.872 312.373 254.369 317.256 256.843C321.713 259.102 325.028 263.024 330.371 259.997C331.028 259.625 331.784 258.162 330.12 256.939C325.976 253.892 320.034 248.606 319.265 246.908C318.216 244.593 315.542 231.729 311.241 208.317Z" fill="#B28B67"/>
<path fill-rule="evenodd" clip-rule="evenodd" d="M276.366 160.061L270.49 156.908C258.319 176.45 242.111 194.577 217.994 208.049L221.63 217.92C242.076 210.325 261.106 204.98 271.098 189.937C274.451 184.887 275.407 166.636 276.366 160.061Z" fill="#C5CFD6"/>
<path fill-rule="evenodd" clip-rule="evenodd" d="M287.353 223.037C269.151 221.772 255.086 219.292 245.158 215.597C243.928 215.139 244.101 212.986 244.944 211.653C258.071 190.888 267.811 172.467 270.552 156.919C272.088 158.061 275.013 158.708 279.329 158.859C287.823 176.877 289.784 196.177 287.353 223.037Z" fill="#323337"/>
<path fill-rule="evenodd" clip-rule="evenodd" d="M282.38 158.012L277.663 157.18C275.431 163.414 256.619 249.845 240.904 276.433L298.769 286.636C302.114 260.331 297.743 227.253 292.341 199.265C299.782 208.9 305.097 223.939 308.284 244.382L319.611 243.525C317.645 207.549 305.554 179.229 283.339 158.565C283.307 158.431 283.275 158.297 283.243 158.164L282.825 158.091C282.689 157.965 282.552 157.84 282.415 157.716L282.38 158.012Z" fill="#DDE3E9"/>
</svg>
