<svg width="499" height="459" viewBox="0 0 499 459" fill="none" xmlns="http://www.w3.org/2000/svg">
<path fill-rule="evenodd" clip-rule="evenodd" d="M465.436 131.851C465.076 131.589 464.223 131.496 463.826 131.417C462.176 131.092 460.476 130.95 458.793 130.95C453.606 130.958 448.334 131.468 443.232 132.35C439.993 132.91 436.077 134.795 432.855 133.771C427.242 131.988 421.569 132.075 416.243 134.621C411.374 136.95 407.678 141.371 405.521 146.149C405.195 146.87 403.875 149.525 403.501 151.314C403.341 151.68 403.188 152.049 403.049 152.423C402.656 153.484 402.304 154.565 401.977 155.647C401.837 156.109 401.485 157.128 401.903 157.325C401.236 158.558 400.644 159.829 400.151 161.14C398.718 164.955 397.152 169.14 396.648 173.183C396.462 174.68 396.455 176.186 396.628 177.686C396.713 178.428 396.678 179.919 397.18 180.483C398.246 181.679 398.793 180.004 398.673 179.207C397.756 173.127 399.527 167.418 401.627 161.704C402.984 158.009 405.215 154.628 407.714 151.566C409.736 149.088 411.906 147.136 414.678 145.493C418.068 143.484 421.693 141.86 425.284 140.23C427.646 139.158 430.011 138.115 432.438 137.191C432.978 136.986 433.828 136.459 434.426 136.457C435.692 136.452 437.486 137.387 438.709 137.735C442.731 138.88 446.804 140.345 450.96 140.93C453.626 141.305 456.124 140.883 458.617 139.994C458.872 139.903 459.299 139.669 459.822 139.336C461.674 138.623 463.425 137.726 464.949 136.432C465.828 135.686 466.625 134.723 467.352 133.841C467.569 133.577 467.666 133.275 467.669 132.987C467.834 132.901 467.943 132.801 467.968 132.683C468.149 131.815 466.495 131.799 465.436 131.851Z" fill="#89C5CC"/>
<path fill-rule="evenodd" clip-rule="evenodd" d="M44.0155 204.215C42.9977 205.04 41.9995 205.883 41.0256 206.759C40.2835 207.428 38.97 208.228 38.7035 209.24C38.4266 210.292 39.301 211.277 39.9917 211.913C43.6446 215.277 47.7578 217.551 52.8194 217.93C60.6131 218.512 67.3959 216.52 74.1579 212.6C78.9079 209.846 82.0543 205.773 82.7415 200.273C88.3983 202.626 93.8695 205.87 98.5188 209.851C100.813 211.816 102.789 213.992 104.616 216.405C105.787 217.95 106.919 219.52 107.97 221.151C108.426 221.859 108.891 223.116 109.645 223.524C110.53 224.003 111.6 223.252 111.556 222.267C111.519 221.447 110.635 220.495 110.221 219.825C109.534 218.712 108.837 217.606 108.103 216.524C106.915 214.771 105.687 213.043 104.348 211.403C101.338 207.718 97.5082 204.674 93.5385 202.078C85.9226 197.098 77.5645 193.961 68.2977 193.695C62.5997 193.531 57.8064 195.48 52.9337 198.39C49.9 200.202 46.7683 201.983 44.0155 204.215Z" fill="#DDE3E9"/>
<path fill-rule="evenodd" clip-rule="evenodd" d="M117.928 180.128C111.99 174.006 106.032 167.961 99.3976 162.571C95.488 159.395 91.3675 156.507 87.3321 153.496C87.7979 153.904 88.2545 154.324 88.7001 154.754C87.4406 153.898 85.7916 153.415 84.4561 152.622C82.9666 151.739 81.5427 150.728 80.146 149.709C77.4198 147.72 74.7346 145.694 71.9323 143.809C68.8101 141.71 65.5744 139.769 62.399 137.749C59.7041 136.034 56.9763 134.157 54.0933 132.755C52.522 131.991 50.947 131.085 49.3692 130.288C48.8412 130.022 43.4832 126.635 43.4967 126.625C43.7929 126.402 46.4891 127.67 46.906 127.84C48.1241 128.338 49.2889 128.934 50.46 129.528C49.8172 128.259 49.3084 126.925 49.0314 125.522C48.9459 125.089 48.2604 121.935 48.6111 121.67C48.7863 121.538 50.4957 127.181 50.5833 127.723C50.6544 128.164 50.644 128.798 50.7881 129.216C51.0207 129.89 51.009 129.686 51.5215 130.066C52.4609 130.761 53.7078 131.196 54.7244 131.778C55.2727 132.084 56.9701 133.299 57.9925 133.645C61.0859 135.149 64.2215 137.463 67.1607 139.384C66.3893 137.933 65.8022 136.416 65.3742 134.825C65.2723 134.448 64.1737 131.061 64.4403 130.86C64.7402 130.634 66.8334 135.806 66.9574 136.296C67.1877 137.206 67.2356 138.218 67.5239 139.103C67.8405 140.074 68.8282 140.419 69.7185 140.985C72.9939 143.068 76.1568 145.282 79.2671 147.597C82.6607 141.555 78.7477 134.259 75.4498 129.19C73.0728 125.537 69.8725 122.405 66.4936 119.67C61.9841 116.021 56.8246 113.105 51.6715 110.438C45.6671 107.331 39.1774 105.406 32.4305 104.516C28.9018 104.051 25.2917 104.064 21.7273 104.213C19.9861 104.286 18.3148 104.517 16.6461 105.085C15.8941 105.342 15.1672 105.665 14.4589 106.027C13.9208 106.302 12.6189 106.592 12.3095 107.002C9.76232 110.321 8.45923 113.627 8.65822 117.798C8.84639 121.745 10.0919 125.695 11.7821 129.216C13.6645 133.137 16.0855 136.695 19.2517 139.682C21.6674 141.961 24.3682 143.944 27.0511 145.901C36.5936 152.863 48.6917 158.917 61.0508 157.362C65.0515 156.858 68.8566 155.458 72.4126 153.555C73.2504 153.106 74.0833 152.653 74.8742 152.123C75.4075 151.766 76.8331 150.158 77.3694 150.099C78.1046 150.019 79.6885 151.516 80.3783 151.972C85.6203 155.436 90.725 159.087 95.7227 162.886C101.04 166.928 106.096 171.245 111.004 175.765C113.091 177.688 115.165 179.615 117.192 181.602C117.663 182.064 118.817 183.767 119.673 183.844C120.214 183.893 120.579 183.43 120.501 182.929C120.367 182.058 118.536 180.754 117.928 180.128Z" fill="#C1DEE2"/>
<path fill-rule="evenodd" clip-rule="evenodd" d="M459.202 156.37C456.902 155.867 454.362 155.906 452.019 155.947C439.454 156.118 427.115 162.073 419.085 171.588C412.249 179.688 410.369 189.759 409.019 199.94C408.885 200.95 408.827 201.955 408.752 202.968C408.736 203.185 408.711 203.379 408.685 203.561C408.154 204.037 407.876 204.591 408.19 205.2C407.02 207.763 406.03 210.391 405.181 213.101C402.681 221.08 400.139 229.21 401.705 237.6C402.071 232.983 402.841 228.262 403.761 223.721C403.814 223.46 403.871 223.201 403.931 222.944C403.937 222.917 403.943 222.889 403.949 222.862C404.275 221.472 404.698 220.123 405.213 218.795C405.219 218.78 405.224 218.766 405.23 218.752C405.298 218.577 405.37 218.403 405.441 218.229C405.589 217.87 405.74 217.511 405.901 217.153C405.955 217.032 406.008 216.909 406.058 216.785C406.808 214.945 407.124 212.872 407.796 210.968C407.957 210.535 408.125 210.104 408.301 209.675C408.311 209.65 408.322 209.624 408.333 209.599C408.808 208.445 409.334 207.305 409.89 206.176C410.192 205.949 410.354 205.385 410.614 204.873C410.668 204.772 411.089 204.098 411.215 203.71C411.542 203.076 411.868 202.442 412.198 201.81C412.188 201.813 412.178 201.817 412.168 201.821C412.498 201.213 412.829 200.608 413.157 200.005C413.23 199.873 413.303 199.74 413.375 199.608C413.493 199.396 413.611 199.185 413.729 198.974C414.829 197.003 415.996 195.071 417.208 193.163C417.641 192.482 418.674 191.505 418.872 190.741C418.88 190.712 418.881 190.686 418.886 190.658C421.515 186.961 424.543 183.551 428.174 180.849C427.735 181.324 426.802 182.935 426.555 183.254C425.801 184.231 424.981 185.14 424.159 186.061C422.686 187.71 421.248 189.411 419.97 191.21C417.633 194.5 415.617 197.962 413.711 201.494C413.693 201.515 413.673 201.534 413.656 201.556C412.698 202.737 412.096 204.524 411.406 205.876C414.135 204.611 417.152 203.786 419.952 202.663C422.745 201.543 425.461 200.296 428.084 198.832C431.57 196.886 435.186 194.688 438.48 192.201C442.254 189.858 445.426 186.632 448.226 183.247C451.538 179.242 454.574 175.201 456.451 170.338C457.373 167.949 458.099 165.457 458.529 162.936C458.548 162.826 458.572 162.707 458.598 162.583C459.038 161.712 459.432 160.822 459.762 159.911C460.286 158.467 461.524 156.878 459.202 156.37Z" fill="#69A1AC"/>
<path fill-rule="evenodd" clip-rule="evenodd" d="M69.4613 173.292C68.7407 172.511 67.9314 171.806 66.9812 171.304C66.741 171.177 64.9516 170.326 64.8351 170.513C64.5636 170.947 69.2448 173.043 69.4613 173.292ZM77.9451 168.075C77.9392 168.108 78.5597 169.162 78.7286 169.486C79.0882 170.175 79.4201 170.877 79.7324 171.581C79.2701 170.338 78.795 169.185 77.9451 168.075ZM34.556 176.654C33.9584 176.846 33.2399 176.087 34.015 175.9C34.6422 175.75 34.6115 175.714 34.8931 175.209C35.1217 174.798 35.2626 174.297 35.4633 173.866C35.8889 172.952 36.3717 172.081 36.9644 171.264C38.2345 169.513 39.7821 168.004 41.5178 166.733C44.5469 164.514 47.9432 162.486 51.546 161.468C57.2745 159.848 63.7943 159.747 69.5318 160.871C73.0851 161.566 76.3325 162.775 78.692 165.639C79.8713 167.071 80.797 168.747 81.2017 170.594C81.3073 171.076 81.2875 171.613 81.4197 172.085C81.6229 172.812 81.5333 172.618 82.3821 172.76C83.309 172.914 84.235 173.072 85.1609 173.232C87.5849 173.652 90.0232 174.097 92.3851 174.778C93.1626 175.002 93.9229 175.276 94.6656 175.595C95.2273 175.835 97.4641 176.59 97.7358 177.321C98.1883 178.536 96.6724 177.985 96.2014 177.72C95.7887 177.488 95.3651 177.272 94.9353 177.073C93.8531 176.572 92.7256 176.184 91.5726 175.875C90.3267 175.542 89.0552 175.293 87.7887 175.043C86.6075 174.811 85.422 174.599 84.2349 174.397C83.5754 174.285 82.9154 174.176 82.2554 174.067C82.0299 174.029 81.6323 173.834 81.6624 174.127C80.2747 173.86 78.7741 173.898 77.3607 173.824C75.6294 173.734 73.8918 173.66 72.1548 173.714C70.902 173.753 69.6481 173.836 68.4017 174.004C67.6733 174.103 66.9566 174.247 66.242 174.429C65.8495 174.529 64.3017 174.742 64.0879 175.084C64.1797 174.937 65.888 175.08 66.1054 175.072C66.9751 175.039 67.838 174.953 68.7045 174.856C70.3124 174.676 71.921 174.582 73.5339 174.596C73.5278 174.879 72.426 175.384 72.1571 175.572C71.554 175.993 70.9765 176.453 70.4377 176.957C69.4884 177.844 68.3518 178.944 67.6953 179.996C67.8888 179.686 68.8433 179.283 69.1821 179.046C69.7248 178.666 70.2564 178.261 70.7595 177.829C71.2238 177.429 71.6572 176.997 72.0833 176.556C72.5094 176.115 73.0877 175.198 73.6477 174.904C73.6815 174.887 73.9255 175.08 74.0642 175.014C74.2039 174.948 74.3781 174.617 74.4135 174.604C74.9347 174.403 75.9246 174.653 76.4726 174.678C77.8936 174.744 79.3132 174.83 80.7332 174.908C81.1731 174.932 81.5469 174.832 81.7131 175.157C81.8901 175.503 81.5657 176.414 81.4734 176.791C81.1311 178.192 80.5229 179.449 79.5657 180.535C77.7731 182.568 75.5626 183.924 73.0653 184.831C63.5004 188.305 53.3246 189.696 43.7626 186.082C39.8039 184.586 33.8421 181.913 34.556 176.654Z" fill="#89C5CC"/>
<g opacity="0.6">
<path opacity="0.6" fill-rule="evenodd" clip-rule="evenodd" d="M472.507 340.303C479.014 384.397 321.206 413.157 185.377 393.086C49.5481 373.014 -12.7638 294.633 52.0515 252.869C116.867 211.104 465.999 296.209 472.507 340.303Z" fill="#DDE3E9"/>
</g>
<path d="M194.88 51.3H98.4512C95.4719 51.3 93.0566 53.7177 93.0566 56.7V249.75C93.0566 252.732 95.4719 255.15 98.4512 255.15H194.88C197.859 255.15 200.274 252.732 200.274 249.75V56.7C200.274 53.7177 197.859 51.3 194.88 51.3Z" fill="#F2F2F2"/>
<path d="M146.328 242.325C151.915 242.325 156.443 237.792 156.443 232.2C156.443 226.608 151.915 222.075 146.328 222.075C140.742 222.075 136.213 226.608 136.213 232.2C136.213 237.792 140.742 242.325 146.328 242.325Z" fill="white"/>
<path d="M137.562 64.8C138.307 64.8 138.911 64.1956 138.911 63.45C138.911 62.7044 138.307 62.1 137.562 62.1C136.817 62.1 136.213 62.7044 136.213 63.45C136.213 64.1956 136.817 64.8 137.562 64.8Z" fill="white"/>
<path d="M155.094 62.1H143.631C142.886 62.1 142.282 62.7044 142.282 63.45C142.282 64.1956 142.886 64.8 143.631 64.8H155.094C155.839 64.8 156.443 64.1956 156.443 63.45C156.443 62.7044 155.839 62.1 155.094 62.1Z" fill="white"/>
<path d="M188.136 70.2H105.194C103.705 70.2 102.497 71.4088 102.497 72.9V103.95C102.497 105.441 103.705 106.65 105.194 106.65H188.136C189.626 106.65 190.834 105.441 190.834 103.95V72.9C190.834 71.4088 189.626 70.2 188.136 70.2Z" fill="white"/>
<path d="M175.998 81.135H130.819C129.701 81.135 128.796 82.0416 128.796 83.16V84.5775C128.796 85.6959 129.701 86.6025 130.819 86.6025H175.998C177.116 86.6025 178.021 85.6959 178.021 84.5775V83.16C178.021 82.0416 177.116 81.135 175.998 81.135Z" fill="#DDE3E9"/>
<path d="M159.815 90.2475H130.819C129.701 90.2475 128.796 91.1541 128.796 92.2725V93.69C128.796 94.8084 129.701 95.715 130.819 95.715H159.815C160.932 95.715 161.838 94.8084 161.838 93.69V92.2725C161.838 91.1541 160.932 90.2475 159.815 90.2475Z" fill="#DDE3E9"/>
<path d="M116.658 96.525C121.127 96.525 124.75 92.8985 124.75 88.425C124.75 83.9515 121.127 80.325 116.658 80.325C112.189 80.325 108.566 83.9515 108.566 88.425C108.566 92.8985 112.189 96.525 116.658 96.525Z" fill="#C5CFD6"/>
<path d="M188.136 112.05H105.194C103.705 112.05 102.497 113.259 102.497 114.75V137.7C102.497 139.191 103.705 140.4 105.194 140.4H188.136C189.626 140.4 190.834 139.191 190.834 137.7V114.75C190.834 113.259 189.626 112.05 188.136 112.05Z" fill="white"/>
<path d="M175.998 120.555H130.819C129.701 120.555 128.796 121.462 128.796 122.58V122.783C128.796 123.901 129.701 124.808 130.819 124.808H175.998C177.116 124.808 178.021 123.901 178.021 122.783V122.58C178.021 121.462 177.116 120.555 175.998 120.555Z" fill="#DDE3E9"/>
<path d="M159.815 127.643H130.819C129.701 127.643 128.796 128.549 128.796 129.668V129.87C128.796 130.988 129.701 131.895 130.819 131.895H159.815C160.932 131.895 161.838 130.988 161.838 129.87V129.668C161.838 128.549 160.932 127.643 159.815 127.643Z" fill="#DDE3E9"/>
<path d="M116.658 134.325C121.127 134.325 124.75 130.699 124.75 126.225C124.75 121.752 121.127 118.125 116.658 118.125C112.189 118.125 108.566 121.752 108.566 126.225C108.566 130.699 112.189 134.325 116.658 134.325Z" fill="#C5CFD6"/>
<path d="M188.136 145.8H105.194C103.705 145.8 102.497 147.009 102.497 148.5V171.45C102.497 172.941 103.705 174.15 105.194 174.15H188.136C189.626 174.15 190.834 172.941 190.834 171.45V148.5C190.834 147.009 189.626 145.8 188.136 145.8Z" fill="white"/>
<path d="M175.998 154.305H130.819C129.701 154.305 128.796 155.212 128.796 156.33V156.533C128.796 157.651 129.701 158.558 130.819 158.558H175.998C177.116 158.558 178.021 157.651 178.021 156.533V156.33C178.021 155.212 177.116 154.305 175.998 154.305Z" fill="#DDE3E9"/>
<path d="M159.815 161.393H130.819C129.701 161.393 128.796 162.299 128.796 163.418V163.62C128.796 164.738 129.701 165.645 130.819 165.645H159.815C160.932 165.645 161.838 164.738 161.838 163.62V163.418C161.838 162.299 160.932 161.393 159.815 161.393Z" fill="#DDE3E9"/>
<path d="M116.658 168.075C121.127 168.075 124.75 164.449 124.75 159.975C124.75 155.502 121.127 151.875 116.658 151.875C112.189 151.875 108.566 155.502 108.566 159.975C108.566 164.449 112.189 168.075 116.658 168.075Z" fill="#AFB9C5"/>
<path d="M188.136 179.55H105.194C103.705 179.55 102.497 180.759 102.497 182.25V205.2C102.497 206.691 103.705 207.9 105.194 207.9H188.136C189.626 207.9 190.834 206.691 190.834 205.2V182.25C190.834 180.759 189.626 179.55 188.136 179.55Z" fill="white"/>
<path d="M175.998 188.055H130.819C129.701 188.055 128.796 188.962 128.796 190.08V190.283C128.796 191.401 129.701 192.308 130.819 192.308H175.998C177.116 192.308 178.021 191.401 178.021 190.283V190.08C178.021 188.962 177.116 188.055 175.998 188.055Z" fill="#DDE3E9"/>
<path d="M159.815 195.143H130.819C129.701 195.143 128.796 196.049 128.796 197.168V197.37C128.796 198.488 129.701 199.395 130.819 199.395H159.815C160.932 199.395 161.838 198.488 161.838 197.37V197.168C161.838 196.049 160.932 195.143 159.815 195.143Z" fill="#DDE3E9"/>
<path d="M116.658 201.825C121.127 201.825 124.75 198.199 124.75 193.725C124.75 189.252 121.127 185.625 116.658 185.625C112.189 185.625 108.566 189.252 108.566 193.725C108.566 198.199 112.189 201.825 116.658 201.825Z" fill="#C5CFD6"/>
<path fill-rule="evenodd" clip-rule="evenodd" d="M113.381 216C112.487 216 111.597 216.018 110.705 216.064C110.024 216.1 108.985 215.959 108.41 216.383C107.812 216.824 107.853 217.726 107.946 218.363C108.44 221.733 109.645 224.72 112.166 227.108C116.048 230.783 120.498 232.651 125.764 233.483C129.463 234.067 132.878 233.256 135.601 230.622C137.591 234.319 139.1 238.409 139.858 242.538C140.231 244.575 140.345 246.587 140.28 248.662C140.237 249.99 140.164 251.316 140.022 252.638C139.96 253.213 139.667 254.082 139.892 254.625C140.156 255.263 141.045 255.325 141.444 254.781C141.777 254.329 141.716 253.44 141.784 252.904C141.897 252.015 142.002 251.124 142.077 250.231C142.199 248.784 142.289 247.333 142.282 245.881C142.267 242.619 141.542 239.343 140.551 236.246C138.649 230.305 135.564 225.024 130.765 220.881C127.815 218.334 124.438 217.302 120.607 216.748C118.221 216.403 115.797 216 113.381 216Z" fill="#89C5CC"/>
<path fill-rule="evenodd" clip-rule="evenodd" d="M127.158 239.625C117.516 239.625 111.022 247.404 107.952 255.489C106.794 258.536 106.523 261.882 106.077 265.082C105.934 266.109 105.987 267.674 105.57 268.589C105.419 268.92 105.073 269.04 105.238 269.492C105.339 269.765 105.535 269.933 105.831 269.987C106.437 270.099 107.295 269.438 107.815 269.177C112.128 267.012 114.962 263.664 117.273 259.568C118.706 257.029 120.16 254.393 121.012 251.606C121.532 249.903 121.834 248.11 122.012 246.344C122.082 245.648 122.15 244.936 122.146 244.236C122.142 243.542 121.819 243.175 121.587 242.571C124.804 241.351 128.436 241.019 131.695 242.283C134.709 243.451 137.213 245.709 138.615 248.545C138.979 249.283 139.26 250.061 139.465 250.854C139.598 251.374 139.605 252.048 139.853 252.518C140.455 253.657 141.722 252.895 141.6 251.835C141.261 248.878 139.571 245.908 137.41 243.852C134.686 241.259 130.993 239.625 127.158 239.625Z" fill="#89C5CC"/>
<path d="M239.385 68.85H142.957C139.977 68.85 137.562 71.2677 137.562 74.25V267.3C137.562 270.282 139.977 272.7 142.957 272.7H239.385C242.365 272.7 244.78 270.282 244.78 267.3V74.25C244.78 71.2677 242.365 68.85 239.385 68.85Z" fill="#DDE3E9"/>
<path d="M190.834 259.875C196.42 259.875 200.948 255.342 200.948 249.75C200.948 244.158 196.42 239.625 190.834 239.625C185.247 239.625 180.719 244.158 180.719 249.75C180.719 255.342 185.247 259.875 190.834 259.875Z" fill="white"/>
<path d="M182.067 82.35C182.812 82.35 183.416 81.7456 183.416 81C183.416 80.2544 182.812 79.65 182.067 79.65C181.323 79.65 180.719 80.2544 180.719 81C180.719 81.7456 181.323 82.35 182.067 82.35Z" fill="white"/>
<path d="M199.6 79.65H188.136C187.391 79.65 186.788 80.2544 186.788 81C186.788 81.7456 187.391 82.35 188.136 82.35H199.6C200.345 82.35 200.948 81.7456 200.948 81C200.948 80.2544 200.345 79.65 199.6 79.65Z" fill="white"/>
<path d="M232.642 87.75H149.7C148.21 87.75 147.003 88.9588 147.003 90.45V121.5C147.003 122.991 148.21 124.2 149.7 124.2H232.642C234.132 124.2 235.339 122.991 235.339 121.5V90.45C235.339 88.9588 234.132 87.75 232.642 87.75Z" fill="white"/>
<path d="M200.274 98.685H155.095C153.977 98.685 153.072 99.5916 153.072 100.71V102.127C153.072 103.246 153.977 104.152 155.095 104.152H200.274C201.391 104.152 202.297 103.246 202.297 102.127V100.71C202.297 99.5916 201.391 98.685 200.274 98.685Z" fill="#DDE3E9"/>
<path d="M184.09 107.797H155.095C153.977 107.797 153.072 108.704 153.072 109.822V111.24C153.072 112.358 153.977 113.265 155.095 113.265H184.09C185.208 113.265 186.113 112.358 186.113 111.24V109.822C186.113 108.704 185.208 107.797 184.09 107.797Z" fill="#DDE3E9"/>
<path d="M225.898 110.7C228.505 110.7 230.619 108.585 230.619 105.975C230.619 103.365 228.505 101.25 225.898 101.25C223.292 101.25 221.178 103.365 221.178 105.975C221.178 108.585 223.292 110.7 225.898 110.7Z" fill="#DDE3E9"/>
<path d="M225.898 108C227.016 108 227.921 107.093 227.921 105.975C227.921 104.857 227.016 103.95 225.898 103.95C224.781 103.95 223.875 104.857 223.875 105.975C223.875 107.093 224.781 108 225.898 108Z" fill="#F2F2F2"/>
<path d="M232.642 129.6H149.7C148.21 129.6 147.003 130.809 147.003 132.3V155.25C147.003 156.741 148.21 157.95 149.7 157.95H232.642C234.132 157.95 235.339 156.741 235.339 155.25V132.3C235.339 130.809 234.132 129.6 232.642 129.6Z" fill="white"/>
<path d="M220.504 138.105H175.324C174.207 138.105 173.301 139.012 173.301 140.13V140.332C173.301 141.451 174.207 142.357 175.324 142.357H220.504C221.621 142.357 222.527 141.451 222.527 140.332V140.13C222.527 139.012 221.621 138.105 220.504 138.105Z" fill="#DDE3E9"/>
<path d="M204.32 145.193H175.324C174.207 145.193 173.301 146.099 173.301 147.217V147.42C173.301 148.538 174.207 149.445 175.324 149.445H204.32C205.437 149.445 206.343 148.538 206.343 147.42V147.217C206.343 146.099 205.437 145.193 204.32 145.193Z" fill="#DDE3E9"/>
<path d="M161.163 151.875C165.632 151.875 169.255 148.249 169.255 143.775C169.255 139.301 165.632 135.675 161.163 135.675C156.694 135.675 153.072 139.301 153.072 143.775C153.072 148.249 156.694 151.875 161.163 151.875Z" fill="#C5CFD6"/>
<path d="M232.642 163.35H149.7C148.21 163.35 147.003 164.559 147.003 166.05V189C147.003 190.491 148.21 191.7 149.7 191.7H232.642C234.132 191.7 235.339 190.491 235.339 189V166.05C235.339 164.559 234.132 163.35 232.642 163.35Z" fill="white"/>
<path d="M200.274 171.855H155.095C153.977 171.855 153.072 172.762 153.072 173.88V174.082C153.072 175.201 153.977 176.107 155.095 176.107H200.274C201.391 176.107 202.297 175.201 202.297 174.082V173.88C202.297 172.762 201.391 171.855 200.274 171.855Z" fill="#DDE3E9"/>
<path d="M184.09 178.943H155.095C153.977 178.943 153.072 179.849 153.072 180.968V181.17C153.072 182.288 153.977 183.195 155.095 183.195H184.09C185.208 183.195 186.113 182.288 186.113 181.17V180.968C186.113 179.849 185.208 178.943 184.09 178.943Z" fill="#AFB9C5"/>
<path d="M225.898 182.25C228.505 182.25 230.619 180.135 230.619 177.525C230.619 174.915 228.505 172.8 225.898 172.8C223.292 172.8 221.178 174.915 221.178 177.525C221.178 180.135 223.292 182.25 225.898 182.25Z" fill="#DDE3E9"/>
<path d="M225.898 179.55C227.016 179.55 227.921 178.643 227.921 177.525C227.921 176.407 227.016 175.5 225.898 175.5C224.781 175.5 223.875 176.407 223.875 177.525C223.875 178.643 224.781 179.55 225.898 179.55Z" fill="#F2F2F2"/>
<path d="M232.642 197.1H149.7C148.21 197.1 147.003 198.309 147.003 199.8V222.75C147.003 224.241 148.21 225.45 149.7 225.45H232.642C234.132 225.45 235.339 224.241 235.339 222.75V199.8C235.339 198.309 234.132 197.1 232.642 197.1Z" fill="white"/>
<path d="M220.504 205.605H175.324C174.207 205.605 173.301 206.512 173.301 207.63V207.832C173.301 208.951 174.207 209.857 175.324 209.857H220.504C221.621 209.857 222.527 208.951 222.527 207.832V207.63C222.527 206.512 221.621 205.605 220.504 205.605Z" fill="#DDE3E9"/>
<path d="M204.32 212.692H175.324C174.207 212.692 173.301 213.599 173.301 214.717V214.92C173.301 216.038 174.207 216.945 175.324 216.945H204.32C205.437 216.945 206.343 216.038 206.343 214.92V214.717C206.343 213.599 205.437 212.692 204.32 212.692Z" fill="#DDE3E9"/>
<path d="M161.163 219.375C165.632 219.375 169.255 215.748 169.255 211.275C169.255 206.801 165.632 203.175 161.163 203.175C156.694 203.175 153.072 206.801 153.072 211.275C153.072 215.748 156.694 219.375 161.163 219.375Z" fill="#C5CFD6"/>
<path d="M402.571 85.725H187.462C184.483 85.725 182.067 88.1427 182.067 91.125V313.875C182.067 316.857 184.483 319.275 187.462 319.275H402.571C405.551 319.275 407.966 316.857 407.966 313.875V91.125C407.966 88.1427 405.551 85.725 402.571 85.725Z" fill="#F2F2F2"/>
<path d="M391.782 114.75H355.369C352.389 114.75 349.974 117.168 349.974 120.15V164.025C349.974 167.007 352.389 169.425 355.369 169.425H391.782C394.762 169.425 397.177 167.007 397.177 164.025V120.15C397.177 117.168 394.762 114.75 391.782 114.75Z" fill="white"/>
<path d="M373.575 146.475C379.534 146.475 384.365 141.64 384.365 135.675C384.365 129.71 379.534 124.875 373.575 124.875C367.617 124.875 362.786 129.71 362.786 135.675C362.786 141.64 367.617 146.475 373.575 146.475Z" fill="#DDE3E9"/>
<path d="M388.411 149.175H358.74C357.623 149.175 356.717 150.082 356.717 151.2C356.717 152.318 357.623 153.225 358.74 153.225H388.411C389.528 153.225 390.434 152.318 390.434 151.2C390.434 150.082 389.528 149.175 388.411 149.175Z" fill="#DDE3E9"/>
<path d="M383.016 155.925H364.135C363.018 155.925 362.112 156.832 362.112 157.95C362.112 159.068 363.018 159.975 364.135 159.975H383.016C384.133 159.975 385.039 159.068 385.039 157.95C385.039 156.832 384.133 155.925 383.016 155.925Z" fill="#DDE3E9"/>
<path fill-rule="evenodd" clip-rule="evenodd" d="M187.462 85.725H402.571C405.551 85.725 407.966 88.1427 407.966 91.125V103.95H182.067V91.125C182.067 88.1427 184.483 85.725 187.462 85.725Z" fill="#C5CFD6"/>
<path d="M190.834 97.875C192.323 97.875 193.531 96.6662 193.531 95.175C193.531 93.6838 192.323 92.475 190.834 92.475C189.344 92.475 188.136 93.6838 188.136 95.175C188.136 96.6662 189.344 97.875 190.834 97.875Z" fill="#F2F2F2"/>
<path d="M198.925 97.875C200.415 97.875 201.623 96.6662 201.623 95.175C201.623 93.6838 200.415 92.475 198.925 92.475C197.436 92.475 196.228 93.6838 196.228 95.175C196.228 96.6662 197.436 97.875 198.925 97.875Z" fill="#F2F2F2"/>
<path d="M207.017 97.875C208.507 97.875 209.714 96.6662 209.714 95.175C209.714 93.6838 208.507 92.475 207.017 92.475C205.527 92.475 204.32 93.6838 204.32 95.175C204.32 96.6662 205.527 97.875 207.017 97.875Z" fill="#F2F2F2"/>
<path d="M391.782 174.825H355.369C352.389 174.825 349.974 177.243 349.974 180.225V300.375C349.974 303.357 352.389 305.775 355.369 305.775H391.782C394.762 305.775 397.177 303.357 397.177 300.375V180.225C397.177 177.243 394.762 174.825 391.782 174.825Z" fill="white"/>
<path d="M382.342 186.975H364.809C363.319 186.975 362.112 188.184 362.112 189.675V201.825C362.112 203.316 363.319 204.525 364.809 204.525H382.342C383.831 204.525 385.039 203.316 385.039 201.825V189.675C385.039 188.184 383.831 186.975 382.342 186.975Z" fill="#DDE3E9"/>
<path d="M382.342 209.925H364.809C363.319 209.925 362.112 211.134 362.112 212.625V224.1C362.112 225.591 363.319 226.8 364.809 226.8H382.342C383.831 226.8 385.039 225.591 385.039 224.1V212.625C385.039 211.134 383.831 209.925 382.342 209.925Z" fill="#AFB9C5"/>
<path d="M382.342 232.2H364.809C363.319 232.2 362.112 233.409 362.112 234.9V246.375C362.112 247.866 363.319 249.075 364.809 249.075H382.342C383.831 249.075 385.039 247.866 385.039 246.375V234.9C385.039 233.409 383.831 232.2 382.342 232.2Z" fill="#DDE3E9"/>
<path d="M382.342 276.75H364.809C363.319 276.75 362.112 277.959 362.112 279.45V290.925C362.112 292.416 363.319 293.625 364.809 293.625H382.342C383.831 293.625 385.039 292.416 385.039 290.925V279.45C385.039 277.959 383.831 276.75 382.342 276.75Z" fill="#DDE3E9"/>
<path d="M382.342 254.475H364.809C363.319 254.475 362.112 255.684 362.112 257.175V268.65C362.112 270.141 363.319 271.35 364.809 271.35H382.342C383.831 271.35 385.039 270.141 385.039 268.65V257.175C385.039 255.684 383.831 254.475 382.342 254.475Z" fill="#C5CFD6"/>
<path d="M341.882 115.425H195.554C194.064 115.425 192.856 116.634 192.856 118.125V144.45C192.856 145.941 194.064 147.15 195.554 147.15H341.882C343.372 147.15 344.579 145.941 344.579 144.45V118.125C344.579 116.634 343.372 115.425 341.882 115.425Z" fill="white"/>
<path d="M309.514 124.943H200.948C199.831 124.943 198.925 125.849 198.925 126.968V127.676C198.925 128.795 199.831 129.701 200.948 129.701H309.514C310.632 129.701 311.537 128.795 311.537 127.676V126.968C311.537 125.849 310.632 124.943 309.514 124.943Z" fill="#DDE3E9"/>
<path d="M272.491 132.874H200.948C199.831 132.874 198.925 133.78 198.925 134.899V135.608C198.925 136.726 199.831 137.633 200.948 137.633H272.491C273.609 137.633 274.514 136.726 274.514 135.608V134.899C274.514 133.78 273.609 132.874 272.491 132.874Z" fill="#DDE3E9"/>
<path d="M328.365 136.012C330.972 136.012 333.085 133.897 333.085 131.287C333.085 128.678 330.972 126.562 328.365 126.562C325.758 126.562 323.645 128.678 323.645 131.287C323.645 133.897 325.758 136.012 328.365 136.012Z" fill="#DDE3E9"/>
<path d="M328.365 133.313C329.482 133.313 330.388 132.406 330.388 131.288C330.388 130.169 329.482 129.263 328.365 129.263C327.248 129.263 326.342 130.169 326.342 131.288C326.342 132.406 327.248 133.313 328.365 133.313Z" fill="#F2F2F2"/>
<path d="M341.882 152.55H195.554C194.064 152.55 192.856 153.759 192.856 155.25V176.175C192.856 177.666 194.064 178.875 195.554 178.875H341.882C343.372 178.875 344.579 177.666 344.579 176.175V155.25C344.579 153.759 343.372 152.55 341.882 152.55Z" fill="white"/>
<path d="M309.565 160.448H200.898C199.808 160.448 198.925 161.331 198.925 162.422C198.925 163.512 199.808 164.396 200.898 164.396H309.565C310.654 164.396 311.537 163.512 311.537 162.422C311.537 161.331 310.654 160.448 309.565 160.448Z" fill="#DDE3E9"/>
<path d="M272.542 167.029H200.898C199.808 167.029 198.925 167.913 198.925 169.003C198.925 170.094 199.808 170.977 200.898 170.977H272.542C273.631 170.977 274.514 170.094 274.514 169.003C274.514 167.913 273.631 167.029 272.542 167.029Z" fill="#DDE3E9"/>
<path d="M328.365 170.438C330.972 170.438 333.085 168.322 333.085 165.712C333.085 163.103 330.972 160.987 328.365 160.987C325.758 160.987 323.645 163.103 323.645 165.712C323.645 168.322 325.758 170.438 328.365 170.438Z" fill="#DDE3E9"/>
<path d="M328.365 167.738C329.482 167.738 330.388 166.831 330.388 165.713C330.388 164.594 329.482 163.688 328.365 163.688C327.248 163.688 326.342 164.594 326.342 165.713C326.342 166.831 327.248 167.738 328.365 167.738Z" fill="#F2F2F2"/>
<path d="M341.882 184.275H195.554C194.064 184.275 192.856 185.484 192.856 186.975V207.9C192.856 209.391 194.064 210.6 195.554 210.6H341.882C343.372 210.6 344.579 209.391 344.579 207.9V186.975C344.579 185.484 343.372 184.275 341.882 184.275Z" fill="white"/>
<path d="M309.565 192.172H200.898C199.808 192.172 198.925 193.056 198.925 194.147C198.925 195.237 199.808 196.121 200.898 196.121H309.565C310.654 196.121 311.537 195.237 311.537 194.147C311.537 193.056 310.654 192.172 309.565 192.172Z" fill="#DDE3E9"/>
<path d="M272.542 198.754H200.898C199.808 198.754 198.925 199.638 198.925 200.728C198.925 201.819 199.808 202.702 200.898 202.702H272.542C273.631 202.702 274.514 201.819 274.514 200.728C274.514 199.638 273.631 198.754 272.542 198.754Z" fill="#DDE3E9"/>
<path d="M328.365 202.163C330.972 202.163 333.085 200.047 333.085 197.438C333.085 194.828 330.972 192.713 328.365 192.713C325.758 192.713 323.645 194.828 323.645 197.438C323.645 200.047 325.758 202.163 328.365 202.163Z" fill="#DDE3E9"/>
<path d="M328.365 199.463C329.482 199.463 330.388 198.556 330.388 197.438C330.388 196.319 329.482 195.413 328.365 195.413C327.248 195.413 326.342 196.319 326.342 197.438C326.342 198.556 327.248 199.463 328.365 199.463Z" fill="#AFB9C5"/>
<path d="M341.882 279.45H195.554C194.064 279.45 192.856 280.659 192.856 282.15V303.075C192.856 304.566 194.064 305.775 195.554 305.775H341.882C343.372 305.775 344.579 304.566 344.579 303.075V282.15C344.579 280.659 343.372 279.45 341.882 279.45Z" fill="white"/>
<path d="M309.565 287.348H200.898C199.808 287.348 198.925 288.231 198.925 289.322C198.925 290.412 199.808 291.296 200.898 291.296H309.565C310.654 291.296 311.537 290.412 311.537 289.322C311.537 288.231 310.654 287.348 309.565 287.348Z" fill="#DDE3E9"/>
<path d="M272.542 293.929H200.898C199.808 293.929 198.925 294.813 198.925 295.903C198.925 296.994 199.808 297.878 200.898 297.878H272.542C273.631 297.878 274.514 296.994 274.514 295.903C274.514 294.813 273.631 293.929 272.542 293.929Z" fill="#DDE3E9"/>
<path d="M328.365 297.337C330.972 297.337 333.085 295.222 333.085 292.612C333.085 290.003 330.972 287.887 328.365 287.887C325.758 287.887 323.645 290.003 323.645 292.612C323.645 295.222 325.758 297.337 328.365 297.337Z" fill="#DDE3E9"/>
<path d="M328.365 294.637C329.482 294.637 330.388 293.731 330.388 292.612C330.388 291.494 329.482 290.587 328.365 290.587C327.248 290.587 326.342 291.494 326.342 292.612C326.342 293.731 327.248 294.637 328.365 294.637Z" fill="#F2F2F2"/>
<path d="M341.882 247.725H195.554C194.064 247.725 192.856 248.934 192.856 250.425V271.35C192.856 272.841 194.064 274.05 195.554 274.05H341.882C343.372 274.05 344.579 272.841 344.579 271.35V250.425C344.579 248.934 343.372 247.725 341.882 247.725Z" fill="white"/>
<path d="M309.565 255.622H200.898C199.808 255.622 198.925 256.506 198.925 257.597C198.925 258.687 199.808 259.571 200.898 259.571H309.565C310.654 259.571 311.537 258.687 311.537 257.597C311.537 256.506 310.654 255.622 309.565 255.622Z" fill="#DDE3E9"/>
<path d="M272.542 262.204H200.898C199.808 262.204 198.925 263.088 198.925 264.178C198.925 265.269 199.808 266.152 200.898 266.152H272.542C273.631 266.152 274.514 265.269 274.514 264.178C274.514 263.088 273.631 262.204 272.542 262.204Z" fill="#DDE3E9"/>
<path d="M328.365 265.612C330.972 265.612 333.085 263.497 333.085 260.887C333.085 258.278 330.972 256.162 328.365 256.162C325.758 256.162 323.645 258.278 323.645 260.887C323.645 263.497 325.758 265.612 328.365 265.612Z" fill="#DDE3E9"/>
<path d="M328.365 262.912C329.482 262.912 330.388 262.006 330.388 260.887C330.388 259.769 329.482 258.862 328.365 258.862C327.248 258.862 326.342 259.769 326.342 260.887C326.342 262.006 327.248 262.912 328.365 262.912Z" fill="#F2F2F2"/>
<path d="M341.882 216H195.554C194.064 216 192.856 217.209 192.856 218.7V239.625C192.856 241.116 194.064 242.325 195.554 242.325H341.882C343.372 242.325 344.579 241.116 344.579 239.625V218.7C344.579 217.209 343.372 216 341.882 216Z" fill="white"/>
<path d="M309.565 223.897H200.898C199.808 223.897 198.925 224.781 198.925 225.872C198.925 226.962 199.808 227.846 200.898 227.846H309.565C310.654 227.846 311.537 226.962 311.537 225.872C311.537 224.781 310.654 223.897 309.565 223.897Z" fill="#DDE3E9"/>
<path d="M272.542 230.479H200.898C199.808 230.479 198.925 231.363 198.925 232.453C198.925 233.544 199.808 234.427 200.898 234.427H272.542C273.631 234.427 274.514 233.544 274.514 232.453C274.514 231.363 273.631 230.479 272.542 230.479Z" fill="#DDE3E9"/>
<path d="M328.365 233.888C330.972 233.888 333.085 231.772 333.085 229.163C333.085 226.553 330.972 224.438 328.365 224.438C325.758 224.438 323.645 226.553 323.645 229.163C323.645 231.772 325.758 233.888 328.365 233.888Z" fill="#DDE3E9"/>
<path d="M328.365 231.188C329.482 231.188 330.388 230.281 330.388 229.163C330.388 228.044 329.482 227.138 328.365 227.138C327.248 227.138 326.342 228.044 326.342 229.163C326.342 230.281 327.248 231.188 328.365 231.188Z" fill="#F2F2F2"/>
<path fill-rule="evenodd" clip-rule="evenodd" d="M463.925 200.729C461.266 198.923 457.729 198.45 454.546 198.45C442.114 198.45 430.429 203.067 420.334 209.947C414.803 213.716 409.854 218.516 405.486 223.514C402.964 226.399 400.716 229.521 399.124 232.992C398.05 235.335 397.313 237.776 396.813 240.294C396.204 243.362 395.72 246.493 395.501 249.613C395.415 250.841 394.702 257.36 396.742 257.471C396.731 257.631 396.728 257.784 396.74 257.922C392.31 264.856 389.572 272.984 387.034 280.689C384.825 287.394 382.857 294.156 381.58 301.093C379.898 310.225 378.793 319.495 378.268 328.758C378.155 330.749 378.077 332.741 378.011 334.735C377.954 336.435 377.897 338.136 377.841 339.836C377.779 341.741 377.444 343.935 377.746 345.83C378.01 347.479 379.436 347.23 379.499 345.588C379.576 343.605 379.563 341.619 379.65 339.635C379.765 337.002 379.884 334.368 380.013 331.736C380.909 313.449 384.271 295.431 390.475 278.157C392.986 271.167 395.863 264.549 399.561 258.083C402.812 252.397 406.723 246.893 410.72 241.767C414.605 236.785 418.645 231.918 423.405 227.698C427.268 224.273 431.518 221.289 435.886 218.512C441.434 214.986 446.971 211.546 452.981 208.839C456.105 207.432 459.288 206.172 462.436 204.822C463.002 204.579 463.61 204.344 464.154 204.063C465.972 203.124 465.373 201.711 463.925 200.729Z" fill="#C1DEE2"/>
<path fill-rule="evenodd" clip-rule="evenodd" d="M413.912 264.6C418.954 264.6 423.441 265.256 428.087 267.262C432.097 268.993 435.752 271.284 439.3 273.779C444.291 277.288 448.222 281.373 450.974 286.784C452.618 290.017 453.824 294.591 452.72 298.117C451.419 302.27 447.848 305.734 443.145 305.002C440.237 304.55 437.571 302.623 435.361 300.809C432.716 298.639 430.6 296.03 428.852 293.132C426.001 288.406 424.325 283.062 421.903 278.123C420.754 275.778 419.643 273.417 418.267 271.189C417.585 270.086 416.86 268.993 415.826 268.173C415.273 267.735 412.941 266.976 413.833 265.991C400.757 266.163 389.174 276.215 386.664 288.657C386.43 289.817 386.247 290.986 386.054 292.153C385.933 292.89 385.982 295.607 385.324 296.078C383.873 297.116 384.483 293.962 384.545 293.508C384.706 292.334 384.878 291.161 385.058 289.99C386.038 283.622 388.87 277.703 393.593 273.161C398.994 267.968 406.281 264.6 413.912 264.6Z" fill="#89C5CC"/>
<path fill-rule="evenodd" clip-rule="evenodd" d="M50.5324 248.897C63.1197 270.035 77.7798 290.502 86.5838 313.614C86.229 310.889 85.8528 308.168 85.4318 305.451C83.1979 291.046 80.4215 276.746 77.5041 262.464C76.0183 255.192 74.4469 247.946 72.8353 240.701C71.9685 236.81 71.1123 232.916 70.2276 229.029C70.0134 228.087 69.8292 226.442 69.561 224.775C78.117 252.88 86.3679 281.006 92.4032 309.786C93.1949 313.563 93.8691 317.334 94.4214 321.098C94.6104 320.239 94.7962 319.38 94.9996 318.524C97.4416 308.259 101.105 298.076 105.466 288.478C107.551 283.888 109.946 279.398 112.766 275.215C114.524 272.608 118.671 269.508 120.275 266.837C111.503 282.944 108.335 303.096 103.269 320.607C102.033 324.88 100.789 329.146 99.5701 333.42C107.209 318.085 119.061 305.486 135.539 300.026C115.593 313.218 103.629 336.321 95.5666 359.95C95.5401 360.231 95.5085 360.511 95.4812 360.791C97.8536 356.284 100.842 352.208 104.892 349.353C113.561 343.241 123.177 345.021 131.586 350.264C124.986 346.065 113.059 349.889 107.506 354.157C103.531 357.212 100.134 361.311 97.1835 365.31C96.4766 366.268 95.5122 367.387 94.4933 368.58C93.0648 377.862 90.737 387.08 87.4413 396.225C87.9851 393.6 87.5919 389.402 87.7427 387.446C87.7592 387.234 87.7725 387.022 87.7887 386.81C87.2878 388.813 86.8038 390.792 86.3377 392.74C87.2641 389.023 87.7676 385.144 88.1606 381.224C88.2618 379.539 88.3606 377.855 88.4649 376.17C88.4318 372.974 88.3003 369.764 88.0778 366.549C87.2889 363.425 86.4057 360.478 85.6773 358.028C83.0487 349.185 79.1954 340.713 74.4527 332.809C70.1255 325.597 64.9458 319.064 58.9661 313.156C55.7426 309.972 52.3689 306.939 49.0428 303.864C47.8401 302.753 45.6903 300.02 43.8311 298.595C57.3718 306.068 71.309 314.152 81.187 326.192C80.0289 321.741 78.7711 317.352 77.4405 313.051C70.6902 291.232 62.1668 268.618 50.5324 248.897Z" fill="#DDE3E9"/>
<path fill-rule="evenodd" clip-rule="evenodd" d="M64.0608 368.55C64.0608 392.782 65.9778 412.425 91.7081 412.425C117.438 412.425 119.355 392.782 119.355 368.55" fill="#C5CFD6"/>
<path d="M354.694 58.725C354.694 57.6066 353.789 56.7 352.671 56.7C351.554 56.7 350.648 57.6066 350.648 58.725V71.55C350.648 72.6684 351.554 73.575 352.671 73.575C353.789 73.575 354.694 72.6684 354.694 71.55V58.725Z" fill="#DDE3E9"/>
<path d="M364.135 47.925C364.135 46.8066 363.229 45.9 362.112 45.9C360.995 45.9 360.089 46.8066 360.089 47.925V71.55C360.089 72.6684 360.995 73.575 362.112 73.575C363.229 73.575 364.135 72.6684 364.135 71.55V47.925Z" fill="#DDE3E9"/>
<path d="M373.575 42.525C373.575 41.4066 372.67 40.5 371.552 40.5C370.435 40.5 369.529 41.4066 369.529 42.525V71.55C369.529 72.6684 370.435 73.575 371.552 73.575C372.67 73.575 373.575 72.6684 373.575 71.55V42.525Z" fill="#DDE3E9"/>
<path d="M383.016 47.925C383.016 46.8066 382.11 45.9 380.993 45.9C379.876 45.9 378.97 46.8066 378.97 47.925V71.55C378.97 72.6684 379.876 73.575 380.993 73.575C382.11 73.575 383.016 72.6684 383.016 71.55V47.925Z" fill="#DDE3E9"/>
<path d="M392.457 37.125C392.457 36.0066 391.551 35.1 390.434 35.1C389.316 35.1 388.411 36.0066 388.411 37.125V71.55C388.411 72.6684 389.316 73.575 390.434 73.575C391.551 73.575 392.457 72.6684 392.457 71.55V37.125Z" fill="#C5CFD6"/>
<path fill-rule="evenodd" clip-rule="evenodd" d="M18.8809 241.823C18.8809 234.304 24.9512 228.15 32.3674 228.15V241.823L23.1508 251.775C20.529 249.342 18.8809 245.773 18.8809 241.823Z" fill="#F2F2F2"/>
<path fill-rule="evenodd" clip-rule="evenodd" d="M32.0106 241.65H45.6301C45.6301 245.174 44.194 248.476 41.9236 250.876C39.4265 253.5 35.8704 255.15 32.0106 255.15C28.4553 255.15 25.2009 253.726 22.7031 251.476L32.0106 241.65Z" fill="#AFB9C5"/>
<path fill-rule="evenodd" clip-rule="evenodd" d="M45.854 241.65C45.854 234.226 39.7837 228.15 32.3675 228.15V241.65H45.854ZM25.6243 228.15L31.0189 240.3L18.881 234.9C20.0813 231.75 22.7766 229.352 25.6243 228.15Z" fill="#C5CFD6"/>
<path fill-rule="evenodd" clip-rule="evenodd" d="M457.709 247.846C456.413 249.223 454.577 250.088 452.536 250.088C448.613 250.088 445.433 246.914 445.433 243C445.433 239.086 448.613 235.913 452.536 235.913V222.75C441.376 222.75 432.242 231.865 432.242 243C432.242 254.135 441.376 263.25 452.536 263.25C458.398 263.25 463.695 260.775 467.307 256.839L457.709 247.846Z" fill="#F2F2F2"/>
<path fill-rule="evenodd" clip-rule="evenodd" d="M452.471 222.75V235.912C456.382 235.912 459.552 239.086 459.552 243H472.701C472.701 231.865 463.596 222.75 452.471 222.75Z" fill="#AFB9C5"/>
<path fill-rule="evenodd" clip-rule="evenodd" d="M459.28 243C459.28 245.3 458.198 247.344 456.517 248.664L464.786 259.2C469.599 255.428 472.701 249.581 472.701 243H459.28Z" fill="#C5CFD6"/>
<path fill-rule="evenodd" clip-rule="evenodd" d="M329.105 61.7652C328.108 62.8209 326.696 63.4838 325.125 63.4838C322.108 63.4838 319.662 61.051 319.662 58.05C319.662 55.049 322.108 52.6163 325.125 52.6163V42.525C316.541 42.525 309.515 49.5128 309.515 58.05C309.515 66.5872 316.541 73.575 325.125 73.575C329.635 73.575 333.71 71.6779 336.488 68.6598L329.105 61.7652Z" fill="#F2F2F2"/>
<path fill-rule="evenodd" clip-rule="evenodd" d="M325.024 42.525V52.6163C328.022 52.6163 330.452 55.049 330.452 58.05H340.533C340.533 49.5128 333.553 42.525 325.024 42.525Z" fill="#AFB9C5"/>
<path fill-rule="evenodd" clip-rule="evenodd" d="M330.468 58.05C330.468 59.7748 329.656 61.3079 328.396 62.2978L334.597 70.2C338.207 67.371 340.533 62.9856 340.533 58.05H330.468Z" fill="#C5CFD6"/>
<path fill-rule="evenodd" clip-rule="evenodd" d="M83.621 73.5658C83.6182 73.5727 83.6155 73.5797 83.6113 73.5879C83.6155 73.581 83.621 73.5534 83.621 73.5658Z" fill="#C5CFD6"/>
<path fill-rule="evenodd" clip-rule="evenodd" d="M83.6147 73.5762C83.6147 73.5776 83.6133 73.5804 83.6133 73.5832C83.6133 73.5762 83.6257 73.5555 83.6147 73.5762Z" fill="#C5CFD6"/>
<path fill-rule="evenodd" clip-rule="evenodd" d="M83.6614 73.4618C83.6519 73.4888 83.6398 73.5145 83.629 73.5415C83.6344 73.528 83.6398 73.5172 83.6452 73.5037C83.5049 73.8547 83.5939 73.6265 83.6614 73.4618Z" fill="#C5CFD6"/>
<path fill-rule="evenodd" clip-rule="evenodd" d="M83.6312 73.5431C83.6259 73.5553 83.6205 73.5688 83.6151 73.5809C83.576 73.6565 83.6312 73.5431 83.6312 73.5431Z" fill="#C5CFD6"/>
<path fill-rule="evenodd" clip-rule="evenodd" d="M83.6155 73.5766C83.6155 73.5752 83.6155 73.5752 83.617 73.5737C83.6155 73.5752 83.6155 73.5752 83.6155 73.5766Z" fill="#C5CFD6"/>
<path fill-rule="evenodd" clip-rule="evenodd" d="M83.6092 73.5866C83.6009 73.6032 83.6478 73.523 83.6092 73.5866Z" fill="#C5CFD6"/>
<path fill-rule="evenodd" clip-rule="evenodd" d="M83.6147 73.5766L83.6177 73.5737C83.6162 73.5752 83.6162 73.5766 83.6147 73.5766Z" fill="#C5CFD6"/>
<path d="M112.612 38.475H53.9458C52.4562 38.475 51.2485 39.6838 51.2485 41.175V78.3C51.2485 79.7912 52.4562 81 53.9458 81H112.612C114.102 81 115.309 79.7912 115.309 78.3V41.175C115.309 39.6838 114.102 38.475 112.612 38.475Z" fill="#DDE3E9"/>
<path fill-rule="evenodd" clip-rule="evenodd" d="M75.5242 50.625L56.6431 81H94.4052L75.5242 50.625Z" fill="#AFB9C5"/>
<path fill-rule="evenodd" clip-rule="evenodd" d="M94.0681 58.725L77.5471 81H110.589L94.0681 58.725Z" fill="#C5CFD6"/>
<path d="M101.149 58.725C104.5 58.725 107.217 56.0051 107.217 52.65C107.217 49.2949 104.5 46.575 101.149 46.575C97.7967 46.575 95.0796 49.2949 95.0796 52.65C95.0796 56.0051 97.7967 58.725 101.149 58.725Z" fill="white"/>
<path fill-rule="evenodd" clip-rule="evenodd" d="M405.264 361.791C405.267 361.798 405.27 361.805 405.274 361.813C405.27 361.806 405.264 361.778 405.264 361.791Z" fill="#C5CFD6"/>
<path fill-rule="evenodd" clip-rule="evenodd" d="M405.271 361.801C405.271 361.803 405.272 361.805 405.272 361.808C405.272 361.801 405.259 361.78 405.271 361.801Z" fill="#C5CFD6"/>
<path fill-rule="evenodd" clip-rule="evenodd" d="M405.223 361.687C405.233 361.714 405.245 361.739 405.256 361.766C405.25 361.753 405.245 361.742 405.24 361.729C405.38 362.08 405.291 361.852 405.223 361.687Z" fill="#C5CFD6"/>
<path fill-rule="evenodd" clip-rule="evenodd" d="M405.254 361.768C405.259 361.78 405.265 361.794 405.27 361.806C405.309 361.882 405.254 361.768 405.254 361.768Z" fill="#C5CFD6"/>
<path fill-rule="evenodd" clip-rule="evenodd" d="M405.27 361.802C405.27 361.8 405.27 361.8 405.268 361.799C405.27 361.8 405.27 361.8 405.27 361.802Z" fill="#C5CFD6"/>
<path fill-rule="evenodd" clip-rule="evenodd" d="M405.276 361.812C405.284 361.828 405.237 361.748 405.276 361.812Z" fill="#C5CFD6"/>
<path fill-rule="evenodd" clip-rule="evenodd" d="M405.271 361.802L405.268 361.799C405.269 361.8 405.269 361.802 405.271 361.802Z" fill="#C5CFD6"/>
<path d="M360.089 309.825H450.449C451.938 309.825 453.146 311.034 453.146 312.525V370.575C453.146 372.066 451.938 373.275 450.449 373.275H360.089C358.6 373.275 357.392 372.066 357.392 370.575V312.525C357.392 311.034 358.6 309.825 360.089 309.825Z" fill="#DDE3E9"/>
<path fill-rule="evenodd" clip-rule="evenodd" d="M417.592 328.05L445.276 373.275H389.907L417.592 328.05Z" fill="#AFB9C5"/>
<path fill-rule="evenodd" clip-rule="evenodd" d="M389.047 340.164L413.522 373.275H364.573L389.047 340.164Z" fill="#C5CFD6"/>
<path d="M378.633 340.2C373.605 340.2 369.53 336.12 369.53 331.087C369.53 326.055 373.605 321.975 378.633 321.975C383.661 321.975 387.736 326.055 387.736 331.087C387.736 336.12 383.661 340.2 378.633 340.2Z" fill="white"/>
<path fill-rule="evenodd" clip-rule="evenodd" d="M229.185 210.73C226.406 207.468 224.524 203.469 224.839 198.988C225.745 186.078 243.716 188.918 247.212 195.434C250.707 201.95 250.292 218.478 245.774 219.643C243.972 220.107 240.134 218.969 236.227 216.615L238.679 233.962H224.201L229.185 210.73Z" fill="#B28B67"/>
<path fill-rule="evenodd" clip-rule="evenodd" d="M238.959 187.924C237.051 187.611 231.913 187.396 230.966 187.396C230.36 187.396 229.704 187.535 229.345 186.979C229.052 186.523 229.159 185.753 229.072 185.225C228.97 184.611 228.825 184.005 228.679 183.401C228.263 181.681 227.634 180.045 226.753 178.509C225.101 175.628 222.682 173.37 219.626 172.057C216.253 170.607 212.435 170.275 208.806 170.569C204.923 170.884 201.407 172.165 197.741 173.372C194.247 174.521 190.587 174.974 186.933 174.413C183.251 173.847 180.469 171.851 177.363 169.957C174.184 168.018 170.551 166.75 166.792 167.042C163.284 167.314 160.05 168.762 157.149 170.698C154.435 172.508 152.195 174.687 150.93 177.753C149.57 181.051 149.571 184.671 151.808 187.585C155.051 191.81 161.07 192.903 166.078 192.794C168.974 192.731 171.819 192.203 174.554 191.241C178.201 189.958 181.352 187.784 184.764 186.02C186.365 185.192 188.02 184.512 189.755 184.022C191.439 183.547 193.097 183.329 194.621 184.346C196.233 185.422 197.678 186.478 199.523 187.152C201.293 187.798 203.167 188.159 205.052 188.145C208.721 188.116 212.337 186.974 215.899 186.208C218.805 185.584 221.913 184.962 224.875 185.562C226.111 185.812 227.916 186.329 228.363 187.614C220.849 188.975 217.899 198.267 220.017 205.088C221.16 208.77 228.032 213.074 230.704 211.138C232.396 209.912 231.369 208.302 230.704 207.24C229.43 205.204 228.994 202.59 231.351 201.174C233.384 199.952 235.521 202.853 235.561 202.85C236.12 202.806 240.948 200.076 244.274 196.092C247.555 196.286 248.053 194.123 247.27 192.353C246.486 190.584 241.596 188.357 238.959 187.924Z" fill="#191847"/>
<path d="M218.169 389C243.823 389 264.62 369.148 264.62 344.66C264.62 320.172 243.823 300.321 218.169 300.321C192.515 300.321 171.718 320.172 171.718 344.66C171.718 369.148 192.515 389 218.169 389Z" fill="#C5CFD6"/>
<path fill-rule="evenodd" clip-rule="evenodd" d="M305.949 382.159C298.219 365.051 292.629 350.155 290.386 342.296C286.544 328.838 283.621 316.997 282.882 312.575C281.121 302.029 296.433 301.415 298.457 306.656C301.52 314.588 306.868 340.65 313.294 380.016L305.949 382.159ZM216.292 328.471C223.383 325.668 248.218 316.895 260.196 314.414C263.638 313.7 266.974 313.038 270.111 312.439C279.433 310.659 284.263 327.478 275.285 328.77C252.923 331.988 221.223 335.312 218.51 335.685C214.708 336.207 211.835 330.233 216.292 328.471Z" fill="#B28B67"/>
<path fill-rule="evenodd" clip-rule="evenodd" d="M275.833 307.811L237.474 288.284V284.033H242.036C279.147 293.489 298.111 299.549 298.927 302.214C298.936 302.242 298.944 302.271 298.951 302.3C298.97 302.324 298.988 302.349 299.006 302.374C306.361 312.488 310.766 361.87 312.211 365.567L298.118 367.67C292.727 347.679 275.479 333.752 275.937 309.809C275.814 309.107 275.782 308.441 275.833 307.811Z" fill="#4894FF"/>
<path fill-rule="evenodd" clip-rule="evenodd" d="M240.661 319.408C237.151 318.706 233.919 318.078 231.153 317.593C213.288 314.46 208.079 304.897 211.159 284.033L244.074 284.033C249.451 285.577 277.394 297.295 291.892 303.528C301.487 307.653 298.462 322.523 293.028 326.393C292.999 326.631 292.901 326.792 292.727 326.864C263.496 338.979 240.372 332.622 232.647 334.654L229.074 323.382L240.661 319.408Z" fill="#4894FF"/>
<path fill-rule="evenodd" clip-rule="evenodd" d="M218.717 326.679C216.802 326.863 215.442 327.15 214.638 327.542C213.661 328.019 212.313 328.878 210.596 330.119C211.15 331.253 216.122 341.447 225.512 360.7C228.527 360.213 229.722 359.063 229.096 357.248C228.47 355.434 227.966 353.919 227.582 352.705L226.986 335.4C226.975 335.067 226.696 334.806 226.363 334.818C226.357 334.818 226.351 334.818 226.345 334.819L223.684 334.986C222.171 333.762 221.173 332.654 220.69 331.663C220.297 330.858 220.08 329.587 220.038 327.851L220.038 327.851C220.022 327.185 219.469 326.658 218.803 326.674C218.774 326.675 218.746 326.677 218.717 326.679Z" fill="#E4E4E4"/>
<path fill-rule="evenodd" clip-rule="evenodd" d="M302.431 378.987C301.756 380.789 301.419 382.137 301.419 383.031C301.419 384.119 301.6 385.706 301.963 387.794C303.225 387.794 314.566 387.794 335.988 387.794C336.872 384.87 336.361 383.292 334.456 383.059C332.551 382.826 330.969 382.616 329.709 382.428L313.894 375.378C313.59 375.242 313.233 375.379 313.098 375.683C313.095 375.688 313.093 375.694 313.091 375.699L312.074 378.165C310.311 378.988 308.878 379.399 307.775 379.399C306.879 379.399 305.642 379.037 304.064 378.314L304.064 378.314C303.458 378.036 302.742 378.302 302.464 378.908C302.452 378.934 302.441 378.96 302.431 378.987Z" fill="#E4E4E4"/>
<path fill-rule="evenodd" clip-rule="evenodd" d="M274.875 267.514L296.734 257.914C300.563 254.098 304.261 251.198 307.827 249.214C308.893 248.874 310.715 248.772 308.771 251.61C306.828 254.449 304.911 257.523 305.688 258.518C306.464 259.513 308.714 258.415 309.603 260.033C310.195 261.111 306.403 262.402 298.226 263.904L281.855 276.455L274.875 267.514ZM186.503 270.158L198.864 272.61C186.433 295.779 179.766 308.058 178.863 309.448C176.834 312.576 178.727 318.308 179.427 321.327C175.038 322.348 176.769 315.743 171.215 317.122C166.146 318.381 161.848 321.612 157.121 317.255C156.54 316.719 156.115 315.045 158.096 314.186C163.032 312.046 170.325 308.04 171.508 306.485C173.121 304.364 178.119 292.255 186.503 270.158Z" fill="#B28B67"/>
<path fill-rule="evenodd" clip-rule="evenodd" d="M232.463 223.907L237.68 223.012C249.042 234.034 253.678 260.513 261.25 264.018C268.409 267.332 278.558 264.125 290.621 259.795L294.315 268.049C283.354 279.907 260.005 289.925 250.54 284.205C235.408 275.062 231.915 242.404 232.463 223.907Z" fill="#AFB9C5"/>
<path fill-rule="evenodd" clip-rule="evenodd" d="M209.723 289.462C230.639 289.462 246.025 289.462 255.88 289.462C257.989 289.462 257.591 286.416 257.286 284.88C253.768 267.144 240.032 248.025 240.032 222.778L226.718 220.69C215.706 238.401 211.898 260.207 209.723 289.462Z" fill="#DDE3E9"/>
<path fill-rule="evenodd" clip-rule="evenodd" d="M205.12 271.505C195.71 288.477 187.801 300.697 181.393 308.163L171.718 306.268C177.95 267.618 195.997 239.092 225.859 220.69H226.011L231.131 220.69C243.083 261.433 246.378 288.579 241.016 302.13H199.468C200.125 292.215 202.233 281.729 205.12 271.505H205.12Z" fill="#98A6B0"/>
</svg>
