<svg width="68" height="2988" viewBox="0 0 68 2988" fill="none" xmlns="http://www.w3.org/2000/svg">
<line x1="34.5" y1="9.5" x2="34.5" y2="2952.5" stroke="#4894FF" stroke-linecap="round" stroke-dasharray="8 8"/>
<circle cx="34" cy="30" r="30" fill="#4894FF"/>
<path d="M32.55 30.48C32.55 34.3627 31.9633 37.3067 30.79 39.312C29.6167 41.3173 27.8033 42.32 25.35 42.32C23.0247 42.32 21.2327 41.3387 19.974 39.376C18.7367 37.4133 18.118 34.448 18.118 30.48C18.118 28.2187 18.3527 26.2133 18.822 24.464C19.2913 22.6933 20.0593 21.3067 21.126 20.304C22.1927 19.3013 23.6113 18.8 25.382 18.8C27.174 18.8 28.5927 19.2907 29.638 20.272C30.6833 21.2533 31.43 22.6293 31.878 24.4C32.326 26.1493 32.55 28.176 32.55 30.48ZM19.398 30.48C19.398 34.128 19.8887 36.8267 20.87 38.576C21.8513 40.3253 23.3447 41.2 25.35 41.2C27.4407 41.2 28.9553 40.3253 29.894 38.576C30.8327 36.8053 31.302 34.1067 31.302 30.48C31.302 28.3253 31.1207 26.4587 30.758 24.88C30.4167 23.3013 29.8193 22.0853 28.966 21.232C28.1127 20.3573 26.918 19.92 25.382 19.92C23.8673 19.92 22.6727 20.368 21.798 21.264C20.9233 22.1387 20.3047 23.376 19.942 24.976C19.5793 26.5547 19.398 28.3893 19.398 30.48ZM43.984 42H42.768V24.4C42.768 23.4827 42.768 22.7253 42.768 22.128C42.768 21.5093 42.7893 20.9653 42.832 20.496C42.5547 20.752 42.288 20.9867 42.032 21.2C41.776 21.392 41.4453 21.6373 41.04 21.936L37.392 24.656L36.688 23.76L42.928 19.152H43.984V42Z" fill="white"/>
<circle cx="34" cy="614" r="30" fill="#4894FF"/>
<path d="M32.55 614.48C32.55 618.363 31.9633 621.307 30.79 623.312C29.6167 625.317 27.8033 626.32 25.35 626.32C23.0247 626.32 21.2327 625.339 19.974 623.376C18.7367 621.413 18.118 618.448 18.118 614.48C18.118 612.219 18.3527 610.213 18.822 608.464C19.2913 606.693 20.0593 605.307 21.126 604.304C22.1927 603.301 23.6113 602.8 25.382 602.8C27.174 602.8 28.5927 603.291 29.638 604.272C30.6833 605.253 31.43 606.629 31.878 608.4C32.326 610.149 32.55 612.176 32.55 614.48ZM19.398 614.48C19.398 618.128 19.8887 620.827 20.87 622.576C21.8513 624.325 23.3447 625.2 25.35 625.2C27.4407 625.2 28.9553 624.325 29.894 622.576C30.8327 620.805 31.302 618.107 31.302 614.48C31.302 612.325 31.1207 610.459 30.758 608.88C30.4167 607.301 29.8193 606.085 28.966 605.232C28.1127 604.357 26.918 603.92 25.382 603.92C23.8673 603.92 22.6727 604.368 21.798 605.264C20.9233 606.139 20.3047 607.376 19.942 608.976C19.5793 610.555 19.398 612.389 19.398 614.48ZM49.424 626H35.344V624.944L42.256 617.68C43.3227 616.571 44.208 615.568 44.912 614.672C45.6373 613.755 46.1813 612.837 46.544 611.92C46.928 611.003 47.12 609.968 47.12 608.816C47.12 607.28 46.672 606.085 45.776 605.232C44.9013 604.379 43.6853 603.952 42.128 603.952C40.1653 603.952 38.3307 604.645 36.624 606.032L35.92 605.136C36.88 604.347 37.8933 603.771 38.96 603.408C40.048 603.024 41.104 602.832 42.128 602.832C44.0267 602.832 45.5413 603.376 46.672 604.464C47.824 605.552 48.4 606.992 48.4 608.784C48.4 610.043 48.1867 611.184 47.76 612.208C47.3547 613.211 46.768 614.192 46 615.152C45.232 616.112 44.3147 617.136 43.248 618.224L36.976 624.784V624.848H49.424V626Z" fill="white"/>
<circle cx="34" cy="1198" r="30" fill="#4894FF"/>
<path d="M32.55 1198.48C32.55 1202.36 31.9633 1205.31 30.79 1207.31C29.6167 1209.32 27.8033 1210.32 25.35 1210.32C23.0247 1210.32 21.2327 1209.34 19.974 1207.38C18.7367 1205.41 18.118 1202.45 18.118 1198.48C18.118 1196.22 18.3527 1194.21 18.822 1192.46C19.2913 1190.69 20.0593 1189.31 21.126 1188.3C22.1927 1187.3 23.6113 1186.8 25.382 1186.8C27.174 1186.8 28.5927 1187.29 29.638 1188.27C30.6833 1189.25 31.43 1190.63 31.878 1192.4C32.326 1194.15 32.55 1196.18 32.55 1198.48ZM19.398 1198.48C19.398 1202.13 19.8887 1204.83 20.87 1206.58C21.8513 1208.33 23.3447 1209.2 25.35 1209.2C27.4407 1209.2 28.9553 1208.33 29.894 1206.58C30.8327 1204.81 31.302 1202.11 31.302 1198.48C31.302 1196.33 31.1207 1194.46 30.758 1192.88C30.4167 1191.3 29.8193 1190.09 28.966 1189.23C28.1127 1188.36 26.918 1187.92 25.382 1187.92C23.8673 1187.92 22.6727 1188.37 21.798 1189.26C20.9233 1190.14 20.3047 1191.38 19.942 1192.98C19.5793 1194.55 19.398 1196.39 19.398 1198.48ZM48.72 1192.4C48.72 1193.91 48.2613 1195.16 47.344 1196.14C46.4267 1197.13 45.264 1197.74 43.856 1198V1198.06C45.648 1198.3 47.024 1198.89 47.984 1199.82C48.944 1200.76 49.424 1202.06 49.424 1203.73C49.424 1205.65 48.7413 1207.23 47.376 1208.46C46.032 1209.7 44.0373 1210.32 41.392 1210.32C40.1333 1210.32 38.96 1210.2 37.872 1209.97C36.8053 1209.71 35.856 1209.39 35.024 1209.01V1207.76C35.856 1208.17 36.8373 1208.51 37.968 1208.78C39.0987 1209.06 40.24 1209.2 41.392 1209.2C43.6533 1209.2 45.3387 1208.71 46.448 1207.73C47.5573 1206.73 48.112 1205.39 48.112 1203.73C48.112 1201.89 47.4613 1200.6 46.16 1199.86C44.8587 1199.09 43.1627 1198.7 41.072 1198.7H38.512V1197.58H41.072C42.224 1197.58 43.28 1197.4 44.24 1197.04C45.2213 1196.66 46 1196.08 46.576 1195.31C47.152 1194.54 47.44 1193.58 47.44 1192.43C47.44 1190.94 46.96 1189.82 46 1189.07C45.0613 1188.33 43.8133 1187.95 42.256 1187.95C41.04 1187.95 39.92 1188.13 38.896 1188.5C37.8933 1188.86 36.8907 1189.4 35.888 1190.13L35.248 1189.2C36.1653 1188.5 37.2 1187.93 38.352 1187.5C39.5253 1187.06 40.8267 1186.83 42.256 1186.83C44.2187 1186.83 45.7867 1187.32 46.96 1188.3C48.1333 1189.29 48.72 1190.65 48.72 1192.4Z" fill="white"/>
<circle cx="34" cy="1782" r="30" fill="#4894FF"/>
<path d="M32.55 1782.48C32.55 1786.36 31.9633 1789.31 30.79 1791.31C29.6167 1793.32 27.8033 1794.32 25.35 1794.32C23.0247 1794.32 21.2327 1793.34 19.974 1791.38C18.7367 1789.41 18.118 1786.45 18.118 1782.48C18.118 1780.22 18.3527 1778.21 18.822 1776.46C19.2913 1774.69 20.0593 1773.31 21.126 1772.3C22.1927 1771.3 23.6113 1770.8 25.382 1770.8C27.174 1770.8 28.5927 1771.29 29.638 1772.27C30.6833 1773.25 31.43 1774.63 31.878 1776.4C32.326 1778.15 32.55 1780.18 32.55 1782.48ZM19.398 1782.48C19.398 1786.13 19.8887 1788.83 20.87 1790.58C21.8513 1792.33 23.3447 1793.2 25.35 1793.2C27.4407 1793.2 28.9553 1792.33 29.894 1790.58C30.8327 1788.81 31.302 1786.11 31.302 1782.48C31.302 1780.33 31.1207 1778.46 30.758 1776.88C30.4167 1775.3 29.8193 1774.09 28.966 1773.23C28.1127 1772.36 26.918 1771.92 25.382 1771.92C23.8673 1771.92 22.6727 1772.37 21.798 1773.26C20.9233 1774.14 20.3047 1775.38 19.942 1776.98C19.5793 1778.55 19.398 1780.39 19.398 1782.48ZM51.376 1787.98H47.28V1794H46.064V1787.98H34.288V1787.06L46 1771.02H47.28V1786.86H51.376V1787.98ZM46.064 1777.62C46.064 1776.74 46.064 1776.02 46.064 1775.44C46.0853 1774.86 46.096 1774.35 46.096 1773.9C46.1173 1773.46 46.128 1772.98 46.128 1772.46H46.064C45.7227 1773 45.424 1773.47 45.168 1773.87C44.912 1774.28 44.5707 1774.77 44.144 1775.34L35.76 1786.86H46.064V1777.62Z" fill="white"/>
<circle cx="34" cy="2366" r="30" fill="#4894FF"/>
<path d="M32.55 2366.48C32.55 2370.36 31.9633 2373.31 30.79 2375.31C29.6167 2377.32 27.8033 2378.32 25.35 2378.32C23.0247 2378.32 21.2327 2377.34 19.974 2375.38C18.7367 2373.41 18.118 2370.45 18.118 2366.48C18.118 2364.22 18.3527 2362.21 18.822 2360.46C19.2913 2358.69 20.0593 2357.31 21.126 2356.3C22.1927 2355.3 23.6113 2354.8 25.382 2354.8C27.174 2354.8 28.5927 2355.29 29.638 2356.27C30.6833 2357.25 31.43 2358.63 31.878 2360.4C32.326 2362.15 32.55 2364.18 32.55 2366.48ZM19.398 2366.48C19.398 2370.13 19.8887 2372.83 20.87 2374.58C21.8513 2376.33 23.3447 2377.2 25.35 2377.2C27.4407 2377.2 28.9553 2376.33 29.894 2374.58C30.8327 2372.81 31.302 2370.11 31.302 2366.48C31.302 2364.33 31.1207 2362.46 30.758 2360.88C30.4167 2359.3 29.8193 2358.09 28.966 2357.23C28.1127 2356.36 26.918 2355.92 25.382 2355.92C23.8673 2355.92 22.6727 2356.37 21.798 2357.26C20.9233 2358.14 20.3047 2359.38 19.942 2360.98C19.5793 2362.55 19.398 2364.39 19.398 2366.48ZM42.288 2364.3C44.592 2364.3 46.4053 2364.88 47.728 2366.03C49.072 2367.18 49.744 2368.84 49.744 2370.99C49.744 2372.51 49.4027 2373.82 48.72 2374.93C48.0587 2376.02 47.1093 2376.86 45.872 2377.46C44.656 2378.03 43.2267 2378.32 41.584 2378.32C40.368 2378.32 39.2693 2378.2 38.288 2377.97C37.328 2377.71 36.5067 2377.39 35.824 2377.01V2375.7C36.5493 2376.12 37.4027 2376.49 38.384 2376.78C39.3867 2377.06 40.4533 2377.2 41.584 2377.2C43.6533 2377.2 45.3173 2376.67 46.576 2375.6C47.8347 2374.51 48.464 2373 48.464 2371.06C48.464 2369.29 47.9307 2367.91 46.864 2366.93C45.7973 2365.93 44.208 2365.42 42.096 2365.42C41.1787 2365.42 40.3253 2365.49 39.536 2365.62C38.768 2365.72 38.0213 2365.88 37.296 2366.1L36.528 2365.52L37.488 2355.15H48.336V2356.3H38.544L37.808 2364.88C38.2987 2364.75 38.9067 2364.62 39.632 2364.5C40.3787 2364.37 41.264 2364.3 42.288 2364.3Z" fill="white"/>
<g filter="url(#filter0_d_422:257)">
<circle cx="34" cy="2950" r="30" fill="#4894FF"/>
<path d="M32.55 2950.48C32.55 2954.36 31.9633 2957.31 30.79 2959.31C29.6167 2961.32 27.8033 2962.32 25.35 2962.32C23.0247 2962.32 21.2327 2961.34 19.974 2959.38C18.7367 2957.41 18.118 2954.45 18.118 2950.48C18.118 2948.22 18.3527 2946.21 18.822 2944.46C19.2913 2942.69 20.0593 2941.31 21.126 2940.3C22.1927 2939.3 23.6113 2938.8 25.382 2938.8C27.174 2938.8 28.5927 2939.29 29.638 2940.27C30.6833 2941.25 31.43 2942.63 31.878 2944.4C32.326 2946.15 32.55 2948.18 32.55 2950.48ZM19.398 2950.48C19.398 2954.13 19.8887 2956.83 20.87 2958.58C21.8513 2960.33 23.3447 2961.2 25.35 2961.2C27.4407 2961.2 28.9553 2960.33 29.894 2958.58C30.8327 2956.81 31.302 2954.11 31.302 2950.48C31.302 2948.33 31.1207 2946.46 30.758 2944.88C30.4167 2943.3 29.8193 2942.09 28.966 2941.23C28.1127 2940.36 26.918 2939.92 25.382 2939.92C23.8673 2939.92 22.6727 2940.37 21.798 2941.26C20.9233 2942.14 20.3047 2943.38 19.942 2944.98C19.5793 2946.55 19.398 2948.39 19.398 2950.48ZM35.6 2952.3C35.6 2947.74 36.464 2944.35 38.192 2942.13C39.92 2939.89 42.3093 2938.77 45.36 2938.77C45.9573 2938.77 46.512 2938.81 47.024 2938.9C47.5573 2938.96 48.0267 2939.06 48.432 2939.18V2940.34C48.048 2940.21 47.5893 2940.1 47.056 2940.02C46.544 2939.93 45.9787 2939.89 45.36 2939.89C42.7573 2939.89 40.7093 2940.83 39.216 2942.7C37.7227 2944.56 36.9227 2947.47 36.816 2951.44H36.912C37.1893 2950.86 37.6053 2950.31 38.16 2949.78C38.736 2949.22 39.4507 2948.77 40.304 2948.43C41.1573 2948.07 42.1707 2947.89 43.344 2947.89C45.4347 2947.89 47.0667 2948.51 48.24 2949.74C49.4133 2950.98 50 2952.66 50 2954.77C50 2956.26 49.7227 2957.58 49.168 2958.74C48.6347 2959.87 47.8453 2960.75 46.8 2961.39C45.776 2962.01 44.5387 2962.32 43.088 2962.32C41.7867 2962.32 40.6667 2962.05 39.728 2961.52C38.7893 2960.97 38.0107 2960.22 37.392 2959.28C36.7947 2958.34 36.3467 2957.27 36.048 2956.08C35.7493 2954.89 35.6 2953.63 35.6 2952.3ZM43.088 2961.2C44.9013 2961.2 46.2987 2960.63 47.28 2959.5C48.2613 2958.37 48.752 2956.79 48.752 2954.77C48.752 2952.98 48.2933 2951.57 47.376 2950.54C46.4587 2949.5 45.072 2948.98 43.216 2948.98C41.936 2948.98 40.8267 2949.23 39.888 2949.74C38.9707 2950.26 38.256 2950.89 37.744 2951.63C37.2533 2952.38 37.008 2953.1 37.008 2953.81C37.008 2954.45 37.0933 2955.19 37.264 2956.05C37.456 2956.88 37.776 2957.69 38.224 2958.48C38.6933 2959.27 39.312 2959.92 40.08 2960.43C40.8693 2960.94 41.872 2961.2 43.088 2961.2Z" fill="white"/>
</g>
<defs>
<filter id="filter0_d_422:257" x="0" y="2920" width="68" height="68" filterUnits="userSpaceOnUse" color-interpolation-filters="sRGB">
<feFlood flood-opacity="0" result="BackgroundImageFix"/>
<feColorMatrix in="SourceAlpha" type="matrix" values="0 0 0 0 0 0 0 0 0 0 0 0 0 0 0 0 0 0 127 0" result="hardAlpha"/>
<feOffset dy="4"/>
<feGaussianBlur stdDeviation="2"/>
<feComposite in2="hardAlpha" operator="out"/>
<feColorMatrix type="matrix" values="0 0 0 0 0 0 0 0 0 0 0 0 0 0 0 0 0 0 0.25 0"/>
<feBlend mode="normal" in2="BackgroundImageFix" result="effect1_dropShadow_422:257"/>
<feBlend mode="normal" in="SourceGraphic" in2="effect1_dropShadow_422:257" result="shape"/>
</filter>
</defs>
</svg>
