<svg width="439" height="392" viewBox="0 0 439 392" fill="none" xmlns="http://www.w3.org/2000/svg">
<path d="M388.113 49.7571H133.388C129.86 49.7571 127 52.1333 127 55.0645V273.995C127 276.926 129.86 279.302 133.388 279.302H388.113C391.641 279.302 394.501 276.926 394.501 273.995V55.0645C394.501 52.1333 391.641 49.7571 388.113 49.7571Z" fill="#F2F2F2"/>
<path d="M375.336 78.2844H332.217C328.689 78.2844 325.829 80.6606 325.829 83.5918V126.714C325.829 129.646 328.689 132.022 332.217 132.022H375.336C378.864 132.022 381.724 129.646 381.724 126.714V83.5918C381.724 80.6606 378.864 78.2844 375.336 78.2844Z" fill="white"/>
<path d="M353.777 109.465C360.833 109.465 366.553 104.713 366.553 98.8507C366.553 92.9883 360.833 88.2358 353.777 88.2358C346.721 88.2358 341 92.9883 341 98.8507C341 104.713 346.721 109.465 353.777 109.465Z" fill="#DDE3E9"/>
<path d="M371.344 112.119H336.21C334.887 112.119 333.814 113.01 333.814 114.109C333.814 115.209 334.887 116.1 336.21 116.1H371.344C372.667 116.1 373.74 115.209 373.74 114.109C373.74 113.01 372.667 112.119 371.344 112.119Z" fill="#DDE3E9"/>
<path d="M364.956 118.753H342.598C341.275 118.753 340.203 119.644 340.203 120.744C340.203 121.843 341.275 122.734 342.598 122.734H364.956C366.279 122.734 367.352 121.843 367.352 120.744C367.352 119.644 366.279 118.753 364.956 118.753Z" fill="#DDE3E9"/>
<path fill-rule="evenodd" clip-rule="evenodd" d="M133.388 49.7571H388.113C391.641 49.7571 394.501 52.1333 394.501 55.0645V67.6696H127V55.0645C127 52.1333 129.86 49.7571 133.388 49.7571Z" fill="#C5CFD6"/>
<path d="M137.381 61.6988C139.145 61.6988 140.575 60.5107 140.575 59.0451C140.575 57.5795 139.145 56.3914 137.381 56.3914C135.617 56.3914 134.187 57.5795 134.187 59.0451C134.187 60.5107 135.617 61.6988 137.381 61.6988Z" fill="#F2F2F2"/>
<path d="M146.963 61.6988C148.727 61.6988 150.157 60.5107 150.157 59.0451C150.157 57.5795 148.727 56.3914 146.963 56.3914C145.199 56.3914 143.769 57.5795 143.769 59.0451C143.769 60.5107 145.199 61.6988 146.963 61.6988Z" fill="#F2F2F2"/>
<path d="M156.545 61.6988C158.309 61.6988 159.739 60.5107 159.739 59.0451C159.739 57.5795 158.309 56.3914 156.545 56.3914C154.781 56.3914 153.351 57.5795 153.351 59.0451C153.351 60.5107 154.781 61.6988 156.545 61.6988Z" fill="#F2F2F2"/>
<path d="M375.336 137.329H332.217C328.689 137.329 325.829 139.705 325.829 142.637V260.726C325.829 263.657 328.689 266.034 332.217 266.034H375.336C378.864 266.034 381.724 263.657 381.724 260.726V142.637C381.724 139.705 378.864 137.329 375.336 137.329Z" fill="white"/>
<path d="M364.157 149.271H343.396C341.632 149.271 340.202 150.459 340.202 151.924V163.866C340.202 165.332 341.632 166.52 343.396 166.52H364.157C365.921 166.52 367.351 165.332 367.351 163.866V151.924C367.351 150.459 365.921 149.271 364.157 149.271Z" fill="#DDE3E9"/>
<path d="M364.157 171.827H343.396C341.632 171.827 340.202 173.015 340.202 174.481V185.759C340.202 187.225 341.632 188.413 343.396 188.413H364.157C365.921 188.413 367.351 187.225 367.351 185.759V174.481C367.351 173.015 365.921 171.827 364.157 171.827Z" fill="#AFB9C5"/>
<path d="M364.157 193.72H343.396C341.632 193.72 340.202 194.908 340.202 196.374V207.652C340.202 209.118 341.632 210.306 343.396 210.306H364.157C365.921 210.306 367.351 209.118 367.351 207.652V196.374C367.351 194.908 365.921 193.72 364.157 193.72Z" fill="#DDE3E9"/>
<path d="M364.157 237.506H343.396C341.632 237.506 340.202 238.694 340.202 240.16V251.438C340.202 252.904 341.632 254.092 343.396 254.092H364.157C365.921 254.092 367.351 252.904 367.351 251.438V240.16C367.351 238.694 365.921 237.506 364.157 237.506Z" fill="#DDE3E9"/>
<path d="M364.157 215.613H343.396C341.632 215.613 340.202 216.801 340.202 218.267V229.545C340.202 231.011 341.632 232.199 343.396 232.199H364.157C365.921 232.199 367.351 231.011 367.351 229.545V218.267C367.351 216.801 365.921 215.613 364.157 215.613Z" fill="#C5CFD6"/>
<path d="M316.247 78.9478H142.97C141.206 78.9478 139.776 80.1359 139.776 81.6015V107.475C139.776 108.941 141.206 110.129 142.97 110.129H316.247C318.011 110.129 319.441 108.941 319.441 107.475V81.6015C319.441 80.1359 318.011 78.9478 316.247 78.9478Z" fill="white"/>
<path d="M277.918 88.302H149.358C148.035 88.302 146.962 89.1931 146.962 90.2923V90.9889C146.962 92.0881 148.035 92.9792 149.358 92.9792H277.918C279.241 92.9792 280.313 92.0881 280.313 90.9889V90.2923C280.313 89.1931 279.241 88.302 277.918 88.302Z" fill="#DDE3E9"/>
<path d="M234.076 96.0972H149.358C148.035 96.0972 146.962 96.9882 146.962 98.0874V98.784C146.962 99.8832 148.035 100.774 149.358 100.774H234.076C235.399 100.774 236.472 99.8832 236.472 98.784V98.0874C236.472 96.9882 235.399 96.0972 234.076 96.0972Z" fill="#DDE3E9"/>
<path d="M300.239 99.1822C303.326 99.1822 305.829 97.1031 305.829 94.5383C305.829 91.9735 303.326 89.8943 300.239 89.8943C297.152 89.8943 294.649 91.9735 294.649 94.5383C294.649 97.1031 297.152 99.1822 300.239 99.1822Z" fill="#DDE3E9"/>
<path d="M300.239 96.5284C301.562 96.5284 302.635 95.6373 302.635 94.5381C302.635 93.4389 301.562 92.5479 300.239 92.5479C298.916 92.5479 297.844 93.4389 297.844 94.5381C297.844 95.6373 298.916 96.5284 300.239 96.5284Z" fill="#F2F2F2"/>
<path d="M316.246 115.436H142.97C141.206 115.436 139.776 116.624 139.776 118.09V138.656C139.776 140.122 141.206 141.31 142.97 141.31H316.246C318.01 141.31 319.44 140.122 319.44 138.656V118.09C319.44 116.624 318.01 115.436 316.246 115.436Z" fill="white"/>
<path d="M277.978 123.198H149.298C148.008 123.198 146.962 124.067 146.962 125.139C146.962 126.21 148.008 127.079 149.298 127.079H277.978C279.268 127.079 280.313 126.21 280.313 125.139C280.313 124.067 279.268 123.198 277.978 123.198Z" fill="#DDE3E9"/>
<path d="M234.136 129.667H149.298C148.008 129.667 146.962 130.535 146.962 131.607C146.962 132.679 148.008 133.548 149.298 133.548H234.136C235.426 133.548 236.472 132.679 236.472 131.607C236.472 130.535 235.426 129.667 234.136 129.667Z" fill="#DDE3E9"/>
<path d="M300.239 133.017C303.326 133.017 305.829 130.938 305.829 128.373C305.829 125.808 303.326 123.729 300.239 123.729C297.152 123.729 294.649 125.808 294.649 128.373C294.649 130.938 297.152 133.017 300.239 133.017Z" fill="#DDE3E9"/>
<path d="M300.239 130.363C301.562 130.363 302.635 129.472 302.635 128.373C302.635 127.274 301.562 126.383 300.239 126.383C298.916 126.383 297.844 127.274 297.844 128.373C297.844 129.472 298.916 130.363 300.239 130.363Z" fill="#F2F2F2"/>
<path d="M316.246 146.617H142.97C141.206 146.617 139.776 147.805 139.776 149.271V169.837C139.776 171.303 141.206 172.491 142.97 172.491H316.246C318.01 172.491 319.44 171.303 319.44 169.837V149.271C319.44 147.805 318.01 146.617 316.246 146.617Z" fill="white"/>
<path d="M277.978 154.379H149.298C148.008 154.379 146.962 155.248 146.962 156.32C146.962 157.391 148.008 158.26 149.298 158.26H277.978C279.268 158.26 280.313 157.391 280.313 156.32C280.313 155.248 279.268 154.379 277.978 154.379Z" fill="#DDE3E9"/>
<path d="M234.136 160.848H149.298C148.008 160.848 146.962 161.716 146.962 162.788C146.962 163.86 148.008 164.729 149.298 164.729H234.136C235.426 164.729 236.472 163.86 236.472 162.788C236.472 161.716 235.426 160.848 234.136 160.848Z" fill="#DDE3E9"/>
<path d="M300.239 164.198C303.326 164.198 305.829 162.119 305.829 159.554C305.829 156.989 303.326 154.91 300.239 154.91C297.152 154.91 294.649 156.989 294.649 159.554C294.649 162.119 297.152 164.198 300.239 164.198Z" fill="#DDE3E9"/>
<path d="M300.239 161.544C301.562 161.544 302.635 160.653 302.635 159.554C302.635 158.455 301.562 157.563 300.239 157.563C298.916 157.563 297.844 158.455 297.844 159.554C297.844 160.653 298.916 161.544 300.239 161.544Z" fill="#AFB9C5"/>
<path d="M316.246 240.16H142.97C141.206 240.16 139.776 241.348 139.776 242.814V263.38C139.776 264.846 141.206 266.034 142.97 266.034H316.246C318.01 266.034 319.44 264.846 319.44 263.38V242.814C319.44 241.348 318.01 240.16 316.246 240.16Z" fill="white"/>
<path d="M277.978 247.922H149.298C148.008 247.922 146.962 248.791 146.962 249.863C146.962 250.934 148.008 251.803 149.298 251.803H277.978C279.268 251.803 280.313 250.934 280.313 249.863C280.313 248.791 279.268 247.922 277.978 247.922Z" fill="#DDE3E9"/>
<path d="M234.136 254.391H149.298C148.008 254.391 146.962 255.259 146.962 256.331C146.962 257.403 148.008 258.272 149.298 258.272H234.136C235.426 258.272 236.472 257.403 236.472 256.331C236.472 255.259 235.426 254.391 234.136 254.391Z" fill="#DDE3E9"/>
<path d="M300.239 257.741C303.326 257.741 305.829 255.662 305.829 253.097C305.829 250.532 303.326 248.453 300.239 248.453C297.152 248.453 294.649 250.532 294.649 253.097C294.649 255.662 297.152 257.741 300.239 257.741Z" fill="#DDE3E9"/>
<path d="M300.239 255.087C301.562 255.087 302.635 254.196 302.635 253.097C302.635 251.998 301.562 251.107 300.239 251.107C298.916 251.107 297.844 251.998 297.844 253.097C297.844 254.196 298.916 255.087 300.239 255.087Z" fill="#F2F2F2"/>
<path d="M316.246 208.979H142.97C141.206 208.979 139.776 210.167 139.776 211.633V232.199C139.776 233.665 141.206 234.853 142.97 234.853H316.246C318.01 234.853 319.44 233.665 319.44 232.199V211.633C319.44 210.167 318.01 208.979 316.246 208.979Z" fill="white"/>
<path d="M277.978 216.741H149.298C148.008 216.741 146.962 217.61 146.962 218.681C146.962 219.753 148.008 220.622 149.298 220.622H277.978C279.268 220.622 280.313 219.753 280.313 218.681C280.313 217.61 279.268 216.741 277.978 216.741Z" fill="#DDE3E9"/>
<path d="M234.136 223.209H149.298C148.008 223.209 146.962 224.078 146.962 225.15C146.962 226.222 148.008 227.091 149.298 227.091H234.136C235.426 227.091 236.472 226.222 236.472 225.15C236.472 224.078 235.426 223.209 234.136 223.209Z" fill="#DDE3E9"/>
<path d="M300.239 226.56C303.326 226.56 305.829 224.481 305.829 221.916C305.829 219.351 303.326 217.272 300.239 217.272C297.152 217.272 294.649 219.351 294.649 221.916C294.649 224.481 297.152 226.56 300.239 226.56Z" fill="#DDE3E9"/>
<path d="M300.239 223.906C301.562 223.906 302.635 223.015 302.635 221.916C302.635 220.817 301.562 219.926 300.239 219.926C298.916 219.926 297.844 220.817 297.844 221.916C297.844 223.015 298.916 223.906 300.239 223.906Z" fill="#F2F2F2"/>
<path d="M316.246 177.798H142.97C141.206 177.798 139.776 178.986 139.776 180.452V201.018C139.776 202.484 141.206 203.672 142.97 203.672H316.246C318.01 203.672 319.44 202.484 319.44 201.018V180.452C319.44 178.986 318.01 177.798 316.246 177.798Z" fill="white"/>
<path d="M277.978 185.56H149.298C148.008 185.56 146.962 186.429 146.962 187.501C146.962 188.572 148.008 189.441 149.298 189.441H277.978C279.268 189.441 280.313 188.572 280.313 187.501C280.313 186.429 279.268 185.56 277.978 185.56Z" fill="#DDE3E9"/>
<path d="M234.136 192.028H149.298C148.008 192.028 146.962 192.897 146.962 193.969C146.962 195.041 148.008 195.909 149.298 195.909H234.136C235.426 195.909 236.472 195.041 236.472 193.969C236.472 192.897 235.426 192.028 234.136 192.028Z" fill="#DDE3E9"/>
<path d="M300.239 195.379C303.326 195.379 305.829 193.3 305.829 190.735C305.829 188.17 303.326 186.091 300.239 186.091C297.152 186.091 294.649 188.17 294.649 190.735C294.649 193.3 297.152 195.379 300.239 195.379Z" fill="#DDE3E9"/>
<path d="M300.239 192.725C301.562 192.725 302.635 191.834 302.635 190.735C302.635 189.636 301.562 188.745 300.239 188.745C298.916 188.745 297.844 189.636 297.844 190.735C297.844 191.834 298.916 192.725 300.239 192.725Z" fill="#F2F2F2"/>
<path d="M342.031 23.22C342.031 22.1208 341.139 21.2297 340.038 21.2297C338.938 21.2297 338.046 22.1208 338.046 23.22V35.8251C338.046 36.9243 338.938 37.8154 340.038 37.8154C341.139 37.8154 342.031 36.9243 342.031 35.8251V23.22Z" fill="#DDE3E9"/>
<path d="M351.329 12.605C351.329 11.5058 350.437 10.6147 349.337 10.6147C348.236 10.6147 347.344 11.5058 347.344 12.605V35.8249C347.344 36.9241 348.236 37.8152 349.337 37.8152C350.437 37.8152 351.329 36.9241 351.329 35.8249V12.605Z" fill="#DDE3E9"/>
<path d="M360.628 7.29765C360.628 6.19845 359.736 5.30737 358.635 5.30737C357.535 5.30737 356.643 6.19845 356.643 7.29765V35.825C356.643 36.9242 357.535 37.8152 358.635 37.8152C359.736 37.8152 360.628 36.9242 360.628 35.825V7.29765Z" fill="#DDE3E9"/>
<path d="M369.926 12.605C369.926 11.5058 369.034 10.6147 367.933 10.6147C366.833 10.6147 365.941 11.5058 365.941 12.605V35.8249C365.941 36.9241 366.833 37.8152 367.933 37.8152C369.034 37.8152 369.926 36.9241 369.926 35.8249V12.605Z" fill="#DDE3E9"/>
<path d="M379.225 1.99028C379.225 0.891077 378.333 0 377.232 0C376.132 0 375.24 0.891077 375.24 1.99028V35.825C375.24 36.9242 376.132 37.8153 377.232 37.8153C378.333 37.8153 379.225 36.9242 379.225 35.825V1.99028Z" fill="#C5CFD6"/>
<path fill-rule="evenodd" clip-rule="evenodd" d="M316.827 26.2081C315.845 27.2457 314.454 27.8972 312.907 27.8972C309.935 27.8972 307.526 25.5062 307.526 22.5566C307.526 19.6071 309.935 17.2161 312.907 17.2161V7.29785C304.452 7.29785 297.532 14.1658 297.532 22.5566C297.532 30.9474 304.452 37.8154 312.907 37.8154C317.349 37.8154 321.362 35.9508 324.099 32.9845L316.827 26.2081Z" fill="#F2F2F2"/>
<path fill-rule="evenodd" clip-rule="evenodd" d="M312.808 7.29785V17.2161C315.76 17.2161 318.154 19.6071 318.154 22.5566H328.084C328.084 14.1658 321.208 7.29785 312.808 7.29785Z" fill="#AFB9C5"/>
<path fill-rule="evenodd" clip-rule="evenodd" d="M318.169 22.5566C318.169 24.2519 317.37 25.7587 316.128 26.7316L322.236 34.4983C325.792 31.7178 328.084 27.4076 328.084 22.5566H318.169Z" fill="#C5CFD6"/>
<path fill-rule="evenodd" clip-rule="evenodd" d="M75.0394 37.8064C75.0366 37.8132 75.0339 37.82 75.0298 37.8282C75.0339 37.8214 75.0394 37.7941 75.0394 37.8064Z" fill="#C5CFD6"/>
<path fill-rule="evenodd" clip-rule="evenodd" d="M75.0333 37.8167C75.0333 37.8181 75.0317 37.8209 75.0317 37.8237C75.0317 37.8167 75.0457 37.7957 75.0333 37.8167Z" fill="#C5CFD6"/>
<path fill-rule="evenodd" clip-rule="evenodd" d="M75.0789 37.7039C75.0696 37.7304 75.0577 37.7556 75.0471 37.7821C75.0524 37.7689 75.0577 37.7583 75.063 37.745C74.9248 38.09 75.0125 37.8657 75.0789 37.7039Z" fill="#C5CFD6"/>
<path fill-rule="evenodd" clip-rule="evenodd" d="M75.0496 37.7837C75.0442 37.7958 75.0389 37.8093 75.0335 37.8214C74.9945 37.8967 75.0496 37.7837 75.0496 37.7837Z" fill="#C5CFD6"/>
<path fill-rule="evenodd" clip-rule="evenodd" d="M75.0342 37.8169C75.0342 37.8155 75.0342 37.8155 75.0358 37.814C75.0342 37.8155 75.0342 37.8155 75.0342 37.8169Z" fill="#C5CFD6"/>
<path fill-rule="evenodd" clip-rule="evenodd" d="M75.0273 37.8262C75.0193 37.8422 75.0646 37.765 75.0273 37.8262V37.8262Z" fill="#C5CFD6"/>
<path fill-rule="evenodd" clip-rule="evenodd" d="M75.0332 37.8169L75.0365 37.814C75.0349 37.8155 75.0349 37.8169 75.0332 37.8169Z" fill="#C5CFD6"/>
<path d="M103.594 3.31714H45.811C44.3437 3.31714 43.1543 4.50524 43.1543 5.97084V42.4592C43.1543 43.9248 44.3437 45.1129 45.811 45.1129H103.594C105.061 45.1129 106.251 43.9248 106.251 42.4592V5.97084C106.251 4.50524 105.061 3.31714 103.594 3.31714Z" fill="#DDE3E9"/>
<path fill-rule="evenodd" clip-rule="evenodd" d="M67.0645 15.2588L48.4678 45.1129H85.6613L67.0645 15.2588Z" fill="#AFB9C5"/>
<path fill-rule="evenodd" clip-rule="evenodd" d="M85.3293 23.22L69.0571 45.113H101.601L85.3293 23.22Z" fill="#C5CFD6"/>
<path d="M92.3027 23.22C95.604 23.22 98.2803 20.5468 98.2803 17.2492C98.2803 13.9516 95.604 11.2783 92.3027 11.2783C89.0014 11.2783 86.3252 13.9516 86.3252 17.2492C86.3252 20.5468 89.0014 23.22 92.3027 23.22Z" fill="white"/>
<path fill-rule="evenodd" clip-rule="evenodd" d="M391.839 321.089C391.842 321.096 391.845 321.103 391.849 321.111C391.845 321.104 391.839 321.077 391.839 321.089Z" fill="#C5CFD6"/>
<path fill-rule="evenodd" clip-rule="evenodd" d="M391.845 321.1C391.845 321.101 391.847 321.104 391.847 321.107C391.847 321.1 391.833 321.079 391.845 321.1Z" fill="#C5CFD6"/>
<path fill-rule="evenodd" clip-rule="evenodd" d="M391.799 320.987C391.809 321.013 391.821 321.039 391.831 321.065C391.826 321.052 391.821 321.041 391.815 321.028C391.954 321.373 391.866 321.149 391.799 320.987Z" fill="#C5CFD6"/>
<path fill-rule="evenodd" clip-rule="evenodd" d="M391.829 321.067C391.834 321.079 391.84 321.092 391.845 321.104C391.884 321.18 391.829 321.067 391.829 321.067Z" fill="#C5CFD6"/>
<path fill-rule="evenodd" clip-rule="evenodd" d="M391.845 321.1C391.845 321.098 391.845 321.098 391.843 321.097C391.845 321.098 391.845 321.098 391.845 321.1Z" fill="#C5CFD6"/>
<path fill-rule="evenodd" clip-rule="evenodd" d="M391.851 321.109C391.859 321.125 391.813 321.048 391.851 321.109V321.109Z" fill="#C5CFD6"/>
<path fill-rule="evenodd" clip-rule="evenodd" d="M391.845 321.1L391.842 321.097C391.844 321.098 391.844 321.1 391.845 321.1Z" fill="#C5CFD6"/>
<path d="M347.344 270.014H436.343C437.811 270.014 439 271.203 439 272.668V329.723C439 331.188 437.811 332.376 436.343 332.376H347.344C345.877 332.376 344.688 331.188 344.688 329.723V272.668C344.688 271.203 345.877 270.014 347.344 270.014Z" fill="#DDE3E9"/>
<path fill-rule="evenodd" clip-rule="evenodd" d="M403.981 287.927L431.249 332.377H376.714L403.981 287.927Z" fill="#AFB9C5"/>
<path fill-rule="evenodd" clip-rule="evenodd" d="M375.867 299.833L399.973 332.377H351.761L375.867 299.833Z" fill="#C5CFD6"/>
<path d="M365.609 299.869C360.657 299.869 356.643 295.859 356.643 290.912C356.643 285.966 360.657 281.956 365.609 281.956C370.561 281.956 374.575 285.966 374.575 290.912C374.575 295.859 370.561 299.869 365.609 299.869Z" fill="white"/>
<path fill-rule="evenodd" clip-rule="evenodd" d="M46.0124 224.31C43.3375 221.17 41.527 217.322 41.8295 213.011C42.7012 200.588 59.9947 203.321 63.3586 209.591C66.7225 215.861 66.3228 231.766 61.9752 232.886C60.2414 233.333 56.5479 232.238 52.7887 229.973L55.1483 246.665H41.2161L46.0124 224.31Z" fill="#B28B67"/>
<path fill-rule="evenodd" clip-rule="evenodd" d="M35.7556 208.875C35.3056 208.429 35.0601 207.793 34.8478 207.188C34.6273 206.56 34.413 205.926 34.2666 205.273C33.9741 203.967 33.9713 202.465 34.9028 201.452C35.6498 200.639 36.7707 200.274 37.8052 200.195C38.4944 200.142 39.2022 200.238 39.8629 200.455C40.5184 200.671 41.0834 201.1 41.7189 201.367C41.7431 199.96 41.9842 198.488 42.698 197.286C43.3849 196.13 44.4801 195.481 45.7273 195.31C47.0075 195.134 48.2716 195.433 49.4177 196.053C49.7046 196.208 49.9889 196.371 50.2609 196.555C50.4887 196.709 50.7255 196.895 50.9927 196.957C51.2907 197.027 51.4383 196.855 51.632 196.638C51.859 196.383 52.1148 196.158 52.3855 195.959C53.5823 195.08 55.1527 194.718 56.5393 195.245C57.1781 195.488 57.7994 195.901 58.2328 196.469C58.6192 196.976 58.8948 197.78 59.428 198.133C59.6543 198.283 59.8141 198.085 60.0201 197.938C60.3296 197.717 60.6248 197.474 60.938 197.259C61.3779 196.958 61.8543 196.733 62.3644 196.615C63.1111 196.442 64.1431 196.482 64.3566 197.46C64.4368 197.828 64.3753 198.221 64.3494 198.591C64.3139 199.099 64.2768 199.607 64.2326 200.115C64.1991 200.5 64.1568 200.872 64.0841 201.251C64.0453 201.452 63.9239 201.828 64.0104 202.03C64.1185 202.283 64.6174 202.139 64.8305 202.148C65.2515 202.165 65.6742 202.239 66.0635 202.419C66.3651 202.559 66.6823 202.764 66.8096 203.109C66.8879 203.322 66.8673 203.54 66.8303 203.758C66.786 204.021 66.8367 204.16 66.8698 204.424C67.4352 204.146 69.3945 203.527 69.6411 204.541C69.7231 204.878 69.5362 205.259 69.3936 205.544C69.1435 206.043 68.8156 206.499 68.4804 206.934C67.7811 207.842 66.9463 208.624 66.0481 209.294C67.1005 209.762 67.3751 211.142 66.464 211.964C66.0618 212.327 65.5209 212.408 65.0134 212.384C64.8277 212.376 64.56 212.304 64.4138 212.337C64.3352 212.354 64.251 212.421 64.142 212.428C63.4259 212.477 62.6175 212.305 61.9174 212.146C60.67 211.863 59.4891 211.272 58.5247 210.372C58.2773 210.141 58.0729 210.008 57.74 210.011C57.4482 210.014 57.1619 210.094 56.8704 210.102C56.099 210.121 55.4036 209.744 54.6873 209.493C54.6435 210.461 54.3679 211.527 53.9721 212.397C53.6493 213.107 52.9753 213.21 52.313 213.272C50.1949 213.472 48.0695 213.249 45.9488 213.252C48.0016 213.716 50.123 213.907 52.1576 214.454C53.0773 214.7 52.375 215.32 51.9818 215.75C51.3343 216.457 50.8528 217.334 50.5188 218.258C49.5146 216.949 47.7396 216.086 46.167 216.488C44.4294 216.933 43.2059 219.282 44.317 220.972C44.9621 221.952 46.127 222.331 47.0963 222.752C46.3401 223.539 46.1572 224.7 45.7021 225.678C45.4776 226.16 45.1625 226.705 44.6605 226.873C44.4748 226.936 44.257 226.941 44.1105 227.092C43.929 227.28 43.8858 227.489 43.654 227.65C42.7291 228.294 41.2844 228.244 40.4646 227.405C39.7232 226.646 39.9161 225.445 40.5353 224.676C39.5497 224.265 37.7541 223.736 38.1458 222.201C36.0101 222.059 30.8249 218.595 33.6912 216.064C32.1182 215.175 30.673 213.003 31.6834 211.087C32.4615 209.613 34.271 208.953 35.7556 208.875Z" fill="#191847"/>
<path fill-rule="evenodd" clip-rule="evenodd" d="M16.0352 319.229H60.8821L66.7585 391.212H0L16.0352 319.229Z" fill="#C5CFD6"/>
<path fill-rule="evenodd" clip-rule="evenodd" d="M16.0352 319.229H29.8282L38.0835 391.212H0L16.0352 319.229Z" fill="black" fill-opacity="0.1"/>
<path fill-rule="evenodd" clip-rule="evenodd" d="M112.011 306.897C116.792 304.025 124.815 307.714 124.809 311.821C124.793 324.107 113.58 382.011 112.995 385.672C112.409 389.332 106.138 390.299 105.773 385.684C105.192 378.34 104.112 352.918 105.192 341.15C105.638 336.293 106.118 331.667 106.591 327.54C100.708 338.165 91.6083 353.378 79.2934 373.178L72.6079 370.123C77.8578 352.826 82.1626 340.615 85.5224 333.49C91.2751 321.29 96.6693 310.841 98.9395 307.161C102.511 301.372 108.727 303.392 112.011 306.897Z" fill="#B28B67"/>
<path fill-rule="evenodd" clip-rule="evenodd" d="M73.086 360.518L96.0321 306.16C101.529 297.318 116.941 307.959 115.067 313.088C110.811 324.732 89.166 362.427 87.898 365.896L73.086 360.518Z" fill="#1F28CF"/>
<path fill-rule="evenodd" clip-rule="evenodd" d="M71.8118 366.695C70.3825 367.872 69.4527 368.833 69.0224 369.578C68.499 370.485 67.8862 371.895 67.1841 373.809C68.2358 374.416 77.6875 379.873 95.5393 390.179C97.6825 388.169 98.0165 386.608 96.5411 385.497C95.0656 384.387 93.8481 383.45 92.8884 382.687L83.1013 369.203C82.913 368.943 82.55 368.885 82.2905 369.074C82.2861 369.077 82.2817 369.08 82.2773 369.084L80.2438 370.65C78.3782 370.487 76.986 370.14 76.0672 369.61C75.3206 369.179 74.4637 368.282 73.4964 366.919L73.4965 366.919C73.1253 366.397 72.4005 366.274 71.8776 366.645C71.8551 366.661 71.8331 366.678 71.8118 366.695Z" fill="#E4E4E4"/>
<path fill-rule="evenodd" clip-rule="evenodd" d="M104.305 382.738C103.655 384.471 103.331 385.768 103.331 386.629C103.331 387.676 103.505 389.203 103.854 391.212C105.068 391.212 115.982 391.212 136.595 391.212C137.446 388.399 136.955 386.88 135.122 386.656C133.289 386.432 131.766 386.229 130.554 386.049L115.335 379.264C115.043 379.134 114.699 379.265 114.569 379.558C114.567 379.563 114.565 379.568 114.562 379.573L113.584 381.946C111.887 382.738 110.508 383.134 109.447 383.134C108.585 383.134 107.395 382.786 105.876 382.089L105.876 382.089C105.293 381.822 104.604 382.078 104.337 382.661C104.325 382.686 104.314 382.712 104.305 382.738Z" fill="#E4E4E4"/>
<path fill-rule="evenodd" clip-rule="evenodd" d="M126.418 315.997C126.418 331.419 119.093 367.394 119.089 370.79L103.331 370.802C105.637 338.702 106.455 322.48 105.784 322.134C104.778 321.615 64.5386 326.151 52.4701 326.151C35.0673 326.151 27.8681 315.177 27.2839 294.847H61.7582C68.7775 295.599 105.391 302.983 118.988 305.522C124.809 306.609 126.418 311.749 126.418 315.997Z" fill="#2B44FF"/>
<path fill-rule="evenodd" clip-rule="evenodd" d="M67.1289 258.682L87.2782 247.646C90.6289 243.667 93.9303 240.577 97.1824 238.376C98.1761 237.961 99.9139 237.71 98.2887 240.594C96.6636 243.479 95.0839 246.586 95.9118 247.474C96.7398 248.363 98.8043 247.122 99.7921 248.598C100.451 249.582 96.9234 251.137 89.2107 253.263L74.5697 266.668L67.1289 258.682ZM98.6865 267.993L107.537 263.131C108.779 258.406 110.264 256.028 111.991 255.998C113.318 255.381 111.007 261.352 113.522 260.834C116.037 260.316 122.176 255.751 123.234 256.678C124.799 258.049 123.404 262.26 121.76 264.355C118.687 268.271 116.143 269.609 109.855 271.363C106.567 272.279 103.012 274.117 99.1905 276.875L98.6865 267.993Z" fill="#997659"/>
<path fill-rule="evenodd" clip-rule="evenodd" d="M57.3163 256.224C64.3738 256.149 73.7852 254.659 83.8271 248.284L87.7708 257.079C80.8441 263.953 71.1045 269.601 62.5884 269.362C55.8773 269.174 52.4473 261.056 57.3163 256.224Z" fill="#2026A2"/>
<path fill-rule="evenodd" clip-rule="evenodd" d="M66.8187 270.327C74.3112 272.196 86.8757 269.992 104.512 263.717C108.887 272.767 110.909 279.219 110.579 283.073C95.4494 290.976 82.4821 294.5 71.7989 294.732C72.1384 301.071 71.3668 307.103 68.7748 312.614C63.4462 323.945 32.2441 313.452 21.753 315.517C15.1831 294.181 27.8861 285.51 27.8963 271.857C27.9075 256.907 39.9122 233.894 41.6785 233.894L57.7857 233.894C58.6744 245.312 63.1476 257.896 66.8187 270.327Z" fill="#1F28CF"/>
</svg>
