<svg width="489" height="466" viewBox="0 0 489 466" fill="none" xmlns="http://www.w3.org/2000/svg">
<path d="M203.629 152.936H116.661C113.974 152.936 111.795 155.078 111.795 157.72V328.739C111.795 331.381 113.974 333.523 116.661 333.523H203.629C206.316 333.523 208.494 331.381 208.494 328.739V157.72C208.494 155.078 206.316 152.936 203.629 152.936Z" fill="#F2F2F2"/>
<path d="M198.441 192.933H123.637C122.293 192.933 121.204 194.003 121.204 195.324V222.831C121.204 224.152 122.293 225.223 123.637 225.223H198.441C199.785 225.223 200.874 224.152 200.874 222.831V195.324C200.874 194.003 199.785 192.933 198.441 192.933Z" fill="white"/>
<path d="M187.494 202.62H146.746C145.739 202.62 144.922 203.423 144.922 204.414V205.67C144.922 206.66 145.739 207.463 146.746 207.463H187.494C188.501 207.463 189.318 206.66 189.318 205.67V204.414C189.318 203.423 188.501 202.62 187.494 202.62Z" fill="#DDE3E9"/>
<path d="M172.898 210.692H146.746C145.739 210.692 144.922 211.496 144.922 212.486V213.742C144.922 214.733 145.739 215.536 146.746 215.536H172.898C173.905 215.536 174.722 214.733 174.722 213.742V212.486C174.722 211.496 173.905 210.692 172.898 210.692Z" fill="#DDE3E9"/>
<path d="M133.975 216.254C138.006 216.254 141.273 213.041 141.273 209.078C141.273 205.115 138.006 201.902 133.975 201.902C129.945 201.902 126.677 205.115 126.677 209.078C126.677 213.041 129.945 216.254 133.975 216.254Z" fill="#C5CFD6"/>
<path d="M198.441 230.007H123.636C122.293 230.007 121.204 231.078 121.204 232.399V252.73C121.204 254.051 122.293 255.122 123.636 255.122H198.441C199.784 255.122 200.873 254.051 200.873 252.73V232.399C200.873 231.078 199.784 230.007 198.441 230.007Z" fill="white"/>
<path d="M187.494 237.541H146.746C145.739 237.541 144.922 238.344 144.922 239.335V239.515C144.922 240.505 145.739 241.308 146.746 241.308H187.494C188.501 241.308 189.318 240.505 189.318 239.515V239.335C189.318 238.344 188.501 237.541 187.494 237.541Z" fill="#DDE3E9"/>
<path d="M172.898 243.82H146.746C145.739 243.82 144.922 244.623 144.922 245.614V245.793C144.922 246.784 145.739 247.587 146.746 247.587H172.898C173.905 247.587 174.722 246.784 174.722 245.793V245.614C174.722 244.623 173.905 243.82 172.898 243.82Z" fill="#DDE3E9"/>
<path d="M133.975 249.74C138.006 249.74 141.273 246.527 141.273 242.564C141.273 238.601 138.006 235.389 133.975 235.389C129.945 235.389 126.677 238.601 126.677 242.564C126.677 246.527 129.945 249.74 133.975 249.74Z" fill="#C5CFD6"/>
<path d="M198.441 259.905H123.636C122.293 259.905 121.204 260.976 121.204 262.297V282.628C121.204 283.949 122.293 285.02 123.636 285.02H198.441C199.784 285.02 200.873 283.949 200.873 282.628V262.297C200.873 260.976 199.784 259.905 198.441 259.905Z" fill="white"/>
<path d="M187.494 267.44H146.746C145.739 267.44 144.922 268.243 144.922 269.234V269.413C144.922 270.404 145.739 271.207 146.746 271.207H187.494C188.501 271.207 189.318 270.404 189.318 269.413V269.234C189.318 268.243 188.501 267.44 187.494 267.44Z" fill="#DDE3E9"/>
<path d="M172.898 273.718H146.746C145.739 273.718 144.922 274.521 144.922 275.512V275.692C144.922 276.682 145.739 277.485 146.746 277.485H172.898C173.905 277.485 174.722 276.682 174.722 275.692V275.512C174.722 274.521 173.905 273.718 172.898 273.718Z" fill="#DDE3E9"/>
<path d="M133.975 279.638C138.006 279.638 141.273 276.425 141.273 272.462C141.273 268.5 138.006 265.287 133.975 265.287C129.945 265.287 126.677 268.5 126.677 272.462C126.677 276.425 129.945 279.638 133.975 279.638Z" fill="#AFB9C5"/>
<path d="M198.441 289.803H123.636C122.293 289.803 121.204 290.874 121.204 292.195V312.526C121.204 313.847 122.293 314.918 123.636 314.918H198.441C199.784 314.918 200.873 313.847 200.873 312.526V292.195C200.873 290.874 199.784 289.803 198.441 289.803Z" fill="white"/>
<path d="M187.494 297.338H146.746C145.739 297.338 144.922 298.141 144.922 299.132V299.311C144.922 300.302 145.739 301.105 146.746 301.105H187.494C188.501 301.105 189.318 300.302 189.318 299.311V299.132C189.318 298.141 188.501 297.338 187.494 297.338Z" fill="#DDE3E9"/>
<path d="M172.898 303.617H146.746C145.739 303.617 144.922 304.42 144.922 305.411V305.59C144.922 306.581 145.739 307.384 146.746 307.384H172.898C173.905 307.384 174.722 306.581 174.722 305.59V305.411C174.722 304.42 173.905 303.617 172.898 303.617Z" fill="#DDE3E9"/>
<path d="M133.975 309.537C138.006 309.537 141.273 306.324 141.273 302.361C141.273 298.398 138.006 295.186 133.975 295.186C129.945 295.186 126.677 298.398 126.677 302.361C126.677 306.324 129.945 309.537 133.975 309.537Z" fill="#C5CFD6"/>
<path fill-rule="evenodd" clip-rule="evenodd" d="M7.38301 351.265C6.5773 351.265 5.77404 351.281 4.96933 351.322C4.35594 351.353 3.41859 351.228 2.89956 351.604C2.3603 351.995 2.39743 352.794 2.48167 353.359C2.92701 356.343 4.01392 358.99 6.28773 361.105C9.78874 364.361 13.8023 366.016 18.5516 366.752C21.8878 367.27 24.9676 366.551 27.4234 364.219C29.2178 367.493 30.5791 371.117 31.2622 374.774C31.5991 376.579 31.702 378.362 31.6428 380.199C31.6046 381.376 31.5386 382.55 31.4103 383.722C31.3546 384.231 31.0906 385.001 31.2934 385.482C31.5312 386.047 32.3333 386.102 32.6934 385.62C32.9931 385.219 32.938 384.432 32.9996 383.958C33.1016 383.17 33.1961 382.381 33.2637 381.589C33.3735 380.308 33.4548 379.022 33.4488 377.736C33.4351 374.846 32.7815 371.944 31.8875 369.201C30.1725 363.937 27.3898 359.259 23.0619 355.589C20.4009 353.332 17.3553 352.418 13.9 351.928C11.7487 351.622 9.56232 351.265 7.38301 351.265Z" fill="#89C5CC"/>
<path fill-rule="evenodd" clip-rule="evenodd" d="M19.8088 372.194C11.1126 372.194 5.25581 379.085 2.4866 386.247C1.44272 388.946 1.19806 391.911 0.795741 394.746C0.666573 395.655 0.714423 397.042 0.338882 397.852C0.202594 398.146 -0.109859 398.252 0.0395318 398.652C0.129964 398.894 0.307409 399.043 0.573862 399.091C1.12087 399.19 1.89431 398.604 2.36327 398.373C6.25312 396.455 8.80885 393.489 10.8938 389.861C12.1862 387.611 13.4975 385.277 14.2652 382.807C14.7342 381.299 15.0072 379.711 15.1676 378.146C15.2306 377.53 15.2917 376.899 15.288 376.279C15.2843 375.664 14.9932 375.338 14.784 374.803C17.6857 373.723 20.9609 373.429 23.9001 374.548C26.6186 375.583 28.8769 377.583 30.1413 380.096C30.4699 380.749 30.7232 381.438 30.9078 382.141C31.0286 382.602 31.0344 383.199 31.2583 383.615C31.8012 384.624 32.9433 383.949 32.8336 383.01C32.5279 380.39 31.0035 377.76 29.0552 375.938C26.5978 373.641 23.267 372.194 19.8088 372.194Z" fill="#89C5CC"/>
<path d="M121.245 220.908H34.3741C31.69 220.908 29.5142 222.806 29.5142 225.149V376.758C29.5142 379.1 31.69 380.999 34.3741 380.999H121.245C123.93 380.999 126.105 379.1 126.105 376.758V225.149C126.105 222.806 123.93 220.908 121.245 220.908Z" fill="#DDE3E9"/>
<path d="M114.944 237.651H40.1397C38.7962 237.651 37.707 238.722 37.707 240.043V267.549C37.707 268.87 38.7962 269.941 40.1397 269.941H114.944C116.288 269.941 117.377 268.87 117.377 267.549V240.043C117.377 238.722 116.288 237.651 114.944 237.651Z" fill="white"/>
<path d="M85.7514 247.338H45.0042C43.9965 247.338 43.1797 248.141 43.1797 249.132V250.388C43.1797 251.378 43.9965 252.181 45.0042 252.181H85.7514C86.759 252.181 87.5759 251.378 87.5759 250.388V249.132C87.5759 248.141 86.759 247.338 85.7514 247.338Z" fill="#DDE3E9"/>
<path d="M71.1554 255.411H45.0042C43.9965 255.411 43.1797 256.214 43.1797 257.205V258.46C43.1797 259.451 43.9965 260.254 45.0042 260.254H71.1554C72.163 260.254 72.9799 259.451 72.9799 258.46V257.205C72.9799 256.214 72.163 255.411 71.1554 255.411Z" fill="#DDE3E9"/>
<path d="M108.862 257.982C111.213 257.982 113.119 256.108 113.119 253.796C113.119 251.484 111.213 249.61 108.862 249.61C106.511 249.61 104.605 251.484 104.605 253.796C104.605 256.108 106.511 257.982 108.862 257.982Z" fill="#DDE3E9"/>
<path d="M108.863 255.59C109.87 255.59 110.687 254.787 110.687 253.796C110.687 252.805 109.87 252.002 108.863 252.002C107.855 252.002 107.038 252.805 107.038 253.796C107.038 254.787 107.855 255.59 108.863 255.59Z" fill="#F2F2F2"/>
<path d="M114.944 274.725H40.1392C38.7957 274.725 37.7065 275.796 37.7065 277.117V297.448C37.7065 298.769 38.7957 299.84 40.1392 299.84H114.944C116.287 299.84 117.376 298.769 117.376 297.448V277.117C117.376 275.796 116.287 274.725 114.944 274.725Z" fill="white"/>
<path d="M103.996 282.26H63.2493C62.2417 282.26 61.4248 283.063 61.4248 284.053V284.233C61.4248 285.224 62.2417 286.027 63.2493 286.027H103.996C105.004 286.027 105.821 285.224 105.821 284.233V284.053C105.821 283.063 105.004 282.26 103.996 282.26Z" fill="#DDE3E9"/>
<path d="M89.4 288.538H63.2488C62.2412 288.538 61.4243 289.341 61.4243 290.332V290.511C61.4243 291.502 62.2412 292.305 63.2488 292.305H89.4C90.4076 292.305 91.2245 291.502 91.2245 290.511V290.332C91.2245 289.341 90.4076 288.538 89.4 288.538Z" fill="#DDE3E9"/>
<path d="M50.4782 294.458C54.5088 294.458 57.7762 291.245 57.7762 287.282C57.7762 283.319 54.5088 280.107 50.4782 280.107C46.4476 280.107 43.1802 283.319 43.1802 287.282C43.1802 291.245 46.4476 294.458 50.4782 294.458Z" fill="#C5CFD6"/>
<path d="M114.944 304.624H40.1392C38.7957 304.624 37.7065 305.694 37.7065 307.015V327.346C37.7065 328.667 38.7957 329.738 40.1392 329.738H114.944C116.287 329.738 117.376 328.667 117.376 327.346V307.015C117.376 305.694 116.287 304.624 114.944 304.624Z" fill="white"/>
<path d="M85.7514 312.158H45.0042C43.9965 312.158 43.1797 312.961 43.1797 313.952V314.131C43.1797 315.122 43.9965 315.925 45.0042 315.925H85.7514C86.759 315.925 87.5759 315.122 87.5759 314.131V313.952C87.5759 312.961 86.759 312.158 85.7514 312.158Z" fill="#DDE3E9"/>
<path d="M71.1554 318.437H45.0042C43.9965 318.437 43.1797 319.24 43.1797 320.23V320.41C43.1797 321.401 43.9965 322.204 45.0042 322.204H71.1554C72.163 322.204 72.9799 321.401 72.9799 320.41V320.23C72.9799 319.24 72.163 318.437 71.1554 318.437Z" fill="#AFB9C5"/>
<path d="M108.862 321.367C111.213 321.367 113.119 319.493 113.119 317.181C113.119 314.869 111.213 312.995 108.862 312.995C106.511 312.995 104.605 314.869 104.605 317.181C104.605 319.493 106.511 321.367 108.862 321.367Z" fill="#DDE3E9"/>
<path d="M108.863 318.975C109.87 318.975 110.687 318.171 110.687 317.181C110.687 316.19 109.87 315.387 108.863 315.387C107.855 315.387 107.038 316.19 107.038 317.181C107.038 318.171 107.855 318.975 108.863 318.975Z" fill="#F2F2F2"/>
<path d="M114.944 334.522H40.1392C38.7957 334.522 37.7065 335.593 37.7065 336.914V357.245C37.7065 358.566 38.7957 359.636 40.1392 359.636H114.944C116.287 359.636 117.376 358.566 117.376 357.245V336.914C117.376 335.593 116.287 334.522 114.944 334.522Z" fill="white"/>
<path d="M103.996 342.056H63.2493C62.2417 342.056 61.4248 342.86 61.4248 343.85V344.03C61.4248 345.02 62.2417 345.824 63.2493 345.824H103.996C105.004 345.824 105.821 345.02 105.821 344.03V343.85C105.821 342.86 105.004 342.056 103.996 342.056Z" fill="#DDE3E9"/>
<path d="M89.4 348.335H63.2488C62.2412 348.335 61.4243 349.138 61.4243 350.129V350.308C61.4243 351.299 62.2412 352.102 63.2488 352.102H89.4C90.4076 352.102 91.2245 351.299 91.2245 350.308V350.129C91.2245 349.138 90.4076 348.335 89.4 348.335Z" fill="#DDE3E9"/>
<path d="M50.4782 354.255C54.5088 354.255 57.7762 351.042 57.7762 347.079C57.7762 343.116 54.5088 339.904 50.4782 339.904C46.4476 339.904 43.1802 343.116 43.1802 347.079C43.1802 351.042 46.4476 354.255 50.4782 354.255Z" fill="#C5CFD6"/>
<g opacity="0.504511">
<path opacity="0.504511" fill-rule="evenodd" clip-rule="evenodd" d="M410.931 230.907C415.039 261.636 315.411 281.679 229.659 267.691C143.908 253.703 104.569 199.079 145.488 169.974C186.408 140.868 406.822 200.178 410.931 230.907Z" fill="#F2F2F2"/>
</g>
<path fill-rule="evenodd" clip-rule="evenodd" d="M289.803 88.9062C287.606 87.8165 284.676 89.0803 285.898 91.9609C287.207 95.0456 292.047 95.0837 294.781 95.0225C294.507 95.0082 293.626 92.1795 293.324 91.7521C292.435 90.4911 291.154 89.5773 289.803 88.9062ZM315.122 144.211C315.677 144.685 315.167 144.256 315.122 144.211V144.211ZM287.686 102.858C286.4 103.841 286.339 105.577 287.39 106.752C288.64 108.15 290.924 108.099 292.629 107.963C293.401 107.901 297.519 107.572 296.542 106.898C296.618 106.926 296.774 106.995 296.942 107.088C297.032 107.418 297.127 107.747 297.226 108.075C297.202 108.089 297.181 108.104 297.155 108.118C297.183 108.106 297.203 108.092 297.228 108.08C298.218 111.352 299.628 114.467 301.473 117.382C300.783 117.11 300.068 116.904 299.342 116.812C297.194 116.541 292.674 118.21 295.078 121.071C297.382 123.813 300.969 120.871 303.584 120.465C306.121 124.005 308.917 127.398 311.848 130.677C311.668 130.733 311.511 130.851 311.42 131.033C310.245 130.437 309.02 129.583 307.931 129.352C306.361 129.019 303.141 128.817 301.954 130.223C300.495 131.951 302.059 133.355 303.784 133.686C306.285 134.167 309.558 132.945 311.964 132.12C312.24 132.168 312.54 132.088 312.72 131.868C312.773 131.85 312.826 131.833 312.878 131.817C315.846 135.08 318.927 138.235 321.99 141.322C321.957 141.32 321.925 141.318 321.891 141.316C321.092 140.792 320.235 140.362 319.306 140.137C317.157 139.613 314.629 139.611 312.885 141.166C311.148 142.714 310.533 145.421 312.33 147.16C315.927 150.64 321.226 142.705 323.041 142.374C326.153 145.478 329.444 148.378 332.787 151.219C332.408 151.103 332.018 151.018 331.616 150.98C328.338 150.666 320.644 154.685 324.667 158.639C328.172 162.084 332.23 155.453 335.055 153.133C338.205 155.781 341.372 158.411 344.451 161.144C342.772 160.698 341.149 160.632 339.349 161.176C337.487 161.74 334.482 163.146 335.659 165.66C336.857 168.217 340.465 167.054 342.345 166.242C343.37 165.799 345.425 164.305 347.23 163.675C352.142 168.313 356.397 173.421 359.618 179.438C361.629 183.195 363.155 187.209 364.229 191.335C364.914 193.968 366.265 198.39 365.995 201.818C367.284 194.957 364.953 186.718 362.442 180.586C360.134 174.948 356.679 169.998 352.632 165.542C353.647 162.488 362.195 158.082 357.085 155.245C354.372 153.744 351.592 156.234 350.999 158.871C350.592 160.683 351.212 162.96 351.871 164.718C350.598 163.36 349.275 162.046 347.911 160.775C346.026 159.018 344.096 157.313 342.148 155.629C345.359 152.613 348.397 143.99 344.092 142.58C337.736 140.504 340.797 152.265 341.24 154.469C341.366 154.477 341.464 154.439 341.536 154.357C341.5 154.559 341.459 154.775 341.409 154.992C337.68 151.786 333.896 148.643 330.236 145.36C330.566 145.116 331.09 144.185 331.502 143.689C332.432 142.572 333.321 141.405 333.971 140.098C334.998 138.032 335.988 134.738 333.266 133.523C330.306 132.199 328.899 135.925 328.879 138.148C328.864 139.686 329.283 141.146 329.501 142.653C329.569 143.123 329.307 145.242 329.947 144.33C329.917 144.666 329.913 144.91 329.928 145.082C329.271 144.49 328.619 143.891 327.971 143.288C328.001 143.212 328.023 143.129 328.028 143.032C328.063 142.37 327.396 142.114 326.928 142.309C326.073 141.496 325.227 140.674 324.396 139.835C322.634 138.058 320.846 136.23 319.071 134.363C319.456 134.032 319.303 133.574 319.663 133.222C320.023 132.872 320.731 132.678 321.154 132.352C322.217 131.533 323.099 130.34 323.737 129.165C324.79 127.224 326.151 123.152 323.075 122.227C319.904 121.272 318.295 125.192 318.091 127.642C318.051 128.117 318.406 132.394 318.679 133.948C315.394 130.478 312.163 126.878 309.236 123.216C310.124 123.208 312.64 121.389 313.148 120.893C314.389 119.683 316.362 117.009 314.187 115.594C312.252 114.339 309.867 116.157 309.04 117.923C308.904 118.214 308.424 120.922 308.387 122.137C307.175 120.584 306.02 119.022 304.945 117.454C304.228 116.412 303.558 115.343 302.931 114.251C303.082 114.165 303.224 114.016 303.358 113.83C306.584 113.283 310.698 108.248 306.908 106.497C305.104 105.664 303.147 107.383 302.263 108.791C302.082 109.079 301.788 110.526 301.55 111.668C299.746 108.05 298.368 104.219 297.319 100.292C297.6 100.222 297.838 100.007 297.869 99.6382C299.436 98.7451 300.673 98.0014 301.766 96.284C302.446 95.2173 303.669 92.7801 301.673 92.188C299.075 91.4176 297.443 95.3856 297.231 97.34C297.206 97.5669 297.207 98.2267 297.215 98.8313C297.125 98.819 297.034 98.8204 296.945 98.8362C296.348 96.4041 295.872 93.9408 295.493 91.4732C296.911 91.0169 297.156 83.5702 296.212 82.5099C294.102 80.1357 292.613 83.5653 292.726 85.3779C292.859 87.5152 293.827 89.4594 294.98 91.1848C295.104 91.3675 295.069 91.3587 295.101 91.1041C295.119 91.2299 295.161 91.3228 295.223 91.3901C295.164 92.5151 295.048 93.6669 295.103 94.6624C295.263 97.5133 295.595 100.381 296.077 103.195C296.195 103.879 296.329 104.558 296.479 105.231C295.34 104.26 293.803 103.398 293.202 103.128C291.641 102.428 289.236 101.673 287.686 102.858ZM366.178 201.827C366.105 202.821 365.926 203.732 365.591 204.482C365.842 203.628 366.035 202.739 366.178 201.827Z" fill="#F2F2F2"/>
<path opacity="0.2" fill-rule="evenodd" clip-rule="evenodd" d="M208.451 29.14C210.02 28.3617 212.113 29.2643 211.24 31.3219C210.305 33.5252 206.848 33.5525 204.896 33.5088C205.091 33.4986 205.72 31.4781 205.936 31.1727C206.571 30.2721 207.486 29.6193 208.451 29.14ZM190.378 69.2865C189.823 69.7605 190.333 69.3309 190.378 69.2865V69.2865ZM210.275 39.3698C211.214 40.0801 211.258 41.3351 210.49 42.185C209.577 43.1967 207.909 43.1608 206.664 43.0629C206.101 43.0185 203.094 42.7816 203.807 42.294C203.753 42.3145 203.638 42.3643 203.515 42.432C203.449 42.6707 203.38 42.9085 203.308 43.1452C203.325 43.1554 203.341 43.1664 203.359 43.1766C203.339 43.1677 203.325 43.1581 203.307 43.1491C202.582 45.5154 201.552 47.7686 200.203 49.8768C200.708 49.6799 201.23 49.5308 201.76 49.4643C203.328 49.267 206.627 50.4725 204.872 52.5418C203.188 54.5255 200.57 52.3995 198.661 52.1071C196.808 54.6679 194.765 57.1222 192.623 59.4945C192.755 59.5351 192.87 59.6198 192.935 59.7517C193.794 59.3199 194.689 58.7024 195.484 58.5349C196.63 58.2936 198.981 58.1465 199.847 59.1624C200.912 60.4115 199.769 61.4272 198.51 61.6675C196.684 62.016 194.294 61.1337 192.538 60.5377C192.337 60.573 192.118 60.5149 191.987 60.3558C191.948 60.3432 191.909 60.3308 191.871 60.3188C189.703 62.6796 187.452 64.9625 185.214 67.1954C185.238 67.1941 185.262 67.1927 185.287 67.1914C185.87 66.8122 186.496 66.501 187.175 66.3378C188.744 65.9583 190.59 65.9555 191.862 67.0791C193.13 68.1979 193.578 70.1555 192.266 71.4132C189.638 73.9308 185.771 68.1956 184.447 67.9568C182.173 70.2021 179.769 72.3001 177.327 74.3558C177.605 74.272 177.889 74.2105 178.183 74.1827C180.576 73.9546 186.192 76.8577 183.254 79.7182C180.693 82.2109 177.733 77.4171 175.671 75.7411C173.37 77.6571 171.056 79.56 168.808 81.5369C170.034 81.214 171.218 81.1659 172.532 81.5585C173.892 81.9653 176.085 82.981 175.225 84.7996C174.35 86.649 171.715 85.809 170.343 85.2226C169.595 84.9029 168.095 83.823 166.778 83.3686C163.189 86.7238 160.081 90.4189 157.727 94.7711C156.257 97.4885 155.141 100.391 154.356 103.375C153.854 105.279 152.866 108.478 153.062 110.956C152.124 105.996 153.829 100.037 155.664 95.6024C157.352 91.5244 159.876 87.9439 162.833 84.7206C162.092 82.5122 155.853 79.3298 159.585 77.2758C161.567 76.1898 163.595 77.9892 164.027 79.8957C164.324 81.2058 163.87 82.8523 163.388 84.1243C164.318 83.1417 165.285 82.1907 166.281 81.2712C167.658 80.0004 169.068 78.7665 170.491 77.548C168.148 75.3683 165.933 69.1346 169.076 68.1134C173.718 66.6096 171.479 75.1152 171.154 76.7093C171.062 76.7147 170.991 76.6872 170.938 76.6283C170.964 76.7742 170.994 76.9303 171.031 77.0877C173.755 74.7678 176.519 72.4935 179.192 70.1183C178.952 69.9422 178.569 69.2691 178.269 68.9108C177.59 68.1033 176.941 67.2596 176.467 66.3147C175.718 64.8216 174.996 62.4396 176.984 61.56C179.146 60.6018 180.172 63.2957 180.186 64.9031C180.196 66.0148 179.889 67.071 179.73 68.1608C179.68 68.5006 179.871 70.0324 179.403 69.3737C179.425 69.6166 179.429 69.7926 179.418 69.9174C179.897 69.4888 180.374 69.0556 180.847 68.6193C180.825 68.5642 180.809 68.5042 180.805 68.4345C180.78 67.9554 181.267 67.7705 181.608 67.9107C182.233 67.323 182.851 66.7279 183.458 66.121C184.746 64.8352 186.051 63.5128 187.348 62.1621C187.067 61.923 187.179 61.5917 186.916 61.3378C186.654 61.0845 186.137 60.9446 185.828 60.7094C185.052 60.1173 184.408 59.2546 183.943 58.4054C183.175 57.0023 182.183 54.0586 184.429 53.3885C186.745 52.6967 187.919 55.5303 188.067 57.3021C188.095 57.6454 187.834 60.7386 187.635 61.8618C190.035 59.3518 192.395 56.7476 194.533 54.0982C193.885 54.0926 192.049 52.7788 191.678 52.4202C190.772 51.5456 189.332 49.6127 190.922 48.5887C192.335 47.6804 194.075 48.994 194.679 50.2712C194.778 50.4816 195.127 52.4393 195.154 53.3177C196.039 52.1942 196.883 51.0642 197.669 49.9305C198.193 49.1768 198.682 48.4032 199.14 47.6131C199.03 47.5513 198.927 47.4435 198.829 47.3095C196.473 46.9147 193.471 43.2758 196.239 42.0078C197.557 41.4048 198.985 42.6473 199.63 43.6648C199.762 43.873 199.976 44.9198 200.15 45.7455C201.468 43.1284 202.476 40.3579 203.243 37.5174C203.038 37.4671 202.864 37.312 202.842 37.0451C201.698 36.3999 200.795 35.8626 199.997 34.6212C199.502 33.8501 198.609 32.0882 200.067 31.6594C201.964 31.1014 203.154 33.97 203.308 35.3831C203.326 35.5471 203.326 36.0242 203.319 36.4615C203.385 36.4525 203.452 36.4535 203.517 36.4649C203.953 34.7061 204.302 32.9246 204.579 31.1402C203.544 30.8107 203.368 25.4262 204.058 24.6591C205.599 22.9416 206.685 25.421 206.602 26.7317C206.504 28.2772 205.796 29.6834 204.954 30.9315C204.863 31.0637 204.889 31.0572 204.866 30.8732C204.853 30.9642 204.822 31.0313 204.776 31.08C204.82 31.8935 204.904 32.7263 204.863 33.4462C204.745 35.5077 204.502 37.5813 204.148 39.6164C204.063 40.1114 203.964 40.6023 203.854 41.089C204.687 40.3865 205.809 39.7621 206.248 39.5669C207.388 39.0605 209.144 38.5135 210.275 39.3698ZM152.876 110.76C152.931 111.423 153.094 112.027 153.416 112.522C153.18 111.956 153.003 111.367 152.876 110.76Z" fill="#C1DEE2"/>
<g opacity="0.7">
<path opacity="0.7" fill-rule="evenodd" clip-rule="evenodd" d="M386.048 337.58C392.151 337.263 399.699 340.826 400.35 347.46C400.823 352.28 400.676 357.086 401.408 361.899C401.994 365.746 403.231 369.438 404.92 372.942C406.543 376.311 409.911 379.179 410.787 382.779C411.345 385.072 411.032 388.299 410.263 390.542C409.326 393.27 409.824 393.054 411.689 395.343C415.345 399.828 418.637 404.427 420.964 409.784C424.317 417.5 426.516 426.519 425.271 434.965C425.113 436.037 424.925 439.886 423.448 440.155C421.799 440.456 422.57 438.255 422.658 437.544C423.219 433.007 423.718 429.041 423.041 424.433C420.429 406.654 407.675 394.941 399.37 379.852C398.913 379.073 397.95 377.221 397.279 375.998C396.222 374.068 395.158 370.396 393.726 368.965C391.028 366.269 393.508 371.689 394.034 372.723C394.698 374.032 395.429 375.423 396.11 376.57C399.226 381.886 402.704 387.689 405.922 393.168C392.004 396.34 382.203 379.608 378.468 368.608C375.391 359.545 371.709 338.355 386.048 337.58Z" fill="#69A1AC"/>
<path opacity="0.7" fill-rule="evenodd" clip-rule="evenodd" d="M467.848 320.75C457.646 321.559 451.096 328.291 448.047 337.708C446.404 342.782 446.215 347.995 445.302 353.21C443.928 361.055 440.973 367.001 435.196 372.591C433.407 374.322 432.089 376.099 431.151 378.001C429.291 379.899 427.671 382.048 426.481 384.675C424.961 388.029 424.531 392.054 426.286 395.398C426.758 396.298 427.935 398.102 429.155 398.922C424.588 408.65 422.076 419.303 422.359 429.943C422.531 436.366 422.844 442.792 423.21 449.206C423.308 450.929 423.869 453.773 424.712 450.885C425.483 448.242 424.516 444.094 424.426 441.334C423.991 427.887 423.619 415.66 429.154 403.097C429.735 401.78 430.35 400.474 430.991 399.178C431.029 399.157 431.064 399.13 431.099 399.105C431.124 399.123 431.146 399.144 431.17 399.162C431.211 399.089 431.267 399.002 431.333 398.905C431.516 398.715 431.677 398.476 431.83 398.208C432.321 397.528 432.876 396.728 432.879 396.291C432.879 396.287 432.877 396.282 432.877 396.279C436.304 390.685 440.229 385.399 444.238 380.217C444.208 380.255 448.587 374.293 447.91 377.59C447.583 379.179 444.363 382.205 443.062 383.888C440.184 387.632 436.805 392.376 433.997 396.963C433.619 397.18 433.086 398.247 432.7 399.041C432.486 399.443 432.288 399.849 432.092 400.202C442.041 403.489 449.781 396.868 455.059 389.166C455.065 389.157 455.071 389.148 455.077 389.139C456.683 387.01 458.328 384.897 460.383 383.215C463.812 380.408 467.484 379.913 471.527 378.531C482.553 374.764 487.24 360.475 488.729 349.873C490.409 337.912 482.193 319.57 467.848 320.75Z" fill="#89C5CC"/>
<path opacity="0.7" fill-rule="evenodd" clip-rule="evenodd" d="M447.694 287.254C437.223 298.152 432.164 313.268 428.158 327.478C423.684 343.349 420.729 359.466 420.616 375.968C420.542 386.809 420.247 397.718 420.879 408.547C421.104 412.393 421.487 416.246 422.097 420.051C422.147 420.363 423.511 428.858 424.816 426.879C425.558 425.753 423.418 418.066 423.256 416.786C422.347 409.575 422.135 402.311 422.18 395.048C422.252 383.09 421.9 371.193 423.112 359.279C423.293 357.5 423.436 355.631 423.858 353.891C424.307 352.041 423.735 352.849 425.197 352.116C426.617 351.404 428.371 351.506 429.845 350.613C435.688 347.069 438.678 337.967 441.004 331.995C443.666 325.165 445.283 317.882 446.575 310.695C447.523 305.414 448.202 300.166 448.585 294.817C448.706 293.132 448.713 291.369 449.045 289.711C449.134 289.264 449.582 288.473 449.565 288.077C449.531 287.239 449.025 286.746 448.984 286.042C448.546 286.437 448.115 286.841 447.694 287.254Z" fill="#89C5CC"/>
<path opacity="0.7" fill-rule="evenodd" clip-rule="evenodd" d="M390.598 432.453C390.598 450.476 405.209 465.086 423.231 465.086C441.254 465.086 455.865 450.476 455.865 432.453" fill="#89C5CC"/>
<path opacity="0.7" fill-rule="evenodd" clip-rule="evenodd" d="M425.849 432.557H424.125C424.245 430.394 424.403 428.234 424.764 426.095C426.148 417.913 430.473 405.896 439.959 404.568C440.309 404.518 441.596 404.51 443.156 404.601C443.895 404.188 444.723 403.939 445.595 403.881C453.671 403.286 462.691 409.802 466.587 416.582C469.727 422.049 469.198 429.228 467.258 435.036C465.959 438.924 463.124 444.469 458.396 444.523C452.481 444.59 452.196 437.279 452.082 433.006C451.93 427.324 451.212 422.374 446.735 418.501C445.691 417.599 444.551 416.805 443.497 415.915C441.846 414.523 440.022 413.097 439.81 410.793C439.516 407.614 441.31 407.042 444.05 407.633C444.517 407.733 449.221 409.844 448.524 408.176C448.312 407.666 447.535 407.262 446.555 406.96C444.018 406.684 440.993 406.364 440.123 406.555C430.737 408.614 427.083 421.615 426.113 429.875C426.008 430.767 425.923 431.661 425.849 432.557Z" fill="#69A1AC"/>
</g>
<g opacity="0.5">
<path opacity="0.5" fill-rule="evenodd" clip-rule="evenodd" d="M145.853 49.819C147.732 47.1404 151.218 40.3376 153.862 39.3805C155.565 38.764 155.069 45.1411 155.09 46.3571C155.172 51.0615 154.714 55.7361 154.148 60.4011C153.129 68.8143 149.797 76.3068 145.227 83.4673C142.876 87.1518 140.117 90.881 136.297 93.18C134.539 94.2387 132.423 94.416 130.686 95.3281C128.663 96.39 129.765 95.5316 128.853 97.6392C127.588 100.565 127.183 104.34 126.597 107.463C123.908 121.795 117.398 197.562 118.526 212.142C118.627 213.434 116.825 213.743 116.735 212.165C116.257 203.801 120.394 145.876 122.481 126.933C124.568 107.99 126.681 91.2542 128.798 84.7005C131.368 76.7494 136.008 67.1877 139.871 59.773C141.665 56.3282 143.621 53.0022 145.853 49.819Z" fill="#69A1AC"/>
<path opacity="0.5" fill-rule="evenodd" clip-rule="evenodd" d="M159.797 142.727C164.685 139.138 169.976 145.911 165.553 149.501C163.108 151.485 160.551 150.779 159.112 149.125C158.178 150.264 157.303 151.455 156.463 152.461C153.903 155.526 151.483 158.664 149.171 161.875C144.367 168.546 140.25 175.594 135.946 182.513C131.698 189.342 127.484 196.205 123.634 203.207C120.373 209.139 116.025 216.118 114.909 222.621C116.603 208.829 123.032 195.572 130.688 183.412C138.282 171.353 146.996 158.183 158.754 148.666C157.557 146.906 157.524 144.394 159.797 142.727Z" fill="#C1DEE2"/>
<path opacity="0.5" fill-rule="evenodd" clip-rule="evenodd" d="M67.0379 109.089C69.7734 109.624 74.2431 115.812 76.498 118.17C79.1777 120.972 81.6089 123.958 83.9006 127.087C88.8341 133.822 93.2463 140.983 96.9982 148.45C103.115 160.623 108.015 173.119 111.571 186.375C113.748 194.489 115.157 202.899 115.993 211.251C116.15 212.826 117.802 224.969 115.422 225.297C113.282 225.591 113.943 216.076 113.84 214.782C112.673 200.179 109.177 185.971 104.314 172.208C103.254 169.21 102.27 165.537 100.576 162.839C99.3564 160.896 100.568 161.573 98.4237 160.838C96.5829 160.206 94.4855 160.36 92.6004 159.587C88.5054 157.908 85.2264 154.647 82.3521 151.368C76.7664 144.995 72.34 138.1 70.0327 129.934C68.7528 125.406 67.5766 120.852 66.9239 116.184C66.7551 114.978 65.276 108.745 67.0379 109.089Z" fill="#69A1AC"/>
<path opacity="0.5" fill-rule="evenodd" clip-rule="evenodd" d="M77.8327 6.13148C88.1367 24.0012 96.6042 43.6307 102.072 63.5124C105.384 75.5584 107.701 87.9195 110.003 100.191C113.566 119.193 116.937 138.192 117.896 157.531C118.861 176.982 120.769 199.416 114.4 218.151C117.581 199.13 114.552 178.885 114.016 159.746C113.759 150.61 113.017 141.563 112.043 132.48C111.097 123.669 109.553 114.9 108.114 106.158C107.414 101.901 106.678 97.6496 105.929 93.4009C105.705 92.1333 105.611 88.3719 104.807 87.506C103.997 86.6344 99.8682 86.279 98.5718 85.6395C95.9614 84.3513 93.506 82.5216 91.3328 80.5882C87.1669 76.882 83.5428 72.0394 80.6823 67.2657C74.064 56.2202 71.4179 42.7406 71.5517 29.9484C71.5774 27.4647 75.5717 0.719697 73.9675 0.351395C74.0641 0.23828 74.1554 0.121485 74.2416 0C75.4561 2.03344 76.6479 4.08067 77.8327 6.13148Z" fill="#89C5CC"/>
<path opacity="0.5" fill-rule="evenodd" clip-rule="evenodd" d="M189.047 70.5803C189.206 70.3509 190.241 68.7561 189.72 68.858C190.781 68.6505 188.261 70.617 190.904 69.4104C189.649 70.5957 190.373 72.1356 190.39 73.731C190.417 76.3212 189.984 78.8902 189.496 81.4248C188.725 85.4313 187.577 89.3268 185.91 93.0533C182.277 101.174 176.108 108.992 168.784 114.069C165.169 116.576 161.625 117.43 157.502 118.584C154.897 119.313 154.691 120.66 153.308 123.187C150.43 128.452 147.603 133.697 145.064 139.139C142.033 145.637 139.091 152.142 136.315 158.754C126.965 181.028 119.355 204.104 115.358 227.985C115.26 213.912 118.516 199.418 122.622 186.004C125.614 176.231 129.508 166.81 133.662 157.484C134.668 155.225 136.194 152.318 136.621 149.824C136.92 148.077 136.005 146.396 135.586 144.555C133.953 137.386 134.07 129.354 135.504 122.146C137.086 114.198 141.659 110.51 149.395 109.384C152.224 108.972 155.821 109.123 158.415 107.917C161.241 106.603 162.407 102.285 164.015 99.5131C168.332 92.0673 173.461 84.9263 179.351 78.6525C180.981 76.9153 182.735 75.3125 184.596 73.827C185.769 72.8896 188.248 71.7349 189.047 70.5803Z" fill="#89C5CC"/>
<path opacity="0.5" fill-rule="evenodd" clip-rule="evenodd" d="M102.299 212.786H129.754C130.989 212.786 131.989 213.787 131.989 215.022C131.989 215.131 131.981 215.24 131.965 215.348L129.843 229.737C129.197 234.123 125.432 237.373 120.998 237.373H111.055C106.621 237.373 102.857 234.123 102.21 229.737L100.088 215.348C99.9076 214.126 100.752 212.99 101.973 212.81C102.081 212.794 102.19 212.786 102.299 212.786Z" fill="#C1DEE2"/>
</g>
<path fill-rule="evenodd" clip-rule="evenodd" d="M125.84 266.965C125.84 276.481 126.591 284.195 136.671 284.195C146.751 284.195 147.501 276.481 147.501 266.965" fill="#F2F2F2"/>
<path fill-rule="evenodd" clip-rule="evenodd" d="M139.67 261.027C139.3 261.666 138.971 262.318 138.68 262.979C138.669 261.617 138.745 260.245 138.95 258.854C139.302 256.472 139.839 254.101 140.344 251.735C140.706 250.035 140.683 246.98 142.059 245.625C142.437 245.332 142.528 245.907 142.528 246.156C142.532 246.209 142.527 245.139 142.16 245.325C139.983 246.45 139.278 249.985 138.58 251.756C137.563 254.34 136.698 256.981 136.342 259.67C136.252 260.349 136.203 261.028 136.191 261.706C136.117 261.524 136.048 261.342 135.971 261.161C134.714 258.214 133.018 255.338 130.903 252.686C130.383 252.033 123.836 245.594 123.324 246.579C123.374 246.722 123.48 246.841 123.642 246.935C123.651 246.946 123.651 246.94 123.646 246.924C124.03 247.545 125.123 248.505 125.464 249.049C126.321 250.418 126.987 251.872 127.664 253.297C129.094 256.31 130.42 259.353 131.706 262.402C132.005 263.112 132.317 263.819 132.636 264.523C129.354 259.789 124.975 255.491 118.948 253.031C121.007 254.078 122.356 256.049 123.747 257.557C125.423 259.377 127.189 261.148 128.869 262.965C130.851 265.11 133.182 267.368 135.088 269.74C136.934 273.616 138.728 277.496 139.835 281.57C139.381 280.162 139.799 278.217 139.722 276.74C139.66 275.564 139.523 274.398 139.334 273.234C139.567 273.759 139.768 274.284 139.859 274.773C139.776 273.953 139.68 273.139 139.577 272.329C139.841 271.57 140.1 270.862 140.275 270.279C141.171 267.288 142.238 264.348 143.691 261.482C145.036 258.832 146.578 256.215 148.259 253.678C149.043 252.495 149.838 251.317 150.627 250.137C151.144 249.364 151.636 248.126 152.356 247.386C147.704 251.639 142.621 255.924 139.67 261.027Z" fill="#F2F2F2"/>
<path fill-rule="evenodd" clip-rule="evenodd" d="M421.871 66.861C420.537 62.4125 417.406 58.9308 414.156 55.7406C407.828 49.5301 404.425 45.6902 402.169 36.6053C400.843 31.2623 399.493 25.6003 395.287 21.7239C392.224 18.901 386.952 16.5293 382.856 18.5507C376.554 22.312 374.862 30.0308 375.497 36.9426C376.285 45.5092 380.287 50.7914 387.974 53.9467C392.306 55.7237 395.185 58.0686 397.536 62.1544C399.417 65.4215 400.514 69.5127 402.877 72.4745C406.411 76.9019 410.833 78.8701 416.283 78.1347C411.178 68.7419 405.213 59.2609 398.019 51.3526C397.346 50.5576 393.374 47.5144 394.175 46.1594C395.057 44.6675 399.135 50.2719 399.106 50.238C401.197 52.6379 403.131 55.1881 405.031 57.7629C405.026 57.7654 405.021 57.7668 405.015 57.7694C406.971 60.4114 408.912 63.0923 410.815 65.8069C411.585 66.9551 412.334 68.1181 413.052 69.3101C414.104 71.0594 415.774 76.024 417.497 77.0996C417.865 77.3296 418.206 77.4581 418.525 77.5111C419.7 79.4353 420.843 81.3749 421.931 83.3374C424.771 88.4631 427.208 93.875 428.327 99.6619C428.654 101.351 428.423 107.669 429.576 108.888C431.684 111.119 431.066 106.824 430.94 105.527C429.893 94.7927 426.039 85.6472 420.444 76.6225C422.163 74.3775 422.411 68.6635 421.871 66.861Z" fill="#F2F2F2"/>
<path fill-rule="evenodd" clip-rule="evenodd" d="M349.674 72.0478C351.896 69.4294 357.238 68.9852 360.506 69.1604C364.549 69.3773 368.701 70.3614 372.547 71.5515C378.883 73.5115 385.04 77.0885 390.62 80.5507C391.293 80.9678 399.578 85.9502 398.844 86.8245C398.118 87.6908 389.985 81.7726 388.172 80.7525C384.304 78.5752 380.757 76.0003 376.493 74.5625C372.078 73.0735 367.41 72.4839 362.767 72.5245C362.172 72.5298 360.228 72.1144 360.186 72.9959C360.145 73.8579 363.361 73.4082 363.928 73.4133C366.27 73.4348 368.626 73.6553 370.935 74.0611C375.261 74.8215 379.328 76.3533 383.032 78.7028C381.999 81.1064 379.521 82.2146 376.921 81.6132C374.674 81.093 372.484 79.8107 370.284 79.4399C368.769 79.1846 367.251 79.3365 365.782 79.7634C361.906 80.8897 359.671 83.1972 355.41 81.5921C352.069 80.3339 346.483 75.8133 349.674 72.0478Z" fill="#F2F2F2"/>
<path fill-rule="evenodd" clip-rule="evenodd" d="M352.188 47.2691H353.239C353.166 45.9349 353.07 44.6029 352.844 43.2836C351.999 38.3385 349.357 31.0754 343.561 30.2728C343.347 30.2429 342.561 30.2378 341.608 30.2931C341.157 30.0435 340.651 29.8926 340.118 29.8579C335.184 29.498 329.673 33.4361 327.293 37.5343C325.374 40.8385 325.697 45.1773 326.883 48.6877C327.676 51.0379 329.408 54.3887 332.297 54.4213C335.91 54.4622 336.085 50.0437 336.155 47.4606C336.248 44.0265 336.686 41.0349 339.422 38.6941C340.059 38.1488 340.756 37.669 341.4 37.1312C342.408 36.2895 343.522 35.4278 343.652 34.0353C343.832 32.1142 342.736 31.7685 341.062 32.1254C340.777 32.1861 337.903 33.4619 338.328 32.4535C338.458 32.1455 338.933 31.9014 339.531 31.7185C341.081 31.5518 342.929 31.3584 343.461 31.4739C349.195 32.7184 351.428 40.5761 352.02 45.5685C352.088 46.1338 352.141 46.701 352.188 47.2691H352.188Z" fill="#F2F2F2"/>
<path fill-rule="evenodd" clip-rule="evenodd" d="M205.943 267.16C208.222 264.071 209.653 260.382 209.092 256.399C207.477 244.924 191.601 248.583 188.885 254.622C186.17 260.661 187.573 275.399 191.682 276.157C193.32 276.459 196.678 275.203 200.02 272.856L198.914 288.505L211.846 287.6L205.943 267.16Z" fill="#915B3C"/>
<path fill-rule="evenodd" clip-rule="evenodd" d="M214.462 252.166C214.851 251.723 215.038 251.116 215.195 250.541C215.359 249.944 215.517 249.342 215.611 248.725C215.797 247.494 215.703 246.1 214.772 245.22C214.026 244.513 212.962 244.248 211.996 244.241C211.353 244.237 210.702 244.373 210.103 244.617C209.509 244.86 209.012 245.295 208.439 245.584C208.325 244.279 208.006 242.928 207.266 241.859C206.553 240.83 205.494 240.299 204.325 240.221C203.125 240.141 201.971 240.501 200.948 241.151C200.692 241.313 200.438 241.483 200.198 241.671C199.996 241.829 199.788 242.017 199.544 242.092C199.272 242.176 199.124 242.026 198.93 241.837C198.703 241.615 198.451 241.423 198.187 241.256C197.019 240.517 195.537 240.283 194.285 240.863C193.707 241.13 193.157 241.553 192.792 242.109C192.466 242.605 192.263 243.369 191.79 243.731C191.59 243.885 191.429 243.711 191.228 243.588C190.927 243.404 190.637 243.197 190.332 243.018C189.904 242.767 189.447 242.589 188.966 242.512C188.262 242.4 187.306 242.505 187.172 243.427C187.121 243.773 187.204 244.134 187.252 244.475C187.318 244.945 187.385 245.414 187.459 245.882C187.515 246.238 187.579 246.581 187.671 246.927C187.72 247.112 187.857 247.453 187.79 247.646C187.706 247.888 187.233 247.787 187.036 247.809C186.646 247.852 186.259 247.948 185.909 248.141C185.638 248.29 185.357 248.5 185.261 248.83C185.202 249.032 185.236 249.233 185.284 249.434C185.342 249.674 185.304 249.807 185.291 250.054C184.748 249.833 182.889 249.386 182.726 250.342C182.672 250.661 182.87 251.002 183.021 251.257C183.285 251.704 183.619 252.107 183.959 252.489C184.667 253.286 185.492 253.958 186.37 254.521C185.423 255.024 185.258 256.323 186.157 257.027C186.554 257.337 187.061 257.377 187.531 257.323C187.703 257.303 187.946 257.219 188.084 257.24C188.158 257.251 188.241 257.307 188.342 257.307C189.01 257.306 189.75 257.094 190.389 256.901C191.529 256.557 192.587 255.931 193.423 255.033C193.638 254.803 193.819 254.666 194.128 254.648C194.4 254.632 194.67 254.687 194.942 254.675C195.659 254.644 196.28 254.248 196.929 253.969C197.032 254.864 197.357 255.836 197.781 256.618C198.127 257.256 198.759 257.308 199.378 257.323C201.357 257.37 203.316 257.026 205.284 256.891C203.409 257.455 201.452 257.77 199.599 258.409C198.761 258.698 199.453 259.228 199.846 259.601C200.493 260.216 200.997 260.999 201.367 261.834C202.214 260.554 203.806 259.638 205.292 259.909C206.934 260.209 208.222 262.311 207.3 263.951C206.765 264.903 205.708 265.33 204.836 265.784C205.589 266.465 205.834 267.531 206.32 268.409C206.56 268.842 206.887 269.328 207.364 269.452C207.541 269.497 207.743 269.488 207.889 269.619C208.07 269.781 208.123 269.973 208.349 270.108C209.249 270.644 210.587 270.505 211.294 269.673C211.933 268.92 211.676 267.818 211.051 267.144C211.939 266.698 213.572 266.091 213.109 264.691C215.082 264.421 219.67 260.869 216.845 258.706C218.248 257.779 219.448 255.668 218.386 253.955C217.568 252.637 215.846 252.142 214.462 252.166Z" fill="#191847"/>
<path fill-rule="evenodd" clip-rule="evenodd" d="M225.04 330.998L192.135 401.932L168.137 461.5L161.691 462.177L198.891 333.747L225.04 330.998Z" fill="#784931"/>
<path fill-rule="evenodd" clip-rule="evenodd" d="M172.187 457.572C172.792 459.185 173.094 460.392 173.094 461.193C173.094 462.167 172.931 463.589 172.607 465.458C171.477 465.458 161.321 465.458 142.139 465.458C141.348 462.84 141.805 461.427 143.51 461.218C145.216 461.01 146.633 460.821 147.762 460.653L161.923 454.34C162.195 454.218 162.515 454.341 162.636 454.613C162.638 454.618 162.64 454.623 162.642 454.627L163.552 456.835C165.131 457.572 166.415 457.941 167.402 457.941C168.204 457.941 169.312 457.617 170.725 456.969L170.725 456.969C171.268 456.72 171.909 456.958 172.158 457.501C172.168 457.524 172.178 457.548 172.187 457.572Z" fill="#E4E4E4"/>
<path fill-rule="evenodd" clip-rule="evenodd" d="M176.421 452.764L163.516 450.759C166.661 433.784 170.801 415.009 175.935 394.432C181.069 373.856 186.882 353.878 193.372 334.5L228.333 329.587C221.507 353.905 213.783 376.215 205.161 396.517C196.539 416.818 186.959 435.568 176.421 452.764Z" fill="#5C63AB"/>
<path fill-rule="evenodd" clip-rule="evenodd" d="M225.099 334.669C228.888 358.25 236.195 388.378 236.884 389.308C237.344 389.928 253.894 395.474 286.533 405.945L285.133 411.661C246.21 406.045 225.701 401.688 223.606 398.59C220.463 393.942 204.771 357.229 198.693 334.669H225.099Z" fill="#915B3C"/>
<path fill-rule="evenodd" clip-rule="evenodd" d="M275.06 401.004L272.594 410.21C243.482 412.763 225.644 410.918 219.081 404.675C212.518 398.432 205.038 375.096 196.641 334.669H230.306C235.626 367.774 238.601 385.021 239.229 386.411C239.857 387.8 251.801 392.665 275.06 401.004Z" fill="#8991DC"/>
<path fill-rule="evenodd" clip-rule="evenodd" d="M284.935 403.564C286.629 403.249 287.87 403.161 288.659 403.3C289.618 403.469 290.99 403.876 292.774 404.52C292.578 405.633 290.814 415.634 287.483 434.525C284.768 434.85 283.456 434.154 283.546 432.438C283.637 430.722 283.697 429.294 283.728 428.154L279.97 413.111C279.897 412.822 280.073 412.529 280.363 412.456C280.368 412.455 280.373 412.454 280.378 412.453L282.71 411.94C283.71 410.513 284.296 409.313 284.467 408.341C284.606 407.551 284.48 406.403 284.087 404.899L284.087 404.899C283.936 404.322 284.282 403.731 284.86 403.581C284.885 403.574 284.91 403.569 284.935 403.564Z" fill="#E4E4E4"/>
<path fill-rule="evenodd" clip-rule="evenodd" d="M174.251 329.345L159.479 344.798C155.095 346.852 151.523 349.075 148.761 351.468C148.148 352.261 147.504 353.763 150.488 352.997C153.472 352.23 156.646 351.559 157.245 352.517C157.844 353.475 156.231 355.032 157.32 356.275C158.047 357.104 160.294 354.309 164.062 347.888L179.637 337.957L174.251 329.345ZM250.128 310.615L241.058 313.963C255.736 333.623 263.572 344.005 264.565 345.109C266.799 347.592 265.927 352.93 265.731 355.7C269.757 355.989 267.3 350.386 272.407 350.828C277.068 351.232 281.323 353.488 284.894 348.971C285.333 348.415 285.475 346.874 283.602 346.392C278.935 345.19 271.921 342.667 270.657 341.456C268.933 339.805 262.09 329.525 250.128 310.615Z" fill="#915B3C"/>
<path fill-rule="evenodd" clip-rule="evenodd" d="M170.537 331.397C168.326 331.625 166.015 332.406 163.62 333.713C162.442 334.356 162.008 335.832 162.651 337.011C163.024 337.695 163.679 338.129 164.393 338.246C163.969 338.687 163.539 339.127 163.106 339.566L168.928 347.551C185.358 335.392 201.096 325.635 206.197 309.446C207.909 304.012 204.051 287.261 203.214 281.068L197.113 279.738C192.073 297.53 184.113 315.151 170.537 331.397Z" fill="#69A1AC"/>
<path fill-rule="evenodd" clip-rule="evenodd" d="M233.282 334.722C216.881 339.508 203.717 341.829 193.789 341.686C192.559 341.668 191.707 336.529 192.012 335.031C196.758 311.702 199.595 294.736 196.923 279.585C198.645 280.13 201.426 279.767 205.266 278.496C218.613 292.242 226.642 309.299 233.282 334.722Z" fill="#191847"/>
<path fill-rule="evenodd" clip-rule="evenodd" d="M236.844 336.753C237.318 336.119 237.473 335.265 237.182 334.466L236.627 332.943C236.252 331.911 235.25 331.288 234.207 331.346C233.888 330.58 233.594 329.814 233.328 329.05C231.082 322.591 231.768 315.749 230.553 309.364C240.394 315.154 250.29 326.403 260.241 343.112L269.767 338.384C269.133 337.027 268.488 335.69 267.832 334.373C268.875 333.51 269.698 330.252 268.634 329.918C267.534 329.574 266.403 329.395 265.241 329.377C251.136 303.253 232.492 285.617 209.31 276.467L206.437 276.974L203.26 277.534C209.195 300.776 193.659 356.543 209.947 398.959C226.36 399.701 246.968 384.755 270.458 389.651C266.522 372.107 246.502 354.212 236.844 336.753L236.844 336.753Z" fill="#89C5CC"/>
<path fill-rule="evenodd" clip-rule="evenodd" d="M207.207 277.386L211.44 285.342L207.028 292.644L212.9 296.736L204.464 319.558L215.601 296.302L209.811 292.154L213.731 285.697L207.207 277.386Z" fill="black" fill-opacity="0.1"/>
<path fill-rule="evenodd" clip-rule="evenodd" d="M209.415 326.912C210.591 326.705 211.375 325.584 211.168 324.409C210.961 323.234 209.84 322.449 208.665 322.656C207.49 322.864 206.705 323.984 206.912 325.16C207.12 326.335 208.24 327.12 209.415 326.912ZM208.913 339.617C210.088 339.41 210.873 338.289 210.666 337.114C210.459 335.939 209.338 335.154 208.163 335.361C206.987 335.568 206.203 336.689 206.41 337.864C206.617 339.039 207.738 339.824 208.913 339.617ZM210.538 351.946C211.714 351.739 212.498 350.618 212.291 349.443C212.084 348.268 210.963 347.483 209.788 347.69C208.613 347.898 207.828 349.018 208.035 350.194C208.243 351.369 209.363 352.154 210.538 351.946Z" fill="black" fill-opacity="0.4"/>
</svg>
