<svg width="524" height="433" viewBox="0 0 524 433" fill="none" xmlns="http://www.w3.org/2000/svg">
<g opacity="0.5">
<path opacity="0.5" fill-rule="evenodd" clip-rule="evenodd" d="M72.145 76.6035C71.2012 77.5457 71.5678 80.8946 71.548 82.134C71.5177 84.0633 71.6377 85.9754 71.799 87.8978C71.9071 89.185 72.5164 101.468 74.2117 100.525C75.1675 99.9935 74.5683 96.4402 74.5666 95.3163C74.5627 92.8176 74.4588 90.325 74.2922 87.8319C74.1374 85.5174 74.0401 83.2298 74.1293 80.9108C74.151 80.3448 74.6806 74.0633 72.145 76.6035Z" fill="#006C78"/>
<path opacity="0.5" fill-rule="evenodd" clip-rule="evenodd" d="M113.247 75.0892C105.139 75.1538 97.0344 75.5537 88.9302 75.7987C85.0304 75.9166 81.1332 76.0666 77.2377 76.2827C75.9103 76.3564 73.0633 75.9314 71.9574 76.6387C69.5023 78.209 73.4617 78.5761 74.5172 78.5377C90.5554 77.9561 106.599 77.1902 122.651 77.154C130.525 77.1365 138.395 77.3607 146.27 77.3103C149.28 77.2911 152.614 75.9942 153.374 79.4981C154.232 83.4519 153.246 87.8541 152.978 91.8271C152.799 94.4793 152.863 97.0764 152.982 99.7264C153.059 101.424 152.859 103.337 153.159 105.003C153.448 106.607 154.601 107.569 155.659 105.772C156.29 104.698 155.976 102.047 156.018 100.803C156.075 99.1276 156.021 97.4527 156.021 95.777C156.021 91.6869 156.598 87.6129 156.522 83.5236C156.473 80.8867 156.333 76.1063 153.007 75.4728C149.345 74.7749 144.843 75.4767 141.095 75.4338C131.808 75.3279 122.537 75.0166 113.247 75.0892Z" fill="#006C78"/>
<path opacity="0.5" fill-rule="evenodd" clip-rule="evenodd" d="M90.9042 100.672C87.8469 100.672 84.7893 100.69 81.7322 100.741C79.1103 100.784 74.988 100.237 72.5477 101.176C70.8771 101.818 70.4334 103.683 72.5477 104.18C74.8538 104.722 78.3292 103.836 80.7419 103.793C92.8403 103.579 105.055 103.301 117.136 104.066C128.457 104.783 139.996 105.478 151.333 104.721C152.287 104.658 157.152 104.464 154.932 102.64C153.637 101.576 148.388 102.276 146.705 102.225C140.768 102.046 134.825 102.006 128.891 101.781C123.034 101.559 117.202 100.901 111.343 100.738C104.536 100.548 97.7136 100.672 90.9042 100.672Z" fill="#006C78"/>
<path opacity="0.5" fill-rule="evenodd" clip-rule="evenodd" d="M87.8449 83.2824C92.6102 83.4905 97.3247 90.4013 92.5032 93.7413C87.98 96.8753 79.5028 93.4407 82.018 87.3637C81.6565 88.2423 82.4752 86.4091 82.4855 86.3969C82.9638 85.8334 83.8226 85.2096 84.4121 84.7654C85.0868 84.257 85.7893 83.6974 86.6028 83.4426C87.1368 83.2755 87.0529 83.9046 87.8449 83.2824ZM85.5241 80.7899C83.2939 81.6607 82.276 82.643 80.7433 84.4205C79.6828 85.6507 78.3309 86.2979 78.3429 87.9602C78.3454 88.3282 78.8181 88.7326 78.8997 89.0869C79.0125 89.5767 78.8819 90.2041 78.9713 90.7245C79.8939 96.094 86.3005 97.9043 90.99 96.8906C95.075 96.0075 98.1301 92.0862 97.1838 87.8223C96.231 83.53 89.866 79.0917 85.5241 80.7899Z" fill="#006C78"/>
<path opacity="0.5" fill-rule="evenodd" clip-rule="evenodd" d="M83.5381 88.2856C83.5381 90.2172 86.5893 90.2172 86.5893 88.2856C86.5893 86.376 83.5381 86.294 83.5381 88.2856Z" fill="#006C78"/>
<path opacity="0.5" fill-rule="evenodd" clip-rule="evenodd" d="M87.355 87.8947C87.355 89.4297 89.7794 89.4297 89.7794 87.8947C89.7794 86.3772 87.355 86.3124 87.355 87.8947Z" fill="#006C78"/>
<path opacity="0.5" fill-rule="evenodd" clip-rule="evenodd" d="M88.1057 91.0601C87.3293 91.3586 86.3446 90.7397 85.7072 91.1475C84.5784 91.87 85.71 92.5239 86.3151 92.8143C89.0392 94.1215 89.5239 90.517 88.1057 91.0601Z" fill="#006C78"/>
<path opacity="0.5" fill-rule="evenodd" clip-rule="evenodd" d="M129.71 86.779C129.629 86.8135 129.339 86.9359 129.71 86.779V86.779ZM117.846 85.0452C115.808 85.5055 114.086 87.4095 111.871 87.1547C110.173 86.9595 109.024 85.3214 107.348 85.0833C105.204 84.7785 99.3694 89.669 102.437 90.5081C104.227 90.9979 105.22 87.7271 106.801 87.5533C108.052 87.4159 109.753 88.9498 111.049 89.1681C113.467 89.5755 115.127 88.2436 117.25 87.3848C119.557 86.4514 120.869 87.2919 122.875 88.3293C124.458 89.1481 125.95 89.6812 127.761 89.3433C129.462 89.0265 131.598 87.278 133.309 87.4573C134.986 87.6331 136.182 89.3825 137.907 89.5449C138.618 89.6117 139.676 89.8539 139.556 88.757C139.461 87.8787 138.481 88.0275 137.868 87.7082C136.291 86.8872 134.816 85.4329 132.913 85.5569C131.482 85.6504 130.179 86.6561 128.86 87.1372C124.54 88.7128 122.111 84.0887 117.846 85.0452Z" fill="#006C78"/>
<path opacity="0.5" fill-rule="evenodd" clip-rule="evenodd" d="M121.456 112.867C113.123 112.943 104.761 113.067 96.4515 113.735C94.4814 113.893 74.3652 115.792 74.4034 115.929C74.4739 116.182 77.0612 116.569 77.0451 116.629C76.8707 116.196 76.472 116.017 75.8494 116.092C94.928 116.092 113.946 114.384 133.05 114.691C137.85 114.768 142.668 114.736 147.465 114.887C148.662 114.925 151.629 115.783 152.57 115.243C155.038 113.823 150.554 113.66 149.811 113.6C140.41 112.848 130.883 112.773 121.456 112.867Z" fill="#69A1AC"/>
<path opacity="0.5" fill-rule="evenodd" clip-rule="evenodd" d="M71.9333 116.916C70.6875 118.165 71.8347 122.658 71.8837 124.347C71.9548 126.788 71.8963 129.247 72.1105 131.683C72.3551 134.464 72.7345 137.428 73.4644 140.127C73.8663 141.614 75.2773 143.977 75.8364 141.275C76.2356 139.345 75.6294 136.786 75.4185 134.82C75.1363 132.19 75.0681 129.595 75.0575 126.953C75.048 124.65 75.0037 122.338 74.8149 120.043C74.7168 118.851 74.1173 114.743 71.9333 116.916Z" fill="#69A1AC"/>
<path opacity="0.5" fill-rule="evenodd" clip-rule="evenodd" d="M103.276 139.799C97.363 139.901 91.4367 140.04 85.5332 140.409C83.1135 140.561 80.6958 140.786 78.285 141.042C77.7931 141.094 72.3481 141.315 74.7812 143.325C75.8793 144.232 80.3966 142.978 81.8886 142.847C84.398 142.627 86.9068 142.484 89.4234 142.378C95.2545 142.13 101.103 141.911 106.94 142.013C117.6 142.198 128.191 142.28 138.854 142.042C140.369 142.009 152.238 142.326 152.641 140.75C152.966 139.479 148.721 140.062 147.947 140.085C145.108 140.17 142.269 140.15 139.429 140.136C127.399 140.074 115.298 139.596 103.276 139.799Z" fill="#69A1AC"/>
<path opacity="0.5" fill-rule="evenodd" clip-rule="evenodd" d="M150.631 114.808C150.819 120.073 151.716 125.332 152.002 130.613C152.133 133.028 152.288 135.439 152.406 137.854C152.444 138.633 152.13 140.511 153.051 140.959C154.315 141.573 154.485 140.335 154.722 139.497C155.405 137.077 154.943 133.934 154.881 131.449C154.821 129.042 154.817 126.631 154.639 124.229C154.457 121.774 153.963 119.366 153.734 116.92C153.637 115.886 153.976 114.165 152.878 113.523C151.929 112.968 150.59 113.667 150.631 114.808Z" fill="#69A1AC"/>
<path opacity="0.5" fill-rule="evenodd" clip-rule="evenodd" d="M92.5068 123.566C92.5294 123.584 92.5517 123.601 92.5739 123.619C92.5517 123.601 92.5291 123.584 92.5068 123.566ZM87.4814 122.006C89.3553 122.542 90.8944 122.342 92.6845 123.706C94.1685 124.837 95.6906 126.492 96.1828 128.321C97.32 132.547 93.4648 134.863 89.8506 134.908C86.1487 134.955 80.6692 134.096 80.8589 129.351C81.0043 125.705 83.6663 122.148 87.4814 122.006ZM87.6134 119.618C82.754 119.86 78.8342 125.318 78.8763 129.911C78.927 135.478 85.2353 136.913 89.7164 136.951C94.7738 136.995 99.8171 133.502 98.4618 127.815C97.376 123.258 92.2865 119.376 87.6134 119.618Z" fill="#69A1AC"/>
<path opacity="0.5" fill-rule="evenodd" clip-rule="evenodd" d="M82.7251 127.093C82.7251 128.646 85.1779 128.646 85.1779 127.093C85.1779 125.559 82.7251 125.493 82.7251 127.093Z" fill="#69A1AC"/>
<path opacity="0.5" fill-rule="evenodd" clip-rule="evenodd" d="M87.8701 126.412C87.8701 127.977 90.3424 127.977 90.3424 126.412C90.3424 124.865 87.8701 124.799 87.8701 126.412Z" fill="#69A1AC"/>
<path opacity="0.5" fill-rule="evenodd" clip-rule="evenodd" d="M85.034 129.953C83.4375 131.547 89.0459 134.342 90.3686 132.124C91.455 130.303 89.0897 130.907 88.2512 130.808C87.34 130.701 85.7777 129.212 85.034 129.953Z" fill="#69A1AC"/>
<path opacity="0.5" fill-rule="evenodd" clip-rule="evenodd" d="M129.874 126.444C129.721 126.509 129.721 126.509 129.874 126.444V126.444ZM108.813 123.849C107.197 124.153 101.891 125.942 101.82 127.86C101.689 131.346 106.885 127.776 108.013 127.317C111.078 126.072 112.688 128.612 115.767 128.746C118.441 128.863 120.899 126.575 123.418 126.845C126.057 127.129 127.327 129.936 130.374 128.446C131.985 127.657 131.945 126.441 130.135 126.327C129.042 126.257 128.291 126.709 127.15 126.239C125.367 125.503 124.649 124.306 122.515 124.496C120.905 124.64 119.45 125.547 117.878 125.898C114.279 126.702 112.283 123.2 108.813 123.849Z" fill="#69A1AC"/>
<path opacity="0.5" fill-rule="evenodd" clip-rule="evenodd" d="M142.29 127.958C142.179 128.004 142.179 128.004 142.29 127.958V127.958ZM142.698 126.506C142.716 126.514 142.838 126.683 142.698 126.506V126.506ZM140.845 125.398C140.776 125.452 140.776 125.452 140.845 125.398V125.398ZM140.886 125.385C141.245 125.6 144.134 127.575 142.036 128.04C140.97 128.276 140.089 126.133 140.886 125.385ZM139.929 123.196C135.301 125.306 140.281 132.857 143.913 129.789C145.441 128.498 145.643 125.889 144.156 124.544C143.265 123.738 141.138 122.644 139.929 123.196Z" fill="#69A1AC"/>
<path opacity="0.5" fill-rule="evenodd" clip-rule="evenodd" d="M96.486 152.953C90.7112 152.954 84.8857 152.833 79.1187 153.175C78.1481 153.233 74.4509 153.048 73.9509 154.063C73.0361 155.919 76.8403 154.997 77.3929 154.942C88.8757 153.792 100.87 154.454 112.391 154.781C121.813 155.049 131.185 155.215 140.596 155.701C143.07 155.829 145.541 155.97 148.013 156.119C148.819 156.167 150.846 156.701 151.016 155.415C151.173 154.224 148.644 154.493 148.012 154.459C142.987 154.195 137.966 153.918 132.942 153.635C120.851 152.953 108.597 152.95 96.486 152.953Z" fill="#006C78"/>
<path opacity="0.5" fill-rule="evenodd" clip-rule="evenodd" d="M73.7656 155.016C72.687 156.088 73.1926 160.183 73.1625 161.536C73.1098 163.903 72.9981 166.268 72.948 168.634C72.8959 171.107 72.9683 173.591 73.1146 176.061C73.1759 177.098 74.0269 182.109 75.3668 179.241C75.9655 177.96 75.3523 174.39 75.3615 172.938C75.378 170.295 75.5203 167.664 75.6518 165.025C75.7649 162.756 75.7691 160.485 75.8683 158.216C75.8997 157.492 75.9853 152.79 73.7656 155.016Z" fill="#006C78"/>
<path opacity="0.5" fill-rule="evenodd" clip-rule="evenodd" d="M151.988 176.157C146.368 176.733 140.658 176.461 135.016 176.886C130.155 177.253 125.297 177.403 120.423 177.506C109.385 177.739 98.3283 177.966 87.3225 178.886C84.8143 179.096 82.3091 179.318 79.7941 179.43C78.5364 179.487 73.2586 178.914 72.8655 180.24C72.1961 182.498 77.8402 181.605 79.0576 181.569C81.7347 181.492 84.3992 181.298 87.0687 181.095C98.2907 180.24 109.556 179.984 120.802 179.629C126.918 179.436 132.992 178.989 139.094 178.581C142.136 178.379 145.186 178.372 148.227 178.175C149.023 178.124 151.84 178.225 152.413 177.585C152.806 177.145 152.905 176.072 151.988 176.157Z" fill="#006C78"/>
<path opacity="0.5" fill-rule="evenodd" clip-rule="evenodd" d="M150.083 155.4C150.276 160.79 150.58 166.175 150.762 171.564C150.817 173.185 150.327 176.09 151.23 177.519C152.681 179.817 153.814 177.385 154.079 175.953C154.918 171.433 154.016 166.44 153.782 161.892C153.693 160.157 154.232 156.296 153.393 154.743C152.595 153.264 150.011 153.413 150.083 155.4Z" fill="#006C78"/>
<path opacity="0.5" fill-rule="evenodd" clip-rule="evenodd" d="M140.648 163.076C142.801 163.659 143.115 168.34 140.686 168.687C137.07 169.202 138.651 164.041 140.648 163.076ZM140.045 161.215C139.388 161.194 137.872 161.013 137.467 161.548C137.128 161.995 137.471 162.939 137.431 163.365C137.289 164.888 136.05 165.767 136.604 167.565C136.98 168.786 137.986 169.932 139.212 170.356C145.683 172.593 145.605 160.09 140.045 161.215Z" fill="#006C78"/>
<path opacity="0.5" fill-rule="evenodd" clip-rule="evenodd" d="M81.621 162.054C81.6048 162.075 81.5887 162.096 81.5728 162.116C81.5887 162.096 81.6048 162.075 81.621 162.054ZM86.7035 159.35C86.6782 159.134 86.6528 158.917 86.6275 158.701C90.1361 160.357 92.9279 163.438 91.7629 167.573C90.874 170.727 87.6624 171.846 84.6702 171.068C81.358 170.205 79.7752 167.475 80.6683 164.123C81.0803 162.576 82.3456 160.497 83.981 160C84.7424 159.769 86.4261 160.359 86.7035 159.35ZM84.6518 158.041C83.7643 158.1 82.9005 158.47 82.1762 158.976C82.8542 158.402 83.7579 158.061 84.6518 158.041ZM84.6772 156.003C82.4848 156.07 81.0482 157.397 79.7479 158.991C79.3398 159.492 77.96 160.818 78.1308 161.492C78.2659 162.025 78.6194 162.804 79.3637 162.21C75.4651 169.98 85.5366 176.607 91.6849 171.204C97.4229 166.162 91.7301 155.767 84.6772 156.003Z" fill="#006C78"/>
<path opacity="0.5" fill-rule="evenodd" clip-rule="evenodd" d="M82.6855 163.221C82.6855 164.255 84.2918 164.255 84.2918 163.221C84.2918 162.186 82.6855 162.186 82.6855 163.221Z" fill="#006C78"/>
<path opacity="0.5" fill-rule="evenodd" clip-rule="evenodd" d="M85.4263 163.397C85.4263 164.449 87.0584 164.449 87.0584 163.397C87.0584 162.346 85.4263 162.346 85.4263 163.397Z" fill="#006C78"/>
<path opacity="0.5" fill-rule="evenodd" clip-rule="evenodd" d="M86.6704 167.09C85.9068 167.152 83.1119 166.893 82.6214 167.562C81.8015 168.679 83.11 168.718 83.7526 168.839C84.3315 168.947 86.8478 168.886 87.2025 168.372C87.5159 167.918 87.4426 167.024 86.6704 167.09Z" fill="#006C78"/>
<path opacity="0.5" fill-rule="evenodd" clip-rule="evenodd" d="M120.345 164.192C120.213 164.246 120.213 164.246 120.345 164.192V164.192ZM109.784 163.42C108.063 163.546 106.606 164.536 104.961 164.931C103.205 165.352 102.446 164.577 100.849 164.069C99.1882 163.541 98.0068 163.75 96.6719 164.884C95.9156 165.527 94.2561 167.006 94.7288 168.148C95.8114 170.761 98.2617 166.51 99.4141 166.312C101.212 166.003 102.812 167.575 104.885 167.126C106.763 166.719 108.43 165.429 110.393 165.415C112.033 165.403 113.58 166.301 115.2 166.518C117.673 166.85 119.296 165.972 121.582 165.32C123.565 164.755 124.955 165.5 126.819 166.127C127.671 166.413 130.515 167.455 129.991 165.566C129.843 165.033 126.096 164.079 125.515 163.895C123.467 163.248 122.17 163.5 120.218 164.244C118.591 164.865 117.222 165.167 115.477 164.826C113.554 164.45 111.806 163.266 109.784 163.42Z" fill="#006C78"/>
</g>
<g opacity="0.5">
<path opacity="0.5" fill-rule="evenodd" clip-rule="evenodd" d="M188.945 76.8072C189.223 70.8334 189.604 64.8678 189.806 58.8903C189.905 55.9283 189.984 52.966 190.059 50.0034C190.076 49.3437 190.093 48.6843 190.108 48.0246C190.157 45.7835 189.891 45.6001 192.146 45.4012C202.208 44.5131 212.309 44.2187 222.383 43.4152C234.532 42.4461 246.744 41.777 258.928 41.477C264.342 41.3435 269.779 41.0669 275.194 41.2352C276.394 41.2725 278.749 40.9604 279.221 41.893C279.425 42.2959 278.997 43.6823 278.943 44.1472C278.773 45.5996 278.614 47.0569 278.517 48.5165C277.941 57.125 278.284 65.9504 279.951 74.4284C276.041 72.2234 271.1 70.3267 266.542 70.7032C261.896 71.0868 258.42 73.7715 254.701 76.2424C252.597 77.64 251.888 78.0075 249.79 76.6537C247.981 75.4868 246.27 74.1527 244.563 72.8433C241.93 70.8225 239.445 68.6315 236.891 66.513C232.196 62.6178 225.727 57.0735 219.242 58.7059C214.609 59.8722 210.331 62.4186 206.309 64.9107C200.335 68.6131 194.927 73.1471 188.945 76.8072ZM269.467 38.5823C246.383 38.5823 223.472 40.8201 200.454 42.0307C198.05 42.157 195.654 42.3432 193.258 42.5744C191.662 42.7285 187.757 42.0813 186.711 43.4455C186.013 44.3556 186.613 44.4922 186.711 45.3569C186.835 46.4468 186.762 47.738 186.73 48.8916C186.653 51.6711 186.572 54.4503 186.509 57.2301C186.271 67.7361 186.122 78.2401 186.547 88.7433C186.64 91.034 187.474 94.2055 187.018 96.4314C186.687 98.0429 185.582 99.0236 188.131 99.3213C190.639 99.6146 193.705 98.8689 196.216 98.6302C198.74 98.3898 201.265 98.1291 203.793 97.9207C214.783 97.0151 225.88 97.152 236.899 96.8509C248.018 96.5474 259.14 96.5279 270.262 96.5218C274.916 96.5193 280.234 96.7808 284.774 95.5001C286.372 95.0494 286.63 94.8274 286.237 93.2423C286.162 92.9415 285.679 92.8305 285.538 92.2869C285.345 91.547 285.444 90.6478 285.399 89.8777C285.252 87.3625 285.201 84.8428 285.082 82.3259C284.884 78.1208 284.16 74.0397 283.624 69.8768C283.005 65.0693 283.037 60.188 283.024 55.349C283.017 52.6649 283.086 49.9898 283.301 47.3132C283.44 45.5965 284.285 43.0334 283.856 41.4325C283.643 40.6354 283.293 40.0032 282.463 39.6602C281.938 39.4426 281.496 39.6129 280.976 39.5578C280.36 39.4924 279.975 39.4059 279.237 39.2387C276.074 38.5217 272.691 38.5823 269.467 38.5823Z" fill="#69A1AC"/>
<path opacity="0.5" fill-rule="evenodd" clip-rule="evenodd" d="M256.692 50.0117C256.691 51.6847 256.43 54.1534 257.201 55.7287C258.179 57.727 259.403 57.1024 259.727 55.2246C259.913 54.1487 259.908 50.9646 259.563 50.0117C259.074 48.6628 256.692 47.7441 256.692 50.0117Z" fill="#006C78"/>
<path opacity="0.5" fill-rule="evenodd" clip-rule="evenodd" d="M259.499 50.6575C257.929 50.7129 253.354 50.3359 252.292 51.5988C250.469 53.7648 253.642 54.1485 255.005 54.0272C256.581 53.8869 261.454 54.2292 262.51 52.9649C264.276 50.8498 260.734 50.6125 259.499 50.6575Z" fill="#006C78"/>
<path opacity="0.5" fill-rule="evenodd" clip-rule="evenodd" d="M198.55 106.548C205.455 107.747 203.306 118.275 196.773 115.836C194.496 114.987 191.142 112.532 192.4 109.639C193.34 107.478 196.404 106.342 198.55 106.548ZM195.691 103.274C191.2 104.03 188.13 108.89 189.67 113.129C191.155 117.218 196.789 120.213 200.944 118.743C204.91 117.34 206.889 112.063 205.552 108.202C204.154 104.169 199.603 102.616 195.691 103.274Z" fill="#006C78"/>
<path opacity="0.5" fill-rule="evenodd" clip-rule="evenodd" d="M237.69 107.779C235.971 107.922 234.485 109.125 232.755 109.338C231.138 109.538 229.797 108.984 228.283 108.542C226.452 108.007 224.773 107.772 222.903 108.247C221.473 108.61 220.063 109.583 218.578 109.7C215.656 109.931 212.26 106.597 209.979 110.368C208.886 112.176 210.474 113.34 212.109 112.497C213.815 111.618 212.977 111.304 215.093 111.823C216.858 112.255 218.284 112.491 220.052 111.884C221.654 111.335 223.059 110.33 224.8 110.217C226.504 110.106 227.987 110.882 229.616 111.217C231.619 111.629 233.392 111.318 235.29 110.69C237.096 110.092 237.816 109.766 239.638 110.298C240.792 110.636 243.312 111.708 244.435 110.844C246.377 109.35 243.777 109.132 242.754 108.92C241.106 108.578 239.4 107.639 237.69 107.779Z" fill="#006C78"/>
<path opacity="0.5" fill-rule="evenodd" clip-rule="evenodd" d="M277.03 106.776C277.044 106.786 277.058 106.797 277.071 106.807C277.058 106.797 277.044 106.786 277.03 106.776ZM275.343 106.423C277.853 106.584 280.567 111.156 277.241 111.318C274.9 111.433 272.282 107.429 275.343 106.423ZM274.991 102.682C267.055 104.898 270.682 116.086 278.337 114.794C281.814 114.207 282.993 110.178 281.843 107.197C281.35 105.916 280.387 104.836 279.237 104.099C278.388 103.555 275.96 102.411 274.991 102.682Z" fill="#006C78"/>
<path opacity="0.5" fill-rule="evenodd" clip-rule="evenodd" d="M189.653 174.19C189.419 173.149 189.546 171.557 189.533 171.189C189.472 169.465 189.45 167.739 189.384 166.015C189.226 161.906 189.121 157.773 188.804 153.674C188.501 149.755 187.737 145.955 187.715 142.007C187.7 139.337 186.958 132.571 189.297 130.757C193.316 128.412 191.726 136.686 191.66 138.118C191.462 142.43 191.731 146.551 192.165 150.835C192.562 154.762 192.105 158.671 191.953 162.598C191.872 164.682 191.828 166.764 191.671 168.845C191.622 169.494 191.697 172.419 191.357 173.976C192.233 173.939 193.066 173.978 193.531 173.964C196.787 173.866 200.043 173.779 203.298 173.657C215.82 173.186 228.35 173.399 240.869 172.804C252.711 172.242 264.596 172.122 276.447 171.977C277.483 172.067 277.947 173.155 277.282 173.992C276.631 174.81 273.612 174.63 272.672 174.706C269.334 174.975 266.003 175.095 262.655 175.127C255.605 175.194 248.581 175.497 241.543 175.898C229.037 176.611 216.513 176.552 204 177.061C200.963 177.184 197.926 177.277 194.887 177.356C193.285 177.398 189.088 178.363 188.295 176.449C187.734 175.096 188.513 174.473 189.653 174.19ZM258.924 125.495C262.712 125.46 266.48 125.526 270.263 125.743C271.941 125.839 273.618 125.932 275.297 126.003C276.267 126.044 278.483 125.726 279.333 126.176C282.673 127.943 275.869 128.137 275.042 128.123C271.571 128.064 268.107 127.794 264.636 127.709C251.872 127.396 239.011 128.172 226.258 128.695C220.123 128.947 213.991 128.983 207.858 129.328C204.506 129.516 201.156 129.731 197.804 129.908C196.258 129.989 194.712 130.068 193.164 130.107C192.211 130.132 190.269 130.526 189.388 130.166C188.638 129.859 188.031 129.43 188.444 128.521C188.888 127.542 190.821 127.959 191.639 127.943C194.594 127.886 197.541 127.72 200.49 127.539C207.186 127.13 213.868 126.65 220.577 126.536C233.363 126.318 246.132 125.613 258.924 125.495ZM276.511 129.852C276.514 128.099 278.616 127.747 279.548 128.939C280.44 130.079 279.866 133.532 279.888 134.897C279.96 139.393 280.385 143.863 280.789 148.339C281.189 152.778 281.473 157.218 281.782 161.664C281.926 163.719 283.505 171.92 281.209 173.117C278.28 174.645 278.833 166.872 278.751 165.455C278.488 160.893 278.157 156.326 277.744 151.776C277.077 144.42 276.506 137.238 276.511 129.852Z" fill="#69A1AC"/>
<path opacity="0.5" fill-rule="evenodd" clip-rule="evenodd" d="M237.826 150.966C241.842 152.394 245.836 153.885 249.812 155.421C251.939 156.243 254.056 157.091 256.178 157.925C257.242 158.342 261.663 159.39 261.917 160.452C262.276 161.951 257.563 160.11 256.813 159.87C254.695 159.193 252.603 158.435 250.512 157.681C245.832 155.995 241.171 154.256 236.473 152.621C236.033 152.468 235.594 152.316 235.154 152.164C230.167 154.404 225.189 156.666 220.228 158.963C217.568 160.195 214.922 161.456 212.284 162.733C210.327 163.681 206.787 166.383 204.632 166.336C203.817 166.318 203.268 166.144 203.182 165.155C203.074 163.892 205.11 163.372 205.932 162.961C208.752 161.551 211.59 160.176 214.435 158.819C220.087 156.123 225.792 153.535 231.517 150.998C231.55 150.984 231.583 150.969 231.616 150.954C228.441 149.88 225.257 148.831 222.066 147.804C220.242 147.217 207.456 144.062 207.922 142.368C208.446 140.469 219.77 144.946 221.512 145.501C225.8 146.868 230.077 148.273 234.331 149.742C244.539 145.156 254.856 140.269 265.504 136.932C266.175 136.722 266.598 137.414 266.446 137.994C266.242 138.77 263.854 139.399 263.191 139.695C260.569 140.866 257.933 142.008 255.311 143.18C249.598 145.733 243.874 148.261 238.161 150.816C238.049 150.866 237.938 150.916 237.826 150.966Z" fill="#006C78"/>
<path opacity="0.5" fill-rule="evenodd" clip-rule="evenodd" d="M200.065 183.08C202.676 183.538 204.517 186.042 204.231 188.666C203.844 192.21 200.311 193.834 197.048 193.372C193.346 192.847 192.567 189.717 194.361 186.706C194.758 186.039 195.215 185.241 195.937 184.89C196.433 184.649 197.065 184.862 197.465 184.668C198.866 183.986 198.024 182.899 200.065 183.08ZM198.876 180.765C195.69 181.172 189.803 184.859 190.101 188.548C190.359 188.975 190.748 189.15 191.267 189.073C191.142 189.872 191.183 190.662 191.389 191.444C191.692 192.46 192.296 193.292 193.105 193.953C194.771 195.314 197.049 195.649 199.123 195.41C202.997 194.964 206.051 192.317 206.268 188.288C206.481 184.354 203.047 180.238 198.876 180.765Z" fill="#006C78"/>
<path opacity="0.5" fill-rule="evenodd" clip-rule="evenodd" d="M214.308 185.565C212.878 186.322 210.617 187.486 209.778 188.925C208.893 190.445 209.81 192.108 211.676 191.389C213.157 190.818 214.099 189.005 215.679 188.423C217.074 187.911 217.636 188.172 219.109 188.683C220.628 189.209 221.955 189.717 223.597 189.588C225.66 189.426 227.447 188.23 229.467 187.958C231.167 187.728 232.569 188.39 234.198 188.653C236.087 188.958 237.322 188.243 239.09 187.871C240.292 187.618 242.412 188.648 243.289 188.263C245.261 187.396 243.175 186.336 242.083 185.986C240.244 185.396 239.112 185.916 237.363 186.405C235.464 186.937 234.644 186.537 232.829 186.05C229.156 185.063 226.319 187.449 222.838 187.015C219.615 186.613 217.686 183.776 214.308 185.565Z" fill="#006C78"/>
<path opacity="0.5" fill-rule="evenodd" clip-rule="evenodd" d="M274.361 183.802C277.896 187.116 273.925 191.832 270.027 189.183C268.655 188.25 268.633 186.753 269.701 185.413C270.677 184.188 272.823 183.71 274.361 183.802ZM273.051 181.124C269.748 181.766 266.633 183.282 266.334 187.093C266.042 190.812 269.857 192.54 273.061 192.296C280.256 191.748 279.736 179.831 273.051 181.124Z" fill="#006C78"/>
</g>
<path opacity="0.5" fill-rule="evenodd" clip-rule="evenodd" d="M351.283 57.6035C348.642 57.6546 342.118 58.6155 341.148 61.7406C340.412 64.1128 342.599 63.5919 343.771 62.7288C345.357 61.5615 346.747 60.8629 348.712 60.5078C356.196 59.1541 363.387 64.0085 370.799 64.6224C373.607 64.855 376.995 65.0065 379.676 64.0972C381.585 63.4497 381.834 62.0378 379.656 61.8227C377.804 61.6401 375.756 62.2158 373.858 62.1995C366.005 62.1323 359.024 57.4558 351.283 57.6035Z" fill="#C1DEE2"/>
<g opacity="0.5">
<path opacity="0.5" fill-rule="evenodd" clip-rule="evenodd" d="M73.7054 206.017C68.6509 206.074 63.5989 206.26 58.5543 206.58C53.7571 206.884 48.5521 206.653 43.833 207.583C42.493 207.847 40.6829 209.068 42.4647 210.411C43.717 211.356 48.2989 210.269 49.7944 210.177C55.3018 209.839 60.812 209.433 66.3273 209.239C71.5484 209.054 76.7693 208.989 81.993 208.937C82.7905 208.929 84.1144 208.673 84.9086 208.905C86.0497 209.238 85.779 209.328 85.8644 210.777C86.0194 213.401 85.9765 216.035 85.9245 218.662C85.8742 221.204 85.7801 223.746 85.7893 226.289C85.7957 228.103 85.2157 231.709 86.1262 233.285C87.4367 235.553 88.7962 233.089 88.8941 231.582C89.0816 228.699 88.9976 225.781 88.9984 222.895C88.999 220.186 89.0184 217.476 88.923 214.768C88.8538 212.812 89.1333 209.398 88.0796 207.619C87.0064 205.808 84.4223 206.199 82.5368 206.112C79.5956 205.977 76.6491 205.987 73.7054 206.017Z" fill="#006C78"/>
<path opacity="0.5" fill-rule="evenodd" clip-rule="evenodd" d="M41.5456 209.286C41.5512 214.377 40.9623 219.433 40.7973 224.518C40.7217 226.856 40.5681 229.423 41.1595 231.718C41.7565 234.035 43.6526 234.537 43.8709 231.95C44.3132 226.712 44.2048 221.28 44.5491 216C44.6707 214.136 45.4619 210.719 44.7233 208.973C44.0729 207.435 41.5428 207.141 41.5456 209.286Z" fill="#006C78"/>
<path opacity="0.5" fill-rule="evenodd" clip-rule="evenodd" d="M88.9436 231.725C80.1656 232.887 70.989 232.463 62.1484 232.646C57.907 232.733 53.6664 232.739 49.4244 232.783C47.9439 232.798 44.1843 232.235 42.9036 233.068C40.8648 234.392 43.0769 235.415 44.4266 235.444C52.7979 235.627 61.2624 235.242 69.632 234.968C73.3925 234.844 77.1651 234.784 80.9156 234.465C83.2245 234.268 85.7476 234.077 87.9897 233.457C88.4673 233.324 89.5075 233.352 89.6146 232.7C89.6805 232.297 89.5609 231.639 88.9436 231.725Z" fill="#006C78"/>
<path opacity="0.5" fill-rule="evenodd" clip-rule="evenodd" d="M52.442 239.124C50.0023 239.138 42.6506 238.005 41.6402 240.384C40.2933 243.557 45.5478 242.816 46.961 242.78C50.1706 242.698 53.378 242.689 56.5885 242.69C59.7386 242.692 62.8885 242.671 66.038 242.596C66.9505 242.574 69.0744 242.953 69.5993 241.854C69.9982 241.019 69.683 240.36 68.9472 239.918C67.1769 238.854 62.5777 239.471 60.505 239.376C57.8214 239.252 55.1289 239.124 52.442 239.124Z" fill="#006C78"/>
<path opacity="0.5" fill-rule="evenodd" clip-rule="evenodd" d="M82.1217 239.712C80.7275 239.795 77.9073 239.22 76.6582 239.858C75.2387 240.583 75.7389 241.719 76.9645 242.218C77.8132 242.563 81.295 242.382 82.1217 241.982C82.9835 241.564 83.958 239.599 82.1217 239.712Z" fill="#006C78"/>
<path opacity="0.5" fill-rule="evenodd" clip-rule="evenodd" d="M97.4076 209.786C95.9185 210.194 96.3703 218.648 96.3319 219.989C96.2267 223.66 95.8139 228.279 97.034 231.815C97.8121 234.069 99.3065 233.763 99.0519 231.39C98.8283 229.307 98.4447 227.248 98.2786 225.151C97.903 220.407 97.392 215.346 97.7467 210.598C97.8978 210.874 99.3104 213.433 99.6428 213.242C99.5424 213.302 98.0135 209.626 97.4076 209.786Z" fill="#006C78"/>
<path opacity="0.5" fill-rule="evenodd" clip-rule="evenodd" d="M114.158 206.672C111.144 206.717 108.131 206.77 105.118 206.854C102.723 206.92 98.9587 206.527 96.762 207.534C94.1462 208.734 95.3872 211.407 97.8441 211.464C100.018 211.514 102.335 211.024 104.528 210.949C110.452 210.746 116.387 210.703 122.313 210.652C127.673 210.606 133.261 211.177 138.574 210.372C139.362 217.37 137.231 224.397 137.956 231.475C138.068 232.574 138.018 234.126 139.417 234.376C141.182 234.692 141.255 232.944 141.322 231.691C141.513 228.116 141.41 224.538 141.671 220.957C141.914 217.639 142.392 214.249 141.988 210.925C141.492 206.836 139.532 207.164 136.068 206.994C128.752 206.635 121.482 206.565 114.158 206.672Z" fill="#006C78"/>
<path opacity="0.5" fill-rule="evenodd" clip-rule="evenodd" d="M104.058 231.52C102.523 231.559 99.9724 231.086 98.9885 232.558C97.9648 234.09 99.1793 235.426 100.668 235.741C102.43 236.113 104.727 235.603 106.556 235.597C108.461 235.592 110.366 235.613 112.27 235.62C120.435 235.652 128.635 235.776 136.794 235.438C137.933 235.391 141.167 235.773 141.956 234.68C142.656 233.711 142.166 232.841 141.244 232.348C139.732 231.537 136.626 231.845 134.944 231.781C132.867 231.702 130.788 231.676 128.709 231.644C120.506 231.517 112.26 231.317 104.058 231.52Z" fill="#006C78"/>
<path opacity="0.5" fill-rule="evenodd" clip-rule="evenodd" d="M110.965 238.602C107.91 238.654 104.65 238.52 101.625 238.984C98.9645 239.391 98.6371 241.962 101.5 242.263C104.132 242.54 107.322 242.023 109.966 241.853C110.905 241.793 111.997 241.879 112.447 240.84C112.917 239.756 112.019 238.716 110.965 238.602Z" fill="#006C78"/>
<path opacity="0.5" fill-rule="evenodd" clip-rule="evenodd" d="M134.065 238.872C132.434 238.913 127.67 238.212 126.863 240.074C125.518 243.175 131.967 241.997 133.204 241.952C134.763 241.894 140.84 242.805 140.841 240.323C140.843 237.888 135.558 238.835 134.065 238.872Z" fill="#006C78"/>
<path opacity="0.5" fill-rule="evenodd" clip-rule="evenodd" d="M41.2818 254.282C41.2857 259.924 40.9346 265.618 41.4492 271.246C41.662 273.573 41.6256 278.031 42.9737 280.005C43.9306 281.405 45.2578 281.307 45.7805 279.625C46.1299 278.501 45.571 276.253 45.5087 275.05C45.4486 273.896 45.3785 272.742 45.3251 271.587C45.188 268.613 45.1988 265.643 45.2397 262.667C45.2748 260.115 45.8893 256.737 45.3098 254.282C44.7696 251.994 41.2818 251.459 41.2818 254.282Z" fill="#69A1AC"/>
<path opacity="0.5" fill-rule="evenodd" clip-rule="evenodd" d="M97.9797 249.319C88.1919 249.565 78.3822 249.345 68.603 249.83C63.7802 250.069 58.9763 250.594 54.1777 251.117C51.8201 251.374 49.4639 251.639 47.1105 251.929C46.4003 252.016 40.499 252.245 42.7186 254.489C43.6878 255.469 46.772 254.445 47.9923 254.301C50.3552 254.022 52.7228 253.779 55.089 253.529C59.5916 253.052 64.0998 252.601 68.6217 252.351C79.2713 251.761 89.9648 251.938 100.625 251.545C103.509 251.438 106.384 251.362 109.268 251.476C110.026 251.505 115.592 251.788 113.175 249.732C112.033 248.76 107.724 249.262 106.296 249.232C103.524 249.175 100.75 249.25 97.9797 249.319Z" fill="#69A1AC"/>
<path opacity="0.5" fill-rule="evenodd" clip-rule="evenodd" d="M113.224 279.083C113.223 279.085 113.221 279.087 113.22 279.09C112.686 279.876 110.716 279.657 109.853 279.715C107.226 279.894 104.649 280.195 102.046 280.585C96.8594 281.363 91.7181 281.841 86.4755 281.97C76.1069 282.227 65.6954 281.987 55.3424 282.697C53.0493 282.855 50.7911 283.125 48.5356 283.557C46.9249 283.865 43.821 284.921 43.6326 282.26C43.4054 279.054 51.4504 279.059 53.7506 278.845C63.6274 277.927 73.6667 278.12 83.5738 278.258C88.3646 278.325 93.1466 278.471 97.9335 278.179C102.716 277.886 107.66 277.963 112.407 277.449C111.796 275.078 111.885 272.113 111.714 269.691C111.273 263.472 111.391 257.232 111.108 251.007C110.983 248.264 114.719 247.848 115.827 250.069C116.946 252.311 116.219 256.761 116.291 259.247C116.458 265.003 117.526 271.448 116.398 277.141C116.006 279.121 114.336 280.162 113.224 279.083Z" fill="#69A1AC"/>
<path opacity="0.5" fill-rule="evenodd" clip-rule="evenodd" d="M119.245 253.016C117.922 253.196 116.819 254.327 117.41 255.763C118.153 257.57 120.368 256.864 121.831 256.749C126.481 256.385 131.336 257.113 135.93 256.564C137.185 256.414 139.005 255.73 137.878 254.045C137.032 252.778 133.947 253 132.635 252.879C128.15 252.464 123.724 252.574 119.245 253.016Z" fill="#C1DEE2"/>
<path opacity="0.5" fill-rule="evenodd" clip-rule="evenodd" d="M127.093 260.901C125.289 261.022 121.091 260.926 120.331 262.978C118.968 266.659 124.308 265.362 125.933 265.153C127.822 264.91 132.274 265.561 133.279 263.73C135.078 260.455 128.674 260.791 127.093 260.901Z" fill="#C1DEE2"/>
<path opacity="0.5" fill-rule="evenodd" clip-rule="evenodd" d="M122.455 268.979C121.6 269.835 121.598 271.363 122.455 272.219C123.504 273.267 125.79 273.049 127.168 273.126C129.091 273.233 134.612 274.25 135.567 271.986C136.855 268.932 131.855 268.996 130.21 268.822C128.309 268.622 124.03 267.402 122.455 268.979Z" fill="#C1DEE2"/>
<path opacity="0.5" fill-rule="evenodd" clip-rule="evenodd" d="M55.062 216.695C55.062 219.979 60.1908 219.979 60.1908 216.695C60.1908 213.429 55.062 213.379 55.062 216.695Z" fill="#006C78"/>
<path opacity="0.5" fill-rule="evenodd" clip-rule="evenodd" d="M64.7905 216.733C64.7905 220.487 70.6323 220.479 70.6323 216.733C70.6323 212.991 64.7905 212.953 64.7905 216.733Z" fill="#006C78"/>
<path opacity="0.5" fill-rule="evenodd" clip-rule="evenodd" d="M58.9055 221.724C56.0659 222.508 58.6819 224.915 60.0004 225.464C62.096 226.338 64.956 226.982 67.052 225.672C67.886 225.151 68.5631 224.458 67.952 223.446C67.3007 222.369 66.4092 222.848 65.4177 222.948C64.1618 223.074 63.1467 223.055 61.9338 222.652C61.0286 222.351 59.8928 221.452 58.9055 221.724Z" fill="#006C78"/>
<path opacity="0.5" fill-rule="evenodd" clip-rule="evenodd" d="M110.414 216.903C110.414 219.124 113.862 219.124 113.862 216.903C113.862 214.682 110.414 214.682 110.414 216.903Z" fill="#006C78"/>
<path opacity="0.5" fill-rule="evenodd" clip-rule="evenodd" d="M118.041 217.238C118.041 219.705 121.872 219.706 121.872 217.238C121.872 214.77 118.041 214.77 118.041 217.238Z" fill="#006C78"/>
<path opacity="0.5" fill-rule="evenodd" clip-rule="evenodd" d="M117.757 222.593C115.745 222.853 109.924 223.443 109.598 225.924C109.096 229.751 115.474 226.653 116.929 226.353C118.783 225.97 120.439 226.07 122.29 226.144C123.306 226.185 124.658 226.35 124.552 224.802C124.377 222.259 119.516 222.368 117.757 222.593Z" fill="#006C78"/>
<path opacity="0.5" fill-rule="evenodd" clip-rule="evenodd" d="M67.155 257.889C65.6963 258.278 63.7879 260.8 64.7916 262.343C66.4373 264.875 67.1631 260.988 67.8519 260.614C69.1051 259.933 70.1224 262.421 71.4321 261.116C73.4987 259.057 68.4561 257.54 67.155 257.889Z" fill="#69A1AC"/>
<path opacity="0.5" fill-rule="evenodd" clip-rule="evenodd" d="M83.8702 256.018C82.1402 256.033 78.4879 258.483 78.2292 260.291C78.0757 261.366 78.7881 262.398 79.9464 262.413C81.5237 262.432 82.025 260.381 83.3922 259.952C84.8672 259.489 84.6482 260.555 85.922 261.107C86.8542 261.511 88.0201 261.342 88.3439 260.196C88.9547 258.034 85.6477 255.984 83.8702 256.018Z" fill="#69A1AC"/>
<path opacity="0.5" fill-rule="evenodd" clip-rule="evenodd" d="M70.6277 266.372C67.8606 267.994 72.4136 271.47 73.992 271.904C76.3749 272.56 81.1707 271.336 81.7354 268.425C81.9602 267.267 81.2356 266.217 79.957 266.425C78.9044 266.596 78.2293 267.916 77.2542 268.389C75.9382 269.027 74.7681 268.984 73.6499 268.023C72.7388 267.24 72.2509 265.426 70.6277 266.372Z" fill="#69A1AC"/>
<path opacity="0.5" fill-rule="evenodd" clip-rule="evenodd" d="M72.6329 290.331C70.1607 290.858 67.6476 290.505 65.1635 291C62.6304 291.506 61.1165 292.463 58.7631 291.499C58.6524 291.452 58.542 291.405 58.4315 291.359C56.61 290.574 54.7008 290.342 52.7942 291.592C51.6659 292.332 48.2406 294.892 48.6535 296.453C49.5481 299.839 53.4023 294.53 54.3851 294.013C56.2592 293.026 57.5441 294.286 59.4736 294.642C61.7847 295.068 63.6443 293.847 65.8214 293.361C68.3676 292.792 71.232 292.594 73.8224 292.289C74.8458 292.169 78.7223 292.978 79.0722 291.705C79.6734 289.517 73.6046 290.125 72.6329 290.331Z" fill="#C1DEE2"/>
<path opacity="0.5" fill-rule="evenodd" clip-rule="evenodd" d="M90.4694 297.15C90.631 297.273 90.5014 297.174 90.4694 297.15V297.15ZM97.3933 290.199C99.5097 289.984 106.281 288.472 107.671 290.659C108.577 292.084 107.14 297.341 105.769 298.021C104.673 298.564 102.121 297.964 100.919 297.921C98.6815 297.843 96.4397 297.808 94.2051 297.668C93.4556 297.621 91.0441 297.759 90.4566 297.096C89.7628 296.313 89.7937 292.137 89.6304 291.102C91.5762 291.732 95.3587 290.406 97.3933 290.199ZM101.913 288.055C99.202 288.172 96.492 288.376 93.8017 288.74C92.302 288.942 90.7826 289.481 89.3975 289.736C88.9511 289.819 88.2264 289.591 87.6789 289.855C86.0791 290.628 87.48 295.853 87.8659 297.25C88.4584 299.394 89.9497 299.741 92.0391 299.944C94.7915 300.21 97.6002 300.126 100.361 300.092C103.023 300.06 106.611 300.65 108.104 297.979C109.07 296.253 110.105 292.232 109.28 290.308C108.194 287.776 104.142 287.961 101.913 288.055Z" fill="#C1DEE2"/>
<path opacity="0.5" fill-rule="evenodd" clip-rule="evenodd" d="M132.266 298.586C132.121 298.773 132.121 298.773 132.266 298.586V298.586ZM132.86 297.87C132.815 297.938 132.607 298.158 132.86 297.87V297.87ZM126.396 297.674C127.591 297.449 128.786 297.226 129.982 297.008C128.85 298.594 127.657 297.938 125.722 297.8C125.947 297.758 126.171 297.716 126.396 297.674ZM120.696 297.113C120.999 297.011 121.301 296.91 121.604 296.809C121.595 297.039 121.645 297.255 121.753 297.456C121.234 297.4 120.716 297.34 120.199 297.276C120.364 297.222 120.53 297.167 120.696 297.113ZM118.054 295.162C118.037 294.746 118.663 295.031 119.021 295.004C118.33 295.612 118.008 295.665 118.054 295.162ZM127.501 290.443C127.592 290.327 127.713 290.333 127.863 290.461C127.699 290.516 127.069 290.783 127.501 290.443ZM133.628 289.723C133.644 289.723 133.984 290.182 133.628 289.723V289.723ZM133.456 289.572C133.545 289.64 133.545 289.64 133.456 289.572V289.572ZM132.691 289.483C133.944 289.694 133.849 291.164 132.691 289.483V289.483ZM117.974 289.383C117.72 289.594 117.807 289.389 117.974 289.383V289.383ZM122.765 286.253C120.638 286.377 116.734 286.252 114.958 287.385C112.64 288.864 113.86 293.956 114.068 296.188C114.374 299.487 115.926 300.426 119.033 300.772C122.741 301.186 126.551 301.263 130.278 301.165C133.634 301.077 135.546 299.922 136.161 296.388C136.349 295.307 136.827 293.634 136.812 292.598C136.802 291.88 136.444 291.552 136.308 290.941C135.537 287.463 134.248 287.051 130.683 286.899C128.06 286.787 125.339 286.118 122.765 286.253Z" fill="#006C78"/>
</g>
<g opacity="0.5">
<path opacity="0.5" fill-rule="evenodd" clip-rule="evenodd" d="M235.419 206.348C240.826 206.463 246.961 209.456 246.106 215.795C245.479 220.44 241.458 224.21 236.801 224.535C231.796 224.884 226.504 221.043 225.824 215.946C225.059 210.214 230.132 206.234 235.419 206.348ZM232.767 203.767C230.575 204.095 228.481 205.246 226.551 206.277C225.814 206.67 222.078 209.071 225.008 209.667C217.949 221.052 234.562 231.626 243.902 224.227C248.096 220.905 250.304 214.605 247.593 209.674C244.789 204.575 238.139 202.961 232.767 203.767Z" fill="#006C78"/>
<path opacity="0.5" fill-rule="evenodd" clip-rule="evenodd" d="M231.476 213.457C231.476 215.583 234.776 215.583 234.776 213.457C234.776 211.331 231.476 211.331 231.476 213.457Z" fill="#006C78"/>
<path opacity="0.5" fill-rule="evenodd" clip-rule="evenodd" d="M237.594 213.798C237.594 216.103 241.172 216.103 241.172 213.798C241.172 211.493 237.594 211.493 237.594 213.798Z" fill="#006C78"/>
<path opacity="0.5" fill-rule="evenodd" clip-rule="evenodd" d="M233.465 218.357C232.983 220.105 238.474 221.002 238.656 218.978C238.744 218.011 233.8 217.137 233.465 218.357Z" fill="#006C78"/>
<path opacity="0.5" fill-rule="evenodd" clip-rule="evenodd" d="M249.56 217.276C255.877 216.518 262.391 216.868 268.739 217.05C270.328 217.096 271.916 217.14 273.505 217.167C274.515 217.184 276.697 217.668 277.579 217.196C281.189 215.26 274.107 214.323 273.104 214.234C266.79 213.715 257.045 213.529 250.712 213.775C248.839 213.847 248.434 217.411 249.56 217.276Z" fill="#006C78"/>
<path opacity="0.5" fill-rule="evenodd" clip-rule="evenodd" d="M277.988 248.681C278.042 242.062 278.279 235.398 278.788 228.798C278.995 226.108 279.244 223.422 279.45 220.732C279.547 219.465 279.997 217.69 279.253 216.578C278.485 215.433 276.802 215.195 275.787 216.21C274.573 217.782 274.926 220.421 274.775 222.322C274.542 225.246 274.262 228.168 274.122 231.098C273.853 236.77 273.79 242.54 274.246 248.204C274.461 250.876 274.927 253.484 275.548 256.091C275.831 257.277 278.079 262.562 277.607 263.291C276.874 264.421 271.459 263.994 270.285 264.025C267.27 264.106 264.255 264.159 261.24 264.217C258.659 264.266 256.078 264.301 253.496 264.324C252.471 264.333 246.448 264.151 247.784 265.67C232.845 266.712 217.62 264.974 202.771 264.377C202.021 264.347 200.794 264.134 199.661 264.073C199.525 263.526 199.414 263.037 199.386 262.697C199.191 260.311 199.14 257.916 198.929 255.53C198.541 251.165 197.791 246.844 197.344 242.487C196.899 238.133 196.943 233.767 196.684 229.403C196.64 228.656 196.534 222.531 194.989 221.043C195.722 221.321 196.903 221.357 197.584 221.302C203.092 220.858 208.56 219.9 214.021 219.079C215.583 218.844 219.129 219.01 220.424 218.23C221.546 217.553 221.99 215.183 220.039 215.375C214.593 215.958 209.177 216.863 203.775 217.755C202.33 217.993 200.889 218.248 199.447 218.508C198.485 218.682 195.945 218.669 195.198 219.249C194.292 219.954 194.195 220.433 194.503 220.751C194.075 220.634 193.564 220.819 192.949 221.434C191.786 222.947 192.879 226.673 193.018 228.448C193.184 230.576 193.266 232.707 193.363 234.839C193.55 238.965 193.982 243.034 194.646 247.11C195.39 251.676 196.022 256.261 196.768 260.826C196.962 262.015 197.215 263.174 197.539 264.322C195.529 265.35 196.895 266.984 198.489 267.274C198.5 267.276 198.512 267.278 198.524 267.28C199.02 268.491 199.715 269.613 200.258 267.99C200.299 267.866 200.318 267.712 200.323 267.54C204.439 268.006 208.963 267.716 213.015 267.882C221.791 268.241 230.622 268.779 239.408 268.506C242.886 268.398 246.375 268.089 249.824 267.625C251.844 267.353 253.873 267.029 255.861 266.578C256.003 266.546 256.22 266.512 256.47 266.471C256.511 266.47 256.552 266.469 256.591 266.468C259.636 266.422 262.678 266.341 265.72 266.214C268.273 266.108 270.838 266.054 273.384 265.813C274.964 265.663 278.306 265.691 279.276 264.101C280.159 262.655 278.683 258.931 278.474 257.308C278.105 254.448 277.964 251.562 277.988 248.681Z" fill="#C1DEE2"/>
<path opacity="0.5" fill-rule="evenodd" clip-rule="evenodd" d="M247.133 229.568C244.7 229.777 242.451 230.919 239.996 230.933C237.935 230.945 235.906 230.329 233.834 230.42C231.403 230.526 230.066 232.098 227.937 232.624C226.242 233.043 225.174 231.745 223.683 231.171C221.801 230.446 220.41 230.82 218.797 231.917C217.611 232.722 214.846 234.53 214.868 236.16C214.931 241.095 220.689 234.277 221.85 234.194C223.393 234.085 225.116 235.843 226.757 235.943C228.926 236.076 230.317 234.677 232.315 234.167C234.336 233.652 236.519 234.283 238.545 234.479C240.856 234.703 242.878 234.188 245.114 233.636C247.28 233.102 249.127 233.13 251.328 233.579C252.814 233.882 256.515 235.644 257.165 233.378C258.05 230.294 248.834 229.424 247.133 229.568Z" fill="#006C78"/>
<path opacity="0.5" fill-rule="evenodd" clip-rule="evenodd" d="M247.874 238.982C242.889 239.465 237.874 239.89 232.866 240.026C230.697 240.085 222.36 239.155 223.099 241.911C223.733 244.274 235.079 242.786 237.39 242.606C239.941 242.408 242.489 242.131 245.027 241.81C245.927 241.696 248.1 241.814 248.735 241.059C249.34 240.339 249.041 238.865 247.874 238.982Z" fill="#006C78"/>
<path opacity="0.5" fill-rule="evenodd" clip-rule="evenodd" d="M213.485 251.533C213.372 251.581 213.372 251.581 213.485 251.533V251.533ZM214.537 251.519C215.78 251.479 215.513 250.824 216.753 251.165C217.325 251.323 217.383 251.089 217.827 251.636C218.691 252.702 217.877 255.024 217.024 255.883C213.868 259.064 210.079 251.66 214.537 251.519ZM214.537 248.398C205.895 248.688 209.511 262.037 217.032 259.312C220.138 258.187 222.091 253.117 220.264 250.267C219.375 248.881 218.242 248.635 216.753 248.539C216.407 248.517 215.972 249.019 215.756 248.996C215.244 248.942 215.291 248.369 214.537 248.398Z" fill="#006C78"/>
<path opacity="0.5" fill-rule="evenodd" clip-rule="evenodd" d="M235.202 251.99C235.048 251.943 237.931 252.781 237.616 252.453C238.289 253.153 237.384 254.808 236.622 255.097C234.779 255.797 233.744 252.93 235.202 251.99ZM236.482 248.37C233.776 248.754 231.688 249.881 231.318 252.89C230.977 255.667 232.853 258.48 235.813 258.534C242.265 258.652 242.462 247.536 236.482 248.37Z" fill="#006C78"/>
<path opacity="0.5" fill-rule="evenodd" clip-rule="evenodd" d="M265.936 252.112C266.314 257.044 261.199 252.529 265.936 252.112V252.112ZM263.741 246.835C263.294 247.6 263.675 248.411 264.35 248.856C258.317 250.131 259.684 259.208 265.822 257.867C268.944 257.185 269.518 253.903 269.053 251.192C268.831 249.903 265.62 243.623 263.741 246.835Z" fill="#006C78"/>
</g>
<path opacity="0.5" fill-rule="evenodd" clip-rule="evenodd" d="M278.013 251.572C276.214 251.892 271.963 253.878 272 256.011C272.058 259.34 275.671 255.703 276.475 255.214C280.792 252.587 286.384 255.992 290.879 256.716C292.941 257.048 296.973 257.662 298.793 256.281C302.031 253.824 294.543 254.439 293.589 254.34C288.406 253.805 283.25 250.636 278.013 251.572Z" fill="#C1DEE2"/>
<g opacity="0.5">
<path opacity="0.5" fill-rule="evenodd" clip-rule="evenodd" d="M362.952 228.161C362.95 231.568 362.778 235.045 363.406 238.411C363.596 239.43 363.746 241.382 364.821 241.911C365.901 242.442 366.947 241.846 367.216 240.739C367.529 239.451 366.842 237.523 366.773 236.171C366.677 234.324 366.671 232.475 366.67 230.625C366.669 229.29 367.109 227.141 365.532 226.454C364.36 225.943 362.952 226.893 362.952 228.161Z" fill="#C1DEE2"/>
<path opacity="0.5" fill-rule="evenodd" clip-rule="evenodd" d="M416.812 222.772C405.524 223.905 394.074 224.141 382.746 224.732C377.509 225.005 371.18 224.656 366.247 226.683C365.331 227.06 362.05 229.155 364.714 230.008C365.544 230.274 366.387 229.38 367.069 229.08C368.205 228.581 369.519 228.427 370.73 228.232C381.024 226.579 391.791 226.867 402.19 226.095C404.855 225.897 407.521 225.693 410.18 225.431C412.08 225.244 416.073 223.875 417.826 224.575C420.822 225.772 420.752 233.548 420.811 236.222C420.842 237.605 419.5 242.57 422.168 242.067C424.304 241.664 423.531 236.506 423.364 235.095C422.928 231.397 422.182 222.228 416.812 222.772Z" fill="#C1DEE2"/>
<path opacity="0.5" fill-rule="evenodd" clip-rule="evenodd" d="M420.975 241.887C411.17 242.773 401.14 241.904 391.295 242.252C386.134 242.435 380.979 242.726 375.818 242.896C373.586 242.97 371.352 242.973 369.119 242.989C368.05 242.996 363.19 243.644 366.197 245.761C367.528 246.699 371.771 245.944 373.299 245.925C375.593 245.898 377.887 245.803 380.18 245.713C385.491 245.505 390.799 245.218 396.114 245.074C401.197 244.936 406.283 244.907 411.366 244.769C413.895 244.701 416.459 244.623 418.966 244.254C419.532 244.17 421.369 244.104 421.762 243.473C422.133 242.877 421.872 241.801 420.975 241.887Z" fill="#006C78"/>
<path opacity="0.5" fill-rule="evenodd" clip-rule="evenodd" d="M372.787 234.526C372.734 234.651 372.734 234.651 372.787 234.526V234.526ZM377.033 233.236C377.188 233.301 377.188 233.301 377.033 233.236V233.236ZM376.834 233.2C379.122 235.532 375.603 238.316 373.46 236.04C371.185 233.624 375.361 233.208 376.834 233.2ZM374.407 229.671C366.526 231.074 369.316 241.578 376.677 240.06C379.909 239.393 381.757 236.138 380.645 233.011C380.21 231.789 379.263 230.448 377.944 230.063C377.286 229.871 376.704 230.173 376.078 230.102C375.481 230.035 375.149 229.538 374.407 229.671Z" fill="#C1DEE2"/>
<path opacity="0.5" fill-rule="evenodd" clip-rule="evenodd" d="M404.57 232.628C399.817 232.643 395.064 232.845 390.312 232.935C388.854 232.962 385.108 232.31 385.103 234.608C385.096 237.063 389.269 236.156 390.658 236.123C395.371 236.01 400.097 235.804 404.791 235.355C405.977 235.242 410.083 235.437 410.078 233.825C410.074 232.116 405.528 232.628 404.57 232.628Z" fill="#C1DEE2"/>
<path opacity="0.5" fill-rule="evenodd" clip-rule="evenodd" d="M415.921 248.653C404.167 248.968 392.431 249.078 380.686 249.68C376.293 249.905 371.906 250.072 367.507 250.072C366.659 250.072 364.953 249.744 364.156 250.277C361.992 251.725 364.456 252.967 365.866 253.045C375.515 253.581 385.303 252.248 394.945 251.947C400.59 251.771 406.237 251.719 411.879 251.432C413.418 251.353 414.957 251.263 416.494 251.143C417.377 251.075 419.715 251.263 420.429 250.746C423.547 248.488 416.973 248.624 415.921 248.653Z" fill="#006C78"/>
<path opacity="0.5" fill-rule="evenodd" clip-rule="evenodd" d="M361.991 254.4C361.881 257.447 361.869 260.442 362.268 263.472C362.425 264.665 362.497 266.018 363.895 266.321C365.164 266.596 365.808 265.636 366.071 264.572C366.713 261.972 366.148 258.23 366.14 255.529C366.137 254.194 366.136 252.7 364.486 252.398C363.227 252.167 362.039 253.077 361.991 254.4Z" fill="#006C78"/>
<path opacity="0.5" fill-rule="evenodd" clip-rule="evenodd" d="M428.38 261.747C409.353 262.75 390.351 263.625 371.311 264.43C369.826 264.493 358.29 264.367 362.323 268.39C363.568 269.632 366.778 268.791 368.389 268.712C370.809 268.593 373.231 268.502 375.652 268.379C385.25 267.89 394.873 267.758 404.464 267.21C409.742 266.908 415.008 266.436 420.258 265.821C422.755 265.529 425.855 265.559 428.194 264.581C429.398 264.077 430.696 261.624 428.38 261.747Z" fill="#006C78"/>
<path opacity="0.5" fill-rule="evenodd" clip-rule="evenodd" d="M417.44 246.288C415.993 247.729 416.737 250.572 416.846 252.353C416.996 254.804 417.178 257.257 417.484 259.695C417.683 261.278 417.578 263.743 418.423 265.111C419.412 266.712 421.59 266.535 422.485 264.988C423.276 263.619 422.876 260.739 422.855 259.223C422.827 257.125 422.696 255.025 422.572 252.932C422.467 251.182 422.864 248.378 421.902 246.881C420.924 245.36 418.796 244.939 417.44 246.288Z" fill="#006C78"/>
<path opacity="0.5" fill-rule="evenodd" clip-rule="evenodd" d="M373.95 257.471C373.78 257.602 373.78 257.602 373.95 257.471V257.471ZM377.329 257.048C380.483 257.682 375.384 261.364 373.772 258.837C373.521 258.442 373.39 257.957 373.794 257.614C374.163 257.3 374.394 257.855 374.743 257.706C375.343 257.449 376.689 257.024 377.329 257.048ZM376.894 254.025C374.742 254.196 371.782 254.329 370.716 256.487C369.284 259.385 371.733 262.224 374.565 262.665C377.291 263.09 381.36 261.58 381.578 258.401C381.754 255.838 379.316 253.829 376.894 254.025Z" fill="#006C78"/>
<path opacity="0.5" fill-rule="evenodd" clip-rule="evenodd" d="M394.868 255.558C392.64 255.594 388.259 254.935 386.317 256.021C384.396 257.096 385.253 259.01 387.005 259.468C388.164 259.771 390.057 259.283 391.264 259.233C392.85 259.169 394.438 259.155 396.026 259.133C398.696 259.097 401.365 259.127 404.036 259.127C406.763 259.127 409.537 259.202 412.26 259.001C415.704 258.748 415.612 256.168 412.243 255.846C406.519 255.298 400.61 255.468 394.868 255.558Z" fill="#006C78"/>
<path opacity="0.5" fill-rule="evenodd" clip-rule="evenodd" d="M389.175 284.448C389.175 285.673 390.263 284.448 390.255 284.448C390.263 284.448 389.175 283.222 389.175 284.448Z" fill="#006C78"/>
<path opacity="0.5" fill-rule="evenodd" clip-rule="evenodd" d="M364.578 274.582C364.648 278.144 364.695 281.71 364.847 285.27C364.895 286.395 364.573 288.593 365.937 289.167C367.455 289.806 367.927 288.214 368.103 287.135C368.656 283.717 368.113 279.815 368.06 276.356C368.042 275.195 368.294 273.579 366.975 273C365.899 272.527 364.557 273.404 364.578 274.582Z" fill="#006C78"/>
<path opacity="0.5" fill-rule="evenodd" clip-rule="evenodd" d="M423.161 274.638C423.251 274.85 423.251 274.85 423.161 274.638V274.638ZM423.288 274.602C423.361 274.632 423.656 274.756 423.288 274.602V274.602ZM394.51 271.722C389.041 271.808 383.569 271.873 378.104 272.107C375.771 272.207 373.412 272.288 371.087 272.508C369.441 272.664 365.351 272.728 364.283 274.074C362.079 276.851 366.752 276.094 367.759 275.868C369.591 275.457 371.46 275.326 373.332 275.227C377.392 275.013 381.454 274.899 385.52 274.817C396.544 274.595 407.577 274.629 418.604 274.579C419.672 274.574 421.601 274.145 422.587 274.577C423.575 275.009 423.519 276.074 423.622 277.309C423.758 278.953 422.674 282.086 423.5 283.469C424.782 285.613 426.645 283.792 426.93 282.228C427.324 280.068 426.7 277.473 426.089 275.408C425.228 272.494 424.031 272.378 421.213 272.15C417.92 271.884 414.638 271.723 411.335 271.692C405.728 271.641 400.117 271.635 394.51 271.722Z" fill="#006C78"/>
<path opacity="0.5" fill-rule="evenodd" clip-rule="evenodd" d="M416.14 286.448C404.278 287.826 392.079 287.014 380.154 287.063C377.254 287.075 374.352 287.098 371.455 287.239C369.925 287.313 366.297 286.891 365.249 288.071C363.039 290.56 367.02 290.922 368.473 290.818C371.411 290.61 374.356 290.514 377.302 290.491C387.678 290.411 398.112 290.895 408.479 290.384C412.822 290.169 417.069 289.426 421.331 288.596C422.276 288.412 428.741 287.183 425.054 285.71C422.876 284.839 418.429 286.181 416.14 286.448Z" fill="#006C78"/>
<path opacity="0.5" fill-rule="evenodd" clip-rule="evenodd" d="M381.507 281.893C381.425 281.999 381.425 281.999 381.507 281.893V281.893ZM381.428 281.875C381.4 281.951 381.313 282.139 381.428 281.875V281.875ZM380.68 280.91C380.697 280.932 380.768 281.022 380.68 280.91V280.91ZM380.651 280.902C380.937 281.243 381.129 281.624 381.228 282.043C378.77 282.709 377.823 280.721 380.651 280.902ZM380.495 280.809C380.496 280.81 380.842 280.955 380.495 280.809V280.809ZM376.458 277.847C374.868 279.828 373.555 282.136 375.538 284.399C377.311 286.422 380.878 286.683 383.128 285.332C385.447 283.941 385.246 281.011 383.629 279.099C382.588 277.868 381.744 277.902 380.234 277.701C379.205 277.564 377.331 276.764 376.458 277.847Z" fill="#006C78"/>
<path opacity="0.5" fill-rule="evenodd" clip-rule="evenodd" d="M392.9 281.513C392.9 284.151 404.289 283.016 406.315 283.013C408.012 283.01 418.274 283.947 417.538 281.232C416.932 279.002 406.824 280.111 404.671 280.107C402.81 280.105 392.9 278.827 392.9 281.513Z" fill="#006C78"/>
</g>
<g opacity="0.5">
<path opacity="0.5" fill-rule="evenodd" clip-rule="evenodd" d="M244.22 306.225C249.923 307.054 255.856 309.736 255.806 316.375C255.765 321.957 251.083 327.898 245.071 327.564C239.661 327.264 234.567 321.348 233.89 316.278C233.539 313.651 234.195 310.823 235.741 308.662C237.765 305.831 240.978 305.836 244.22 306.225ZM241.526 302.617C237.4 302.639 234.382 304.132 231.829 307.282C230.913 308.411 229.849 309.627 229.152 310.906C228.5 312.101 228.615 315.14 230.849 313.716C230.299 319.599 233.737 325.309 238.68 328.324C244.053 331.601 250.126 330.962 254.598 326.369C258.691 322.164 260.132 315.062 257.137 309.862C254.144 304.664 247.21 302.561 241.526 302.617Z" fill="#006C78"/>
<path opacity="0.5" fill-rule="evenodd" clip-rule="evenodd" d="M253.896 301.04C251.255 302.976 248.843 305.525 246.84 308.11C244.882 310.637 243.588 313.792 241.236 315.996C240.049 314.702 238.657 311.208 236.288 312.595C234.322 313.745 235.588 315.723 236.545 317.021C239.018 320.375 241.764 321.725 244.935 318.411C247.815 315.402 249.45 311.388 252.143 308.206C253.324 306.81 255.149 305.424 256.089 303.882C256.942 302.485 255.888 299.576 253.896 301.04Z" fill="#006C78"/>
</g>
<g opacity="0.5">
<path opacity="0.5" fill-rule="evenodd" clip-rule="evenodd" d="M326.495 108.614C326.584 108.6 326.671 108.591 326.754 108.585C328.956 108.446 331.187 108.503 333.394 108.452C337.912 108.348 342.608 108.594 347.1 108.065C348.013 107.947 348.332 109.118 347.923 109.725C347.463 110.407 345.992 110.372 345.311 110.473C343.317 110.768 341.297 110.871 339.285 110.96C337.172 111.054 335.058 111.124 332.943 111.183C331.112 111.233 327.049 111.999 325.355 111.233C324.034 110.636 324.065 109.972 324.604 109.458C324.277 108.74 324.331 107.565 324.261 107C323.968 104.635 323.791 102.301 323.787 99.9158C323.779 95.244 323.788 90.3919 325.081 85.8697C324.563 85.6431 324.251 85.309 324.252 84.8274C324.259 81.9674 334.751 82.6503 336.878 82.5937C339.493 82.5254 342.109 82.5165 344.724 82.5306C346.452 82.5398 348.79 82.1668 350.511 82.5667C353.862 83.3446 353.65 89.0893 353.718 91.8671C353.842 96.8497 353.77 102.088 353.365 107.059C353.226 108.775 351.977 110.951 350.553 108.585C349.758 107.265 350.112 104.184 350.111 102.726C350.107 97.5449 350.919 92.2068 350.143 87.052C349.888 85.362 349.944 85.2479 348.225 85.2834C346.861 85.3118 345.498 85.357 344.134 85.3856C341.357 85.444 338.578 85.482 335.802 85.5836C334.748 85.6225 330.959 86.2843 328.005 86.2818C328.006 86.3054 328.009 86.3291 328.009 86.3532C328.05 88.3509 327.071 90.7754 326.937 92.8772C326.617 97.9323 326.999 103.106 326.526 108.135C326.512 108.288 326.504 108.45 326.495 108.614Z" fill="#006C78"/>
<path opacity="0.5" fill-rule="evenodd" clip-rule="evenodd" d="M366.272 110.075C365.928 109.725 365.619 109.21 365.42 108.567C364.708 106.261 364.64 103.772 364.588 101.381C364.475 96.2697 364.531 91.1495 364.5 86.0365C364.036 85.4138 364.312 84.7016 364.89 84.2047C366.453 82.8631 370.957 83.2035 372.941 83.0986C375.796 82.9475 378.653 82.9128 381.512 82.9022C384.54 82.8869 387.571 82.9414 390.597 83.0344C391.719 83.0688 399.525 83.2652 396.036 85.1576C395.836 85.2659 395.611 85.3565 395.366 85.4316C395.511 86.2915 395.529 87.1793 395.505 87.6069C395.357 90.3281 395.293 93.0542 395.172 95.7767C395.038 98.8156 394.909 101.854 394.805 104.894C394.749 106.502 395.299 110.239 394.027 111.399C393.17 112.181 392.584 112.024 392.19 111.493C389.146 112.377 382.122 111.807 380.843 111.808C378.55 111.809 366.101 113.282 366.081 110.63C366.079 110.425 366.146 110.24 366.272 110.075ZM368.294 109.137C371.767 108.396 378.242 108.891 379.605 108.886C382.142 108.876 384.681 108.911 387.216 109.013C388.007 109.044 389.94 108.892 391.466 109.061C391.453 108.923 391.443 108.797 391.438 108.688C391.299 105.951 391.45 103.186 391.539 100.449C391.627 97.6908 391.763 94.9347 391.87 92.1769C391.924 90.7584 391.566 87.7975 391.954 85.756C390.111 85.721 388.178 85.4982 386.935 85.4981C384.016 85.4978 381.1 85.4648 378.181 85.5225C375.03 85.585 371.844 85.622 368.714 86.0377C368.543 86.0605 368.337 86.1045 368.109 86.1579C368.585 88.1508 368.007 91.3557 368.005 93.202C367.999 98.3754 368.19 103.521 368.305 108.667C368.309 108.836 368.305 108.992 368.294 109.137Z" fill="#006C78"/>
<path opacity="0.5" fill-rule="evenodd" clip-rule="evenodd" d="M336.97 111.074C335.093 112.17 336.105 116.555 336.756 118.072C337.824 120.566 339.993 122.517 342.333 123.811C347.062 126.428 353.879 125.733 357.456 130.269C357.493 130.315 358.729 131.539 359.01 129.954C359.242 128.654 356.933 126.667 356.039 126.015C353.496 124.161 350.234 123.563 347.292 122.637C344.155 121.649 340.712 119.828 339.397 116.593C338.931 115.448 339.819 109.402 336.97 111.074Z" fill="#C1DEE2"/>
<path opacity="0.5" fill-rule="evenodd" clip-rule="evenodd" d="M379.867 113.182C378.148 113.656 379.285 116.023 379.282 117.207C379.279 118.685 378.806 120.232 377.895 121.412C375.585 124.403 371.062 124.851 367.671 125.709C365.208 126.332 359.317 127.668 359.086 130.999C358.829 134.718 364.03 130.192 364.47 130.006C369.331 128.223 375.62 127.879 379.373 123.953C380.921 122.333 381.837 120.17 381.982 117.938C382.064 116.682 382.078 112.578 379.867 113.182Z" fill="#C1DEE2"/>
<path opacity="0.5" fill-rule="evenodd" clip-rule="evenodd" d="M356.836 133.561C363.993 131.675 370.66 136.69 371.503 143.904C372.394 151.517 366.656 157.646 359.089 157.982C352.432 158.278 344.379 153.512 344.336 146.17C344.296 139.289 350.881 135.126 356.836 133.561ZM360.28 138.693C359.056 139.406 358.832 137.555 357.965 137.311C357.095 137.066 355.697 137.981 354.972 138.514C353.742 139.421 350.333 144.695 348.681 141.831C343.667 150.488 356.167 156.967 363.274 153.691C371.08 150.093 369.561 136.938 360.324 136.869C360.711 137.395 361.06 138.235 360.28 138.693Z" fill="#006C78"/>
<path opacity="0.5" fill-rule="evenodd" clip-rule="evenodd" d="M353.773 143.866C353.773 145.446 356.267 145.446 356.267 143.866C356.267 142.305 353.773 142.238 353.773 143.866Z" fill="#006C78"/>
<path opacity="0.5" fill-rule="evenodd" clip-rule="evenodd" d="M358.161 143.57C358.161 145.504 361.218 145.504 361.218 143.57C361.218 141.657 358.161 141.575 358.161 143.57Z" fill="#006C78"/>
<path opacity="0.5" fill-rule="evenodd" clip-rule="evenodd" d="M355.021 148.078C352.521 149.548 359.67 152.469 359.952 149.484C360.074 148.196 358.826 148.543 357.995 148.449C357.199 148.358 355.776 147.638 355.021 148.078Z" fill="#006C78"/>
<path opacity="0.5" fill-rule="evenodd" clip-rule="evenodd" d="M353.937 158.509C354.046 162.264 353.993 166.018 354.706 169.721C354.841 170.424 354.935 172.975 355.491 173.497C356.858 174.783 356.881 172.319 356.934 171.375C357.124 167.994 356.769 164.508 356.69 161.119C356.673 160.39 356.867 158.88 356.522 158.174C355.976 157.053 353.884 156.72 353.937 158.509Z" fill="#C1DEE2"/>
<path opacity="0.5" fill-rule="evenodd" clip-rule="evenodd" d="M351.263 155.464C345.783 161.614 338.237 161.161 330.635 161.7C326.618 161.985 322.557 162.569 319.325 165.167C317.822 166.376 316.525 167.889 315.654 169.615C315.274 170.369 313.468 174.721 316.18 173.688C317.142 173.322 318.089 170.444 318.711 169.593C319.896 167.972 321.412 166.633 323.231 165.763C326.739 164.085 330.928 164.114 334.732 163.901C338.708 163.678 342.976 163.47 346.631 161.741C348.351 160.928 349.964 159.913 351.347 158.606C351.842 158.138 352.902 157.345 352.981 156.63C353.072 155.813 352.286 154.318 351.263 155.464Z" fill="#C1DEE2"/>
<path opacity="0.5" fill-rule="evenodd" clip-rule="evenodd" d="M323.6 174.342C318.452 174.514 313.311 174.722 308.171 175.047C307.117 175.114 303.605 174.901 304.5 177.06C305.217 178.79 309.5 177.646 310.917 177.562C316.273 177.244 321.652 177.133 326.997 176.651C328.197 176.543 333.625 176.586 331.384 174.458C330.318 173.446 325.073 174.292 323.6 174.342Z" fill="#006C78"/>
<path opacity="0.5" fill-rule="evenodd" clip-rule="evenodd" d="M301.231 176.824C299.609 178.955 300.354 184.135 300.477 186.696C300.596 189.179 300.114 193.718 303.354 194.103C302.325 193.968 304.135 194.165 304.43 194.181C305.088 194.217 305.749 194.228 306.407 194.235C307.929 194.252 309.452 194.232 310.974 194.201C314.421 194.132 317.877 194.032 321.319 193.841C322.767 193.761 330.617 193.828 330.928 192.325C331.325 190.404 323.798 191.49 322.451 191.552C319.169 191.702 315.882 191.734 312.598 191.777C310.97 191.798 309.341 191.815 307.713 191.783C307.041 191.77 304.378 192.046 303.97 191.597C303.622 191.215 303.893 187.705 303.886 187.168C303.862 185.418 303.864 183.664 303.926 181.915C303.968 180.737 304.605 178.496 304.086 177.389C303.581 176.314 302.11 175.947 301.231 176.824Z" fill="#006C78"/>
<path opacity="0.5" fill-rule="evenodd" clip-rule="evenodd" d="M327.736 176.924C327.83 180.822 327.86 184.8 328.78 188.612C329.087 189.881 329.516 192.498 330.791 193.154C332.129 193.844 333.284 192.86 333.371 191.534C333.481 189.868 332.589 187.68 332.406 185.97C332.192 183.975 332.068 181.978 331.995 179.973C331.939 178.465 332.398 176.204 330.96 175.232C329.669 174.358 327.695 175.238 327.736 176.924Z" fill="#006C78"/>
<path opacity="0.5" fill-rule="evenodd" clip-rule="evenodd" d="M337.98 175.972C336.38 177.567 337.095 182.616 337.295 184.665C337.442 186.166 339.084 193.548 341.546 189.699C342.634 187.996 341.251 183.493 341.261 181.507C341.267 180.242 341.715 178.643 341.499 177.428C341.213 175.822 339.433 174.522 337.98 175.972Z" fill="#006C78"/>
<path opacity="0.5" fill-rule="evenodd" clip-rule="evenodd" d="M375.639 189.15C375.991 189.531 376.148 190.075 375.919 190.607C375.368 191.885 373.343 191.609 372.243 191.701C368.572 192.007 364.883 192.211 361.199 192.243C357.639 192.274 354.079 192.183 350.519 192.218C347.554 192.247 344.465 192.848 341.527 192.728C340.3 192.677 338.99 192.275 339.301 190.69C339.577 189.284 340.992 189.273 342.146 189.155C345.621 188.801 349.099 188.676 352.592 188.689C359.93 188.714 367.263 188.676 374.602 188.638C374.903 188.663 375.187 188.778 375.421 188.954C375.037 188.488 375.222 187.798 375.15 187.124C374.957 185.309 374.833 183.524 374.489 181.709C374.213 180.257 374.006 177.791 372.661 176.878C371.192 175.88 367.931 176.21 366.178 176.165C361.461 176.043 356.718 176.378 352.022 176.805C349.881 177 347.713 177.148 345.596 177.533C344.418 177.747 340.959 179.477 340.017 178.413C337.75 175.848 347.713 174.796 349.065 174.656C353.874 174.16 358.688 173.788 363.523 173.742C366.789 173.716 372.376 173.438 374.777 176.117C376.219 177.725 376.725 180.375 377.287 182.382C377.72 183.924 378.892 186.704 378.059 188.296C377.682 189.016 377.075 189.631 376.154 189.376C375.939 189.316 375.771 189.24 375.639 189.15Z" fill="#006C78"/>
<path opacity="0.5" fill-rule="evenodd" clip-rule="evenodd" d="M400.224 168.818C400.433 169.087 400.433 169.087 400.224 168.818V168.818ZM367.683 152.932C364.763 154.649 370.168 159.686 371.545 160.465C374.643 162.218 378.901 162.482 382.361 162.975C386.74 163.6 391.505 163.829 395.713 165.264C397.506 165.876 398.646 166.83 399.82 168.296C400.415 169.039 401.847 172.242 403.151 171.483C405.778 169.957 398.701 163.55 397.141 162.861C393.596 161.295 389.406 160.857 385.616 160.249C382.091 159.683 378.491 159.262 375.054 158.265C373.163 157.717 371.82 156.833 370.73 155.14C370.051 154.086 369.494 151.872 367.683 152.932Z" fill="#C1DEE2"/>
<path opacity="0.5" fill-rule="evenodd" clip-rule="evenodd" d="M383.351 190.018C382.478 188.343 382.076 185.126 381.998 184.491C381.662 181.754 381.637 179.049 381.683 176.295C381.71 174.783 383.441 174.062 384.562 174.91C386.062 174.282 388.599 174.187 389.963 174.05C392.204 173.823 394.464 173.739 396.711 173.605C401.957 173.291 407.198 172.726 412.454 172.609C414.027 172.576 416.133 172.434 417.391 173.595C418.823 174.917 419.109 178.196 419.538 179.963C420.004 181.882 420.56 183.834 420.755 185.803C420.801 186.264 420.924 187.056 420.869 187.769C421.524 187.858 421.915 188.493 421.849 189.186C421.726 190.473 419.943 190.649 418.899 190.852C415.43 191.53 411.721 191.376 408.203 191.475C400.844 191.682 392.975 192.871 385.643 192.164C384.388 192.042 383.04 191.599 383.351 190.018ZM386 188.503C386.292 188.501 386.58 188.506 386.848 188.501C390.549 188.437 394.248 188.325 397.947 188.182C401.719 188.038 405.491 187.876 409.266 187.833C412.267 187.799 415.357 188.058 418.379 187.941C417.729 186.24 417.828 183.562 417.481 181.801C417.137 180.052 417.007 177.978 416.303 176.336C415.512 174.488 414.824 174.915 412.763 175.055C410.643 175.199 408.527 175.401 406.41 175.576C401.756 175.958 397.099 176.2 392.442 176.525C390.026 176.693 387.715 177.383 385.352 177.653C385.317 178.496 385.198 179.347 385.211 179.962C385.251 181.777 385.43 183.579 385.587 185.387C385.651 186.122 385.955 187.391 386 188.503Z" fill="#006C78"/>
</g>
<path fill-rule="evenodd" clip-rule="evenodd" d="M468.722 214.108C470.565 210.233 471.348 205.878 469.883 201.627C465.662 189.378 449.019 196.78 447.327 203.987C445.635 211.194 450.319 227.069 454.99 227.024C456.852 227.007 460.269 224.912 463.437 221.623L465.561 239.033L479.562 235.281L468.722 214.108Z" fill="#D4A181"/>
<path fill-rule="evenodd" clip-rule="evenodd" d="M463.641 214.534C466.27 217.401 469.344 219.267 471.743 218.624C476.299 217.403 477.907 210.442 476.153 203.892C476.091 203.662 476.025 203.435 475.956 203.21C481.662 205.226 487.123 210.75 493.501 209.041C502.178 206.715 500.936 188.29 488.813 191.539C480.568 193.749 476.835 196.038 473.816 198.753C472.606 196.994 471.117 195.642 469.526 194.845C469.124 194.58 468.561 194.374 467.866 194.229C467.438 194.125 467.006 194.062 466.575 194.043C464.26 193.834 461.06 194.106 457.618 194.901C456.975 195.049 456.348 195.21 455.74 195.382C454.87 192.171 451.565 190.268 448.349 191.13C445.127 191.994 443.214 195.306 444.078 198.528C444.912 201.644 448.037 203.534 451.156 202.874C453.06 202.945 455.427 202.738 457.978 202.234C457.98 203.215 458.126 204.29 458.441 205.465C458.719 206.502 459.128 207.571 459.638 208.632C460.009 207.84 460.623 207.224 461.36 207.026C463.424 206.473 465.316 207.785 465.798 209.588C466.411 211.876 465.534 213.885 463.641 214.534Z" fill="#191847"/>
<path fill-rule="evenodd" clip-rule="evenodd" d="M497.424 288.666L475.299 364.895L464.893 422.13H454.448L464.874 288.666H497.424Z" fill="#BA8B72"/>
<path fill-rule="evenodd" clip-rule="evenodd" d="M507.367 288.666C505.824 328.267 506.432 349.866 506.778 353.464C507.123 357.062 509.085 381.158 522.452 423.337H511.588C493.886 382.874 487.706 358.777 485.676 353.464C483.646 348.151 477.65 326.551 468.895 288.666H507.367Z" fill="#D4A181"/>
<path fill-rule="evenodd" clip-rule="evenodd" d="M497.899 288.666C492.144 314.897 482.19 356.768 468.038 414.279H452.76C451.632 355.249 456.432 316.398 464.745 288.666H497.899Z" fill="#69A1AC"/>
<path fill-rule="evenodd" clip-rule="evenodd" d="M507.444 288.666C505.932 328.267 509.851 367.281 521.988 414.895H505.689C487.954 375.036 475.243 336.214 466.556 288.666H507.444Z" fill="#89C5CC"/>
<path fill-rule="evenodd" clip-rule="evenodd" d="M524 431.188L523.401 421.526C519.891 422.552 515.495 422.149 510.213 420.318C504.534 424.34 497.384 427.087 488.764 428.558L488.764 428.558C488.107 428.67 487.664 429.294 487.777 429.951C487.784 429.994 487.794 430.036 487.805 430.078L488.634 433H510.213H522.801L524 431.188Z" fill="#191847"/>
<path fill-rule="evenodd" clip-rule="evenodd" d="M467.224 431.188L466.624 421.526C463.115 422.552 458.719 422.149 453.437 420.318C447.757 424.34 440.608 427.087 431.988 428.558L431.988 428.558C431.33 428.67 430.888 429.294 431 429.951C431.008 429.994 431.017 430.036 431.029 430.078L431.858 433H453.437H466.025L467.224 431.188Z" fill="#191847"/>
<path fill-rule="evenodd" clip-rule="evenodd" d="M454.206 254.717L431.566 247.05C427.414 243.579 423.473 241.009 419.743 239.341C418.65 239.095 416.824 239.152 419.01 241.814C421.197 244.475 423.377 247.373 422.689 248.433C422.001 249.493 419.661 248.595 418.916 250.286C418.419 251.413 422.314 252.369 430.601 253.154L448.025 264.243L454.206 254.717ZM423.554 269.957L413.606 266.574C411.48 261.957 409.529 259.789 407.754 260.071C406.283 259.678 409.729 265.378 407.059 265.302C404.388 265.226 397.273 261.657 396.356 262.798C395.001 264.486 397.191 268.548 399.254 270.397C403.11 273.854 405.959 274.766 412.719 275.426C416.254 275.772 420.228 277.012 424.642 279.148L423.554 269.957Z" fill="#D4A181"/>
<path fill-rule="evenodd" clip-rule="evenodd" d="M463.817 250.425C456.572 251.624 446.659 251.797 435.218 247.08L432.766 256.803C441.106 262.594 452.106 266.622 460.789 264.838C467.631 263.433 469.679 254.497 463.817 250.425Z" fill="#2026A2"/>
<path fill-rule="evenodd" clip-rule="evenodd" d="M456.628 266.591C449.289 269.859 436.016 269.871 416.811 266.627C413.964 276.689 413.058 283.665 414.093 287.554C431.023 292.918 444.947 294.186 455.935 292.494C456.733 299.05 458.613 305.091 462.265 310.269C469.772 320.915 499.847 304.528 510.97 304.749C513.846 281.703 499.263 275.114 496.786 261.128C494.073 245.813 477.614 224.404 475.804 224.723L459.3 227.633C460.453 239.491 458.143 253.192 456.628 266.591Z" fill="#1F28CF"/>
</svg>
