<svg width="493" height="370" viewBox="0 0 493 370" fill="none" xmlns="http://www.w3.org/2000/svg">
<path d="M266.548 92.729C280.943 92.729 292.613 81.2088 292.613 66.9979C292.613 52.787 280.943 41.2668 266.548 41.2668C252.153 41.2668 240.483 52.787 240.483 66.9979C240.483 81.2088 252.153 92.729 266.548 92.729Z" fill="#F2F2F2"/>
<path d="M266.548 48.0637C267.363 48.0637 268.023 47.4116 268.023 46.6072C268.023 45.8028 267.363 45.1508 266.548 45.1508C265.733 45.1508 265.073 45.8028 265.073 46.6072C265.073 47.4116 265.733 48.0637 266.548 48.0637Z" fill="black" fill-opacity="0.1"/>
<path d="M245.893 68.4545C246.708 68.4545 247.368 67.8024 247.368 66.998C247.368 66.1936 246.708 65.5415 245.893 65.5415C245.078 65.5415 244.417 66.1936 244.417 66.998C244.417 67.8024 245.078 68.4545 245.893 68.4545Z" fill="black" fill-opacity="0.1"/>
<path d="M287.203 68.4545C288.018 68.4545 288.678 67.8024 288.678 66.998C288.678 66.1936 288.018 65.5415 287.203 65.5415C286.388 65.5415 285.728 66.1936 285.728 66.998C285.728 67.8024 286.388 68.4545 287.203 68.4545Z" fill="black" fill-opacity="0.1"/>
<path d="M266.548 88.8451C267.363 88.8451 268.023 88.193 268.023 87.3886C268.023 86.5842 267.363 85.9321 266.548 85.9321C265.733 85.9321 265.073 86.5842 265.073 87.3886C265.073 88.193 265.733 88.8451 266.548 88.8451Z" fill="black" fill-opacity="0.1"/>
<path fill-rule="evenodd" clip-rule="evenodd" d="M266.548 49.5201L267.532 66.5124H265.564L266.548 49.5201Z" fill="#AFB9C5"/>
<path fill-rule="evenodd" clip-rule="evenodd" d="M275.252 75.5904L266.21 68.0379L267.601 66.6647L275.252 75.5904Z" fill="#AFB9C5"/>
<path d="M266.548 68.9398C267.635 68.9398 268.515 68.0704 268.515 66.9979C268.515 65.9254 267.635 65.0559 266.548 65.0559C265.462 65.0559 264.581 65.9254 264.581 66.9979C264.581 68.0704 265.462 68.9398 266.548 68.9398Z" fill="#C5CFD6"/>
<g opacity="0.345889">
<path opacity="0.345889" fill-rule="evenodd" clip-rule="evenodd" d="M238.906 202.152C235.516 164.745 53.5871 92.5465 19.8127 127.977C-13.9617 163.408 18.5082 229.902 89.2868 246.93C160.065 263.957 242.297 239.558 238.906 202.152Z" fill="#F2F2F2"/>
<path opacity="0.345889" fill-rule="evenodd" clip-rule="evenodd" d="M126.46 226.457C129.497 194.678 292.461 133.343 322.715 163.443C352.968 193.543 345.31 256.854 281.91 271.319C218.509 285.785 123.422 258.235 126.46 226.457Z" fill="#DDE3E9"/>
</g>
<path d="M28.7695 101.795C40.3128 101.795 49.6704 96.9042 49.6704 90.8713C49.6704 84.8384 40.3128 79.9478 28.7695 79.9478C17.2263 79.9478 7.86865 84.8384 7.86865 90.8713C7.86865 96.9042 17.2263 101.795 28.7695 101.795Z" fill="#F2F2F2"/>
<path fill-rule="evenodd" clip-rule="evenodd" d="M53.1128 98.3963C53.1128 84.9898 42.2139 74.1217 28.7694 74.1217C15.3249 74.1217 4.42603 84.9898 4.42603 98.3963" fill="#DDE3E9"/>
<path d="M29.999 0H27.54V77.6787H29.999V0Z" fill="#DDE3E9"/>
<g opacity="0.7">
<g opacity="0.7">
<path opacity="0.7" d="M66.8829 77.1933C75.5112 77.1933 82.5058 73.2464 82.5058 68.3778C82.5058 63.5091 75.5112 59.5623 66.8829 59.5623C58.2546 59.5623 51.26 63.5091 51.26 68.3778C51.26 73.2464 58.2546 77.1933 66.8829 77.1933Z" fill="#F2F2F2"/>
<path opacity="0.7" fill-rule="evenodd" clip-rule="evenodd" d="M85.0789 74.4506C85.0789 63.6314 76.9323 54.8606 66.8828 54.8606C56.8334 54.8606 48.6868 63.6314 48.6868 74.4506" fill="#DDE3E9"/>
</g>
<path opacity="0.7" d="M68.3583 0H65.8994V66.0269H68.3583V0Z" fill="#DDE3E9"/>
</g>
<path d="M279.334 113.72L288.466 104.699C290.002 103.182 292.493 103.182 294.03 104.698C294.03 104.698 294.03 104.699 294.031 104.699L318.341 128.71C319.816 130.167 320.644 132.142 320.644 134.202V293.237" stroke="#CBCBCB" stroke-width="8"/>
<path d="M333.431 292.752H307.366C306.551 292.752 305.891 293.404 305.891 294.208V294.694C305.891 295.498 306.551 296.15 307.366 296.15H333.431C334.245 296.15 334.906 295.498 334.906 294.694V294.208C334.906 293.404 334.245 292.752 333.431 292.752Z" fill="#AFB9C5"/>
<path fill-rule="evenodd" clip-rule="evenodd" d="M284.826 108.427C291.164 114.684 291.164 124.828 284.826 131.085L275.089 140.697L252.138 118.039L261.875 108.427C268.213 102.17 278.488 102.17 284.826 108.427Z" fill="#C5CFD6"/>
<path d="M261.742 131.339C268.079 137.595 274.229 141.668 275.477 140.436C276.726 139.203 272.6 133.132 266.262 126.876C259.924 120.619 253.775 116.546 252.526 117.778C251.278 119.011 255.404 125.082 261.742 131.339Z" fill="#F2F2F2"/>
<path fill-rule="evenodd" clip-rule="evenodd" d="M23.2408 180.687C24.6495 180.517 26.1531 180.577 27.4632 181.126C30.249 182.294 31.0409 185.542 31.0027 188.183C30.9615 191.026 30.3501 194.13 32.539 196.42C33.5452 197.473 34.7969 198.279 35.785 199.351C36.8407 200.497 37.6691 201.808 38.2824 203.216C39.4086 205.802 39.9614 208.843 38.9316 211.555C38.0248 213.944 35.7435 216.099 36.2364 218.815C36.7506 221.648 39.6439 223.814 41.4528 225.924C43.5 228.312 45.3849 231.364 45.6945 234.496C45.9914 237.497 44.6681 240.532 42.6372 242.801C38.5794 247.334 32.48 249.557 26.33 249.543C23.7188 249.537 20.7624 249.42 18.5091 248.035C17.8127 247.607 17.4452 247.127 17.0312 246.459C16.66 245.86 16.1697 245.471 15.6021 245.047C14.3551 244.116 13.4546 242.862 12.8799 241.458C10.6482 236.004 12.4319 229.258 15.5557 224.415C16.2959 223.268 16.902 222.164 16.5424 220.796C16.1671 219.369 15.2448 218.081 14.4291 216.854C13.623 215.641 12.7027 214.484 12.0727 213.173C11.4128 211.799 11.227 210.361 11.3436 208.858C11.5627 206.034 12.7976 203.428 14.5458 201.157C16.2297 198.969 18.2069 196.876 18.2113 194.01C18.2162 190.972 16.1589 188.269 17.0354 185.181C17.3983 183.902 18.1272 182.59 19.3018 181.823C20.4284 181.087 21.9158 180.847 23.2408 180.687Z" fill="#DDE3E9"/>
<path fill-rule="evenodd" clip-rule="evenodd" d="M22.3204 185.544C22.3468 185.136 22.837 184.891 23.223 184.997C23.731 185.138 23.7212 185.606 23.7078 186.024C23.6667 187.307 23.8548 188.554 24.1673 189.799C24.8167 192.388 26.0169 194.773 26.9678 197.259C27.9178 199.744 28.3638 202.309 27.8064 204.938C27.281 207.417 26.4556 209.831 25.9179 212.313C25.444 214.501 24.9397 216.808 25.6614 218.989C26.3559 221.09 27.8914 222.8 28.997 224.698C31.2858 228.627 32.3012 232.986 32.437 237.471C32.5 239.554 32.4433 241.656 31.9538 243.699C31.6721 244.875 31.2935 246.465 30.2724 247.277C29.8016 247.652 28.9963 247.781 28.6 247.227C28.228 246.707 28.5543 245.901 28.6725 245.347C29.184 242.947 29.2869 240.494 29.1644 238.057C29.0459 235.697 28.7634 233.34 28.0108 231.086C27.3124 228.993 26.2513 227.114 25.0024 225.284C23.7298 223.419 22.4069 221.55 21.881 219.34C21.3468 217.096 21.7808 214.812 22.3612 212.61C22.9749 210.282 23.7788 208.02 24.6099 205.754C25.4198 203.546 25.7069 201.458 25.2598 199.147C24.3765 194.582 22.0123 190.297 22.3204 185.544Z" fill="#C5CFD6"/>
<path fill-rule="evenodd" clip-rule="evenodd" d="M60.4366 186.226C62.1799 186.749 63.9113 187.592 65.1541 188.914C67.7965 191.725 66.9857 195.974 65.527 199.078C63.9569 202.418 61.5775 205.775 62.9188 209.608C63.5353 211.37 64.572 212.966 65.1568 214.741C65.7816 216.638 66.0513 218.614 66.0169 220.594C65.9533 224.231 64.9734 228.111 62.3131 230.79C59.9709 233.149 56.141 234.526 55.2651 237.991C54.3513 241.606 56.5852 245.653 57.5771 249.078C58.6996 252.953 59.2763 257.531 57.9627 261.393C56.7041 265.095 53.5268 268.005 49.93 269.645C42.7436 272.922 34.3997 272.418 27.1936 269.243C24.1342 267.895 20.729 266.239 18.8277 263.444C18.2401 262.58 18.0664 261.823 17.9383 260.821C17.8235 259.922 17.4569 259.209 17.0181 258.417C16.0538 256.676 15.6691 254.73 15.7468 252.774C16.0491 245.179 21.7534 238.116 28.0102 233.993C29.4927 233.017 30.7946 232.022 31.1051 230.22C31.4293 228.339 31.0369 226.343 30.7371 224.473C30.441 222.625 29.9811 220.784 29.9442 218.909C29.9057 216.946 30.4579 215.149 31.3996 213.431C33.1685 210.204 36.0121 207.757 39.2786 205.969C42.4249 204.246 45.8646 202.786 47.4045 199.399C49.0368 195.809 48.0707 191.556 50.7523 188.354C51.8627 187.028 53.4202 185.85 55.2085 185.547C56.9236 185.255 58.7971 185.735 60.4366 186.226Z" fill="#DDE3E9"/>
<path fill-rule="evenodd" clip-rule="evenodd" d="M56.8757 192.163C57.1231 191.694 57.8261 191.657 58.2209 191.983C58.7405 192.412 58.4805 192.962 58.2434 193.449C57.5145 194.948 57.0729 196.522 56.7778 198.158C56.1638 201.56 56.3019 205.005 56.0946 208.442C55.8874 211.876 55.048 215.144 53.0016 217.969C51.0722 220.633 48.8261 223.065 46.8807 225.726C45.1661 228.071 43.3526 230.542 43.039 233.499C42.7369 236.346 43.6248 239.166 43.9108 241.986C44.5027 247.823 43.3776 253.51 41.1568 258.892C40.1254 261.391 38.944 263.851 37.2878 266.017C36.3344 267.265 35.0483 268.951 33.4235 269.385C32.6743 269.585 31.6639 269.321 31.4948 268.459C31.3357 267.651 32.1446 266.866 32.5768 266.271C34.4482 263.693 35.8697 260.842 37.0194 257.893C38.1331 255.036 39.0529 252.099 39.369 249.04C39.6621 246.201 39.4183 243.426 38.9289 240.613C38.4303 237.746 37.8749 234.848 38.4325 231.959C38.9985 229.024 40.7176 226.544 42.5642 224.237C44.5173 221.797 46.6572 219.535 48.831 217.282C50.9492 215.086 52.393 212.761 53.096 209.794C54.485 203.931 53.9936 197.633 56.8757 192.163Z" fill="#C5CFD6"/>
<path fill-rule="evenodd" clip-rule="evenodd" d="M6.54369 207.791C9.44242 207.791 11.9909 209.308 13.7469 211.46C15.8025 213.98 16.2177 217.057 17.0524 220.06C17.4678 221.555 18.1822 223.038 19.4341 224.054C20.5727 224.977 22.0183 225.162 23.3812 225.613C26.1051 226.515 28.3046 228.687 29.1732 231.337C30.2329 234.57 29.1105 237.83 29.3037 241.106C29.4812 244.115 32.4862 245.992 34.9039 247.434C37.2879 248.856 39.4356 250.188 40.1536 252.958C40.9151 255.897 41.1705 259.177 40.1159 262.08C38.36 266.913 33.2214 269.042 28.2561 269.372C23.7499 269.671 18.0839 269.201 14.6998 265.972C12.6748 264.04 11.9415 261.337 12.0325 258.648C12.089 256.976 12.4245 255.32 12.8582 253.704C13.1657 252.559 13.581 251.419 13.6993 250.236C14.0139 247.087 11.0665 246.483 8.55755 245.618C5.36947 244.52 3.13753 242.445 1.58551 239.554C0.14016 236.863 -0.466279 233.841 0.400167 230.878C0.842688 229.365 1.64532 227.992 2.73384 226.824C3.21302 226.31 3.88838 225.882 4.32087 225.342C4.72455 224.837 4.63667 224.184 4.49755 223.593C3.85428 220.865 1.85008 218.606 1.13333 215.883C0.486228 213.425 0.868762 210.366 3.14519 208.78C4.12869 208.095 5.34157 207.798 6.54369 207.791Z" fill="#C5CFD6"/>
<path fill-rule="evenodd" clip-rule="evenodd" d="M10.4935 214.899C13.5658 218.13 14.4009 222.513 14.646 226.762C14.7833 229.144 14.6404 231.657 15.3494 233.968C15.9561 235.946 17.3783 237.458 18.8443 238.887C21.7953 241.763 25.0863 244.687 25.9494 248.85C26.4559 251.294 26.114 253.817 26.8138 256.233C27.4501 258.429 28.5705 260.587 29.9332 262.442C31.0304 263.935 32.4598 265.079 33.6592 266.471C34.0251 266.896 34.5493 267.521 34.3983 268.121C34.2215 268.824 33.315 269.046 32.6718 268.936C31.1722 268.679 29.9099 267.265 28.9293 266.237C27.4955 264.734 26.2772 263.118 25.2869 261.305C24.1875 259.291 23.3023 257.155 22.9241 254.896C22.5316 252.552 22.727 250.11 21.8307 247.861C20.3226 244.076 16.6646 241.843 14.0198 238.893C10.7246 235.218 11.2161 230.643 11.5536 226.122C11.739 223.638 11.9233 220.832 10.6516 218.563C10.1661 217.698 9.08374 216.89 8.87501 215.906C8.68383 215.004 9.72729 214.093 10.4935 214.899Z" fill="#AFB9C5"/>
<path fill-rule="evenodd" clip-rule="evenodd" d="M13.77 267.992C13.7702 286.469 16.8246 296.15 32.9497 296.15C49.0748 296.15 52.1292 286.469 52.1293 267.992H13.77Z" fill="#89C5CC"/>
<path fill-rule="evenodd" clip-rule="evenodd" d="M264.276 159.343C268.62 169.533 276.004 176.613 279.915 187.208C282.234 193.492 283.201 200.324 283.26 207.321C283.291 211.121 283.224 214.924 283.206 218.725C283.189 222.431 283.087 226.114 282.768 229.796C282.448 233.498 282.089 237.157 281.931 240.881C281.808 243.784 281.752 247.16 280.755 249.807C279.963 251.913 277.949 252.221 277.414 249.668C277.117 248.248 277.155 246.663 277.187 245.204C277.229 243.333 277.34 241.464 277.396 239.592C277.622 232.083 277.329 224.572 277.482 217.06C277.632 209.72 278.587 202.388 277.53 195.097C276.657 189.076 274.438 183.906 271.889 178.949C269.436 174.18 266.766 169.528 265.109 164.103C264.633 162.546 264.265 160.931 264.088 159.256C264.166 159.221 264.228 159.249 264.276 159.343Z" fill="#C1DEE2"/>
<path fill-rule="evenodd" clip-rule="evenodd" d="M263.092 179.446C263.952 180.059 264.433 180.956 265.014 181.841C265.737 182.942 266.587 183.935 267.31 185.036C268.817 187.332 270.141 189.768 271.515 192.157C274.124 196.691 276.104 201.523 277.085 206.769C278.102 212.205 278.376 217.815 278.803 223.332C279.255 229.18 279.71 235.07 279.77 240.939C279.797 243.569 279.941 246.361 279.621 248.972C279.422 250.598 278.679 251.983 277.004 251.97C273.445 251.942 271.774 248.051 271.076 244.86C270.048 240.161 269.843 235.169 270.006 230.363C270.203 224.568 271.221 218.861 271.662 213.088C272.129 206.977 271.866 200.974 269.737 195.221C268.662 192.313 267.414 189.475 266.294 186.587C265.817 185.357 265.426 184.094 264.782 182.949C264.065 181.675 263.175 180.519 262.613 179.147C262.773 179.247 262.933 179.346 263.092 179.446Z" fill="#89C5CC"/>
<path fill-rule="evenodd" clip-rule="evenodd" d="M304.088 167.261C304.197 167.177 304.306 167.093 304.415 167.009C304.101 168.317 303.533 169.378 303.099 170.573C302.709 171.648 302.511 172.863 302.249 174.038C301.632 176.796 300.919 179.492 300.336 182.273C299.182 187.777 299.401 193.707 300.157 199.813C300.872 205.581 302.002 211.341 302.54 217.108C302.986 221.891 303.178 226.823 302.753 231.386C302.463 234.485 301.515 238.185 298.931 237.873C297.714 237.725 297.08 236.28 296.824 234.648C296.413 232.027 296.327 229.272 296.167 226.665C295.81 220.848 295.739 215.049 295.668 209.292C295.602 203.86 295.418 198.321 295.785 193.025C296.14 187.916 297.249 183.312 298.835 179.064C299.67 176.826 300.466 174.535 301.404 172.402C301.854 171.379 302.404 170.475 302.854 169.453C303.217 168.63 303.505 167.787 304.088 167.261Z" fill="#C1DEE2"/>
<path fill-rule="evenodd" clip-rule="evenodd" d="M264.191 196.285C264.662 195.505 265.698 198.078 265.855 198.401C265.789 198.24 265.722 198.079 265.654 197.919C266.588 199.452 267.443 201.048 267.974 202.807C268.5 204.547 268.951 206.323 269.445 208.076C270.37 211.364 271.564 214.56 272.403 217.878C273.22 221.112 273.426 224.29 273.228 227.635C273.023 231.111 272.897 234.641 273.137 238.115C273.251 239.775 273.798 241.321 274.172 242.918C274.547 244.517 274.842 246.138 275.285 247.717C275.387 247.511 275.4 248.199 275.399 248.251C275.397 248.646 275.341 248.977 275.212 249.351C274.882 250.313 274.264 251.13 273.323 251.395C271.623 251.875 270.045 250.348 269.497 248.737C268.71 246.424 268.277 243.868 267.902 241.437C267.559 239.208 267.477 236.966 267.58 234.706C267.781 230.25 268.598 225.852 268.819 221.397C269.059 216.547 268.086 211.99 267.271 207.269C266.878 204.994 266.503 202.74 265.739 200.573C265.43 199.696 265.026 198.921 264.604 198.111C264.363 197.65 263.876 196.827 264.191 196.285Z" fill="#C1DEE2"/>
<path fill-rule="evenodd" clip-rule="evenodd" d="M277.983 188.709C277.788 194.266 277.452 199.78 276.701 205.278C275.935 210.888 275.056 216.48 274.319 222.095C273.602 227.561 272.85 233.118 272.95 238.66C273.024 242.743 272.338 249.649 276.931 251.664C281.583 253.705 282.58 244.991 282.886 242.115C283.471 236.596 283.282 231.02 282.998 225.472C282.706 219.777 282.219 214.112 281.616 208.438C280.946 202.136 280.42 195.806 279.998 189.486C279.789 186.36 279.738 183.239 279.795 180.112C279.85 177.161 279.736 174.18 278.673 171.379C278.618 171.419 278.562 171.459 278.507 171.498" fill="#69A1AC"/>
<path fill-rule="evenodd" clip-rule="evenodd" d="M301.997 206.312C301.16 207.516 300.317 208.707 299.527 209.981C298.113 212.261 296.835 214.797 296.451 218.057C295.646 224.88 296.291 232.249 296.447 239.281C296.479 240.718 296.295 242.112 296.869 243.479C297.389 244.719 298.361 245.664 299.288 245.659C301.273 245.648 300.97 240.85 300.973 238.739C300.979 235.038 300.559 231.299 300.595 227.602C300.631 223.938 300.857 220.265 301.395 216.786C301.94 213.264 302.737 209.883 303.79 206.727C303.936 206.289 304.985 202.905 303.994 203.489" fill="#89C5CC"/>
<path fill-rule="evenodd" clip-rule="evenodd" d="M293.233 169.922C291.928 169.922 291.936 176.343 291.897 177.168C291.755 180.144 291.788 183.122 291.699 186.099C291.502 192.595 291.261 199.149 290.273 205.57C289.741 209.027 289.124 212.469 288.46 215.899C287.794 219.34 286.901 222.776 286.463 226.26C286.043 229.61 286.28 233.025 286.338 236.391C286.395 239.777 286.499 243.17 286.948 246.527C287.059 247.355 287.189 248.181 287.328 249.005C287.444 249.691 287.377 250.542 287.573 251.194C287.887 252.239 289.235 252.58 290.142 252.417C292.597 251.975 294.166 248.931 295.005 246.707C296.076 243.868 296.644 240.788 297.205 237.796C297.84 234.406 298.213 230.964 298.387 227.513C298.742 220.498 298.287 213.477 297.778 206.485C297.495 202.596 297.168 198.725 296.667 194.86C296.169 191.012 295.529 187.182 295.113 183.322C294.811 180.518 294.513 177.71 294.317 174.894C294.27 174.223 294.23 169.922 293.233 169.922Z" fill="#69A1AC"/>
<path fill-rule="evenodd" clip-rule="evenodd" d="M291.6 216.597C291.387 209.855 288.642 180.243 288.017 172.091C287.861 170.051 286.358 161.555 286.163 159.241C285.634 159.895 285.679 170.073 285.685 172.411C285.691 174.724 285.4 176.999 285.251 179.3C285.098 181.647 281.583 211.966 281.127 214.222C280.219 218.71 279.611 223.315 279.143 227.903C278.686 232.376 277.977 237.094 278.588 241.59C278.728 242.625 278.95 243.643 279.312 244.594C279.703 245.621 279.97 246.571 280.284 247.646C280.789 249.378 281.702 250.897 283.105 251.612C285.982 253.078 287.526 249.76 288.309 246.871C289.56 242.258 290.363 237.57 290.739 232.725C291.155 227.365 291.77 221.994 291.6 216.597Z" fill="#89C5CC"/>
<path d="M304.907 236.435H262.122C261.579 236.435 261.138 236.869 261.138 237.406V279.643C261.138 280.18 261.579 280.614 262.122 280.614H304.907C305.45 280.614 305.891 280.18 305.891 279.643V237.406C305.891 236.869 305.45 236.435 304.907 236.435Z" fill="white"/>
<path d="M260.155 241.29H257.204C256.661 241.29 256.22 241.724 256.22 242.261V295.179C256.22 295.715 256.661 296.15 257.204 296.15H260.155C260.698 296.15 261.138 295.715 261.138 295.179V242.261C261.138 241.724 260.698 241.29 260.155 241.29Z" fill="#C5CFD6"/>
<path d="M284.744 241.29H281.793C281.25 241.29 280.81 241.724 280.81 242.261V295.179C280.81 295.715 281.25 296.15 281.793 296.15H284.744C285.287 296.15 285.727 295.715 285.727 295.179V242.261C285.727 241.724 285.287 241.29 284.744 241.29Z" fill="#C5CFD6"/>
<path d="M309.825 241.29H306.874C306.331 241.29 305.891 241.724 305.891 242.261V295.179C305.891 295.715 306.331 296.15 306.874 296.15H309.825C310.368 296.15 310.808 295.715 310.808 295.179V242.261C310.808 241.724 310.368 241.29 309.825 241.29Z" fill="#C5CFD6"/>
<path fill-rule="evenodd" clip-rule="evenodd" d="M110.8 185.329C108.409 182.559 106.791 179.164 107.061 175.359C107.841 164.398 123.297 166.809 126.304 172.342C129.311 177.874 128.953 191.908 125.068 192.897C123.518 193.291 120.217 192.325 116.857 190.326L118.966 205.055H106.513L110.8 185.329Z" fill="#B28B67"/>
<path fill-rule="evenodd" clip-rule="evenodd" d="M131.821 164.672C131.563 163.777 130.87 163.011 129.935 162.784C129.708 162.729 129.474 162.706 129.241 162.716C129.157 162.719 129.134 162.743 129.095 162.685C129.066 162.642 129.065 162.538 129.053 162.487C129.016 162.331 128.97 162.176 128.912 162.026C128.717 161.512 128.388 161.058 127.992 160.675C127.251 159.959 126.249 159.465 125.209 159.375C124.639 159.326 124.074 159.418 123.536 159.601C123.257 159.695 122.987 159.813 122.724 159.944C122.645 159.983 122.387 160.175 122.308 160.162C122.22 160.149 122.044 159.933 121.972 159.879C121.089 159.21 119.999 158.948 118.9 158.956C117.659 158.965 116.463 159.026 115.428 159.773C115.209 159.931 115.001 160.104 114.802 160.286C114.697 160.382 114.596 160.482 114.499 160.586C114.441 160.648 114.384 160.712 114.329 160.778C114.237 160.889 114.252 160.926 114.122 160.848C113.624 160.549 113.046 160.41 112.465 160.48C112.12 160.522 111.784 160.624 111.465 160.759C111.356 160.805 111.105 160.988 110.989 160.99C110.874 160.991 110.626 160.822 110.508 160.779C109.869 160.546 109.181 160.489 108.509 160.596C107.817 160.707 107.136 160.98 106.549 161.357C106.267 161.538 106.021 161.739 105.823 162.009C105.738 162.125 105.66 162.248 105.564 162.356C105.507 162.42 105.395 162.484 105.364 162.564C105.382 162.517 104.607 162.221 104.534 162.202C104.144 162.102 103.747 162.122 103.365 162.246C102.647 162.48 102.029 163.003 101.522 163.539C101.261 163.815 101.033 164.119 100.839 164.444C100.746 164.599 100.662 164.759 100.584 164.922C100.546 165.001 100.521 165.1 100.472 165.171C100.408 165.263 100.365 165.265 100.249 165.305C99.6616 165.508 99.1259 165.852 98.7179 166.317C98.3053 166.787 98.0375 167.366 97.9253 167.976C97.9187 168.012 97.9147 168.161 97.8934 168.181C97.8642 168.207 97.746 168.196 97.7013 168.201C97.5465 168.219 97.3928 168.245 97.2412 168.281C96.9616 168.346 96.6894 168.442 96.432 168.568C95.4285 169.058 94.7109 169.977 94.3597 171.011C93.9912 172.096 93.9977 173.339 94.4382 174.404C94.5093 174.576 94.594 174.743 94.6934 174.901C94.7545 174.998 94.7742 174.998 94.7345 175.1C94.6903 175.213 94.6096 175.323 94.5571 175.434C94.386 175.794 94.2663 176.177 94.1907 176.568C94.0667 177.209 94.0052 177.883 94.1275 178.529C94.1844 178.829 94.2833 179.122 94.4344 179.389C94.5113 179.526 94.6014 179.655 94.7032 179.774C94.756 179.836 94.8121 179.896 94.8707 179.953C94.9043 179.985 94.9483 180.013 94.9768 180.05C95.0464 180.138 95.0611 180.065 95.0252 180.195C94.975 180.376 94.8611 180.555 94.7914 180.732C94.7196 180.914 94.6547 181.098 94.5953 181.284C94.475 181.661 94.3733 182.045 94.3097 182.435C94.1876 183.185 94.2091 183.983 94.5682 184.671C94.7217 184.965 94.942 185.223 95.2092 185.424C95.3399 185.522 95.4816 185.607 95.6302 185.677C95.7065 185.712 95.804 185.728 95.8388 185.801C95.8763 185.879 95.8207 186.035 95.808 186.122C95.6975 186.885 95.6422 187.685 95.8717 188.432C96.0831 189.12 96.5486 189.728 97.153 190.13C98.3254 190.91 99.9058 190.866 101.138 190.241C101.459 190.079 101.759 189.876 102.027 189.638C102.71 190.545 104.114 190.516 105.111 190.258C106.354 189.936 107.351 189.083 107.925 187.962C108.711 188.906 110.359 188.6 110.904 187.576C111.037 187.325 111.116 187.049 111.155 186.769C111.176 186.622 111.163 186.474 111.178 186.328C111.198 186.143 111.324 185.962 111.396 185.782C111.537 185.432 111.624 185.071 111.628 184.694C111.63 184.497 111.604 184.305 111.585 184.109C111.568 183.933 111.618 183.769 111.646 183.596C111.327 183.647 110.939 183.563 110.639 183.471C110.344 183.382 110.068 183.146 109.86 182.931C109.377 182.431 109.082 181.775 108.881 181.123C108.438 179.691 108.619 177.973 110.078 177.188C110.758 176.822 112.793 176.823 113.603 177.004C114.454 177.194 115.419 179.048 115.466 179.222C115.496 179.33 115.481 179.463 115.581 179.535C115.802 179.693 116.165 179.419 116.328 179.284C116.609 179.05 116.809 178.739 116.982 178.424C117.36 177.738 117.665 177.002 117.88 176.251C118.046 175.672 118.152 175.075 118.369 174.51C118.585 173.949 118.925 173.447 119.454 173.128C120.029 172.782 120.688 172.6 121.32 172.383C121.946 172.167 122.561 171.904 123.046 171.446C123.153 171.346 123.257 171.239 123.343 171.12C123.41 171.027 123.477 170.848 123.581 170.789C123.741 170.696 123.976 170.936 124.114 171.023C124.8 171.453 125.371 172.052 125.832 172.706C126.291 173.357 126.667 173.984 126.972 174.71C127.199 175.249 127.341 175.94 127.74 176.382C127.918 176.579 129.241 176.698 129.67 176.526C130.098 176.354 130.579 175.907 130.722 175.626C130.87 175.34 130.905 175.024 130.842 174.71C130.805 174.526 130.729 174.353 130.688 174.172C130.653 174.019 130.622 173.875 130.546 173.736C130.404 173.471 130.161 173.281 129.867 173.201C130.173 172.923 130.426 172.591 130.601 172.219C130.783 171.833 130.937 171.363 130.981 170.939C131.016 170.595 130.961 170.239 130.77 169.943C130.57 169.632 130.215 169.43 129.908 169.236C130.377 168.874 130.779 168.434 131.109 167.946C131.75 166.998 132.147 165.803 131.821 164.672Z" fill="#191847"/>
<path fill-rule="evenodd" clip-rule="evenodd" d="M102.368 247.58L127.316 312.748L144.802 360.78H154.773L130.736 247.58L102.368 247.58Z" fill="#1F28CF"/>
<path fill-rule="evenodd" clip-rule="evenodd" d="M96.2023 247.58C95.9312 269.941 96.1272 300.045 95.4954 301.439C95.0741 302.368 81.9723 312.956 56.1899 333.201L61.3292 341.828C91.9388 322.341 108.026 311.3 109.591 308.703C111.938 304.809 123.732 268.972 129.867 247.58H96.2023Z" fill="#2B44FF"/>
<path fill-rule="evenodd" clip-rule="evenodd" d="M47.1483 339.006L55.8286 332.485L62.8324 340.725C63.3712 346.937 65.4545 353.903 69.0825 361.625L67.4927 362.942L54.8191 348.031L51.2784 342.272L50.4835 342.93L47.1483 339.006Z" fill="#191847"/>
<path fill-rule="evenodd" clip-rule="evenodd" d="M143.876 370L144.395 359.243H155.291C160.458 362.829 167.203 365.731 175.527 367.951V370H155.81L149.065 368.976V370H143.876Z" fill="#191847"/>
<path fill-rule="evenodd" clip-rule="evenodd" d="M146.988 227.244L167.474 224.486C171.572 222.236 175.342 220.712 178.784 219.916C179.753 219.888 181.293 220.235 178.998 222.124C176.703 224.014 174.374 226.103 174.783 227.112C175.191 228.12 177.326 227.745 177.68 229.295C177.916 230.329 174.451 230.497 167.286 229.799L150.664 236.305L146.988 227.244ZM82.6344 231.925L93.996 231.968C81.5377 259.645 75.0418 274.136 74.5082 275.441C73.3076 278.379 75.8482 282.852 76.9347 285.256C73.3961 286.819 73.7731 281.03 69.3092 283.08C65.2348 284.952 62.1354 288.342 57.428 285.475C56.8493 285.122 56.215 283.795 57.7474 282.758C61.565 280.174 67.0664 275.651 67.8097 274.162C68.8234 272.132 73.765 258.053 82.6344 231.925Z" fill="#997659"/>
<path fill-rule="evenodd" clip-rule="evenodd" d="M113.755 196.352L122.651 196.937C124.842 216.504 136.775 228.864 163.494 224.68L167.043 249.878C142.071 253.064 120.17 243.194 115.682 216.471C114.52 209.553 113.603 202.354 113.755 196.352Z" fill="#AFB9C5"/>
<path fill-rule="evenodd" clip-rule="evenodd" d="M109.366 193.799L122.845 196.847C122.845 219.732 130.229 234.333 134.017 251.159H97.6157C97.1029 256.973 96.788 262.949 96.624 269.087H69.3682C75.5445 236.645 88.5806 211.547 108.477 193.791H109.359L109.366 193.799Z" fill="#C5CFD6"/>
<path fill-rule="evenodd" clip-rule="evenodd" d="M103.359 218.51C102.421 232.771 102.972 243.654 105.014 251.159H97.6157C98.6315 239.642 100.424 228.759 103.359 218.51L103.359 218.51Z" fill="black" fill-opacity="0.1"/>
<path fill-rule="evenodd" clip-rule="evenodd" d="M414.671 57.3322C417.738 53.7788 419.813 49.4239 419.467 44.5442C418.467 30.4844 398.642 33.5774 394.785 40.6736C390.929 47.7698 391.387 65.7698 396.371 67.0381C398.359 67.5439 402.593 66.3049 406.903 63.7406L404.198 82.6326H420.17L414.671 57.3322Z" fill="#B28B67"/>
<path fill-rule="evenodd" clip-rule="evenodd" d="M406.105 46.097C405.493 54.5045 403.876 58.7083 401.253 58.7083C397.318 58.7083 393.979 56.2422 392.253 56.2422C390.994 56.2422 391.275 57.7971 392.109 58.95C392.798 59.9011 396.15 60.8179 396.15 62.2924C396.15 63.767 393.501 62.6262 393.501 63.5007C393.501 64.9473 393.036 67.6672 395.579 67.6672C398.153 67.6672 405.533 66.7412 406.797 62.97C407.614 60.5362 408.141 55.4929 408.38 47.8402C408.537 47.8219 408.696 47.8124 408.857 47.8124C411.062 47.8124 412.85 49.5773 412.85 51.7543C412.85 52.8595 412.389 53.8585 411.647 54.5743C412.571 55.8617 413.606 57.2066 414.793 58.5943C419.25 55.9542 422.558 48.2257 418.2 40.8013C416.995 37.1642 414.268 35.2215 411.048 34.3194C408.439 33.2421 405.731 33.1206 403.445 33.7665C398.963 34.1459 394.962 35.495 393.828 36.2961C393.828 40.4845 394.65 41.7272 401.671 41.6177C403.397 42.5172 404.723 44.0662 406.105 46.097Z" fill="#191847"/>
<path fill-rule="evenodd" clip-rule="evenodd" d="M425.494 137.162L401.366 220.749L383.763 282.356H370.923L389.63 137.162H425.494Z" fill="#191847"/>
<path fill-rule="evenodd" clip-rule="evenodd" d="M431.947 137.162C432.505 180.244 434.408 203.741 434.994 207.655C435.58 211.57 444.44 236.47 461.574 282.356H448.273C426.46 238.336 414.284 213.436 411.744 207.655C409.203 201.875 401.364 178.377 389.557 137.162H431.947Z" fill="#2F3676"/>
<path fill-rule="evenodd" clip-rule="evenodd" d="M462.762 294.182L462.097 280.385H448.121C441.494 284.984 432.843 288.707 422.167 291.554V294.182H447.456L456.107 292.868V294.182H462.762Z" fill="#191847"/>
<path fill-rule="evenodd" clip-rule="evenodd" d="M385.564 294.182L384.898 280.385H370.923C364.296 284.984 355.645 288.707 344.968 291.554V294.182H370.257L378.909 292.868V294.182H385.564Z" fill="#191847"/>
<path fill-rule="evenodd" clip-rule="evenodd" d="M369.353 126.394L349.264 143.208C343.629 145.134 338.965 147.369 335.273 149.912C334.421 150.794 333.438 152.528 337.193 151.981C340.948 151.434 344.922 151.025 345.533 152.26C346.144 153.495 343.967 155.173 345.141 156.816C345.924 157.911 349.038 154.814 354.481 147.527L374.844 137.495L369.353 126.394ZM460.322 119.119L448.535 120.809C461.187 147.909 467.97 162.241 468.884 163.805C470.94 167.325 468.522 173.454 467.577 176.699C472.354 178.061 470.828 170.775 476.869 172.592C482.382 174.251 486.932 178.011 492.393 173.54C493.064 172.99 493.63 171.192 491.496 170.145C486.18 167.535 478.374 162.76 477.161 161C475.506 158.6 469.893 144.64 460.322 119.119Z" fill="#B28B67"/>
<path fill-rule="evenodd" clip-rule="evenodd" d="M411.056 71.6821L403.752 69.2976C393.845 93.731 379.069 117.372 354.381 137.34L360.486 147.738C382.183 135.12 402.722 125.319 411.056 106.386C413.853 100.031 411.284 79.2801 411.056 71.6821Z" fill="#C5CFD6"/>
<path fill-rule="evenodd" clip-rule="evenodd" d="M436.142 140.447C415.22 142.637 398.752 142.637 386.738 140.447C385.249 140.176 385.014 137.716 385.705 136.046C396.454 110.045 403.825 87.3575 403.825 69.2976C405.797 70.2792 409.249 70.4264 414.181 69.7389C427.433 88.3502 433.525 109.704 436.142 140.447Z" fill="#323337"/>
<path fill-rule="evenodd" clip-rule="evenodd" d="M417.475 68.179H411.952C410.666 75.6456 406.61 176.754 394.088 209.829H461.84C460.371 179.53 448.784 143.133 437.047 112.676C447.426 122.051 456.472 137.938 464.185 160.336L476.875 157.12C467.44 116.981 448.039 87.4779 418.675 68.612C418.611 68.467 418.548 68.3227 418.485 68.179H417.996C417.816 68.065 417.636 67.9514 417.456 67.8383L417.475 68.179Z" fill="#DDE3E9"/>
</svg>
